<?xml version="1.0" encoding="utf-8"?>
<!-- Generator: Adobe Illustrator 27.0.1, SVG Export Plug-In . SVG Version: 6.00 Build 0)  -->
<svg version="1.1" id="Layer_1" xmlns="http://www.w3.org/2000/svg" xmlns:xlink="http://www.w3.org/1999/xlink" x="0px" y="0px"
	 viewBox="0 0 702 426" style="enable-background:new 0 0 702 426;" xml:space="preserve">
<style type="text/css">
	.st0{clip-path:url(#SVGID_00000119116363997060828700000013017889362558024615_);}
	.st1{fill:#FFFFFF;fill-opacity:0.2;}
	.st2{fill:#FFFFFF;fill-opacity:0.15;}
	.st3{opacity:0.7;}
	.st4{fill:#FFFFFF;}
	.st5{fill:none;}
	.st6{enable-background:new    ;}
	.st7{fill-opacity:0.15;}
	.st8{opacity:0.5;clip-path:url(#SVGID_00000054264046032004635740000013537221555751404960_);}
	.st9{opacity:0.1;fill:none;stroke:#FFFFFF;enable-background:new    ;}
	.st10{fill:none;stroke:#3BC9D0;}
	.st11{fill:#3BC9D0;}
	.st12{clip-path:url(#SVGID_00000003071761109422031610000015086593848135945638_);}
	.st13{fill-rule:evenodd;clip-rule:evenodd;fill:#FFFFFF;}
	.st14{clip-path:url(#SVGID_00000109750490225775742710000009404911192990031001_);}
	.st15{clip-path:url(#SVGID_00000147926639691954640690000012601104770249792947_);}
	.st16{opacity:0.4;}
	.st17{clip-path:url(#SVGID_00000029748690179638420340000011914333336634786749_);}
	.st18{fill:#3BC9D0;fill-opacity:0.2;}
	.st19{opacity:0.5;}
	.st20{clip-path:url(#SVGID_00000003818878894775778630000003128957562030683549_);}
</style>
<g>
	<g>
		<g>
			<g>
				<defs>
					<rect id="SVGID_1_" width="702" height="426"/>
				</defs>
				<clipPath id="SVGID_00000047045714771372873160000010447201943401969042_">
					<use xlink:href="#SVGID_1_"  style="overflow:visible;"/>
				</clipPath>
				<g style="clip-path:url(#SVGID_00000047045714771372873160000010447201943401969042_);">
					<path class="st1" d="M136.9,33.8H701v0.3H136.9V33.8z"/>
					<path class="st2" d="M0,0h693.5c4.7,0,8.5,0.2,8.5,0.5v30.8c0,0.3-3.8,0.5-8.5,0.5H0V0z"/>
					<g class="st3">
						<path class="st4" d="M673,17.8c0.2,0,0.3-0.1,0.4-0.2l3.3-3.4c0.1-0.1,0.1-0.2,0.1-0.4c0-0.3-0.2-0.5-0.5-0.5
							c-0.1,0-0.3,0.1-0.4,0.2l-3,3l-3-3c-0.1-0.1-0.2-0.2-0.4-0.2c-0.3,0-0.5,0.2-0.5,0.5c0,0.1,0.1,0.3,0.1,0.4l3.3,3.4
							C672.8,17.7,672.9,17.8,673,17.8z"/>
						<rect x="630.2" y="10.9" class="st5" width="33.2" height="8.6"/>
						<g class="st6">
							<path class="st4" d="M635.1,16.7h-3l-0.6,1.5h-1l2.5-6.9h1l2.5,6.9h-1L635.1,16.7z M634.8,16l-1.3-3.5l-1.3,3.5H634.8z"/>
							<path class="st4" d="M637.7,14c0.2-0.4,0.5-0.8,0.9-1s0.8-0.4,1.3-0.4c0.4,0,0.8,0.1,1.2,0.3s0.6,0.5,0.8,0.8v-2.9h0.9v7.4
								H642v-1c-0.2,0.3-0.4,0.6-0.8,0.8c-0.4,0.2-0.8,0.3-1.2,0.3c-0.5,0-0.9-0.1-1.3-0.4c-0.4-0.2-0.7-0.6-0.9-1s-0.3-0.9-0.3-1.5
								C637.4,14.9,637.5,14.5,637.7,14z M641.8,14.4c-0.2-0.3-0.4-0.5-0.7-0.7s-0.6-0.2-0.9-0.2s-0.6,0.1-0.9,0.2s-0.5,0.4-0.7,0.7
								s-0.2,0.7-0.2,1.1c0,0.4,0.1,0.8,0.2,1.1c0.2,0.3,0.4,0.5,0.7,0.7s0.6,0.2,0.9,0.2s0.7-0.1,0.9-0.2c0.3-0.2,0.5-0.4,0.7-0.7
								c0.2-0.3,0.2-0.7,0.2-1.1S641.9,14.7,641.8,14.4z"/>
							<path class="st4" d="M652.2,12.9c0.3,0.2,0.6,0.4,0.8,0.8c0.2,0.4,0.3,0.8,0.3,1.3v3.2h-0.9v-3.1c0-0.5-0.1-1-0.4-1.3
								c-0.3-0.3-0.6-0.4-1.1-0.4s-0.8,0.2-1.1,0.5s-0.4,0.7-0.4,1.3v3h-0.9v-3.1c0-0.5-0.1-1-0.4-1.3c-0.3-0.3-0.6-0.4-1.1-0.4
								s-0.8,0.2-1.1,0.5s-0.4,0.7-0.4,1.3v3h-0.9v-5.5h0.9v0.8c0.2-0.3,0.4-0.5,0.7-0.7s0.6-0.2,1-0.2c0.5,0,0.9,0.1,1.2,0.3
								c0.4,0.2,0.6,0.5,0.8,0.9c0.2-0.4,0.4-0.7,0.8-0.9c0.4-0.2,0.7-0.3,1.2-0.3C651.5,12.7,651.9,12.8,652.2,12.9z"/>
							<path class="st4" d="M654.8,11.7c-0.1-0.1-0.2-0.3-0.2-0.4c0-0.2,0.1-0.3,0.2-0.4s0.3-0.2,0.4-0.2c0.2,0,0.3,0.1,0.4,0.2
								c0.1,0.1,0.2,0.3,0.2,0.4c0,0.2-0.1,0.3-0.2,0.4c-0.1,0.1-0.3,0.2-0.4,0.2S654.9,11.8,654.8,11.7z M655.7,12.8v5.5h-0.9v-5.5
								C654.8,12.8,655.7,12.8,655.7,12.8z"/>
							<path class="st4" d="M661.5,13.3c0.4,0.4,0.6,1,0.6,1.7v3.2h-0.9v-3.1c0-0.5-0.1-1-0.4-1.3c-0.3-0.3-0.6-0.4-1.1-0.4
								s-0.9,0.2-1.1,0.5s-0.4,0.7-0.4,1.3v3h-0.9v-5.5h0.9v0.8c0.2-0.3,0.4-0.5,0.7-0.6c0.3-0.2,0.7-0.2,1-0.2
								C660.6,12.7,661.1,12.9,661.5,13.3z"/>
						</g>
					</g>
					<path class="st7" d="M327,9h7c2.2,0,4,1.8,4,4v6c0,2.2-1.8,4-4,4h-7c-2.2,0-4-1.8-4-4v-6C323,10.8,324.8,9,327,9z"/>
					<path class="st7" d="M346,9h7c2.2,0,4,1.8,4,4v6c0,2.2-1.8,4-4,4h-7c-2.2,0-4-1.8-4-4v-6C342,10.8,343.8,9,346,9z"/>
					<path class="st7" d="M365,9h7c2.2,0,4,1.8,4,4v6c0,2.2-1.8,4-4,4h-7c-2.2,0-4-1.8-4-4v-6C361,10.8,362.8,9,365,9z"/>
					<path class="st7" d="M384,9h7c2.2,0,4,1.8,4,4v6c0,2.2-1.8,4-4,4h-7c-2.2,0-4-1.8-4-4v-6C380,10.8,381.8,9,384,9z"/>
					<g>
						<g>
							<g>
								<g>
									<defs>
										<rect id="SVGID_00000117670909750472265870000018432591136279819413_" x="307" y="10" width="12" height="12"/>
									</defs>
									<clipPath id="SVGID_00000003099626284028773060000012966884316121447603_">
										<use xlink:href="#SVGID_00000117670909750472265870000018432591136279819413_"  style="overflow:visible;"/>
									</clipPath>
									<g style="opacity:0.5;clip-path:url(#SVGID_00000003099626284028773060000012966884316121447603_);">
										<path class="st4" d="M313,14c0.5,0,1-0.4,1-1s-0.5-1-1-1s-1,0.4-1,1S312.5,14,313,14z M313,15c-0.5,0-1,0.4-1,1
											c0,0.5,0.5,1,1,1s1-0.5,1-1S313.5,15,313,15z M313,18c-0.5,0-1,0.4-1,1c0,0.5,0.5,1,1,1s1-0.5,1-1S313.5,18,313,18z"/>
									</g>
								</g>
							</g>
						</g>
					</g>
					<line class="st9" x1="33.5" y1="32" x2="33.5" y2="426"/>
					<rect x="34.6" y="32" class="st2" width="541.4" height="394"/>
					<path class="st7" d="M588,40h110c2.2,0,4,1.8,4,4v5c0,2.2-1.8,4-4,4H588c-2.2,0-4-1.8-4-4v-5C584,41.8,585.8,40,588,40z"/>
					<path class="st7" d="M588,62h110c2.2,0,4,1.8,4,4v49c0,2.2-1.8,4-4,4H588c-2.2,0-4-1.8-4-4V66C584,63.8,585.8,62,588,62z"/>
					<path class="st7" d="M588,128h110c2.2,0,4,1.8,4,4v29c0,2.2-1.8,4-4,4H588c-2.2,0-4-1.8-4-4v-29C584,129.8,585.8,128,588,128z"
						/>
					<path class="st7" d="M588,174h110c2.2,0,4,1.8,4,4v81c0,2.2-1.8,4-4,4H588c-2.2,0-4-1.8-4-4v-81C584,175.8,585.8,174,588,174z"
						/>
					<path class="st7" d="M588,272h110c2.2,0,4,1.8,4,4v28c0,2.2-1.8,4-4,4H588c-2.2,0-4-1.8-4-4v-28C584,273.8,585.8,272,588,272z"
						/>
					<path class="st7" d="M588,317h110c2.2,0,4,1.8,4,4v54c0,2.2-1.8,4-4,4H588c-2.2,0-4-1.8-4-4v-54C584,318.8,585.8,317,588,317z"
						/>
					<path class="st7" d="M588,388h110c2.2,0,4,1.8,4,4v31c0,2.2-1.8,4-4,4H588c-2.2,0-4-1.8-4-4v-31C584,389.8,585.8,388,588,388z"
						/>
					<rect x="192.5" y="85.5" class="st10" width="202" height="67"/>
					<path class="st4" d="M410.8,161.3c-0.1,0.1-0.1,0.1-0.2,0.1l-4.7,2.3c-0.1,0-0.1,0.1-0.2,0.2l-2.3,4.7
						c-0.1,0.3-0.4,0.4-0.7,0.4c-0.3,0-0.5-0.2-0.6-0.5l-5-12.5c-0.1-0.3,0-0.6,0.2-0.8s0.5-0.3,0.8-0.2l12.5,5
						c0.3,0.1,0.4,0.4,0.5,0.6C411,160.9,410.9,161.1,410.8,161.3z M405.5,163.5l-2.7,4.3l2.1-4.3c0.1-0.3,0.4-0.5,0.6-0.6l4.3-2.1
						L405.5,163.5z"/>
					<path class="st4" d="M33.4,9.1c-2.3,0-4.2,1.6-4.6,3.8c-0.8-0.5-1.7-0.8-2.7-0.8c-2.3,0-4.3,1.5-4.9,4.6
						c-0.8-1.8-2.5-3.1-4.6-3.1c-2.8,0-5,2.2-5,4.9l0,0v5.1H13v-5c0-2,1.6-3.6,3.6-3.6s3.6,1.6,3.6,3.6v5h1.4V22
						c0.9,2.1,2.6,3.2,4.5,3.2c2.7,0,5-2.1,5-6.6c0-0.2,0-0.4,0-0.7c0.7,0.4,1.4,0.6,2.2,0.6h0.4L31,21.6h2c0,0,2.2-2.5,3.5-4.1
						c1.4-1.7,1.4-2.7,1.4-3.7C38.1,11.2,36,9.1,33.4,9.1z M26.1,23.7c-1.8,0-3.3-1-3.3-5c0-3.9,1.4-5,3.3-5c1.8,0,3.3,1,3.3,5
						S28,23.7,26.1,23.7z M33.4,17.2c-1.6,0-3.1-1.4-3.1-3.5c0-1.7,1.4-3.1,3.1-3.1c1.6,0,3.1,1.4,3.1,3.1
						C36.4,15.8,35,17.2,33.4,17.2z"/>
					<circle class="st11" cx="612.8" cy="16.2" r="9.9"/>
				</g>
			</g>
		</g>
	</g>
</g>
<rect x="202" y="96.5" class="st5" width="197.6" height="54"/>
<g class="st6">
	<path class="st4" d="M205.2,97.1v9.8h-2.4v-9.8H205.2z"/>
	<path class="st4" d="M213.9,99.9c0.5,0.6,0.8,1.4,0.8,2.4v4.6h-2.4v-4.2c0-0.5-0.1-0.9-0.4-1.2c-0.3-0.3-0.6-0.4-1.1-0.4
		s-0.8,0.1-1.1,0.4s-0.4,0.7-0.4,1.2v4.2H207v-7.8h2.4v1c0.2-0.3,0.6-0.6,1-0.8c0.4-0.2,0.9-0.3,1.4-0.3
		C212.7,99,213.4,99.3,213.9,99.9z"/>
	<path class="st4" d="M220.8,104.9v2h-1.2c-0.9,0-1.5-0.2-2-0.6s-0.7-1.1-0.7-2.1v-3.1h-1v-2h1v-1.9h2.4v1.9h1.6v2h-1.6v3.1
		c0,0.2,0.1,0.4,0.2,0.5c0.1,0.1,0.3,0.2,0.6,0.2H220.8z"/>
	<path class="st4" d="M229.4,103.6H224c0,0.5,0.2,0.9,0.5,1.1c0.3,0.3,0.6,0.4,1,0.4c0.6,0,1-0.3,1.2-0.8h2.5
		c-0.1,0.5-0.4,1-0.7,1.4s-0.8,0.7-1.3,1c-0.5,0.2-1.1,0.4-1.7,0.4c-0.8,0-1.4-0.2-2-0.5s-1.1-0.8-1.4-1.4c-0.3-0.6-0.5-1.3-0.5-2.1
		c0-0.8,0.2-1.5,0.5-2.1s0.8-1.1,1.4-1.4c0.6-0.3,1.3-0.5,2.1-0.5s1.4,0.2,2,0.5s1,0.8,1.4,1.4c0.3,0.6,0.5,1.3,0.5,2.1
		C229.5,103.1,229.4,103.3,229.4,103.6z M227,102.2c0-0.4-0.1-0.7-0.4-1c-0.3-0.2-0.6-0.4-1-0.4s-0.7,0.1-1,0.3s-0.4,0.6-0.5,1
		L227,102.2L227,102.2z"/>
	<path class="st4" d="M234.2,99.4c0.4-0.2,0.9-0.4,1.4-0.4v2.5h-0.7c-0.6,0-1,0.1-1.3,0.4s-0.4,0.7-0.4,1.4v3.6h-2.4v-7.8h2.4v1.3
		C233.4,99.9,233.7,99.6,234.2,99.4z"/>
	<path class="st4" d="M240.6,101.1h-1.3v5.8h-2.4v-5.8H236v-2h0.9v-0.2c0-1,0.3-1.7,0.8-2.2c0.6-0.5,1.4-0.7,2.4-0.7
		c0.2,0,0.3,0,0.4,0v2c-0.5,0-0.8,0-1,0.2s-0.3,0.4-0.3,0.9v0.1h1.3v1.9H240.6z"/>
	<path class="st4" d="M241.7,100.9c0.3-0.6,0.7-1.1,1.2-1.4s1.1-0.5,1.8-0.5c0.6,0,1,0.1,1.4,0.3c0.4,0.2,0.7,0.5,1,0.9v-1.1h2.4
		v7.8h-2.4v-1.1c-0.2,0.4-0.6,0.7-1,0.9c-0.4,0.2-0.9,0.3-1.4,0.3c-0.6,0-1.2-0.2-1.7-0.5s-0.9-0.8-1.2-1.4s-0.5-1.3-0.5-2.1
		S241.4,101.5,241.7,100.9z M246.6,101.6c-0.3-0.3-0.7-0.5-1.2-0.5s-0.9,0.2-1.2,0.5s-0.5,0.8-0.5,1.4s0.2,1.1,0.5,1.4
		s0.7,0.5,1.2,0.5s0.9-0.2,1.2-0.5s0.5-0.8,0.5-1.4S247,101.9,246.6,101.6z"/>
	<path class="st4" d="M253.5,104.9h3.4v2h-6.1V105l3.2-3.9h-3.2v-2h6v1.9L253.5,104.9z"/>
	<path class="st4" d="M262.5,106.6c-0.5-0.2-1-0.6-1.3-1s-0.5-0.9-0.5-1.4h2.4c0,0.3,0.2,0.5,0.4,0.7s0.5,0.3,0.8,0.3
		s0.5-0.1,0.7-0.2s0.2-0.3,0.2-0.5s-0.1-0.4-0.4-0.5c-0.2-0.1-0.6-0.2-1.1-0.4c-0.6-0.1-1-0.3-1.4-0.4s-0.7-0.4-1-0.7
		c-0.3-0.3-0.4-0.7-0.4-1.3c0-0.4,0.1-0.9,0.4-1.2c0.2-0.4,0.6-0.7,1.1-0.9c0.5-0.2,1.1-0.3,1.7-0.3c1,0,1.8,0.2,2.3,0.7
		c0.6,0.5,0.9,1.1,1,1.9h-2.2c0-0.3-0.2-0.5-0.4-0.6c-0.2-0.2-0.5-0.2-0.8-0.2s-0.5,0.1-0.6,0.2s-0.2,0.3-0.2,0.4
		c0,0.2,0.1,0.4,0.4,0.5c0.2,0.1,0.6,0.2,1.1,0.3c0.6,0.1,1,0.3,1.4,0.4s0.7,0.4,1,0.7c0.3,0.3,0.4,0.8,0.4,1.3s-0.1,0.9-0.4,1.2
		c-0.3,0.4-0.6,0.6-1.1,0.8c-0.5,0.2-1,0.3-1.7,0.3C263.7,107,263.1,106.9,262.5,106.6z"/>
	<path class="st4" d="M276.3,103.6h-5.4c0,0.5,0.2,0.9,0.5,1.1c0.3,0.3,0.6,0.4,1,0.4c0.6,0,1-0.3,1.2-0.8h2.5
		c-0.1,0.5-0.4,1-0.7,1.4c-0.3,0.4-0.8,0.7-1.3,1c-0.5,0.2-1.1,0.4-1.7,0.4c-0.8,0-1.4-0.2-2-0.5s-1.1-0.8-1.4-1.4s-0.5-1.3-0.5-2.1
		c0-0.8,0.2-1.5,0.5-2.1s0.8-1.1,1.4-1.4s1.3-0.5,2.1-0.5c0.8,0,1.4,0.2,2,0.5s1,0.8,1.4,1.4c0.3,0.6,0.5,1.3,0.5,2.1
		C276.3,103.1,276.3,103.3,276.3,103.6z M273.9,102.2c0-0.4-0.1-0.7-0.4-1c-0.3-0.2-0.6-0.4-1-0.4s-0.7,0.1-1,0.3s-0.4,0.6-0.5,1
		L273.9,102.2L273.9,102.2z"/>
	<path class="st4" d="M282,99.3c0.4,0.2,0.7,0.5,1,0.9v-1.1h2.4v7.8c0,0.7-0.1,1.4-0.4,2s-0.7,1-1.3,1.4c-0.6,0.3-1.3,0.5-2.2,0.5
		c-1.2,0-2.1-0.3-2.8-0.8s-1.1-1.3-1.2-2.2h2.4c0.1,0.3,0.3,0.5,0.5,0.7s0.6,0.3,1,0.3c0.5,0,0.9-0.1,1.2-0.4
		c0.3-0.3,0.4-0.7,0.4-1.4v-1.1c-0.2,0.4-0.6,0.7-1,0.9c-0.4,0.2-0.9,0.3-1.4,0.3c-0.6,0-1.2-0.2-1.8-0.5c-0.5-0.3-0.9-0.8-1.2-1.4
		c-0.3-0.6-0.5-1.3-0.5-2.1s0.2-1.5,0.5-2.1s0.7-1.1,1.2-1.4s1.1-0.5,1.8-0.5C281.1,99,281.6,99.1,282,99.3z M282.5,101.6
		c-0.3-0.3-0.7-0.5-1.2-0.5s-0.9,0.2-1.2,0.5c-0.3,0.3-0.5,0.8-0.5,1.4s0.2,1.1,0.5,1.4s0.7,0.5,1.2,0.5s0.9-0.2,1.2-0.5
		c0.3-0.3,0.5-0.8,0.5-1.4S282.8,101.9,282.5,101.6z"/>
	<path class="st4" d="M294.8,99.1v7.8h-2.4v-1.1c-0.2,0.3-0.6,0.6-1,0.8c-0.4,0.2-0.9,0.3-1.4,0.3c-0.6,0-1.1-0.1-1.6-0.4
		s-0.8-0.7-1.1-1.2c-0.3-0.5-0.4-1.1-0.4-1.8v-4.6h2.4v4.2c0,0.5,0.1,0.9,0.4,1.2c0.3,0.3,0.6,0.4,1.1,0.4s0.8-0.1,1.1-0.4
		c0.3-0.3,0.4-0.7,0.4-1.2v-4.2h2.5V99.1z"/>
	<path class="st4" d="M300,99.4c0.4-0.2,0.9-0.4,1.4-0.4v2.5h-0.7c-0.6,0-1,0.1-1.3,0.4s-0.4,0.7-0.4,1.4v3.6h-2.4v-7.8h2.4v1.3
		C299.2,99.9,299.6,99.6,300,99.4z"/>
	<path class="st4" d="M302.5,100.9c0.3-0.6,0.7-1.1,1.2-1.4s1.1-0.5,1.8-0.5c0.6,0,1,0.1,1.4,0.3c0.4,0.2,0.7,0.5,1,0.9v-1.1h2.4
		v7.8h-2.4v-1.1c-0.2,0.4-0.6,0.7-1,0.9c-0.4,0.2-0.9,0.3-1.4,0.3c-0.6,0-1.2-0.2-1.7-0.5s-0.9-0.8-1.2-1.4
		c-0.3-0.6-0.5-1.3-0.5-2.1S302.2,101.5,302.5,100.9z M307.4,101.6c-0.3-0.3-0.7-0.5-1.2-0.5s-0.9,0.2-1.2,0.5
		c-0.3,0.3-0.5,0.8-0.5,1.4s0.2,1.1,0.5,1.4s0.7,0.5,1.2,0.5s0.9-0.2,1.2-0.5c0.3-0.3,0.5-0.8,0.5-1.4S307.7,101.9,307.4,101.6z"/>
</g>
<g class="st6">
	<path class="st4" d="M206.2,116.1c0.4-0.2,0.9-0.3,1.4-0.3c0.6,0,1.2,0.2,1.8,0.5c0.5,0.3,0.9,0.8,1.2,1.4s0.5,1.3,0.5,2.1
		s-0.2,1.5-0.5,2.1s-0.7,1.1-1.2,1.4s-1.1,0.5-1.8,0.5c-0.5,0-1-0.1-1.4-0.3c-0.4-0.2-0.7-0.5-1-0.9v4.8h-2.4v-11.5h2.4v1.1
		C205.5,116.6,205.8,116.3,206.2,116.1z M208.2,118.4c-0.3-0.3-0.7-0.5-1.2-0.5s-0.9,0.2-1.2,0.5s-0.5,0.8-0.5,1.4s0.2,1.1,0.5,1.4
		s0.7,0.5,1.2,0.5s0.9-0.2,1.2-0.5s0.5-0.8,0.5-1.4S208.5,118.7,208.2,118.4z"/>
	<path class="st4" d="M212.3,117.6c0.3-0.6,0.7-1.1,1.2-1.4s1.1-0.5,1.8-0.5c0.6,0,1,0.1,1.4,0.3c0.4,0.2,0.7,0.5,1,0.9v-1.1h2.4
		v7.8h-2.4v-1.1c-0.2,0.4-0.6,0.7-1,0.9c-0.4,0.2-0.9,0.3-1.4,0.3c-0.6,0-1.2-0.2-1.7-0.5s-0.9-0.8-1.2-1.4s-0.5-1.3-0.5-2.1
		S212,118.3,212.3,117.6z M217.2,118.4c-0.3-0.3-0.7-0.5-1.2-0.5s-0.9,0.2-1.2,0.5s-0.5,0.8-0.5,1.4s0.2,1.1,0.5,1.4
		s0.7,0.5,1.2,0.5s0.9-0.2,1.2-0.5s0.5-0.8,0.5-1.4C217.7,119.2,217.6,118.7,217.2,118.4z"/>
	<path class="st4" d="M225.3,116.2c0.4-0.2,0.9-0.4,1.4-0.4v2.5H226c-0.6,0-1,0.1-1.3,0.4s-0.4,0.7-0.4,1.4v3.6h-2.4v-7.8h2.4v1.3
		C224.5,116.7,224.9,116.4,225.3,116.2z"/>
	<path class="st4" d="M227.8,117.6c0.3-0.6,0.7-1.1,1.2-1.4s1.1-0.5,1.8-0.5c0.6,0,1,0.1,1.4,0.3c0.4,0.2,0.7,0.5,1,0.9v-1.1h2.4
		v7.8h-2.4v-1.1c-0.2,0.4-0.6,0.7-1,0.9c-0.4,0.2-0.9,0.3-1.4,0.3c-0.6,0-1.2-0.2-1.7-0.5s-0.9-0.8-1.2-1.4s-0.5-1.3-0.5-2.1
		S227.5,118.3,227.8,117.6z M232.7,118.4c-0.3-0.3-0.7-0.5-1.2-0.5s-0.9,0.2-1.2,0.5s-0.5,0.8-0.5,1.4s0.2,1.1,0.5,1.4
		s0.7,0.5,1.2,0.5s0.9-0.2,1.2-0.5s0.5-0.8,0.5-1.4C233.2,119.2,233.1,118.7,232.7,118.4z"/>
	<path class="st4" d="M242.7,113.3v10.4h-2.4v-10.4H242.7z"/>
	<path class="st4" d="M244.4,117.6c0.3-0.6,0.7-1.1,1.2-1.4s1.1-0.5,1.8-0.5c0.6,0,1,0.1,1.4,0.3c0.4,0.2,0.7,0.5,1,0.9v-1.1h2.4
		v7.8h-2.4v-1.1c-0.2,0.4-0.6,0.7-1,0.9c-0.4,0.2-0.9,0.3-1.4,0.3c-0.6,0-1.2-0.2-1.7-0.5s-0.9-0.8-1.2-1.4s-0.5-1.3-0.5-2.1
		S244.1,118.3,244.4,117.6z M249.3,118.4c-0.3-0.3-0.7-0.5-1.2-0.5s-0.9,0.2-1.2,0.5s-0.5,0.8-0.5,1.4s0.2,1.1,0.5,1.4
		s0.7,0.5,1.2,0.5s0.9-0.2,1.2-0.5s0.5-0.8,0.5-1.4C249.8,119.2,249.7,118.7,249.3,118.4z"/>
	<path class="st4" d="M256.9,117.6c0.3-0.6,0.7-1.1,1.2-1.4s1.1-0.5,1.8-0.5c0.6,0,1,0.1,1.4,0.3c0.4,0.2,0.7,0.5,1,0.9v-1.1h2.4
		v7.8h-2.4v-1.1c-0.2,0.4-0.6,0.7-1,0.9c-0.4,0.2-0.9,0.3-1.4,0.3c-0.6,0-1.2-0.2-1.7-0.5s-0.9-0.8-1.2-1.4
		c-0.3-0.6-0.5-1.3-0.5-2.1S256.6,118.3,256.9,117.6z M261.8,118.4c-0.3-0.3-0.7-0.5-1.2-0.5s-0.9,0.2-1.2,0.5
		c-0.3,0.3-0.5,0.8-0.5,1.4s0.2,1.1,0.5,1.4s0.7,0.5,1.2,0.5s0.9-0.2,1.2-0.5c0.3-0.3,0.5-0.8,0.5-1.4
		C262.3,119.2,262.1,118.7,261.8,118.4z"/>
	<path class="st4" d="M266.4,117.6c0.3-0.6,0.7-1.1,1.2-1.4s1.1-0.5,1.8-0.5c0.5,0,1,0.1,1.4,0.3c0.4,0.2,0.8,0.5,1,0.9v-3.6h2.4
		v10.4h-2.4v-1.1c-0.2,0.4-0.5,0.7-1,0.9c-0.4,0.2-0.9,0.3-1.4,0.3c-0.6,0-1.2-0.2-1.8-0.5c-0.5-0.3-0.9-0.8-1.2-1.4
		c-0.3-0.6-0.5-1.3-0.5-2.1S266.1,118.3,266.4,117.6z M271.3,118.4c-0.3-0.3-0.7-0.5-1.2-0.5s-0.9,0.2-1.2,0.5
		c-0.3,0.3-0.5,0.8-0.5,1.4s0.2,1.1,0.5,1.4s0.7,0.5,1.2,0.5s0.9-0.2,1.2-0.5c0.3-0.3,0.5-0.8,0.5-1.4
		C271.8,119.2,271.6,118.7,271.3,118.4z"/>
	<path class="st4" d="M288.2,116.7c0.6,0.6,0.9,1.4,0.9,2.4v4.6h-2.4v-4.2c0-0.5-0.1-0.9-0.4-1.2c-0.3-0.3-0.6-0.4-1.1-0.4
		s-0.8,0.1-1.1,0.4s-0.4,0.7-0.4,1.2v4.2h-2.4v-4.2c0-0.5-0.1-0.9-0.4-1.2s-0.6-0.4-1.1-0.4s-0.8,0.1-1.1,0.4
		c-0.3,0.3-0.4,0.7-0.4,1.2v4.2h-2.4v-7.8h2.4v1c0.2-0.3,0.6-0.6,1-0.8c0.4-0.2,0.8-0.3,1.3-0.3c0.6,0,1.1,0.1,1.6,0.4
		s0.8,0.6,1.1,1.1c0.3-0.4,0.6-0.8,1.1-1c0.5-0.3,1-0.4,1.5-0.4C286.9,115.8,287.6,116.1,288.2,116.7z"/>
	<path class="st4" d="M290.9,114.7c-0.3-0.2-0.4-0.6-0.4-0.9c0-0.4,0.1-0.7,0.4-0.9s0.6-0.4,1-0.4s0.7,0.1,1,0.4s0.4,0.6,0.4,0.9
		c0,0.4-0.1,0.7-0.4,0.9s-0.6,0.4-1,0.4S291.2,114.9,290.9,114.7z M293.2,115.9v7.8h-2.4v-7.8H293.2z"/>
	<path class="st4" d="M301.8,116.7c0.5,0.6,0.8,1.4,0.8,2.4v4.6h-2.4v-4.2c0-0.5-0.1-0.9-0.4-1.2c-0.3-0.3-0.6-0.4-1.1-0.4
		s-0.8,0.1-1.1,0.4c-0.3,0.3-0.4,0.7-0.4,1.2v4.2h-2.4v-7.8h2.4v1c0.2-0.3,0.6-0.6,1-0.8c0.4-0.2,0.9-0.3,1.4-0.3
		C300.6,115.8,301.3,116.1,301.8,116.7z"/>
	<path class="st4" d="M304.5,114.7c-0.3-0.2-0.4-0.6-0.4-0.9c0-0.4,0.1-0.7,0.4-0.9s0.6-0.4,1-0.4s0.7,0.1,1,0.4s0.4,0.6,0.4,0.9
		c0,0.4-0.1,0.7-0.4,0.9s-0.6,0.4-1,0.4S304.8,114.9,304.5,114.7z M306.7,115.9v7.8h-2.4v-7.8H306.7z"/>
	<path class="st4" d="M309.8,123.4c-0.5-0.2-1-0.6-1.3-1s-0.5-0.9-0.5-1.4h2.4c0,0.3,0.2,0.5,0.4,0.7s0.5,0.3,0.8,0.3
		s0.5-0.1,0.7-0.2s0.2-0.3,0.2-0.5s-0.1-0.4-0.4-0.5c-0.2-0.1-0.6-0.2-1.1-0.4c-0.6-0.1-1-0.3-1.4-0.4s-0.7-0.4-1-0.7
		c-0.3-0.3-0.4-0.7-0.4-1.3c0-0.4,0.1-0.9,0.4-1.2c0.2-0.4,0.6-0.7,1.1-0.9c0.5-0.2,1.1-0.3,1.7-0.3c1,0,1.8,0.2,2.3,0.7
		c0.6,0.5,0.9,1.1,1,1.9h-2.2c0-0.3-0.2-0.5-0.4-0.6c-0.2-0.2-0.5-0.2-0.8-0.2s-0.5,0.1-0.6,0.2s-0.2,0.3-0.2,0.4
		c0,0.2,0.1,0.4,0.4,0.5c0.2,0.1,0.6,0.2,1.1,0.3c0.6,0.1,1,0.3,1.4,0.4s0.7,0.4,1,0.7c0.3,0.3,0.4,0.8,0.4,1.3s-0.1,0.9-0.4,1.2
		c-0.3,0.4-0.6,0.6-1.1,0.8c-0.5,0.2-1,0.3-1.7,0.3C311,123.8,310.4,123.7,309.8,123.4z"/>
	<path class="st4" d="M320.6,121.7v2h-1.2c-0.9,0-1.5-0.2-2-0.6s-0.7-1.1-0.7-2.1v-3.1h-1v-2h1V114h2.4v1.9h1.6v2H319v3.1
		c0,0.2,0.1,0.4,0.2,0.5s0.3,0.2,0.6,0.2H320.6z"/>
	<path class="st4" d="M325.4,116.2c0.4-0.2,0.9-0.4,1.4-0.4v2.5h-0.7c-0.6,0-1,0.1-1.3,0.4s-0.4,0.7-0.4,1.4v3.6H322v-7.8h2.4v1.3
		C324.6,116.7,325,116.4,325.4,116.2z"/>
	<path class="st4" d="M327.9,117.6c0.3-0.6,0.7-1.1,1.2-1.4s1.1-0.5,1.8-0.5c0.6,0,1,0.1,1.4,0.3c0.4,0.2,0.7,0.5,1,0.9v-1.1h2.4
		v7.8h-2.4v-1.1c-0.2,0.4-0.6,0.7-1,0.9c-0.4,0.2-0.9,0.3-1.4,0.3c-0.6,0-1.2-0.2-1.7-0.5s-0.9-0.8-1.2-1.4
		c-0.3-0.6-0.5-1.3-0.5-2.1S327.6,118.3,327.9,117.6z M332.8,118.4c-0.3-0.3-0.7-0.5-1.2-0.5s-0.9,0.2-1.2,0.5
		c-0.3,0.3-0.5,0.8-0.5,1.4s0.2,1.1,0.5,1.4s0.7,0.5,1.2,0.5s0.9-0.2,1.2-0.5c0.3-0.3,0.5-0.8,0.5-1.4
		C333.3,119.2,333.2,118.7,332.8,118.4z"/>
	<path class="st4" d="M337.5,117.6c0.3-0.6,0.8-1.1,1.4-1.4s1.3-0.5,2-0.5c1,0,1.8,0.3,2.5,0.8s1.1,1.2,1.3,2.2h-2.5
		c-0.2-0.6-0.6-0.9-1.2-0.9c-0.4,0-0.8,0.2-1,0.5c-0.3,0.3-0.4,0.8-0.4,1.5s0.1,1.1,0.4,1.5c0.3,0.3,0.6,0.5,1,0.5
		c0.6,0,1-0.3,1.2-0.9h2.5c-0.2,0.9-0.6,1.6-1.3,2.2c-0.7,0.5-1.5,0.8-2.5,0.8c-0.8,0-1.4-0.2-2-0.5s-1.1-0.8-1.4-1.4
		s-0.5-1.3-0.5-2.1C337,119,337.1,118.3,337.5,117.6z"/>
	<path class="st4" d="M346.1,114.7c-0.3-0.2-0.4-0.6-0.4-0.9c0-0.4,0.1-0.7,0.4-0.9s0.6-0.4,1-0.4s0.7,0.1,1,0.4s0.4,0.6,0.4,0.9
		c0,0.4-0.1,0.7-0.4,0.9s-0.6,0.4-1,0.4S346.4,114.9,346.1,114.7z M348.3,115.9v7.8h-2.4v-7.8H348.3z"/>
	<path class="st4" d="M351.5,123.3c-0.6-0.3-1.1-0.8-1.4-1.4c-0.4-0.6-0.5-1.3-0.5-2.1c0-0.8,0.2-1.5,0.5-2.1
		c0.4-0.6,0.8-1.1,1.5-1.4c0.6-0.3,1.3-0.5,2.1-0.5c0.8,0,1.5,0.2,2.1,0.5s1.1,0.8,1.5,1.4s0.5,1.3,0.5,2.1s-0.2,1.5-0.5,2.1
		s-0.8,1.1-1.5,1.4s-1.3,0.5-2.1,0.5S352.2,123.6,351.5,123.3z M354.8,121.2c0.3-0.3,0.5-0.8,0.5-1.4s-0.2-1.1-0.5-1.4
		s-0.7-0.5-1.2-0.5s-0.9,0.2-1.2,0.5c-0.3,0.3-0.5,0.8-0.5,1.4s0.2,1.1,0.5,1.4s0.7,0.5,1.1,0.5S354.5,121.6,354.8,121.2z
		 M355.5,113.9l-3.4,1.4v-1.7l3.4-1.6V113.9z"/>
	<path class="st4" d="M365.9,116.7c0.5,0.6,0.8,1.4,0.8,2.4v4.6h-2.4v-4.2c0-0.5-0.1-0.9-0.4-1.2c-0.3-0.3-0.6-0.4-1.1-0.4
		s-0.8,0.1-1.1,0.4s-0.4,0.7-0.4,1.2v4.2H359v-7.8h2.4v1c0.2-0.3,0.6-0.6,1-0.8c0.4-0.2,0.9-0.3,1.4-0.3
		C364.6,115.8,365.4,116.1,365.9,116.7z"/>
</g>
<g class="st6">
	<path class="st4" d="M202.8,134.5c0.3-0.6,0.7-1.1,1.2-1.4c0.5-0.3,1.1-0.5,1.8-0.5c0.5,0,1,0.1,1.4,0.3s0.8,0.5,1,0.9v-3.6h2.4
		v10.4h-2.4v-1.1c-0.2,0.4-0.5,0.7-1,0.9c-0.4,0.2-0.9,0.3-1.4,0.3c-0.6,0-1.2-0.2-1.8-0.5c-0.5-0.3-0.9-0.8-1.2-1.4
		c-0.3-0.6-0.5-1.3-0.5-2.1S202.5,135.1,202.8,134.5z M207.7,135.2c-0.3-0.3-0.7-0.5-1.2-0.5s-0.9,0.2-1.2,0.5s-0.5,0.8-0.5,1.4
		s0.2,1.1,0.5,1.4c0.3,0.3,0.7,0.5,1.2,0.5s0.9-0.2,1.2-0.5s0.5-0.8,0.5-1.4S208.1,135.5,207.7,135.2z"/>
	<path class="st4" d="M219.7,137.2h-5.4c0,0.5,0.2,0.9,0.5,1.1c0.3,0.3,0.6,0.4,1,0.4c0.6,0,1-0.3,1.2-0.8h2.5
		c-0.1,0.5-0.4,1-0.7,1.4s-0.8,0.7-1.3,1c-0.5,0.2-1.1,0.4-1.7,0.4c-0.8,0-1.4-0.2-2-0.5s-1.1-0.8-1.4-1.4c-0.3-0.6-0.5-1.3-0.5-2.1
		s0.2-1.5,0.5-2.1s0.8-1.1,1.4-1.4c0.6-0.3,1.3-0.5,2.1-0.5s1.4,0.2,2,0.5s1,0.8,1.4,1.4c0.3,0.6,0.5,1.3,0.5,2.1
		C219.7,136.7,219.7,136.9,219.7,137.2z M217.3,135.8c0-0.4-0.1-0.7-0.4-1c-0.3-0.2-0.6-0.4-1-0.4s-0.7,0.1-1,0.3s-0.4,0.6-0.5,1
		L217.3,135.8L217.3,135.8z"/>
	<path class="st4" d="M228.3,138.5v2h-1.2c-0.9,0-1.5-0.2-2-0.6c-0.5-0.4-0.7-1.1-0.7-2.1v-3.1h-1v-2h1v-1.9h2.4v1.9h1.6v2h-1.6v3.1
		c0,0.2,0.1,0.4,0.2,0.5c0.1,0.1,0.3,0.2,0.6,0.2L228.3,138.5L228.3,138.5z"/>
	<path class="st4" d="M237.3,132.7v7.8h-2.4v-1.1c-0.2,0.3-0.6,0.6-1,0.8s-0.9,0.3-1.4,0.3c-0.6,0-1.1-0.1-1.6-0.4
		c-0.5-0.3-0.8-0.7-1.1-1.2s-0.4-1.1-0.4-1.8v-4.6h2.4v4.2c0,0.5,0.1,0.9,0.4,1.2c0.3,0.3,0.6,0.4,1.1,0.4s0.8-0.1,1.1-0.4
		c0.3-0.3,0.4-0.7,0.4-1.2v-4.2h2.5V132.7z"/>
	<path class="st4" d="M240.4,140.2c-0.5-0.2-1-0.6-1.3-1s-0.5-0.9-0.5-1.4h2.4c0,0.3,0.2,0.5,0.4,0.7s0.5,0.3,0.8,0.3
		s0.5-0.1,0.7-0.2c0.2-0.1,0.2-0.3,0.2-0.5s-0.1-0.4-0.4-0.5c-0.2-0.1-0.6-0.2-1.1-0.4c-0.6-0.1-1-0.3-1.4-0.4
		c-0.4-0.1-0.7-0.4-1-0.7s-0.4-0.7-0.4-1.3c0-0.4,0.1-0.9,0.4-1.2c0.2-0.4,0.6-0.7,1.1-0.9s1.1-0.3,1.7-0.3c1,0,1.8,0.2,2.3,0.7
		c0.6,0.5,0.9,1.1,1,1.9h-2.2c0-0.3-0.2-0.5-0.4-0.6c-0.2-0.2-0.5-0.2-0.8-0.2s-0.5,0.1-0.6,0.2c-0.1,0.1-0.2,0.3-0.2,0.4
		c0,0.2,0.1,0.4,0.4,0.5c0.2,0.1,0.6,0.2,1.1,0.3c0.6,0.1,1,0.3,1.4,0.4c0.4,0.1,0.7,0.4,1,0.7s0.4,0.8,0.4,1.3s-0.1,0.9-0.4,1.2
		c-0.3,0.4-0.6,0.6-1.1,0.8s-1,0.3-1.7,0.3C241.6,140.6,241,140.5,240.4,140.2z"/>
	<path class="st4" d="M257.6,132.7v7.8h-2.4v-1.1c-0.2,0.3-0.6,0.6-1,0.8s-0.9,0.3-1.4,0.3c-0.6,0-1.1-0.1-1.6-0.4
		c-0.5-0.3-0.8-0.7-1.1-1.2s-0.4-1.1-0.4-1.8v-4.6h2.4v4.2c0,0.5,0.1,0.9,0.4,1.2c0.3,0.3,0.6,0.4,1.1,0.4s0.8-0.1,1.1-0.4
		c0.3-0.3,0.4-0.7,0.4-1.2v-4.2h2.5V132.7z"/>
	<path class="st4" d="M260.6,140.2c-0.5-0.2-1-0.6-1.3-1s-0.5-0.9-0.5-1.4h2.4c0,0.3,0.2,0.5,0.4,0.7s0.5,0.3,0.8,0.3
		s0.5-0.1,0.7-0.2c0.2-0.1,0.2-0.3,0.2-0.5s-0.1-0.4-0.4-0.5c-0.2-0.1-0.6-0.2-1.1-0.4c-0.6-0.1-1-0.3-1.4-0.4
		c-0.4-0.1-0.7-0.4-1-0.7s-0.4-0.7-0.4-1.3c0-0.4,0.1-0.9,0.4-1.2c0.2-0.4,0.6-0.7,1.1-0.9s1.1-0.3,1.7-0.3c1,0,1.8,0.2,2.3,0.7
		c0.6,0.5,0.9,1.1,1,1.9h-2.2c0-0.3-0.2-0.5-0.4-0.6c-0.2-0.2-0.5-0.2-0.8-0.2s-0.5,0.1-0.6,0.2c-0.1,0.1-0.2,0.3-0.2,0.4
		c0,0.2,0.1,0.4,0.4,0.5c0.2,0.1,0.6,0.2,1.1,0.3c0.6,0.1,1,0.3,1.4,0.4c0.4,0.1,0.7,0.4,1,0.7s0.4,0.8,0.4,1.3s-0.1,0.9-0.4,1.2
		c-0.3,0.4-0.6,0.6-1.1,0.8s-1,0.3-1.7,0.3C261.8,140.6,261.2,140.5,260.6,140.2z"/>
	<path class="st4" d="M274.8,132.7v7.8h-2.4v-1.1c-0.2,0.3-0.6,0.6-1,0.8s-0.9,0.3-1.4,0.3c-0.6,0-1.1-0.1-1.6-0.4
		c-0.5-0.3-0.8-0.7-1.1-1.2c-0.3-0.5-0.4-1.1-0.4-1.8v-4.6h2.4v4.2c0,0.5,0.1,0.9,0.4,1.2s0.6,0.4,1.1,0.4s0.8-0.1,1.1-0.4
		c0.3-0.3,0.4-0.7,0.4-1.2v-4.2h2.5V132.7z"/>
	<path class="st4" d="M276.5,134.5c0.3-0.6,0.7-1.1,1.2-1.4c0.5-0.3,1.1-0.5,1.8-0.5c0.6,0,1,0.1,1.4,0.3s0.7,0.5,1,0.9v-1.1h2.4
		v7.8h-2.4v-1.1c-0.2,0.4-0.6,0.7-1,0.9s-0.9,0.3-1.4,0.3c-0.6,0-1.2-0.2-1.7-0.5s-0.9-0.8-1.2-1.4c-0.3-0.6-0.5-1.3-0.5-2.1
		S276.2,135.1,276.5,134.5z M281.4,135.2c-0.3-0.3-0.7-0.5-1.2-0.5s-0.9,0.2-1.2,0.5c-0.3,0.3-0.5,0.8-0.5,1.4s0.2,1.1,0.5,1.4
		c0.3,0.3,0.7,0.5,1.2,0.5s0.9-0.2,1.2-0.5c0.3-0.3,0.5-0.8,0.5-1.4S281.7,135.5,281.4,135.2z"/>
	<path class="st4" d="M289.5,133c0.4-0.2,0.9-0.4,1.4-0.4v2.5h-0.7c-0.6,0-1,0.1-1.3,0.4s-0.4,0.7-0.4,1.4v3.6H286v-7.8h2.4v1.3
		C288.7,133.5,289.1,133.2,289.5,133z"/>
	<path class="st4" d="M292.2,131.5c-0.3-0.2-0.4-0.6-0.4-0.9c0-0.4,0.1-0.7,0.4-0.9s0.6-0.4,1-0.4s0.7,0.1,1,0.4s0.4,0.6,0.4,0.9
		c0,0.4-0.1,0.7-0.4,0.9s-0.6,0.4-1,0.4C292.8,131.9,292.5,131.7,292.2,131.5z M294.4,132.7v7.8H292v-7.8H294.4z"/>
	<path class="st4" d="M297.6,140.1c-0.6-0.3-1.1-0.8-1.4-1.4c-0.4-0.6-0.5-1.3-0.5-2.1s0.2-1.5,0.5-2.1c0.4-0.6,0.8-1.1,1.5-1.4
		c0.6-0.3,1.3-0.5,2.1-0.5c0.8,0,1.5,0.2,2.1,0.5s1.1,0.8,1.5,1.4c0.4,0.6,0.5,1.3,0.5,2.1s-0.2,1.5-0.5,2.1
		c-0.4,0.6-0.8,1.1-1.5,1.4s-1.3,0.5-2.1,0.5S298.3,140.4,297.6,140.1z M300.9,138c0.3-0.3,0.5-0.8,0.5-1.4c0-0.6-0.2-1.1-0.5-1.4
		c-0.3-0.3-0.7-0.5-1.2-0.5s-0.9,0.2-1.2,0.5c-0.3,0.3-0.5,0.8-0.5,1.4c0,0.6,0.2,1.1,0.5,1.4c0.3,0.3,0.7,0.5,1.1,0.5
		C300.2,138.5,300.6,138.4,300.9,138z"/>
	<path class="st4" d="M306.4,140.2c-0.5-0.2-1-0.6-1.3-1s-0.5-0.9-0.5-1.4h2.4c0,0.3,0.2,0.5,0.4,0.7s0.5,0.3,0.8,0.3
		s0.5-0.1,0.7-0.2c0.2-0.1,0.2-0.3,0.2-0.5s-0.1-0.4-0.4-0.5c-0.2-0.1-0.6-0.2-1.1-0.4c-0.6-0.1-1-0.3-1.4-0.4
		c-0.4-0.1-0.7-0.4-1-0.7s-0.4-0.7-0.4-1.3c0-0.4,0.1-0.9,0.4-1.2c0.2-0.4,0.6-0.7,1.1-0.9s1.1-0.3,1.7-0.3c1,0,1.8,0.2,2.3,0.7
		c0.6,0.5,0.9,1.1,1,1.9h-2.2c0-0.3-0.2-0.5-0.4-0.6c-0.2-0.2-0.5-0.2-0.8-0.2s-0.5,0.1-0.6,0.2c-0.1,0.1-0.2,0.3-0.2,0.4
		c0,0.2,0.1,0.4,0.4,0.5c0.2,0.1,0.6,0.2,1.1,0.3c0.6,0.1,1,0.3,1.4,0.4c0.4,0.1,0.7,0.4,1,0.7s0.4,0.8,0.4,1.3s-0.1,0.9-0.4,1.2
		c-0.3,0.4-0.6,0.6-1.1,0.8s-1,0.3-1.7,0.3C307.6,140.6,307,140.5,306.4,140.2z"/>
</g>
<rect x="201" y="165.1" class="st5" width="148.7" height="16.4"/>
<g class="st6">
	<path class="st4" d="M206.8,169.8c-0.5,0.5-1.2,0.7-2.2,0.7H203v3.5h-1.1v-8.4h2.7c0.9,0,1.7,0.2,2.2,0.7c0.5,0.5,0.7,1,0.7,1.8
		C207.5,168.8,207.3,169.4,206.8,169.8z M205.9,169.2c0.3-0.3,0.4-0.6,0.4-1.1c0-1-0.6-1.5-1.8-1.5H203v3.1h1.6
		C205.2,169.6,205.7,169.5,205.9,169.2z"/>
	<path class="st4" d="M208.8,168.9c0.3-0.5,0.6-0.9,1.1-1.2s1-0.4,1.6-0.4c0.6,0,1.1,0.1,1.5,0.4c0.4,0.2,0.7,0.6,0.9,0.9v-1.2h1.1
		v6.6H214v-1.2c-0.2,0.4-0.5,0.7-1,1c-0.4,0.3-0.9,0.4-1.5,0.4c-0.6,0-1.1-0.1-1.6-0.4c-0.5-0.3-0.8-0.7-1.1-1.2
		c-0.3-0.5-0.4-1.1-0.4-1.8C208.4,170,208.6,169.4,208.8,168.9z M213.7,169.4c-0.2-0.4-0.5-0.7-0.8-0.8c-0.3-0.2-0.7-0.3-1.1-0.3
		c-0.4,0-0.8,0.1-1.1,0.3c-0.3,0.2-0.6,0.5-0.8,0.8c-0.2,0.4-0.3,0.8-0.3,1.3c0,0.5,0.1,0.9,0.3,1.3c0.2,0.4,0.5,0.7,0.8,0.9
		c0.3,0.2,0.7,0.3,1.1,0.3c0.4,0,0.8-0.1,1.1-0.3c0.3-0.2,0.6-0.5,0.8-0.9c0.2-0.4,0.3-0.8,0.3-1.3S213.9,169.8,213.7,169.4z"/>
	<path class="st4" d="M221.2,167.7c0.4,0.2,0.7,0.6,1,0.9v-1.2h1.1v6.7c0,0.6-0.1,1.1-0.4,1.6c-0.3,0.5-0.6,0.8-1.1,1.1
		c-0.5,0.3-1,0.4-1.7,0.4c-0.9,0-1.6-0.2-2.2-0.6c-0.6-0.4-0.9-1-1-1.7h1.1c0.1,0.4,0.4,0.7,0.7,1s0.8,0.4,1.4,0.4
		c0.6,0,1.1-0.2,1.5-0.6c0.4-0.4,0.6-0.9,0.6-1.6v-1.4c-0.2,0.4-0.5,0.7-1,1c-0.4,0.3-0.9,0.4-1.5,0.4c-0.6,0-1.1-0.1-1.6-0.4
		s-0.9-0.7-1.1-1.2c-0.3-0.5-0.4-1.1-0.4-1.8c0-0.7,0.1-1.3,0.4-1.8s0.6-0.9,1.1-1.2s1-0.4,1.6-0.4
		C220.2,167.3,220.7,167.5,221.2,167.7z M221.8,169.4c-0.2-0.4-0.5-0.7-0.8-0.8c-0.3-0.2-0.7-0.3-1.1-0.3c-0.4,0-0.8,0.1-1.1,0.3
		c-0.3,0.2-0.6,0.5-0.8,0.8c-0.2,0.4-0.3,0.8-0.3,1.3c0,0.5,0.1,0.9,0.3,1.3c0.2,0.4,0.5,0.7,0.8,0.9c0.3,0.2,0.7,0.3,1.1,0.3
		c0.4,0,0.8-0.1,1.1-0.3c0.3-0.2,0.6-0.5,0.8-0.9c0.2-0.4,0.3-0.8,0.3-1.3S222,169.8,221.8,169.4z"/>
	<path class="st4" d="M226.3,173.7c-0.5-0.3-0.9-0.7-1.2-1.2c-0.3-0.5-0.4-1.1-0.4-1.8c0-0.7,0.1-1.3,0.4-1.8s0.7-0.9,1.2-1.2
		c0.5-0.3,1.1-0.4,1.7-0.4s1.2,0.1,1.7,0.4c0.5,0.3,0.9,0.7,1.2,1.2s0.4,1.1,0.4,1.8s-0.1,1.3-0.5,1.8c-0.3,0.5-0.7,0.9-1.2,1.2
		c-0.5,0.3-1.1,0.4-1.7,0.4C227.3,174.1,226.8,174,226.3,173.7z M229,172.9c0.3-0.2,0.6-0.5,0.8-0.8s0.3-0.8,0.3-1.3
		c0-0.5-0.1-1-0.3-1.3c-0.2-0.4-0.5-0.6-0.8-0.8c-0.3-0.2-0.7-0.3-1.1-0.3c-0.4,0-0.8,0.1-1.1,0.3c-0.3,0.2-0.6,0.5-0.8,0.8
		c-0.2,0.4-0.3,0.8-0.3,1.3c0,0.5,0.1,1,0.3,1.4c0.2,0.4,0.5,0.6,0.8,0.8s0.7,0.3,1.1,0.3S228.7,173.1,229,172.9z"/>
	<path class="st4" d="M233.7,173.9c-0.4-0.2-0.7-0.4-0.9-0.7c-0.2-0.3-0.4-0.7-0.4-1.1h1.1c0,0.3,0.2,0.6,0.5,0.8
		c0.3,0.2,0.6,0.3,1.1,0.3c0.4,0,0.7-0.1,1-0.3c0.2-0.2,0.4-0.4,0.4-0.7c0-0.3-0.1-0.5-0.4-0.6c-0.3-0.1-0.7-0.3-1.2-0.4
		c-0.5-0.1-0.9-0.3-1.2-0.4c-0.3-0.1-0.6-0.3-0.8-0.6c-0.2-0.3-0.3-0.6-0.3-1c0-0.3,0.1-0.6,0.3-0.9c0.2-0.3,0.5-0.5,0.9-0.7
		c0.4-0.2,0.8-0.2,1.3-0.2c0.7,0,1.3,0.2,1.8,0.6c0.4,0.4,0.7,0.9,0.7,1.5h-1.1c0-0.3-0.2-0.6-0.4-0.8s-0.6-0.3-1-0.3
		c-0.4,0-0.7,0.1-0.9,0.3c-0.2,0.2-0.3,0.4-0.3,0.7c0,0.2,0.1,0.4,0.2,0.5c0.1,0.1,0.3,0.3,0.5,0.3s0.5,0.2,0.9,0.3
		c0.5,0.1,0.9,0.3,1.2,0.4s0.5,0.3,0.8,0.6s0.3,0.6,0.3,1c0,0.4-0.1,0.7-0.3,1c-0.2,0.3-0.5,0.5-0.8,0.7c-0.4,0.2-0.8,0.2-1.3,0.2
		C234.6,174.1,234.1,174,233.7,173.9z"/>
	<path class="st4" d="M247.9,167.4l-4,9.7h-1.1l1.3-3.2l-2.7-6.5h1.2l2.1,5.3l2-5.3H247.9z"/>
	<path class="st4" d="M252.2,168.9c0.3-0.5,0.6-0.9,1.1-1.2s1-0.4,1.6-0.4c0.5,0,1,0.1,1.4,0.4c0.4,0.2,0.8,0.5,1,0.9v-3.5h1.1v8.9
		h-1.1v-1.2c-0.2,0.4-0.5,0.7-1,1c-0.4,0.3-0.9,0.4-1.5,0.4c-0.6,0-1.1-0.1-1.6-0.4s-0.9-0.7-1.1-1.2c-0.3-0.5-0.4-1.1-0.4-1.8
		C251.8,170,251.9,169.4,252.2,168.9z M257,169.4c-0.2-0.4-0.5-0.7-0.8-0.8c-0.3-0.2-0.7-0.3-1.1-0.3c-0.4,0-0.8,0.1-1.1,0.3
		c-0.3,0.2-0.6,0.5-0.8,0.8c-0.2,0.4-0.3,0.8-0.3,1.3c0,0.5,0.1,0.9,0.3,1.3c0.2,0.4,0.5,0.7,0.8,0.9c0.3,0.2,0.7,0.3,1.1,0.3
		c0.4,0,0.8-0.1,1.1-0.3c0.3-0.2,0.6-0.5,0.8-0.9c0.2-0.4,0.3-0.8,0.3-1.3S257.2,169.8,257,169.4z"/>
	<path class="st4" d="M260.3,166.2c-0.1-0.1-0.2-0.3-0.2-0.5s0.1-0.4,0.2-0.5s0.3-0.2,0.5-0.2c0.2,0,0.4,0.1,0.5,0.2
		c0.1,0.1,0.2,0.3,0.2,0.5s-0.1,0.4-0.2,0.5c-0.1,0.1-0.3,0.2-0.5,0.2C260.6,166.4,260.5,166.3,260.3,166.2z M261.4,167.4v6.6h-1.1
		v-6.6H261.4z"/>
	<path class="st4" d="M264.2,173.9c-0.4-0.2-0.7-0.4-0.9-0.7c-0.2-0.3-0.4-0.7-0.4-1.1h1.1c0,0.3,0.2,0.6,0.5,0.8
		c0.3,0.2,0.6,0.3,1.1,0.3c0.4,0,0.7-0.1,1-0.3c0.2-0.2,0.4-0.4,0.4-0.7c0-0.3-0.1-0.5-0.4-0.6c-0.3-0.1-0.7-0.3-1.2-0.4
		c-0.5-0.1-0.9-0.3-1.2-0.4c-0.3-0.1-0.6-0.3-0.8-0.6c-0.2-0.3-0.3-0.6-0.3-1c0-0.3,0.1-0.6,0.3-0.9c0.2-0.3,0.5-0.5,0.9-0.7
		c0.4-0.2,0.8-0.2,1.3-0.2c0.7,0,1.3,0.2,1.8,0.6c0.4,0.4,0.7,0.9,0.7,1.5h-1.1c0-0.3-0.2-0.6-0.4-0.8s-0.6-0.3-1-0.3
		c-0.4,0-0.7,0.1-0.9,0.3c-0.2,0.2-0.3,0.4-0.3,0.7c0,0.2,0.1,0.4,0.2,0.5c0.1,0.1,0.3,0.3,0.5,0.3s0.5,0.2,0.9,0.3
		c0.5,0.1,0.9,0.3,1.2,0.4s0.5,0.3,0.8,0.6s0.3,0.6,0.3,1c0,0.4-0.1,0.7-0.3,1c-0.2,0.3-0.5,0.5-0.8,0.7c-0.4,0.2-0.8,0.2-1.3,0.2
		C265.1,174.1,264.6,174,264.2,173.9z"/>
	<path class="st4" d="M271.6,167.7c0.4-0.3,0.9-0.4,1.5-0.4c0.6,0,1.1,0.1,1.6,0.4s0.9,0.7,1.1,1.2s0.4,1.1,0.4,1.8
		c0,0.7-0.1,1.3-0.4,1.8c-0.3,0.5-0.6,0.9-1.1,1.2s-1,0.4-1.6,0.4c-0.6,0-1.1-0.1-1.5-0.4c-0.4-0.3-0.8-0.6-1-0.9v4.3h-1.1v-9.7h1.1
		v1.2C270.8,168.3,271.1,168,271.6,167.7z M274.8,169.4c-0.2-0.4-0.5-0.6-0.8-0.8c-0.3-0.2-0.7-0.3-1.1-0.3c-0.4,0-0.8,0.1-1.1,0.3
		c-0.3,0.2-0.6,0.5-0.8,0.9c-0.2,0.4-0.3,0.8-0.3,1.3c0,0.5,0.1,0.9,0.3,1.3c0.2,0.4,0.5,0.7,0.8,0.9c0.3,0.2,0.7,0.3,1.1,0.3
		c0.4,0,0.8-0.1,1.1-0.3c0.3-0.2,0.6-0.5,0.8-0.9c0.2-0.4,0.3-0.8,0.3-1.3C275.1,170.2,275,169.8,274.8,169.4z"/>
	<path class="st4" d="M283.6,171.1h-5.3c0,0.6,0.3,1.2,0.7,1.5c0.4,0.4,0.9,0.5,1.5,0.5c0.5,0,0.9-0.1,1.2-0.3
		c0.3-0.2,0.5-0.5,0.7-0.9h1.2c-0.2,0.6-0.5,1.1-1.1,1.5c-0.5,0.4-1.2,0.6-2,0.6c-0.6,0-1.2-0.1-1.7-0.4c-0.5-0.3-0.9-0.7-1.2-1.2
		c-0.3-0.5-0.4-1.1-0.4-1.8s0.1-1.3,0.4-1.8s0.7-0.9,1.1-1.2c0.5-0.3,1.1-0.4,1.7-0.4c0.6,0,1.2,0.1,1.7,0.4
		c0.5,0.3,0.9,0.6,1.1,1.1c0.3,0.5,0.4,1,0.4,1.6C283.6,170.7,283.6,170.9,283.6,171.1z M282.2,169.2c-0.2-0.3-0.4-0.5-0.8-0.7
		c-0.3-0.2-0.7-0.2-1-0.2c-0.6,0-1,0.2-1.4,0.5c-0.4,0.4-0.6,0.8-0.7,1.5h4.2C282.5,169.8,282.4,169.5,282.2,169.2z"/>
	<path class="st4" d="M287,167.6c0.4-0.2,0.8-0.3,1.3-0.3v1.1H288c-1.2,0-1.8,0.7-1.8,2v3.6h-1.1v-6.6h1.1v1.1
		C286.3,168.1,286.6,167.8,287,167.6z"/>
	<path class="st4" d="M290.5,173.9c-0.4-0.2-0.7-0.4-0.9-0.7c-0.2-0.3-0.4-0.7-0.4-1.1h1.1c0,0.3,0.2,0.6,0.5,0.8
		c0.3,0.2,0.6,0.3,1.1,0.3c0.4,0,0.7-0.1,1-0.3c0.2-0.2,0.4-0.4,0.4-0.7c0-0.3-0.1-0.5-0.4-0.6c-0.3-0.1-0.7-0.3-1.2-0.4
		c-0.5-0.1-0.9-0.3-1.2-0.4c-0.3-0.1-0.6-0.3-0.8-0.6c-0.2-0.3-0.3-0.6-0.3-1c0-0.3,0.1-0.6,0.3-0.9c0.2-0.3,0.5-0.5,0.9-0.7
		c0.4-0.2,0.8-0.2,1.3-0.2c0.7,0,1.3,0.2,1.8,0.6c0.4,0.4,0.7,0.9,0.7,1.5h-1.1c0-0.3-0.2-0.6-0.4-0.8s-0.6-0.3-1-0.3
		c-0.4,0-0.7,0.1-0.9,0.3c-0.2,0.2-0.3,0.4-0.3,0.7c0,0.2,0.1,0.4,0.2,0.5c0.1,0.1,0.3,0.3,0.5,0.3s0.5,0.2,0.9,0.3
		c0.5,0.1,0.9,0.3,1.2,0.4s0.5,0.3,0.8,0.6s0.3,0.6,0.3,1c0,0.4-0.1,0.7-0.3,1c-0.2,0.3-0.5,0.5-0.8,0.7c-0.4,0.2-0.8,0.2-1.3,0.2
		C291.4,174.1,290.9,174,290.5,173.9z"/>
	<path class="st4" d="M295.8,166.2c-0.1-0.1-0.2-0.3-0.2-0.5s0.1-0.4,0.2-0.5s0.3-0.2,0.5-0.2c0.2,0,0.4,0.1,0.5,0.2
		c0.1,0.1,0.2,0.3,0.2,0.5s-0.1,0.4-0.2,0.5c-0.1,0.1-0.3,0.2-0.5,0.2C296.2,166.4,296,166.3,295.8,166.2z M296.9,167.4v6.6h-1.1
		v-6.6H296.9z"/>
	<path class="st4" d="M299.9,173.7c-0.5-0.3-0.9-0.7-1.2-1.2c-0.3-0.5-0.4-1.1-0.4-1.8c0-0.7,0.1-1.3,0.4-1.8s0.7-0.9,1.2-1.2
		c0.5-0.3,1.1-0.4,1.7-0.4s1.2,0.1,1.7,0.4c0.5,0.3,0.9,0.7,1.2,1.2s0.4,1.1,0.4,1.8s-0.1,1.3-0.5,1.8c-0.3,0.5-0.7,0.9-1.2,1.2
		c-0.5,0.3-1.1,0.4-1.7,0.4C301,174.1,300.4,174,299.9,173.7z M302.7,172.9c0.3-0.2,0.6-0.5,0.8-0.8s0.3-0.8,0.3-1.3
		c0-0.5-0.1-1-0.3-1.3c-0.2-0.4-0.5-0.6-0.8-0.8c-0.3-0.2-0.7-0.3-1.1-0.3c-0.4,0-0.8,0.1-1.1,0.3c-0.3,0.2-0.6,0.5-0.8,0.8
		c-0.2,0.4-0.3,0.8-0.3,1.3c0,0.5,0.1,1,0.3,1.4c0.2,0.4,0.5,0.6,0.8,0.8s0.7,0.3,1.1,0.3S302.4,173.1,302.7,172.9z"/>
	<path class="st4" d="M311.6,168c0.5,0.5,0.7,1.2,0.7,2.1v3.9h-1.1v-3.7c0-0.7-0.2-1.2-0.5-1.5c-0.3-0.3-0.8-0.5-1.3-0.5
		c-0.6,0-1,0.2-1.4,0.5s-0.5,0.9-0.5,1.6v3.6h-1.1v-6.6h1.1v0.9c0.2-0.3,0.5-0.6,0.9-0.8s0.8-0.3,1.2-0.3
		C310.4,167.3,311.1,167.6,311.6,168z"/>
	<path class="st4" d="M320.1,171.1h-5.3c0,0.6,0.3,1.2,0.7,1.5c0.4,0.4,0.9,0.5,1.5,0.5c0.5,0,0.9-0.1,1.2-0.3
		c0.3-0.2,0.5-0.5,0.7-0.9h1.2c-0.2,0.6-0.5,1.1-1.1,1.5c-0.5,0.4-1.2,0.6-2,0.6c-0.6,0-1.2-0.1-1.7-0.4c-0.5-0.3-0.9-0.7-1.2-1.2
		c-0.3-0.5-0.4-1.1-0.4-1.8s0.1-1.3,0.4-1.8s0.7-0.9,1.1-1.2c0.5-0.3,1.1-0.4,1.7-0.4c0.6,0,1.2,0.1,1.7,0.4
		c0.5,0.3,0.9,0.6,1.1,1.1c0.3,0.5,0.4,1,0.4,1.6C320.1,170.7,320.1,170.9,320.1,171.1z M318.7,169.2c-0.2-0.3-0.4-0.5-0.8-0.7
		c-0.3-0.2-0.7-0.2-1-0.2c-0.6,0-1,0.2-1.4,0.5c-0.4,0.4-0.6,0.8-0.7,1.5h4.2C319,169.8,318.9,169.5,318.7,169.2z"/>
	<path class="st4" d="M322.5,173.9c-0.4-0.2-0.7-0.4-0.9-0.7c-0.2-0.3-0.4-0.7-0.4-1.1h1.1c0,0.3,0.2,0.6,0.5,0.8
		c0.3,0.2,0.6,0.3,1.1,0.3c0.4,0,0.7-0.1,1-0.3c0.2-0.2,0.4-0.4,0.4-0.7c0-0.3-0.1-0.5-0.4-0.6c-0.3-0.1-0.7-0.3-1.2-0.4
		c-0.5-0.1-0.9-0.3-1.2-0.4c-0.3-0.1-0.6-0.3-0.8-0.6c-0.2-0.3-0.3-0.6-0.3-1c0-0.3,0.1-0.6,0.3-0.9c0.2-0.3,0.5-0.5,0.9-0.7
		c0.4-0.2,0.8-0.2,1.3-0.2c0.7,0,1.3,0.2,1.8,0.6c0.4,0.4,0.7,0.9,0.7,1.5h-1.1c0-0.3-0.2-0.6-0.4-0.8s-0.6-0.3-1-0.3
		c-0.4,0-0.7,0.1-0.9,0.3c-0.2,0.2-0.3,0.4-0.3,0.7c0,0.2,0.1,0.4,0.2,0.5c0.1,0.1,0.3,0.3,0.5,0.3s0.5,0.2,0.9,0.3
		c0.5,0.1,0.9,0.3,1.2,0.4s0.5,0.3,0.8,0.6s0.3,0.6,0.3,1c0,0.4-0.1,0.7-0.3,1c-0.2,0.3-0.5,0.5-0.8,0.7c-0.4,0.2-0.8,0.2-1.3,0.2
		C323.4,174.1,322.9,174,322.5,173.9z"/>
</g>
<g id="user_people_person_users_man">
	<path class="st4" d="M616.5,16c-0.2-0.2-0.5-0.2-0.7,0c-0.2,0.2-0.2,0.5,0,0.7c0.8,0.8,1.3,1.9,1.3,3.1c0,0.6-1.7,1.4-4.3,1.4
		s-4.3-0.9-4.3-1.4c0-1.1,0.5-2.2,1.3-3.1c0.2-0.2,0.2-0.5,0-0.7c-0.2-0.2-0.5-0.2-0.7,0c-1,1-1.5,2.3-1.5,3.7
		c0,1.6,2.7,2.4,5.3,2.4s5.3-0.8,5.3-2.4C618,18.3,617.5,17,616.5,16z"/>
	<path class="st4" d="M612.8,16.4c1.9,0,3.4-1.5,3.4-3.4s-1.5-3.4-3.4-3.4s-3.4,1.5-3.4,3.4S610.9,16.4,612.8,16.4z M612.8,10.6
		c1.3,0,2.4,1.1,2.4,2.4s-1.1,2.4-2.4,2.4s-2.4-1.1-2.4-2.4S611.4,10.6,612.8,10.6z"/>
</g>
<g>
	<path class="st11" d="M23.5,79.4C23.5,79.5,23.5,79.5,23.5,79.4c0,2,0,4,0,5.9c0,0.8-0.6,1.4-1.3,1.6c-0.2,0-0.4,0-0.6,0
		c-2.3,0-4.6,0-6.8,0c-0.4,0-0.8,0-1.3,0c-0.7,0-1.3-0.6-1.4-1.2c0-0.1,0-0.2,0-0.3c0-1.5,0-2.9,0-4.4c0-0.4,0.3-0.6,0.7-0.5
		c0.2,0,0.3,0.2,0.4,0.4c0,0.1,0,0.3,0,0.4c0,1.4,0,2.7,0,4.1c0,0.3,0.2,0.6,0.6,0.6c1.9,0,3.7,0,5.6,0c0.1,0,0.1,0,0.1-0.1
		c0-1.7,0-3.4,0-5c0-0.1,0-0.1-0.1-0.1c-1,0-2,0-2.9,0c-0.1,0-0.1,0-0.1,0.1c0,1.1,0,2.3,0,3.4v0.1c0,0.3-0.3,0.5-0.6,0.4
		c-0.3-0.1-0.4-0.3-0.4-0.5c0-1.4,0-2.7,0-4.1c0-0.3,0.1-0.5,0.4-0.5c0.1,0,0.1,0,0.2,0c1.4,0,2.7,0,4.1,0c0.3,0,0.5,0.2,0.5,0.5
		c0,1.9,0,3.7,0,5.6c0,0.1,0,0.1,0.1,0.1c0.5,0,0.9,0,1.4,0c0.3,0,0.6-0.2,0.6-0.6c0-2.3,0-4.5,0-6.8v-0.1c-1-0.9-2.1-1.9-3.1-2.8
		c-0.4-0.3-0.8-0.7-1.1-1c-0.2-0.2-0.5-0.2-0.7,0c-1.7,1.5-3.4,3-5.1,4.5c-0.1,0.1-0.3,0.2-0.4,0.4c-0.2,0.2-0.6,0.1-0.7-0.1
		c-0.2-0.2-0.2-0.5,0.1-0.7c0.4-0.4,0.8-0.7,1.2-1c1.4-1.3,2.8-2.5,4.3-3.8c0.3-0.3,0.7-0.5,1.1-0.5s0.8,0.1,1.1,0.4
		c1.6,1.4,3.2,2.8,4.7,4.2c0.3,0.2,0.5,0.4,0.8,0.7c0.2,0.1,0.2,0.3,0.2,0.5s-0.2,0.3-0.3,0.4c-0.2,0-0.3,0-0.5-0.1
		C23.7,79.5,23.6,79.4,23.5,79.4z"/>
	<g>
		<g>
			<g>
				<defs>
					<rect id="SVGID_00000132082391473057007760000000974668035305041545_" x="12.7" y="109.3" width="10.2" height="10.2"/>
				</defs>
				<clipPath id="SVGID_00000104687448245525382840000018024294476219013019_">
					<use xlink:href="#SVGID_00000132082391473057007760000000974668035305041545_"  style="overflow:visible;"/>
				</clipPath>
				<g style="clip-path:url(#SVGID_00000104687448245525382840000018024294476219013019_);">
					<path class="st13" d="M14.3,117.7c-0.2,0-0.3-0.1-0.3-0.3s0.1-0.3,0.3-0.3H15c0.2,0,0.3,0.1,0.3,0.3s-0.1,0.3-0.3,0.3H14.3z
						 M16.2,117.7c-0.2,0-0.3-0.1-0.3-0.3s0.1-0.3,0.3-0.3h0.6c0.2,0,0.3,0.1,0.3,0.3s-0.1,0.3-0.3,0.3H16.2z M17.8,117.3
						c0-0.2,0.1-0.3,0.3-0.3s0.3,0.1,0.3,0.3s-0.1,0.3-0.3,0.3S17.8,117.5,17.8,117.3z M15.6,111.3h6.6c0.4,0,0.8,0.4,0.8,0.8v2.4
						c0,0.7-0.6,1.3-1.3,1.3h-0.3c-0.2,0-0.3,0.1-0.3,0.3v2.2c0,0.7-0.6,1.3-1.3,1.3H14c-0.7,0-1.3-0.6-1.3-1.3v-3.8
						c0-0.7,0.6-1.3,1.3-1.3h5.8c0.5,0,1,0.3,1.2,0.8l0,0l0,0v0.1c0,0.2-0.1,0.3-0.3,0.3c-0.1,0-0.3-0.1-0.3-0.2l0,0
						c-0.1-0.2-0.3-0.4-0.6-0.4H14c-0.4,0-0.6,0.3-0.6,0.6v3.8c0,0.4,0.3,0.6,0.6,0.6h5.8c0.4,0,0.6-0.3,0.6-0.6v-2.4
						c0-0.4,0.4-0.8,0.8-0.8h0.5c0.4,0,0.6-0.3,0.6-0.6v-1.6c0-0.2-0.1-0.3-0.3-0.3h-6.6c-0.4,0-0.8-0.4-0.8-0.8v-1.1
						c0-0.7,0.6-1.3,1.3-1.3h5.8c0.5,0,1,0.3,1.2,0.8l0,0l0,0v0.1c0,0.2-0.1,0.3-0.3,0.3c-0.1,0-0.3-0.1-0.3-0.2l0,0
						c-0.1-0.2-0.3-0.4-0.6-0.4h-5.8c-0.4,0-0.6,0.3-0.6,0.6v0.3C15.3,111.1,15.4,111.3,15.6,111.3L15.6,111.3z"/>
				</g>
			</g>
		</g>
	</g>
	<path class="st4" d="M15.3,144.8c0-1.6,0.9-2.7,2.2-2.8c0.9-0.1,1.9,0.4,2.4,1.2c0.5,0.9,0.5,1.9,0,2.8c-0.9,1.5-3,1.7-4,0.3
		C15.5,145.8,15.3,145.2,15.3,144.8L15.3,144.8z M16.2,144.6c0,0.9,0.6,1.7,1.6,1.7c0.9,0,1.7-0.7,1.7-1.6c0.1-1-0.6-1.8-1.5-1.8
		C17,142.9,16.2,143.6,16.2,144.6z"/>
	<path class="st4" d="M19.8,148.2c0.4,0.2,0.8,0.3,1.2,0.6c0.3,0.2,0.5,0.3,0.7,0.6c0.1,0.2,0.2,0.4,0.2,0.6c0,0.6,0,1.2,0,1.9
		c0,0.3-0.2,0.5-0.4,0.5c-0.3,0-0.4-0.2-0.4-0.5c0-0.6,0-1.2,0-1.7c0-0.1,0-0.2-0.1-0.3c-0.2-0.1-0.3-0.2-0.5-0.3
		c-0.3-0.2-0.7-0.3-1.1-0.5c-0.2-0.1-0.4-0.1-0.6-0.2c-0.5-0.2-1-0.2-1.5-0.1c-0.8,0.2-1.7,0.5-2.4,1c-0.2,0.1-0.3,0.3-0.3,0.5
		c0,0.5,0,1,0,1.6c0,0.1,0,0.2,0,0.3c-0.1,0.2-0.3,0.3-0.4,0.3c-0.2,0-0.4-0.2-0.4-0.4c0-0.7,0-1.4,0-2.1c0-0.3,0.2-0.5,0.5-0.7
		c0.4-0.3,0.8-0.5,1.2-0.7c0.7-0.3,1.3-0.5,2-0.6c0.6-0.1,1.2,0,1.7,0.2c0.1,0,0.2,0.1,0.3,0.1C19.6,148.1,19.7,148.1,19.8,148.2
		L19.8,148.2z"/>
	<path class="st4" d="M16.3,180.9c0,0.3,0,0.3,0.3,0.3c0.3,0.1,0.6,0.2,0.6,0.6c0.1,0.3-0.1,0.6-0.4,0.8c-0.1,0-0.1,0.1-0.2,0.1
		c-0.2,0-0.3,0.1-0.3,0.3c0,0.1-0.1,0.2-0.2,0.2s-0.2-0.1-0.2-0.2c0-0.2-0.1-0.2-0.2-0.3c-0.2-0.1-0.4-0.2-0.5-0.3s-0.1-0.3,0-0.4
		c0.1-0.1,0.3-0.1,0.4,0.1l0,0c0.1,0.1,0.2,0.2,0.3,0.1c0.1,0,0-0.2,0-0.3c0-0.3,0-0.3-0.3-0.4c-0.1,0-0.2-0.1-0.2-0.1
		c-0.3-0.2-0.4-0.6-0.3-0.9c0.1-0.2,0.2-0.3,0.4-0.4c0.2-0.1,0.4-0.1,0.3-0.4c0-0.1,0.1-0.2,0.2-0.2c0.1,0,0.2,0.1,0.2,0.2
		c0,0.2,0.1,0.2,0.2,0.3c0.2,0,0.5,0.2,0.6,0.4s0.1,0.3,0,0.4c-0.1,0.1-0.3,0-0.4-0.1s-0.2-0.2-0.3-0.2c-0.1,0-0.1,0-0.1,0.1
		C16.3,180.8,16.3,180.9,16.3,180.9L16.3,180.9z M16.3,182.1c0,0.1,0,0.2,0,0.2c0.1,0,0.2-0.1,0.3-0.2l0,0c0-0.1,0.1-0.2,0-0.3
		s-0.2-0.1-0.3-0.1c-0.1,0,0,0.1,0,0.2C16.3,182,16.3,182,16.3,182.1L16.3,182.1z M15.8,181.2v-0.6c-0.2,0.1-0.4,0.2-0.3,0.3
		C15.5,181.1,15.6,181.2,15.8,181.2z"/>
	<path class="st13" d="M20.5,181.3l2.1-2.1c0.6-0.6,0.6-1.5,0-2.1l-2.1-2.1c-0.3-0.3-0.7-0.4-1-0.4l0,0c-0.5,0-1,0.4-1,1
		c0,0.2-0.1,0.3-0.3,0.3h-1c-2.5,0-4.5,2-4.5,4.5s2,4.5,4.5,4.5h1.6c0.2,0,0.3-0.1,0.3-0.3s-0.1-0.3-0.3-0.3h-1.6
		c-2.1,0-3.8-1.7-3.8-3.8s1.7-3.8,3.8-3.8h1c0.5,0,1-0.4,1-1c0-0.2,0.1-0.3,0.3-0.3c0,0,0,0,0.1,0c0.2,0,0.3,0.1,0.4,0.2l2.2,2.2
		c0.3,0.3,0.3,0.7,0,1L20,181c-0.1,0.1-0.3,0.2-0.4,0.2c0,0,0,0-0.1,0c-0.2,0-0.3-0.1-0.3-0.3c0-0.5-0.4-1-1-1h-0.6
		c-0.3,0-0.5,0-0.7,0.1c0.3,0.1,0.5,0.3,0.7,0.5l0,0h0.6c0.2,0,0.3,0.1,0.3,0.3c0,0.5,0.4,1,1,1l0,0
		C19.8,181.7,20.2,181.6,20.5,181.3z"/>
	<path class="st4" d="M18.2,217.6h-0.7c-1.4,0-2.8,0-4.2,0c-0.1,0-0.1,0-0.2,0c-0.2,0-0.3-0.2-0.3-0.4c0-0.8,0-1.6,0-2.5
		c0-2.3,0-4.6,0-7c0-0.3,0.2-0.4,0.4-0.4c2.2,0,4.3,0,6.5,0c0.1,0,0.1,0,0.2,0s0.1,0.1,0.1,0.1c0.4,0.4,0.7,0.7,1.1,1.1
		c0,0,0.1,0.1,0.1,0.2c0,0.1,0,0.1,0,0.2c0,0.9,0,1.9,0,2.8c0,0.1,0,0.1-0.1,0.1c-0.2-0.1-0.3-0.1-0.5-0.1c-0.1,0-0.1,0-0.1-0.1
		c0-0.7,0-1.5,0-2.2c0-0.1,0-0.1-0.1-0.1c-0.2,0-0.4,0-0.6,0s-0.4-0.1-0.4-0.4c0-0.2,0-0.4,0-0.6c0-0.1,0-0.1-0.1-0.1
		c-1.4,0-2.9,0-4.3,0c-0.4,0-0.9,0-1.3,0c-0.1,0-0.1,0-0.1,0.1c0,2.9,0,5.7,0,8.6c0,0.1,0,0.1,0.1,0.1c1.2,0,2.5,0,3.7,0
		c0.1,0,0.2,0,0.2,0.1C17.8,217.2,18,217.4,18.2,217.6z"/>
	<path class="st4" d="M22.8,214.9c0,1.5-1.2,2.7-2.7,2.7s-2.7-1.2-2.7-2.7s1.2-2.7,2.7-2.7C21.6,212.2,22.8,213.4,22.8,214.9z
		 M20.2,212.9c-1.1,0-2,0.9-2,1.9c0,1.1,0.9,2,2,2c0.3,0,0.5,0,0.8-0.1c0.2-0.1,0.5-0.2,0.6-0.4c0.2-0.2,0.3-0.4,0.4-0.6
		c0.1-0.2,0.2-0.5,0.2-0.8C22.1,213.8,21.3,212.9,20.2,212.9z"/>
	<path class="st4" d="M16.2,211.1c-0.1,0-0.2,0-0.3,0c-0.1,0-0.3-0.1-0.3-0.2c-0.1-0.1-0.1-0.2-0.1-0.4c0-0.1,0.1-0.3,0.1-0.4
		c0.1-0.1,0.2-0.2,0.3-0.2c0.2,0,0.4,0,0.5,0s0.1,0,0.1-0.1c0-0.2,0-0.3,0-0.5c0-0.3,0.2-0.5,0.5-0.5s0.5,0.2,0.5,0.5
		c0,0.2,0,0.3,0,0.5c0,0.1,0,0.1,0.1,0.1c0.2,0,0.3,0,0.5,0c0.3,0,0.5,0.2,0.5,0.5s-0.2,0.5-0.5,0.5c-0.2,0-0.3,0-0.5,0
		c-0.1,0-0.1,0-0.1,0.1c0,0.2,0,0.3,0,0.5c0,0.3-0.2,0.5-0.5,0.5s-0.5-0.2-0.5-0.5c0-0.2,0-0.3,0-0.5c0-0.1,0-0.1-0.1-0.1
		C16.4,211.1,16.3,211.1,16.2,211.1L16.2,211.1z"/>
	<path class="st4" d="M17.5,212.9c-0.1,0.2-0.3,0.4-0.4,0.6c0,0,0,0-0.1,0c-0.9,0-1.7,0-2.6,0h-0.1c0,0-0.1,0-0.1-0.1l-0.1-0.1v-0.1
		c0-0.2,0.1-0.3,0.3-0.3c0.3,0,0.6,0,0.9,0L17.5,212.9L17.5,212.9z"/>
	<path class="st4" d="M15.7,216c-0.4,0-0.8,0-1.2,0c-0.2,0-0.4-0.1-0.4-0.3s0.1-0.3,0.4-0.3c0.8,0,1.5,0,2.3,0c0.1,0,0.1,0,0.1,0.1
		c0,0.2,0.1,0.3,0.1,0.5c0,0.1,0,0.1-0.1,0.1C16.5,216,16.1,216,15.7,216L15.7,216z"/>
	<path class="st4" d="M15.7,214.1h1.2c0.1,0,0.1,0,0.1,0.1s0,0.3-0.1,0.4c0,0.1,0,0.1-0.1,0.1c-0.8,0-1.5,0-2.3,0
		c-0.1,0-0.2,0-0.2-0.1c-0.1-0.1-0.1-0.1-0.1-0.2c0-0.1,0-0.2,0.1-0.2c0.1-0.1,0.1-0.1,0.2-0.1C14.9,214.1,15.3,214.1,15.7,214.1
		L15.7,214.1z"/>
	<path class="st4" d="M19.3,215.8c0,0.3,0,0.3,0.3,0.4c0.1,0,0.2,0,0.4,0c0,0,0.1,0,0.1,0.1s0,0.1,0.1,0.1h0.1c0.1,0,0.1,0,0.1-0.1
		s0-0.1,0.1-0.1h0.1c0.3-0.1,0.5-0.3,0.6-0.6c0.1-0.4-0.1-0.6-0.4-0.8c-0.1-0.1-0.3-0.1-0.4-0.2c-0.1,0-0.2-0.1-0.3-0.2
		c-0.1-0.1-0.1-0.2,0-0.3h0.1c0.2,0,0.4,0,0.6,0.1c0.1,0,0.2,0,0.2-0.1s0-0.1,0-0.2c0-0.1-0.1-0.2-0.2-0.3c-0.1,0-0.2,0-0.4,0
		c0,0-0.1,0-0.1-0.1s0-0.1-0.1-0.1h-0.1c-0.1,0-0.1,0-0.1,0.1s0,0.1-0.1,0.1c-0.2,0-0.4,0.1-0.5,0.3c-0.3,0.4-0.1,0.8,0.2,1.1
		c0.1,0.1,0.3,0.1,0.5,0.2c0.1,0,0.2,0.1,0.3,0.2c0.1,0.1,0.1,0.2,0,0.3c0,0-0.1,0-0.2,0c-0.2,0-0.4,0-0.6-0.1
		C19.3,215.5,19.3,215.5,19.3,215.8z"/>
	<path class="st4" d="M19.3,215.8c0-0.3,0.1-0.3,0.3-0.2c0.2,0.1,0.4,0.1,0.6,0.1c0.1,0,0.1,0,0.2,0c0.1-0.1,0.1-0.2,0-0.3
		s-0.2-0.1-0.3-0.2c-0.2-0.1-0.3-0.1-0.5-0.2c-0.4-0.3-0.5-0.7-0.2-1.1c0.1-0.2,0.3-0.3,0.5-0.3c0.1,0,0.1-0.1,0.1-0.1
		c0-0.1,0-0.1,0.1-0.1h0.1c0.1,0,0.2,0,0.1,0.1c0,0.1,0,0.1,0.1,0.1s0.2,0,0.4,0c0.1,0,0.2,0.1,0.2,0.3c0,0.1,0,0.1,0,0.2
		c0,0.1-0.1,0.2-0.2,0.1c-0.2-0.1-0.4-0.1-0.6-0.1h-0.1c-0.1,0.1-0.1,0.2,0,0.3s0.2,0.1,0.3,0.2c0.1,0.1,0.3,0.1,0.4,0.2
		c0.3,0.2,0.4,0.5,0.4,0.8c-0.1,0.3-0.3,0.5-0.6,0.6h-0.1c-0.1,0-0.1,0-0.1,0.1s0,0.1-0.1,0.1h-0.1c-0.1,0-0.1,0-0.1-0.1
		s0-0.1-0.1-0.1s-0.2,0-0.4,0C19.3,216.2,19.3,216.1,19.3,215.8z"/>
	<g>
		<g>
			<g>
				<defs>
					<rect id="SVGID_00000003090040091968818080000002430944211702823308_" x="13.6" y="240" width="8.4" height="10.2"/>
				</defs>
				<clipPath id="SVGID_00000178200873863693884330000000376781582879508927_">
					<use xlink:href="#SVGID_00000003090040091968818080000002430944211702823308_"  style="overflow:visible;"/>
				</clipPath>
				<g style="clip-path:url(#SVGID_00000178200873863693884330000000376781582879508927_);">
					<path class="st13" d="M20.8,243.5c0,0.2-0.1,0.3-0.3,0.3s-0.3-0.1-0.3-0.3s0.1-0.3,0.3-0.3S20.8,243.3,20.8,243.5z M20.8,249
						h-5.1c-0.5,0-0.9-0.4-0.9-1v-6.7c0-0.7,0.5-1.3,1.2-1.3h2.2c0.4,0,0.7,0.4,0.7,0.8v1.8c0,0.4,0.3,0.6,0.6,0.6
						c0.2,0,0.3,0.1,0.3,0.3s-0.1,0.3-0.3,0.3c-0.7,0-1.2-0.6-1.2-1.3v-1.6c0-0.2-0.1-0.3-0.3-0.3h-2c-0.3,0-0.6,0.3-0.6,0.6v6.6
						c0,0.3,0.2,0.5,0.4,0.5h4.9c0.3,0,0.6-0.3,0.6-0.6v-4.1c0-0.2-0.1-0.3-0.2-0.5l-1.7-1.8c-0.1-0.1-0.1-0.3,0-0.5s0.3-0.1,0.4,0
						l1.7,1.8c0.2,0.2,0.4,0.6,0.4,0.9v4.1C22,248.4,21.5,249,20.8,249L20.8,249z M19.6,249.6c0.2,0,0.3,0.1,0.3,0.3
						s-0.1,0.3-0.3,0.3h-4.5c-0.8,0-1.5-0.7-1.5-1.6v-4.8c0-0.2,0.1-0.3,0.3-0.3s0.3,0.1,0.3,0.3v4.8c0,0.5,0.4,1,0.9,1H19.6z
						 M13.9,242.9c-0.2,0-0.3-0.1-0.3-0.3s0.1-0.3,0.3-0.3s0.3,0.1,0.3,0.3S14.1,242.9,13.9,242.9z"/>
				</g>
			</g>
		</g>
	</g>
	<g>
		<g>
			<g>
				<defs>
					<rect id="SVGID_00000170977338153056066840000016517509095406022591_" x="13.1" y="272.6" width="9.4" height="10.2"/>
				</defs>
				<clipPath id="SVGID_00000036974453872343652440000012799664527274194819_">
					<use xlink:href="#SVGID_00000170977338153056066840000016517509095406022591_"  style="overflow:visible;"/>
				</clipPath>
				<g style="clip-path:url(#SVGID_00000036974453872343652440000012799664527274194819_);">
					<path class="st13" d="M17.8,279.1c0.2,0,0.3,0.1,0.3,0.3s-0.1,0.3-0.3,0.3s-0.3-0.1-0.3-0.3S17.7,279.1,17.8,279.1z
						 M17.8,275.2c-0.5,0-0.9,0.4-0.9,1c0,0.2-0.1,0.3-0.3,0.3c-0.2,0-0.3-0.1-0.3-0.3c0-0.9,0.7-1.6,1.6-1.6s1.6,0.7,1.6,1.6
						c0,0.7-0.4,1.2-1,1.5l0,0c-0.2,0.1-0.3,0.2-0.3,0.4c0,0,0,0,0,0.1s-0.2,0.3-0.3,0.3c-0.2,0-0.3-0.1-0.3-0.3
						c0-0.5,0.3-0.9,0.7-1c0.3-0.1,0.6-0.5,0.6-0.9C18.8,275.6,18.4,275.2,17.8,275.2z M21.3,281h-2.2c-0.2,0-0.4,0.1-0.6,0.2
						l-2,1.5l0,0c-0.2,0.1-0.4,0.2-0.6,0.2c-0.5,0-0.9-0.4-0.9-1v-0.6c0-0.2-0.1-0.3-0.3-0.3h-0.3c-0.7,0-1.3-0.6-1.3-1.3v-5.8
						c0-0.7,0.6-1.3,1.3-1.3h5.3c0.2,0,0.3,0.1,0.3,0.3s-0.1,0.3-0.3,0.3h-5.2c-0.4,0-0.8,0.4-0.8,0.8v5.4c0,0.4,0.4,0.8,0.8,0.8
						h0.3c0.4,0,0.8,0.4,0.8,0.8v0.8c0,0.2,0.1,0.3,0.3,0.3c0.1,0,0.1,0,0.2-0.1l2-1.5c0.3-0.2,0.6-0.3,1-0.3h2
						c0.4,0,0.8-0.4,0.8-0.8v-5.3c0-0.2,0.1-0.3,0.3-0.3c0.2,0,0.3,0.1,0.3,0.3v5.4C22.5,280.4,22,281,21.3,281L21.3,281z M21,273.3
						c-0.2,0-0.3-0.1-0.3-0.3s0.1-0.3,0.3-0.3c0.2,0,0.3,0.1,0.3,0.3S21.1,273.3,21,273.3z"/>
				</g>
			</g>
		</g>
	</g>
</g>
<path class="st7" d="M216,346H71.2c-2.8,0-5-2.2-5-5V239c0-2.8,2.2-5,5-5H216c2.8,0,5,2.2,5,5v102C221,343.8,218.7,346,216,346z"/>
<path class="st7" d="M380,345.5H235.2c-2.8,0-5-2.2-5-5V238.7c0-2.8,2.2-5,5-5H380c2.8,0,5,2.2,5,5v101.8
	C385,343.2,382.8,345.5,380,345.5z"/>
<path class="st7" d="M543.2,346.6H398.3c-2.8,0-5-2.2-5-5V239.8c0-2.8,2.2-5,5-5h144.8c2.8,0,5,2.2,5,5v101.8
	C548.2,344.4,545.9,346.6,543.2,346.6z"/>
<g class="st16">
	<g>
		<g>
			<defs>
				<rect id="SVGID_00000047038241449103001480000000333998858690501793_" x="130.5" y="276.6" width="26" height="26.8"/>
			</defs>
			<clipPath id="SVGID_00000138531201433904455410000010048614467367226039_">
				<use xlink:href="#SVGID_00000047038241449103001480000000333998858690501793_"  style="overflow:visible;"/>
			</clipPath>
			<g style="clip-path:url(#SVGID_00000138531201433904455410000010048614467367226039_);">
				<path class="st11" d="M141.9,281.3c-0.7-0.6-1-1.4-0.9-2.3c0.1-0.7,0.4-1.3,0.9-1.8c1.1-0.9,2.7-0.8,3.7,0.2
					c0.9,0.9,1.1,2.6-0.2,3.9c0.1,0.1,0.3,0.1,0.4,0.2c0.8,0.4,1.5,1,1.7,2c0.1,0.2,0.1,0.5,0.1,0.7c0,1.7,0,3.3,0,5
					c0,1.2-0.5,1.9-1.7,2.2c-1.5,0.3-3.1,0.3-4.6,0c-0.7-0.2-1.3-0.5-1.5-1.3c-0.1-0.2-0.1-0.4-0.1-0.7c0-1.6,0-3.3,0-4.9
					c0-1.4,0.7-2.3,1.8-2.9c0.1,0,0.1-0.1,0.2-0.1C141.7,281.4,141.8,281.4,141.9,281.3L141.9,281.3z M145.6,290.2
					c0.6-0.1,0.7-0.3,0.7-0.9c0-1.7,0-3.5,0-5.2c0-0.5-0.2-0.9-0.5-1.2c-1.2-1-3.3-1-4.5,0c-0.4,0.3-0.6,0.7-0.6,1.2
					c0,1.7,0,3.5,0,5.2c0,0.5,0.2,0.7,0.7,0.9c0-0.1,0-0.2,0-0.3c0-1.3,0-2.6,0-3.9c0-0.3,0.2-0.5,0.4-0.5c0.3,0,0.4,0.2,0.4,0.5
					c0,0.1,0,0.2,0,0.3c0,1.3,0,2.5,0,3.8c0,0.2,0.1,0.3,0.3,0.3c0.6,0,1.3,0,1.9,0c0.2,0,0.3-0.1,0.3-0.3c0-1.4,0-2.7,0-4.1
					c0-0.3,0.2-0.5,0.4-0.5c0.3,0,0.4,0.2,0.4,0.5c0,0.1,0,0.2,0,0.3C145.6,287.6,145.6,288.9,145.6,290.2L145.6,290.2z
					 M145.1,279.3c0-0.8-0.7-1.5-1.5-1.5s-1.5,0.7-1.5,1.5s0.7,1.5,1.5,1.5C144.4,280.8,145.1,280.1,145.1,279.3L145.1,279.3z"/>
				<path class="st18" d="M141.9,281.3c-0.7-0.6-1-1.4-0.9-2.3c0.1-0.7,0.4-1.3,0.9-1.8c1.1-0.9,2.7-0.8,3.7,0.2
					c0.9,0.9,1.1,2.6-0.2,3.9c0.1,0.1,0.3,0.1,0.4,0.2c0.8,0.4,1.5,1,1.7,2c0.1,0.2,0.1,0.5,0.1,0.7c0,1.7,0,3.3,0,5
					c0,1.2-0.5,1.9-1.7,2.2c-1.5,0.3-3.1,0.3-4.6,0c-0.7-0.2-1.3-0.5-1.5-1.3c-0.1-0.2-0.1-0.4-0.1-0.7c0-1.6,0-3.3,0-4.9
					c0-1.4,0.7-2.3,1.8-2.9c0.1,0,0.1-0.1,0.2-0.1C141.7,281.4,141.8,281.4,141.9,281.3L141.9,281.3z M145.6,290.2
					c0.6-0.1,0.7-0.3,0.7-0.9c0-1.7,0-3.5,0-5.2c0-0.5-0.2-0.9-0.5-1.2c-1.2-1-3.3-1-4.5,0c-0.4,0.3-0.6,0.7-0.6,1.2
					c0,1.7,0,3.5,0,5.2c0,0.5,0.2,0.7,0.7,0.9c0-0.1,0-0.2,0-0.3c0-1.3,0-2.6,0-3.9c0-0.3,0.2-0.5,0.4-0.5c0.3,0,0.4,0.2,0.4,0.5
					c0,0.1,0,0.2,0,0.3c0,1.3,0,2.5,0,3.8c0,0.2,0.1,0.3,0.3,0.3c0.6,0,1.3,0,1.9,0c0.2,0,0.3-0.1,0.3-0.3c0-1.4,0-2.7,0-4.1
					c0-0.3,0.2-0.5,0.4-0.5c0.3,0,0.4,0.2,0.4,0.5c0,0.1,0,0.2,0,0.3C145.6,287.6,145.6,288.9,145.6,290.2L145.6,290.2z
					 M145.1,279.3c0-0.8-0.7-1.5-1.5-1.5s-1.5,0.7-1.5,1.5s0.7,1.5,1.5,1.5C144.4,280.8,145.1,280.1,145.1,279.3L145.1,279.3z"/>
				<path class="st11" d="M151,293.1c-0.6-0.6-1-1.3-0.9-2.2c0.1-0.7,0.4-1.3,0.9-1.8c1-0.9,2.5-0.9,3.5,0c0.6,0.5,0.9,1.2,0.9,2
					s-0.4,1.4-1,2c0.5,0.2,1,0.5,1.4,0.9c0.5,0.5,0.8,1.1,0.8,1.9c0,1.7,0,3.4,0,5c0,1.5-0.8,2-1.8,2.2c-1.5,0.3-3,0.3-4.5,0
					c-0.8-0.2-1.4-0.6-1.6-1.5c0-0.2,0-0.3,0-0.5c0-1.7,0-3.3,0-5c0-1.3,0.6-2.1,1.7-2.7C150.6,293.3,150.8,293.2,151,293.1
					L151,293.1z M154.7,302c0.6-0.2,0.7-0.4,0.7-0.9c0-1.7,0-3.4,0-5.1c0-0.5-0.2-0.9-0.6-1.2c-1.2-1-3.4-1-4.5,0
					c-0.4,0.3-0.6,0.7-0.6,1.2c0,1.7,0,3.5,0,5.2c0,0.4,0.2,0.6,0.5,0.8c0.3,0.1,0.3,0.1,0.3-0.2c0-1.3,0-2.5,0-3.8
					c0-0.4,0.1-0.6,0.4-0.6c0.3,0,0.4,0.2,0.4,0.6v0.1c0,1.3,0,2.6,0,3.8c0,0.2,0.1,0.3,0.2,0.3c0.7,0,1.3,0,2,0
					c0.2,0,0.2-0.1,0.2-0.3c0-1.4,0-2.7,0-4.1c0-0.3,0.2-0.5,0.4-0.5c0.3,0,0.4,0.2,0.4,0.5c0,0.1,0,0.2,0,0.2
					C154.7,299.4,154.7,300.7,154.7,302L154.7,302z M154.2,291.1c0-0.8-0.7-1.5-1.5-1.5s-1.5,0.7-1.5,1.5s0.7,1.5,1.5,1.5
					C153.6,292.6,154.2,291.9,154.2,291.1z"/>
				<path class="st18" d="M151,293.1c-0.6-0.6-1-1.3-0.9-2.2c0.1-0.7,0.4-1.3,0.9-1.8c1-0.9,2.5-0.9,3.5,0c0.6,0.5,0.9,1.2,0.9,2
					s-0.4,1.4-1,2c0.5,0.2,1,0.5,1.4,0.9c0.5,0.5,0.8,1.1,0.8,1.9c0,1.7,0,3.4,0,5c0,1.5-0.8,2-1.8,2.2c-1.5,0.3-3,0.3-4.5,0
					c-0.8-0.2-1.4-0.6-1.6-1.5c0-0.2,0-0.3,0-0.5c0-1.7,0-3.3,0-5c0-1.3,0.6-2.1,1.7-2.7C150.6,293.3,150.8,293.2,151,293.1
					L151,293.1z M154.7,302c0.6-0.2,0.7-0.4,0.7-0.9c0-1.7,0-3.4,0-5.1c0-0.5-0.2-0.9-0.6-1.2c-1.2-1-3.4-1-4.5,0
					c-0.4,0.3-0.6,0.7-0.6,1.2c0,1.7,0,3.5,0,5.2c0,0.4,0.2,0.6,0.5,0.8c0.3,0.1,0.3,0.1,0.3-0.2c0-1.3,0-2.5,0-3.8
					c0-0.4,0.1-0.6,0.4-0.6c0.3,0,0.4,0.2,0.4,0.6v0.1c0,1.3,0,2.6,0,3.8c0,0.2,0.1,0.3,0.2,0.3c0.7,0,1.3,0,2,0
					c0.2,0,0.2-0.1,0.2-0.3c0-1.4,0-2.7,0-4.1c0-0.3,0.2-0.5,0.4-0.5c0.3,0,0.4,0.2,0.4,0.5c0,0.1,0,0.2,0,0.2
					C154.7,299.4,154.7,300.7,154.7,302L154.7,302z M154.2,291.1c0-0.8-0.7-1.5-1.5-1.5s-1.5,0.7-1.5,1.5s0.7,1.5,1.5,1.5
					C153.6,292.6,154.2,291.9,154.2,291.1z"/>
				<path class="st11" d="M136.3,293.2c0.6,0.2,1.1,0.5,1.5,1s0.7,1.1,0.7,1.7c0,1.7,0,3.4,0,5.2c0,1.2-0.4,1.8-1.6,2.1
					c-1.7,0.4-3.4,0.4-5-0.1c-0.9-0.3-1.3-0.9-1.3-1.8c0-1.7,0-3.4,0-5.1c0-1.3,0.6-2.1,1.6-2.7c0.2-0.1,0.4-0.2,0.7-0.3
					c-0.7-0.7-1-1.5-0.9-2.5c0.1-0.7,0.4-1.2,1-1.6c1.1-0.9,2.7-0.8,3.6,0.3C137.4,290.2,137.6,291.9,136.3,293.2L136.3,293.2z
					 M132.4,302c0-0.1,0-0.1,0-0.2c0-1.3,0-2.7,0-4c0-0.3,0.2-0.5,0.4-0.5s0.4,0.2,0.4,0.5c0,0.1,0,0.1,0,0.2c0,1.3,0,2.6,0,3.9
					c0,0.2,0,0.2,0.2,0.2c0.7,0,1.3,0,2,0c0.2,0,0.2-0.1,0.2-0.3c0-1.3,0-2.6,0-3.9c0-0.1,0-0.2,0-0.2c0-0.2,0.1-0.3,0.3-0.4
					c0.2,0,0.3,0,0.4,0.1c0.1,0.1,0.1,0.3,0.1,0.4c0,1.3,0,2.5,0,3.8c0,0.1,0,0.2,0,0.3c0.6-0.2,0.7-0.4,0.7-0.9c0-1.7,0-3.4,0-5.1
					c0-0.6-0.2-1-0.6-1.3c-1.2-0.9-3.2-0.9-4.3,0c-0.4,0.3-0.6,0.8-0.6,1.3c0,1.7,0,3.4,0,5.1C131.7,301.7,131.8,301.9,132.4,302
					L132.4,302z M133.1,291.1c0,0.9,0.6,1.5,1.5,1.6c0.8,0,1.5-0.7,1.5-1.5s-0.6-1.5-1.5-1.5C133.8,289.6,133.1,290.2,133.1,291.1
					L133.1,291.1z"/>
				<path class="st18" d="M136.3,293.2c0.6,0.2,1.1,0.5,1.5,1s0.7,1.1,0.7,1.7c0,1.7,0,3.4,0,5.2c0,1.2-0.4,1.8-1.6,2.1
					c-1.7,0.4-3.4,0.4-5-0.1c-0.9-0.3-1.3-0.9-1.3-1.8c0-1.7,0-3.4,0-5.1c0-1.3,0.6-2.1,1.6-2.7c0.2-0.1,0.4-0.2,0.7-0.3
					c-0.7-0.7-1-1.5-0.9-2.5c0.1-0.7,0.4-1.2,1-1.6c1.1-0.9,2.7-0.8,3.6,0.3C137.4,290.2,137.6,291.9,136.3,293.2L136.3,293.2z
					 M132.4,302c0-0.1,0-0.1,0-0.2c0-1.3,0-2.7,0-4c0-0.3,0.2-0.5,0.4-0.5s0.4,0.2,0.4,0.5c0,0.1,0,0.1,0,0.2c0,1.3,0,2.6,0,3.9
					c0,0.2,0,0.2,0.2,0.2c0.7,0,1.3,0,2,0c0.2,0,0.2-0.1,0.2-0.3c0-1.3,0-2.6,0-3.9c0-0.1,0-0.2,0-0.2c0-0.2,0.1-0.3,0.3-0.4
					c0.2,0,0.3,0,0.4,0.1c0.1,0.1,0.1,0.3,0.1,0.4c0,1.3,0,2.5,0,3.8c0,0.1,0,0.2,0,0.3c0.6-0.2,0.7-0.4,0.7-0.9c0-1.7,0-3.4,0-5.1
					c0-0.6-0.2-1-0.6-1.3c-1.2-0.9-3.2-0.9-4.3,0c-0.4,0.3-0.6,0.8-0.6,1.3c0,1.7,0,3.4,0,5.1C131.7,301.7,131.8,301.9,132.4,302
					L132.4,302z M133.1,291.1c0,0.9,0.6,1.5,1.5,1.6c0.8,0,1.5-0.7,1.5-1.5s-0.6-1.5-1.5-1.5C133.8,289.6,133.1,290.2,133.1,291.1
					L133.1,291.1z"/>
				<path class="st11" d="M144.2,295.4c0,0.5,0,0.9,0,1.4c0,0.2,0,0.3,0.2,0.4c0.8,0.4,1.5,0.9,2.3,1.3c0.3,0.2,0.4,0.4,0.4,0.6
					c-0.1,0.4-0.5,0.6-0.9,0.4c-0.8-0.4-1.6-0.9-2.3-1.3c-0.2-0.1-0.3-0.1-0.5,0c-0.8,0.5-1.5,0.9-2.3,1.4c-0.4,0.2-0.9,0-0.9-0.5
					c0-0.2,0.1-0.4,0.4-0.5c0.8-0.5,1.6-0.9,2.4-1.4c0.2-0.1,0.2-0.2,0.2-0.4c0-0.9,0-1.8,0-2.7c0-0.4,0.2-0.6,0.5-0.6
					c0.4,0,0.6,0.2,0.6,0.6C144.2,294.5,144.2,294.9,144.2,295.4L144.2,295.4z"/>
				<path class="st18" d="M144.2,295.4c0,0.5,0,0.9,0,1.4c0,0.2,0,0.3,0.2,0.4c0.8,0.4,1.5,0.9,2.3,1.3c0.3,0.2,0.4,0.4,0.4,0.6
					c-0.1,0.4-0.5,0.6-0.9,0.4c-0.8-0.4-1.6-0.9-2.3-1.3c-0.2-0.1-0.3-0.1-0.5,0c-0.8,0.5-1.5,0.9-2.3,1.4c-0.4,0.2-0.9,0-0.9-0.5
					c0-0.2,0.1-0.4,0.4-0.5c0.8-0.5,1.6-0.9,2.4-1.4c0.2-0.1,0.2-0.2,0.2-0.4c0-0.9,0-1.8,0-2.7c0-0.4,0.2-0.6,0.5-0.6
					c0.4,0,0.6,0.2,0.6,0.6C144.2,294.5,144.2,294.9,144.2,295.4L144.2,295.4z"/>
			</g>
		</g>
	</g>
</g>
<g class="st19">
	<g>
		<g>
			<defs>
				<rect id="SVGID_00000167393301781170308000000017143703807846639256_" x="297.2" y="280.8" width="20.9" height="17.6"/>
			</defs>
			<clipPath id="SVGID_00000056408178476702755100000002909386672987898507_">
				<use xlink:href="#SVGID_00000167393301781170308000000017143703807846639256_"  style="overflow:visible;"/>
			</clipPath>
			<g style="clip-path:url(#SVGID_00000056408178476702755100000002909386672987898507_);">
				<path class="st11" d="M307.6,298.4c-2.8,0-5.7,0-8.5,0c-1.2,0-1.9-0.8-1.9-1.9c0-3.7,0-7.3,0-11c0-1.1,0.8-1.9,1.9-1.9
					c1.6,0,3.2,0,4.8,0c0.2,0,0.2,0,0.2-0.2c0-0.4-0.1-0.8,0-1.3c0.2-0.8,0.9-1.3,1.7-1.4c1.3,0,2.5,0,3.8,0c0.9,0,1.6,0.7,1.7,1.7
					c0,0.3,0,0.7,0,1c0,0.1,0,0.2,0.2,0.2c1.6,0,3.1,0,4.7,0c1.2,0,1.9,0.8,1.9,1.9c0,3.7,0,7.3,0,11c0,1-0.6,1.7-1.5,1.9
					c-0.1,0-0.2,0-0.4,0C313.3,298.4,310.5,298.4,307.6,298.4L307.6,298.4z M307.6,297.1c2.9,0,5.7,0,8.6,0c0.4,0,0.6-0.2,0.6-0.6
					c0-0.5,0-1,0-1.5c0-1.6,0-3.3,0-4.9c0-0.1,0-0.2-0.1-0.2c-2,0-3.9,0-5.9,0c-0.1,0-0.2,0-0.1,0.2c0,0.2,0,0.4,0,0.6
					c0,0.4-0.3,0.6-0.6,0.6c-1.5,0-3.1,0-4.6,0c-0.4,0-0.6-0.3-0.7-0.7c0-0.2,0-0.4,0-0.5c0-0.2,0-0.2-0.2-0.2c-1.9,0-3.9,0-5.8,0
					c-0.2,0-0.2,0-0.2,0.2c0,2.1,0,4.3,0,6.4c0,0.5,0.1,0.6,0.6,0.6C302,297.1,304.8,297.1,307.6,297.1L307.6,297.1z M307.6,284.9
					c-2.9,0-5.7,0-8.6,0c-0.4,0-0.6,0.2-0.6,0.6c0,0.9,0,1.8,0,2.7c0,0.2,0,0.2,0.2,0.2c1,0,1.9,0,2.9,0s1.9,0,2.9,0
					c0.1,0,0.2,0,0.2-0.2s0-0.3,0-0.5c0-0.5,0.3-0.7,0.7-0.7c0.3,0,0.6,0,0.8,0c1.2,0,2.4,0,3.5,0c0.5,0,0.8,0.3,0.8,0.8
					c0,0.1,0,0.3,0,0.4c0,0.2,0,0.2,0.2,0.2c1.9,0,3.9,0,5.8,0c0.2,0,0.2-0.1,0.2-0.2c0-0.9,0-1.8,0-2.7c0-0.5-0.1-0.6-0.6-0.6
					C313.3,284.9,310.5,284.9,307.6,284.9L307.6,284.9z M307.6,283.6c0.7,0,1.4,0,2.1,0c0.1,0,0.2,0,0.2-0.2c0-0.3,0-0.6,0-0.9
					s-0.1-0.4-0.4-0.4c-1.2,0-2.4,0-3.6,0c-0.3,0-0.4,0.1-0.4,0.4s0,0.6,0,0.9c0,0.1,0,0.2,0.2,0.2
					C306.2,283.6,306.9,283.6,307.6,283.6L307.6,283.6z M307.6,288.4c-0.5,0-1,0-1.5,0c-0.1,0-0.2,0-0.2,0.2c0,0.4,0,0.8,0,1.2
					c0,0.1,0,0.2,0.2,0.2c1,0,2,0,2.9,0c0.1,0,0.2,0,0.2-0.2c0-0.4,0-0.8,0-1.2c0-0.1,0-0.2-0.2-0.2
					C308.6,288.4,308.1,288.4,307.6,288.4L307.6,288.4z"/>
				<path class="st11" d="M307.6,293.7c1.3,0,2.7,0,4,0c0.4,0,0.7,0.3,0.7,0.7c0,0.4-0.3,0.7-0.7,0.7c-2.7,0-5.4,0-8.1,0
					c-0.4,0-0.7-0.3-0.7-0.6c0-0.3,0.2-0.7,0.5-0.7c0.1,0,0.2,0,0.2,0C305,293.7,306.3,293.7,307.6,293.7L307.6,293.7z"/>
			</g>
		</g>
	</g>
</g>
<path class="st18" d="M475.7,286.7L475.7,286.7c-0.6,0.5-1.2,1-1.8,1.5c-2.2,1.8-4.3,3.6-6.5,5.4c-0.1,0.1-0.1,0.1-0.3,0
	c-1.9-1-3.8-2-5.7-3v-0.1c6-3,12-6,18.1-9c0.4-0.2,0.8,0.1,0.8,0.5c-0.2,1.7-0.4,3.5-0.6,5.2s-0.4,3.4-0.6,5.1
	c-0.2,1.6-0.4,3.2-0.6,4.7c-0.1,0.6-0.1,1.2-0.2,1.8c0,0.2-0.1,0.2-0.2,0.1c-2.3-1-4.6-2.1-6.8-3.1c-0.2-0.1-0.2-0.1-0.3,0.1
	c-1,1.3-2,2.6-3,3.9l0,0c0,0.1-0.2,0-0.2-0.1c0-1.2,0-2.5,0-3.7c0-0.2,0.1-0.4,0.2-0.5C470.6,292.6,473.2,289.7,475.7,286.7
	c0.1,0,0.1,0,0.2-0.1C475.7,286.7,475.8,286.7,475.7,286.7C475.7,286.6,475.7,286.6,475.7,286.7L475.7,286.7z"/>
</svg>
