<?xml version="1.0" encoding="utf-8"?>
<!-- Generator: Adobe Illustrator 27.0.1, SVG Export Plug-In . SVG Version: 6.00 Build 0)  -->
<svg version="1.1" id="Layer_1" xmlns="http://www.w3.org/2000/svg" xmlns:xlink="http://www.w3.org/1999/xlink" x="0px" y="0px"
	 viewBox="0 0 136 41" style="enable-background:new 0 0 136 41;" xml:space="preserve">
<style type="text/css">
	.st0{opacity:0.3;fill:#FFFFFF;}
	.st1{fill:#3BC9D0;}
	.st2{opacity:0.3;fill:#FFFFFF;enable-background:new    ;}
	.st3{fill:none;}
	.st4{fill:#FFFFFF;}
	.st5{fill-rule:evenodd;clip-rule:evenodd;fill:#FFFFFF;}
</style>
<g>
	<g>
		<path class="st0" d="M134.3,21h-113c-0.9,0-1.7,0.8-1.7,1.7s0.8,1.7,1.7,1.7h113c0.9,0,1.7-0.8,1.7-1.7S135.2,21,134.3,21
			L134.3,21z"/>
		<path class="st1" d="M133.9,21.7H21.3c-0.6,0-1,0.5-1,1c0,0.6,0.5,1,1,1H134c0.6,0,1-0.5,1-1S134.5,21.7,133.9,21.7z"/>
	</g>
	<path class="st2" d="M114.2,29.9H21c-0.8,0-1.4,0.6-1.4,1.4s0.6,1.4,1.4,1.4h93.2c0.8,0,1.4-0.6,1.4-1.4S114.9,29.9,114.2,29.9z"/>
	<path class="st2" d="M84.2,38.2H21c-0.8,0-1.4,0.6-1.4,1.4S20.2,41,21,41h63.2c0.8,0,1.4-0.6,1.4-1.4S84.9,38.2,84.2,38.2z"/>
</g>
<rect x="18.8" y="1.5" class="st3" width="88.5" height="11.7"/>
<g>
	<path class="st4" d="M24.7,3.5c0.7,0.3,1.2,0.8,1.5,1.4c0.3,0.6,0.5,1.3,0.5,2.2s-0.2,1.6-0.5,2.2c-0.3,0.6-0.8,1.1-1.5,1.4
		c-0.7,0.3-1.4,0.5-2.2,0.5h-2.7V3h2.7C23.3,3,24,3.2,24.7,3.5z M24.6,9.4c0.5-0.5,0.7-1.2,0.7-2.2S25.1,5.5,24.6,5
		c-0.5-0.5-1.2-0.8-2.2-0.8h-1.3v6h1.3C23.4,10.1,24.1,9.9,24.6,9.4L24.6,9.4z"/>
	<path class="st4" d="M28.1,3.6c-0.2-0.2-0.2-0.3-0.2-0.6s0.1-0.4,0.2-0.6s0.3-0.2,0.6-0.2s0.4,0.1,0.6,0.2s0.2,0.3,0.2,0.6
		s-0.1,0.4-0.2,0.6s-0.3,0.2-0.6,0.2C28.4,3.9,28.3,3.8,28.1,3.6z M29.4,4.8v6.4H28V4.8H29.4z"/>
	<path class="st4" d="M32.1,11c-0.4-0.2-0.7-0.4-0.9-0.7c-0.2-0.3-0.3-0.7-0.4-1.1h1.4c0,0.2,0.2,0.5,0.4,0.7
		c0.2,0.2,0.5,0.2,0.9,0.2s0.7-0.1,0.8-0.2c0.2-0.2,0.3-0.3,0.3-0.6c0-0.2-0.1-0.4-0.3-0.5s-0.6-0.2-1.1-0.4
		c-0.5-0.2-0.8-0.2-1.2-0.4s-0.6-0.3-0.8-0.6c-0.2-0.2-0.3-0.6-0.3-1c0-0.3,0.1-0.7,0.3-0.9c0.2-0.2,0.5-0.5,0.8-0.7
		c0.4-0.2,0.8-0.2,1.3-0.2c0.7,0,1.3,0.2,1.7,0.6c0.4,0.3,0.7,0.9,0.7,1.5h-1.3c0-0.2-0.2-0.5-0.3-0.7c-0.2-0.2-0.5-0.2-0.8-0.2
		s-0.6,0.1-0.8,0.2c-0.2,0.2-0.2,0.3-0.2,0.5c0,0.2,0.1,0.3,0.2,0.4C32.6,6.9,32.8,7,32.9,7c0.2,0.1,0.4,0.2,0.8,0.2
		c0.5,0.2,0.8,0.2,1.2,0.4c0.3,0.2,0.6,0.3,0.7,0.6c0.2,0.2,0.3,0.6,0.3,1c0,0.3-0.1,0.7-0.3,1c-0.2,0.3-0.5,0.5-0.8,0.7
		s-0.8,0.2-1.3,0.2S32.5,11.2,32.1,11L32.1,11z"/>
	<path class="st4" d="M39.6,5c0.4-0.2,0.8-0.3,1.3-0.3c0.6,0,1.1,0.2,1.5,0.4c0.5,0.2,0.8,0.7,1.1,1.2c0.2,0.5,0.4,1.1,0.4,1.7
		s-0.2,1.2-0.4,1.7c-0.2,0.5-0.7,0.9-1.1,1.2s-1,0.4-1.5,0.4c-0.5,0-0.9-0.1-1.3-0.3s-0.7-0.4-0.9-0.7v4h-1.3V4.8h1.3v0.9
		C38.9,5.4,39.2,5.1,39.6,5z M42.4,6.8c-0.2-0.3-0.4-0.6-0.7-0.7c-0.3-0.2-0.6-0.2-1-0.2S39.9,5.9,39.7,6c-0.2,0.2-0.6,0.4-0.7,0.7
		c-0.2,0.3-0.2,0.7-0.2,1.2s0.1,0.8,0.2,1.2c0.2,0.3,0.4,0.6,0.7,0.7c0.3,0.2,0.6,0.2,0.9,0.2s0.7-0.1,1-0.2
		c0.3-0.2,0.6-0.4,0.7-0.7c0.2-0.3,0.2-0.7,0.2-1.2S42.5,7.1,42.4,6.8z"/>
	<path class="st4" d="M51.1,8.5h-4.9c0,0.5,0.2,0.9,0.6,1.2c0.3,0.3,0.7,0.5,1.2,0.5c0.7,0,1.2-0.3,1.5-0.9h1.4
		c-0.2,0.6-0.6,1.1-1.1,1.4c-0.5,0.3-1.2,0.6-1.9,0.6c-0.6,0-1.2-0.2-1.7-0.4s-0.8-0.7-1.2-1.2c-0.2-0.5-0.4-1.1-0.4-1.7
		s0.2-1.2,0.4-1.7c0.2-0.5,0.7-0.9,1.2-1.2c0.5-0.2,1-0.4,1.7-0.4c0.7,0,1.2,0.2,1.7,0.4c0.5,0.2,0.8,0.7,1.1,1.1
		c0.2,0.5,0.4,1,0.4,1.7C51.2,8,51.1,8.3,51.1,8.5L51.1,8.5z M49.8,7.4c0-0.5-0.2-0.9-0.5-1.2C48.9,6,48.5,5.8,48,5.8
		c-0.4,0-0.8,0.2-1.2,0.4c-0.3,0.2-0.5,0.7-0.6,1.2C46.2,7.4,49.8,7.4,49.8,7.4z"/>
	<path class="st4" d="M54.6,5c0.3-0.2,0.7-0.2,1.2-0.2V6h-0.3c-0.5,0-0.9,0.2-1.2,0.4c-0.2,0.2-0.4,0.7-0.4,1.4v3.4h-1.3V4.8h1.3
		v0.9C54,5.4,54.3,5.1,54.6,5z"/>
	<path class="st4" d="M57.9,11c-0.4-0.2-0.7-0.4-0.9-0.7c-0.2-0.3-0.3-0.7-0.4-1.1h1.3c0,0.2,0.2,0.5,0.4,0.7
		c0.2,0.2,0.5,0.2,0.9,0.2c0.4,0,0.7-0.1,0.8-0.2c0.2-0.2,0.3-0.3,0.3-0.6c0-0.2-0.1-0.4-0.3-0.5S59.5,8.5,59,8.4
		c-0.5-0.2-0.9-0.2-1.2-0.4c-0.2-0.2-0.6-0.3-0.7-0.6c-0.2-0.2-0.3-0.6-0.3-1c0-0.3,0.1-0.7,0.3-0.9c0.2-0.2,0.5-0.5,0.8-0.7
		s0.8-0.2,1.3-0.2c0.7,0,1.3,0.2,1.7,0.6c0.4,0.3,0.7,0.9,0.7,1.5h-1.5c0-0.2-0.2-0.5-0.3-0.7c-0.2-0.2-0.5-0.2-0.8-0.2
		s-0.6,0.1-0.8,0.2C58.1,6,58,6.2,58,6.4c0,0.2,0.1,0.3,0.2,0.4C58.3,6.9,58.4,7,58.7,7c0.2,0.1,0.4,0.2,0.7,0.2
		c0.5,0.2,0.8,0.2,1.2,0.4c0.3,0.2,0.6,0.3,0.7,0.6c0.2,0.2,0.3,0.6,0.3,1c0,0.3-0.1,0.7-0.3,1c-0.2,0.3-0.5,0.5-0.8,0.7
		s-0.8,0.2-1.3,0.2C58.7,11.2,58.3,11.2,57.9,11L57.9,11z"/>
	<path class="st4" d="M63.3,3.6C63.1,3.5,63,3.3,63,3s0.1-0.4,0.2-0.6c0.2-0.2,0.3-0.2,0.6-0.2c0.2,0,0.4,0.1,0.6,0.2
		c0.2,0.2,0.2,0.3,0.2,0.6s-0.1,0.4-0.2,0.6s-0.3,0.2-0.6,0.2S63.4,3.8,63.3,3.6z M64.5,4.8v6.4h-1.3V4.8H64.5z"/>
	<path class="st4" d="M67.4,10.9c-0.5-0.2-0.9-0.7-1.2-1.2C66,9.2,65.8,8.6,65.8,8s0.2-1.2,0.4-1.7s0.7-0.9,1.2-1.2
		c0.5-0.2,1.1-0.4,1.7-0.4s1.2,0.2,1.7,0.4c0.5,0.2,0.9,0.7,1.2,1.2s0.4,1.1,0.4,1.7s-0.2,1.2-0.4,1.7c-0.2,0.5-0.7,0.9-1.2,1.2
		c-0.5,0.2-1.1,0.4-1.7,0.4S67.8,11.1,67.4,10.9L67.4,10.9z M70,9.9c0.3-0.2,0.6-0.4,0.7-0.7C70.9,8.8,71,8.4,71,8s-0.1-0.8-0.2-1.2
		c-0.2-0.3-0.4-0.6-0.7-0.7c-0.2-0.2-0.6-0.2-1-0.2S68.4,5.9,68.2,6c-0.2,0.2-0.5,0.4-0.7,0.7S67.3,7.5,67.3,8
		c0,0.7,0.2,1.2,0.5,1.6c0.3,0.3,0.8,0.6,1.3,0.6C69.3,10.1,69.7,10,70,9.9L70,9.9z M70.3,3l-2.5,1.2v-1l2.5-1.4V3z"/>
	<path class="st4" d="M78.2,5c0.4,0.2,0.7,0.5,0.9,0.9s0.3,0.9,0.3,1.5v3.8h-1.3V7.6c0-0.6-0.2-1-0.4-1.3s-0.7-0.5-1.2-0.5
		S75.8,6,75.4,6.3C75.2,6.6,75,7,75,7.6v3.6h-1.3V4.8H75v0.7C75.3,5.3,75.5,5,75.8,5c0.3-0.2,0.7-0.2,1.1-0.2
		C77.4,4.6,77.9,4.8,78.2,5L78.2,5z"/>
</g>
<path class="st4" d="M4.5,8.3c0,0.3,0,0.3,0.3,0.4C5.2,8.8,5.5,9,5.6,9.4c0.1,0.4-0.1,0.8-0.5,1c-0.1,0-0.2,0.1-0.2,0.1
	c-0.2,0.1-0.4,0.1-0.4,0.4c0,0.1-0.2,0.2-0.3,0.2c-0.2,0-0.3-0.1-0.3-0.3s-0.1-0.3-0.2-0.3c-0.3-0.1-0.5-0.2-0.7-0.4S2.8,9.7,3,9.6
	c0,0,0.2,0,0.4,0.2c0,0,0,0,0.1,0.1s0.2,0.2,0.4,0.2c0.1,0,0-0.2,0-0.3c0-0.4,0-0.4-0.3-0.5c-0.1,0-0.2-0.1-0.3-0.1
	C2.8,8.8,2.7,8.4,2.9,7.9C3,7.7,3.2,7.5,3.4,7.4s0.5-0.2,0.4-0.5c0-0.2,0.1-0.2,0.3-0.2c0.2,0,0.3,0.1,0.3,0.3
	c0,0.2,0.1,0.3,0.3,0.3C5,7.4,5.3,7.5,5.5,7.8C5.6,8,5.6,8.2,5.4,8.3S5.1,8.4,5,8.1C4.9,8,4.7,8,4.5,7.9V8C4.5,8.1,4.5,8.2,4.5,8.3
	L4.5,8.3L4.5,8.3z M4.5,9.8c0,0.1-0.1,0.3,0,0.3c0.2,0,0.3-0.1,0.4-0.2l0,0C5,9.7,5,9.6,4.9,9.5S4.7,9.3,4.5,9.4c-0.1,0,0,0.2,0,0.2
	C4.5,9.7,4.5,9.7,4.5,9.8L4.5,9.8L4.5,9.8z M3.8,8.7V7.9C3.6,8,3.4,8.2,3.4,8.3C3.5,8.6,3.7,8.6,3.8,8.7z"/>
<path class="st5" d="M9.7,8.7l2.6-2.6c0.7-0.7,0.7-1.9,0-2.6L9.7,1C9.3,0.6,8.9,0.5,8.4,0.5l0,0C7.8,0.5,7.2,1,7.2,1.7
	c0,0.2-0.2,0.4-0.4,0.4H5.6C2.5,2.1,0,4.6,0,7.7s2.5,5.6,5.6,5.6h2c0.2,0,0.4-0.2,0.4-0.4s-0.2-0.4-0.4-0.4h-2
	c-2.6,0-4.8-2.2-4.8-4.8S3,2.9,5.6,2.9h1.2C7.5,2.9,8,2.3,8,1.7c0-0.2,0.2-0.4,0.4-0.4h0.1c0.2,0,0.4,0.1,0.5,0.2l2.7,2.7
	c0.4,0.3,0.4,0.9,0,1.3L9,8.2C8.9,8.3,8.7,8.4,8.5,8.4H8.4C8.2,8.5,8,8.3,8,8.1c0-0.7-0.5-1.2-1.2-1.2H6c-0.3,0-0.6,0-0.9,0.1
	C5.4,7.2,5.7,7.4,6,7.7l0,0h0.8c0.2,0,0.4,0.2,0.4,0.4c0,0.7,0.5,1.2,1.2,1.2l0,0C8.9,9.3,9.3,9.1,9.7,8.7L9.7,8.7z"/>
</svg>
