<?xml version="1.0" encoding="utf-8"?>
<!-- Generator: Adobe Illustrator 27.0.1, SVG Export Plug-In . SVG Version: 6.00 Build 0)  -->
<svg version="1.1" id="Layer_1" xmlns="http://www.w3.org/2000/svg" xmlns:xlink="http://www.w3.org/1999/xlink" x="0px" y="0px"
	 viewBox="0 0 153.9 111.7" style="enable-background:new 0 0 153.9 111.7;" xml:space="preserve">
<style type="text/css">
	.st0{opacity:0.3;fill:#FFFFFF;enable-background:new    ;}
	.st1{fill:#3BC9D0;}
	.st2{fill:none;}
	.st3{fill:#FFFFFF;}
	.st4{fill-rule:evenodd;clip-rule:evenodd;fill:#FDFFFF;}
</style>
<g>
	<path class="st0" d="M135.4,20.1h-113c-0.9,0-1.7,0.8-1.7,1.7s0.8,1.7,1.7,1.7h113c0.9,0,1.7-0.8,1.7-1.7
		C137.1,20.9,136.3,20.1,135.4,20.1z"/>
	<path class="st1" d="M135.1,20.8H22.4c-0.6,0-1,0.5-1,1c0,0.6,0.5,1,1,1h112.7c0.6,0,1-0.5,1-1S135.7,20.8,135.1,20.8z"/>
</g>
<rect x="19.9" y="0.6" class="st2" width="88.5" height="11.7"/>
<g>
	<path class="st3" d="M20.6,2.9c0.4-0.8,1-1.4,1.8-1.8s1.6-0.6,2.5-0.6c1,0,2,0.2,2.8,0.8s1.4,1.2,1.8,2.2h-1.9
		c-0.2-0.5-0.6-0.9-1-1.2c-0.5-0.2-1-0.4-1.5-0.4c-0.6,0-1.2,0.1-1.7,0.4S22.5,3,22.2,3.5s-0.4,1.2-0.4,1.9s0.1,1.3,0.4,1.9
		c0.3,0.5,0.7,1,1.2,1.3S24.3,9,25,9c0.6,0,1.1-0.1,1.5-0.4c0.5-0.2,0.8-0.6,1-1.2h1.9c-0.4,0.9-1,1.7-1.8,2.2s-1.7,0.8-2.8,0.8
		c-0.9,0-1.8-0.2-2.5-0.6c-0.8-0.4-1.4-1-1.8-1.8C20.2,7.3,20,6.4,20,5.5S20.2,3.7,20.6,2.9L20.6,2.9z"/>
	<path class="st3" d="M31.3,4.4C31.6,3.8,32,3.3,32.6,3s1.2-0.5,1.8-0.5s1.1,0.1,1.6,0.4s0.8,0.5,1.1,0.9V2.7h1.6v7.7h-1.6V9.2
		c-0.3,0.4-0.6,0.7-1.1,0.9s-1,0.4-1.6,0.4c-0.7,0-1.3-0.2-1.8-0.5s-1-0.8-1.3-1.4s-0.5-1.3-0.5-2.1S31,5,31.3,4.4L31.3,4.4z
		 M36.8,5.1c-0.2-0.4-0.5-0.7-0.9-0.9c-0.3-0.2-0.7-0.3-1.2-0.3S34,4,33.6,4.2c-0.3,0.2-0.6,0.5-0.9,0.9s-0.3,0.8-0.3,1.4
		s0.1,1,0.3,1.4s0.5,0.7,0.9,0.9s0.7,0.3,1.1,0.3s0.8-0.1,1.2-0.3c0.3-0.2,0.6-0.5,0.9-0.9C37,7.5,37.1,7,37.1,6.5S37,5.5,36.8,5.1z
		"/>
	<path class="st3" d="M43.3,2.8c0.4-0.2,0.8-0.3,1.4-0.3v1.7h-0.4c-0.6,0-1.1,0.2-1.4,0.5s-0.5,0.9-0.5,1.7v4.1h-1.6V2.7h1.6v1.1
		C42.7,3.4,43,3.1,43.3,2.8z"/>
	<path class="st3" d="M46.2,4.4C46.5,3.8,47,3.3,47.5,3s1.2-0.5,1.8-0.5c0.5,0,1,0.1,1.5,0.3s0.9,0.5,1.2,0.9V0h1.6v10.4H52V9.2
		c-0.3,0.4-0.6,0.7-1.1,0.9s-1,0.4-1.6,0.4c-0.7,0-1.3-0.2-1.8-0.5s-1-0.8-1.3-1.4s-0.5-1.3-0.5-2.1S45.8,5,46.2,4.4L46.2,4.4z
		 M51.7,5.1c-0.2-0.4-0.5-0.7-0.9-0.9C50.4,4,50,3.9,49.6,3.9S48.8,4,48.5,4.2s-0.6,0.5-0.9,0.9s-0.3,0.8-0.3,1.4s0.1,1,0.3,1.4
		s0.5,0.7,0.9,0.9s0.7,0.3,1.1,0.3s0.8-0.1,1.2-0.3c0.3-0.2,0.6-0.5,0.9-0.9C51.9,7.5,52,7,52,6.5S51.9,5.5,51.7,5.1z"/>
	<path class="st3" d="M69.6,0.6v9.7H68V3.7l-3,6.7h-1.1l-3-6.7v6.7h-1.6V0.6H61l3.4,7.6l3.4-7.6L69.6,0.6L69.6,0.6z"/>
	<path class="st3" d="M71.6,4.4c0.3-0.6,0.8-1.1,1.3-1.4s1.2-0.5,1.8-0.5c0.6,0,1.1,0.1,1.6,0.4s0.8,0.5,1.1,0.9V2.7H79v7.7h-1.6
		V9.2c-0.3,0.4-0.6,0.7-1.1,0.9s-1,0.4-1.6,0.4c-0.7,0-1.3-0.2-1.8-0.5s-1-0.8-1.3-1.4s-0.5-1.3-0.5-2.1S71.3,5,71.6,4.4L71.6,4.4z
		 M77.1,5.1c-0.2-0.4-0.5-0.7-0.9-0.9S75.5,3.9,75,3.9S74.3,4,74,4.2s-0.6,0.5-0.9,0.9s-0.3,0.8-0.3,1.4s0.1,1,0.3,1.4
		s0.5,0.7,0.9,0.9s0.7,0.3,1.1,0.3s0.8-0.1,1.2-0.3c0.3-0.2,0.6-0.5,0.9-0.9c0.2-0.4,0.3-0.9,0.3-1.4S77.3,5.5,77.1,5.1z"/>
	<path class="st3" d="M86.7,2.9c0.5,0.2,0.9,0.6,1.1,1.1s0.4,1.1,0.4,1.8v4.6h-1.6V6.1c0-0.7-0.2-1.2-0.5-1.6S85.3,4,84.7,4
		s-1.1,0.2-1.4,0.5s-0.5,0.9-0.5,1.6v4.3h-1.6V2.7h1.6v0.9c0.3-0.3,0.6-0.6,1-0.7c0.4-0.2,0.8-0.3,1.3-0.3
		C85.7,2.5,86.2,2.7,86.7,2.9L86.7,2.9z"/>
	<path class="st3" d="M90.2,4.4C90.5,3.8,91,3.3,91.5,3c0.6-0.3,1.2-0.5,1.8-0.5c0.6,0,1.1,0.1,1.6,0.4s0.8,0.5,1.1,0.9V2.7h1.6v7.7
		H96V9.2c-0.3,0.4-0.6,0.7-1.1,0.9s-1,0.4-1.6,0.4c-0.7,0-1.3-0.2-1.8-0.5s-1-0.8-1.3-1.4s-0.5-1.3-0.5-2.1S89.9,5,90.2,4.4
		L90.2,4.4z M95.7,5.1c-0.2-0.4-0.5-0.7-0.9-0.9c-0.4-0.2-0.7-0.3-1.2-0.3S92.9,4,92.5,4.2s-0.6,0.5-0.9,0.9
		c-0.2,0.4-0.3,0.8-0.3,1.4s0.1,1,0.3,1.4s0.5,0.7,0.9,0.9s0.7,0.3,1.1,0.3s0.8-0.1,1.2-0.3c0.3-0.2,0.6-0.5,0.9-0.9
		C95.9,7.5,96,7,96,6.5S95.9,5.5,95.7,5.1z"/>
	<path class="st3" d="M104.4,2.9c0.5,0.2,0.8,0.5,1.1,0.9V2.7h1.6v7.8c0,0.7-0.2,1.3-0.4,1.9s-0.7,1-1.3,1.3c-0.6,0.3-1.2,0.5-2,0.5
		c-1.1,0-1.9-0.2-2.6-0.7s-1.1-1.2-1.2-2h1.6c0.1,0.4,0.4,0.7,0.8,1c0.4,0.2,0.9,0.4,1.4,0.4c0.6,0,1.2-0.2,1.6-0.6
		c0.4-0.4,0.6-1,0.6-1.7V9.2c-0.3,0.4-0.6,0.7-1.1,0.9s-1,0.4-1.6,0.4c-0.7,0-1.3-0.2-1.8-0.5c-0.6-0.3-1-0.8-1.3-1.4
		s-0.5-1.3-0.5-2.1s0.2-1.5,0.5-2.1s0.8-1.1,1.3-1.4s1.2-0.5,1.8-0.5C103.4,2.5,104,2.6,104.4,2.9L104.4,2.9z M105.2,5.1
		c-0.2-0.4-0.5-0.7-0.9-0.9s-0.7-0.3-1.2-0.3S102.4,4,102,4.2s-0.6,0.5-0.9,0.9s-0.3,0.8-0.3,1.4s0.1,1,0.3,1.4
		c0.2,0.4,0.5,0.7,0.9,0.9s0.7,0.3,1.1,0.3s0.8-0.1,1.2-0.3s0.6-0.5,0.9-0.9c0.2-0.4,0.3-0.9,0.3-1.4S105.4,5.5,105.2,5.1z"/>
	<path class="st3" d="M116.3,7.1h-5.9c0.1,0.6,0.3,1.1,0.7,1.5s0.9,0.6,1.5,0.6c0.9,0,1.5-0.4,1.8-1.1h1.7c-0.2,0.7-0.7,1.3-1.3,1.7
		c-0.6,0.4-1.4,0.7-2.3,0.7c-0.7,0-1.4-0.2-2-0.5s-1-0.8-1.4-1.4s-0.5-1.3-0.5-2.1s0.2-1.5,0.5-2.1s0.8-1.1,1.4-1.4s1.2-0.5,2-0.5
		s1.4,0.2,1.9,0.5s1,0.8,1.3,1.3c0.3,0.6,0.5,1.2,0.5,2C116.3,6.6,116.3,6.9,116.3,7.1L116.3,7.1z M114.7,5.8c0-0.6-0.2-1.1-0.6-1.4
		s-0.9-0.5-1.5-0.5s-1,0.2-1.4,0.5s-0.6,0.8-0.7,1.4C110.4,5.8,114.7,5.8,114.7,5.8z"/>
	<path class="st3" d="M128.9,2.9c0.5,0.2,0.9,0.6,1.1,1.1s0.4,1.1,0.4,1.8v4.6h-1.6V6.1c0-0.7-0.2-1.2-0.5-1.6S127.5,4,126.9,4
		s-1.1,0.2-1.4,0.5S125,5.4,125,6.1v4.3h-1.6V6.1c0-0.7-0.2-1.2-0.5-1.6S122.1,4,121.5,4s-1.1,0.2-1.4,0.5s-0.5,0.9-0.5,1.6v4.3H118
		V2.7h1.6v0.9c0.3-0.3,0.6-0.6,1-0.7s0.8-0.3,1.3-0.3c0.6,0,1.2,0.1,1.7,0.4s0.9,0.6,1.1,1.1c0.2-0.5,0.6-0.8,1.1-1.1s1-0.4,1.6-0.4
		C127.8,2.5,128.4,2.7,128.9,2.9L128.9,2.9z"/>
	<path class="st3" d="M139.4,7.1h-5.9c0.1,0.6,0.3,1.1,0.7,1.5s0.9,0.6,1.5,0.6c0.9,0,1.5-0.4,1.8-1.1h1.7c-0.2,0.7-0.7,1.3-1.3,1.7
		s-1.4,0.7-2.3,0.7c-0.7,0-1.4-0.2-2-0.5s-1-0.8-1.4-1.4s-0.5-1.3-0.5-2.1s0.2-1.5,0.5-2.1s0.8-1.1,1.4-1.4c0.6-0.3,1.2-0.5,2-0.5
		s1.4,0.2,1.9,0.5c0.6,0.3,1,0.8,1.3,1.3c0.3,0.6,0.5,1.2,0.5,2C139.5,6.6,139.5,6.9,139.4,7.1L139.4,7.1z M137.8,5.8
		c0-0.6-0.2-1.1-0.6-1.4s-0.9-0.5-1.5-0.5s-1,0.2-1.4,0.5s-0.6,0.8-0.7,1.4H137.8z"/>
	<path class="st3" d="M146.6,2.9c0.5,0.2,0.9,0.6,1.1,1.1s0.4,1.1,0.4,1.8v4.6h-1.6V6.1c0-0.7-0.2-1.2-0.5-1.6S145.2,4,144.6,4
		s-1.1,0.2-1.4,0.5c-0.4,0.4-0.5,0.9-0.5,1.6v4.3h-1.6V2.7h1.6v0.9c0.3-0.3,0.6-0.6,1-0.7s0.8-0.3,1.3-0.3
		C145.6,2.5,146.1,2.7,146.6,2.9L146.6,2.9z"/>
	<path class="st3" d="M152,4v4.3c0,0.3,0.1,0.5,0.2,0.6c0.1,0.1,0.4,0.2,0.7,0.2h1v1.3h-1.3c-0.7,0-1.3-0.2-1.6-0.5
		s-0.6-0.9-0.6-1.6V4h-0.9V2.7h0.9v-2h1.6v1.9h1.9V4H152z"/>
</g>
<g id="_0jYBIZ.tif">
	<g>
		<path class="st3" d="M6.9,4c-2,0-4.1,0-6.2,0C0.6,4,0.5,4,0.5,4.1c0,1.9,0,3.9,0,5.8c0,0.6,0.3,0.9,0.9,0.9c0.5,0,1,0,1.4,0
			c0.2,0,0.3,0.1,0.3,0.3S3,11.4,2.8,11.4c-0.5,0-1,0-1.5,0C0.6,11.4,0,10.8,0,10c0-2.7,0-5.4,0-8.2C0,1,0.6,0.5,1.3,0.5
			c3.7,0,7.4,0,11.1,0c0.7,0,1.3,0.6,1.3,1.3c0,2.7,0,5.5,0,8.2c0,0.7-0.6,1.3-1.3,1.3c-0.4,0-0.9,0-1.3,0c-0.2,0-0.3-0.1-0.3-0.3
			s0.1-0.3,0.3-0.3c0.4,0,0.8,0,1.2,0c0.5,0,0.8-0.3,0.8-0.8c0-2,0-3.9,0-5.9c0.1,0,0.1,0,0,0C11,4,8.9,4,6.9,4L6.9,4z M6.9,3.4
			c2.1,0,4.1,0,6.2,0c0.1,0,0.2,0,0.2-0.2c0-0.5,0-0.9,0-1.4S13,1,12.5,1C8.7,1,5,1,1.4,1C0.9,1,0.5,1.4,0.5,1.9s0,0.9,0,1.4
			c0,0.1,0,0.2,0.2,0.2C2.8,3.4,4.8,3.4,6.9,3.4L6.9,3.4z"/>
		<path class="st3" d="M7,12.7c-0.7,0-1.4,0-2.2,0c-0.7,0-1.1-0.4-1.1-1.1c0-0.8,0-1.7,0-2.5C3.7,8.4,4.1,8,4.8,8c1.5,0,2.9,0,4.4,0
			c0.7,0,1.1,0.4,1.1,1.1c0,0.9,0,1.7,0,2.6c0,0.6-0.4,1.1-1.1,1.1C8.5,12.7,7.7,12.7,7,12.7L7,12.7z M7,10.3c-0.9,0-1.7,0-2.6,0
			c-0.1,0-0.2,0-0.2,0.2c0,0.4,0,0.7,0,1.1s0.2,0.6,0.6,0.6c1.5,0,2.9,0,4.4,0c0.4,0,0.6-0.2,0.6-0.6s0-0.8,0-1.1
			c0-0.1,0-0.1-0.1-0.1C8.7,10.3,7.9,10.3,7,10.3L7,10.3z M7,9c0.2,0,0.4,0,0.7,0c0.7,0,1.3,0,2,0c0.1,0,0.1,0,0.1-0.1
			C9.7,8.6,9.5,8.5,9.2,8.5c-0.6,0-1.3,0-1.9,0c-0.8,0-1.7,0-2.5,0c-0.3,0-0.5,0.1-0.5,0.4c0,0.1,0,0.2,0.1,0.2C5.2,9,6.1,9,7,9z
			 M7,9.5c-0.9,0-1.8,0-2.6,0c-0.1,0-0.2,0-0.2,0.1s0.1,0.1,0.2,0.1c1.8,0,3.5,0,5.2,0c0.1,0,0.2,0,0.2-0.1S9.7,9.5,9.6,9.5
			C8.8,9.5,7.9,9.5,7,9.5z"/>
		<path class="st3" d="M6.9,7.3c-0.1,0-0.2,0-0.2-0.1C6.3,6.9,5.9,6.5,5.6,6.1C5.5,6,5.5,5.8,5.6,5.7c0.1-0.1,0.3-0.1,0.4,0
			C6.2,6,6.5,6.3,6.7,6.6c0.1,0.1,0.2,0.1,0.3,0c0.5-0.5,0.9-1,1.4-1.5C8.5,5,8.6,4.9,8.7,5c0.1,0,0.2,0,0.2,0.1s0,0.2-0.1,0.3
			C8.5,5.7,8.2,6,8,6.3C7.7,6.6,7.4,6.9,7.1,7.2C7,7.3,7,7.3,6.9,7.3L6.9,7.3z"/>
		<path class="st3" d="M1.6,1.6c0.3,0,0.5,0.2,0.5,0.5S1.9,2.7,1.6,2.7S1.1,2.5,1.1,2.2S1.3,1.6,1.6,1.6L1.6,1.6z"/>
		<path class="st3" d="M3.7,2.2c0,0.3-0.2,0.5-0.5,0.5S2.7,2.5,2.7,2.2s0.2-0.5,0.5-0.5S3.7,1.9,3.7,2.2L3.7,2.2z"/>
		<path class="st3" d="M5.3,2.2c0,0.3-0.2,0.5-0.5,0.5S4.3,2.5,4.3,2.2s0.2-0.5,0.5-0.5S5.3,1.9,5.3,2.2L5.3,2.2z"/>
	</g>
</g>
<path class="st0" d="M27.9,29.3h22.8c3.5,0,6.4,2.9,6.4,6.4v22.7c0,3.5-2.9,6.4-6.4,6.4H27.9c-3.5,0-6.4-2.9-6.4-6.4V35.7
	C21.5,32.2,24.4,29.3,27.9,29.3z"/>
<g id="_2FlcFL.tif">
	<g>
		<path class="st3" d="M30.5,51c0.2-0.3,0.4-0.7,0.7-1c0.9-1,2.1-1.4,3.4-1.3c0.6,0,1.2,0.2,1.8,0.5c0.1,0.1,0.2,0.1,0.3,0.2
			c-0.4,0.2-0.8,0.5-1.2,0.8c-0.5,0.4-1,0.9-1.3,1.5c0,0.1-0.1,0.2-0.1,0.2c0,0.3-0.2,0.3-0.4,0.3c-1,0-2.1,0-3.1,0V51H30.5z"/>
		<path class="st3" d="M39.8,53.7c-1.6,0-3.2,0-4.9,0c-0.1,0-0.2,0-0.2-0.2c0-0.3,0-0.7,0-1c0-0.2,0-0.4,0.2-0.6
			c0.8-1.2,1.9-2,3.3-2.3c1.5-0.3,2.9-0.3,4.3,0.3c1,0.4,1.8,1.1,2.3,2.1c0.1,0.1,0.1,0.2,0.1,0.4c0,0.4,0,0.7,0,1.1
			c0,0.2,0,0.2-0.2,0.2C43,53.7,41.4,53.7,39.8,53.7L39.8,53.7z"/>
		<path class="st3" d="M42.3,45.2c0,1.4-1.1,2.5-2.5,2.5s-2.5-1.1-2.5-2.5s1.1-2.5,2.5-2.5S42.3,43.8,42.3,45.2z"/>
		<path class="st3" d="M47.4,44.8c0,1.2-1,2.1-2.1,2.1c-1.2,0-2.1-1-2.1-2.1c0-1.2,1-2.1,2.2-2.1C46.5,42.7,47.4,43.7,47.4,44.8z"/>
		<path class="st3" d="M34.3,42.7c1.2,0,2.1,1,2.1,2.1c0,1.2-1,2.1-2.1,2.1c-1.2,0-2.1-1-2.1-2.1S33.1,42.7,34.3,42.7L34.3,42.7z"/>
		<path class="st3" d="M42.9,49.3c0.4-0.3,0.9-0.5,1.4-0.6c1.1-0.2,2.1-0.1,3.1,0.4c0.7,0.3,1.2,0.8,1.5,1.5
			c0.2,0.3,0.2,0.6,0.2,0.9c0,0.2,0.1,0.5,0,0.6s-0.4,0-0.6,0c-0.9,0-1.8,0-2.7,0c-0.1,0-0.2,0-0.2-0.2c-0.2-0.5-0.5-0.9-0.8-1.3
			C44.2,50.1,43.6,49.6,42.9,49.3L42.9,49.3z"/>
	</g>
</g>
<path class="st0" d="M27.9,76.1h22.8c3.5,0,6.4,2.9,6.4,6.4v22.8c0,3.5-2.9,6.4-6.4,6.4H27.9c-3.5,0-6.4-2.9-6.4-6.4V82.5
	C21.5,79,24.4,76.1,27.9,76.1z"/>
<path class="st0" d="M70.8,29.3h22.7c3.5,0,6.4,2.9,6.4,6.4v22.7c0,3.5-2.9,6.4-6.4,6.4H70.8c-3.5,0-6.4-2.9-6.4-6.4V35.7
	C64.4,32.2,67.2,29.3,70.8,29.3z"/>
<path class="st0" d="M70.8,76.1h22.7c3.5,0,6.4,2.9,6.4,6.4v22.8c0,3.5-2.9,6.4-6.4,6.4H70.8c-3.5,0-6.4-2.9-6.4-6.4V82.5
	C64.4,79,67.2,76.1,70.8,76.1z"/>
<path class="st0" d="M116.1,29.3h22.8c3.5,0,6.4,2.9,6.4,6.4v22.7c0,3.5-2.9,6.4-6.4,6.4h-22.8c-3.5,0-6.4-2.9-6.4-6.4V35.7
	C109.7,32.2,112.5,29.3,116.1,29.3z"/>
<path class="st0" d="M116.1,76.1h22.8c3.5,0,6.4,2.9,6.4,6.4v22.8c0,3.5-2.9,6.4-6.4,6.4h-22.8c-3.5,0-6.4-2.9-6.4-6.4V82.5
	C109.7,79,112.5,76.1,116.1,76.1z"/>
<g id="cBYm3W.tif">
	<g>
		<path class="st3" d="M89.2,44.3v5.9l0,0C89,50.8,88.7,51,88,51c-2.9,0-5.9,0-8.8,0h-0.1c-0.6,0-1-0.4-1-1c0-0.1,0-0.1-0.1-0.1
			c-0.6,0-1-0.5-1-1s0-1.1,0-1.7c0-1.3,0-2.6,0-3.9c0-0.4,0.2-0.7,0.5-0.9c0.1-0.1,0.2-0.1,0.3-0.1c3.2,0,6.3,0,9.5,0l0,0
			c0.5,0.1,0.8,0.5,0.8,1c0,0.1,0,0.1,0.1,0.1c0.4,0,0.8,0.3,0.9,0.7C89.1,44.2,89.1,44.3,89.2,44.3L89.2,44.3z M82.5,45.8
			c-1.7,0-3.3,0-4.9,0c-0.1,0-0.1,0-0.1,0.1c0,1,0,2,0,3c0,0.4,0.2,0.5,0.6,0.5c3,0,6,0,9.1,0c0.4,0,0.6-0.2,0.6-0.5c0-1,0-2,0-3
			c0-0.1,0-0.1-0.1-0.1C85.8,45.8,84.2,45.8,82.5,45.8L82.5,45.8z M82.5,44.2h-1.2c-1.2,0-2.5,0-3.7,0c-0.1,0-0.1,0-0.1,0.1
			c0,0.3,0,0.5,0,0.8c0,0.1,0,0.1,0.1,0.1c2.6,0,5.1,0,7.7,0c0.8,0,1.5,0,2.2,0c0.1,0,0.1,0,0.1-0.1c0-0.3,0-0.5,0-0.8
			c0-0.1,0-0.1-0.1-0.1C85.8,44.2,84.2,44.2,82.5,44.2L82.5,44.2z M83.6,50.5c1.5,0,3,0,4.5,0c0.4,0,0.6-0.2,0.6-0.6
			c0-1.8,0-3.5,0-5.3v-0.1c0-0.2-0.2-0.4-0.4-0.5c-0.1,0-0.2,0-0.2,0.1c0,1.6,0,3.2,0,4.8c0,0.1,0,0.2,0,0.3C88,49.7,87.6,50,87,50
			c-2,0-4,0-6,0c-0.8,0-1.6,0-2.4,0c-0.1,0-0.1,0-0.1,0.1c0.1,0.3,0.2,0.4,0.6,0.4C80.6,50.6,82.1,50.6,83.6,50.5L83.6,50.5z
			 M82.5,43.7c1.6,0,3.3,0,4.9,0h0.1c0,0,0,0,0.1,0c0.1-0.4-0.2-0.7-0.6-0.7c-3,0-6,0-9.1,0c-0.1,0-0.1,0-0.2,0
			c-0.2,0-0.3,0.2-0.4,0.4c0,0.1,0,0.2,0,0.2c0,0.1,0,0.1,0.1,0.1C79.2,43.7,80.9,43.7,82.5,43.7L82.5,43.7z"/>
		<path class="st3" d="M84.8,47c0.1,0,0.3,0.1,0.5,0.2c0.1,0.1,0.1,0,0.2,0c0.3-0.3,0.8-0.3,1.1-0.1c0.3,0.2,0.5,0.6,0.4,1
			s-0.5,0.7-0.9,0.7c-0.2,0-0.4-0.1-0.6-0.2c-0.1,0-0.1,0-0.1,0c-0.6,0.5-1.4,0.1-1.5-0.6C83.7,47.5,84.1,47,84.8,47L84.8,47z
			 M84.7,47.5c-0.2,0-0.4,0.2-0.4,0.4s0.2,0.4,0.4,0.4c0.2,0,0.4-0.2,0.4-0.4S84.9,47.5,84.7,47.5L84.7,47.5z M86,47.5
			c-0.2,0-0.4,0.2-0.4,0.4s0.2,0.4,0.4,0.4c0.2,0,0.4-0.2,0.4-0.4S86.2,47.5,86,47.5L86,47.5z"/>
	</g>
</g>
<g id="D5bjam.tif">
	<path class="st3" d="M39.7,99.8c-1.6,0-3.2,0-4.8,0c-2.7-0.1-4.9-2.1-5.2-4.8c-0.4-2.9,1.7-5.7,4.7-6.1c0.3,0,0.6-0.1,0.8-0.1
		c3,0,6,0,8.9,0c2,0,3.7,0.8,4.7,2.6c2,3.2,0.1,7.6-3.6,8.2c-0.4,0.1-0.8,0.1-1.1,0.1C42.7,99.8,41.2,99.8,39.7,99.8L39.7,99.8
		L39.7,99.8z M44.2,97.5c1.7,0,3.2-1.5,3.2-3.2s-1.4-3.2-3.2-3.2S41,92.5,41,94.3S42.4,97.5,44.2,97.5L44.2,97.5z"/>
</g>
<rect x="77.1" y="85.4" class="st2" width="13.1" height="16.1"/>
<path class="st4" d="M131.5,92.1c0,0.3-0.2,0.5-0.5,0.5s-0.5-0.2-0.5-0.5s0.2-0.5,0.5-0.5S131.5,91.8,131.5,92.1z M131.5,100.5h-7.9
	c-0.8,0-1.4-0.7-1.4-1.5V88.6c0-1.1,0.8-2,1.8-2h3.5c0.6,0,1.2,0.6,1.2,1.2v2.7c0,0.6,0.4,1,0.9,1c0.2,0,0.5,0.2,0.5,0.5
	s-0.2,0.5-0.5,0.5c-1,0-1.8-0.9-1.8-2V88c0-0.3-0.2-0.5-0.5-0.5h-3.2c-0.5,0-0.9,0.4-0.9,1v10.2c0,0.4,0.3,0.7,0.7,0.7h7.6
	c0.5,0,0.9-0.4,0.9-1v-6.3c0-0.3-0.1-0.5-0.3-0.7l-2.6-2.8c-0.2-0.2-0.2-0.5,0-0.7s0.5-0.2,0.7,0l2.6,2.8c0.3,0.4,0.5,0.8,0.5,1.4
	v6.3C133.4,99.6,132.6,100.5,131.5,100.5L131.5,100.5L131.5,100.5z M129.7,101.5c0.2,0,0.5,0.2,0.5,0.5s-0.2,0.5-0.5,0.5h-6.9
	c-1.3,0-2.3-1.1-2.3-2.5v-7.4c0-0.3,0.2-0.5,0.5-0.5s0.5,0.2,0.5,0.5v7.4c0,0.8,0.6,1.5,1.4,1.5H129.7L129.7,101.5z M120.9,91.1
	c-0.2,0-0.5-0.2-0.5-0.5s0.2-0.5,0.5-0.5s0.5,0.2,0.5,0.5S121.1,91.1,120.9,91.1z"/>
<path class="st3" d="M83.8,102.4h-7.1c-0.1,0-0.2,0-0.2,0c-0.2-0.1-0.4-0.3-0.4-0.6v-3.5c0-3.3,0-6.7,0-10c0-0.4,0.2-0.6,0.6-0.6
	c3.1,0,6.2,0,9.3,0c0.1,0,0.2,0,0.2,0.1c0.1,0,0.2,0.1,0.2,0.1c0.5,0.5,1,1,1.6,1.5c0.1,0.1,0.1,0.2,0.2,0.2c0,0.1,0.1,0.2,0.1,0.3
	c0,1.3,0,2.7,0,4c0,0.1,0,0.2-0.2,0.1s-0.5-0.1-0.7-0.2c-0.1,0-0.1-0.1-0.1-0.2c0-1.1,0-2.1,0-3.2c0-0.2,0-0.2-0.2-0.2
	c-0.3,0-0.6,0-0.9,0s-0.6-0.2-0.6-0.6c0-0.3,0-0.6,0-0.9c0-0.1,0-0.2-0.2-0.2c-2.1,0-4.1,0-6.2,0c-0.6,0-1.3,0-1.9,0
	c-0.1,0-0.2,0-0.2,0.2c0,4.1,0,8.2,0,12.3c0,0.1,0,0.2,0.2,0.2c1.8,0,3.5,0,5.3,0c0.2,0,0.2,0,0.3,0.2
	C83.2,101.9,83.5,102.1,83.8,102.4L83.8,102.4z"/>
<path class="st3" d="M90.5,98.6c0,2.1-1.7,3.8-3.8,3.8c-2.1,0-3.8-1.7-3.9-3.8c0-2.1,1.7-3.8,3.8-3.8C88.8,94.8,90.5,96.5,90.5,98.6
	L90.5,98.6z M86.7,95.8c-1.6,0-2.8,1.2-2.8,2.8c0,1.6,1.3,2.8,2.8,2.8c0.4,0,0.7-0.1,1.1-0.2c0.3-0.1,0.7-0.3,0.9-0.6
	c0.3-0.3,0.5-0.6,0.6-0.9s0.2-0.7,0.2-1.1C89.5,97,88.2,95.8,86.7,95.8L86.7,95.8z"/>
<path class="st3" d="M80.9,93.1c-0.1,0-0.3,0-0.4,0c-0.2,0-0.4-0.1-0.5-0.2s-0.2-0.3-0.2-0.5s0.1-0.4,0.2-0.5s0.3-0.2,0.5-0.2
	c0.3,0,0.5,0,0.8,0c0.1,0,0.1,0,0.1-0.1c0-0.2,0-0.5,0-0.8c0-0.4,0.3-0.7,0.7-0.7s0.7,0.3,0.7,0.7c0,0.2,0,0.5,0,0.8
	c0,0.1,0,0.1,0.1,0.1c0.2,0,0.5,0,0.7,0c0.4,0,0.8,0.3,0.8,0.7c0,0.4-0.3,0.7-0.8,0.7c-0.2,0-0.5,0-0.7,0c-0.1,0-0.1,0-0.1,0.1
	c0,0.2,0,0.5,0,0.7c0,0.4-0.3,0.8-0.7,0.8c-0.4,0-0.7-0.3-0.7-0.8c0-0.2,0-0.5,0-0.8c0-0.1,0-0.1-0.1-0.1
	C81.2,93.1,81.1,93.1,80.9,93.1L80.9,93.1L80.9,93.1z"/>
<path class="st3" d="M82.9,95.7c-0.2,0.3-0.4,0.6-0.5,0.9c0,0.1-0.1,0.1-0.1,0.1c-1.2,0-2.5,0-3.8,0c-0.1,0-0.1,0-0.2,0
	s-0.1-0.1-0.2-0.1S78,96.5,78,96.4s0-0.1,0-0.2c0-0.3,0.2-0.5,0.5-0.5c0.4,0,0.9,0,1.4,0L82.9,95.7C82.8,95.7,82.8,95.7,82.9,95.7z"
	/>
<path class="st3" d="M80.3,100.1h-1.7c-0.3,0-0.5-0.2-0.5-0.5s0.2-0.5,0.5-0.5c1.1,0,2.2,0,3.3,0c0.1,0,0.1,0,0.2,0.1
	c0,0.2,0.1,0.4,0.2,0.7c0.1,0.1,0,0.2-0.1,0.2C81.4,100.1,80.8,100.1,80.3,100.1L80.3,100.1L80.3,100.1z"/>
<path class="st3" d="M80.2,97.4h1.7c0.2,0,0.2,0,0.2,0.2S82,98,82,98.2c0,0.1,0,0.1-0.1,0.1c-1.1,0-2.2,0-3.3,0
	c-0.1,0-0.2-0.1-0.3-0.1c-0.1-0.1-0.1-0.2-0.1-0.3s0.1-0.2,0.1-0.3c0.1-0.1,0.2-0.1,0.3-0.1C79,97.4,79.6,97.4,80.2,97.4L80.2,97.4z
	"/>
<path class="st3" d="M85.4,99.9c0-0.4,0.1-0.5,0.4-0.3c0.2,0.1,0.5,0.2,0.8,0.1c0.1,0,0.2,0,0.2-0.1c0.2-0.1,0.2-0.3,0.1-0.4
	S86.7,99,86.5,99c-0.2-0.1-0.4-0.2-0.7-0.3c-0.6-0.4-0.7-1.1-0.3-1.6c0.2-0.2,0.4-0.4,0.7-0.5c0.1,0,0.2-0.1,0.1-0.2
	c0-0.1,0-0.2,0.1-0.1c0.1,0,0.1,0,0.2,0s0.2,0,0.2,0.2c0,0.1,0,0.1,0.1,0.1c0.2,0,0.3,0,0.5,0.1s0.3,0.2,0.3,0.4c0,0.1,0,0.2,0,0.3
	c0,0.2-0.1,0.3-0.3,0.2c-0.3-0.1-0.6-0.2-0.9-0.1c-0.1,0-0.1,0-0.2,0.1c-0.2,0.1-0.2,0.3-0.1,0.4s0.3,0.2,0.5,0.3
	c0.2,0.1,0.4,0.2,0.6,0.3c0.4,0.3,0.6,0.7,0.5,1.2s-0.4,0.7-0.8,0.8h-0.1c-0.1,0-0.1,0.1-0.1,0.1c0,0.2,0,0.2-0.2,0.2
	c-0.1,0-0.1,0-0.2,0s-0.2,0-0.2-0.2c0-0.1,0-0.1-0.1-0.1c-0.2,0-0.3,0-0.5-0.1C85.4,100.4,85.3,100.3,85.4,99.9L85.4,99.9z"/>
<g id="EPZHVC.tif">
	<g>
		<path class="st3" d="M133.8,51.3c0.1,0,0.1,0.1,0.2,0.1c0.8,0.8,1.5,1.5,2.3,2.3c0.2,0.2,0.2,0.3,0,0.6c-0.5,0.5-1.1,1.1-1.6,1.6
			c-0.2,0.2-0.3,0.2-0.5,0c-0.6-0.5-1.1-1.1-1.6-1.6c-0.2-0.2-0.2-0.3-0.1-0.5c0.1-0.1,0.3-0.1,0.5,0c0.5,0.5,0.9,0.9,1.4,1.4
			c0.1,0.1,0.1,0.1,0.2,0c0.4-0.4,0.7-0.8,1.1-1.1c0.1-0.1,0.1-0.1,0-0.2c-0.8-0.8-1.6-1.6-2.4-2.4c-0.2-0.2-0.2-0.4,0.1-0.6
			c0.5-0.3,1-0.6,1.5-0.8c-0.2-0.1-6.2-1.9-6.3-1.9c0.6,2.1,1.3,4.2,1.9,6.3c0.1,0,0.1-0.1,0.1-0.1c0.3-0.6,0.6-1.1,1-1.7
			c0.1-0.2,0.3-0.2,0.4-0.2c0.2,0.1,0.2,0.3,0.1,0.5c0,0,0,0,0,0.1c-0.4,0.7-0.8,1.4-1.2,2.1c0,0.1-0.1,0.2-0.1,0.2
			c-0.1,0.1-0.2,0.2-0.3,0.2s-0.2-0.1-0.3-0.3c-0.2-0.8-0.5-1.6-0.8-2.4c-0.5-1.6-1-3.3-1.5-4.9l0,0c-0.1-0.1-0.1-0.3,0.1-0.4
			c0.1-0.1,0.2-0.1,0.4,0c1.3,0.4,2.5,0.8,3.8,1.2c1.2,0.4,2.3,0.7,3.5,1.1c0,0,0,0,0.1,0s0.3,0.1,0.3,0.3s-0.1,0.3-0.2,0.3
			c-0.5,0.3-0.9,0.5-1.4,0.8C134,51.2,133.9,51.2,133.8,51.3L133.8,51.3z"/>
		<path class="st3" d="M126.2,50.8c-2.8,0-5-1.9-5.3-4.5c-0.4-2.9,1.7-5.6,4.6-5.9c2.8-0.3,5.3,1.7,5.7,4.5c0.1,0.7,0,1.4-0.2,2.2
			c0,0.1-0.1,0.2-0.2,0.2c-0.2,0.1-0.4-0.1-0.4-0.4c0.1-0.5,0.2-1,0.2-1.5c0-2.2-1.7-4.1-3.8-4.4c-2.5-0.4-4.8,1.2-5.3,3.6
			c-0.6,2.5,1.2,5.1,3.8,5.5c0.7,0.1,1.4,0.1,2.1-0.1c0.2,0,0.3,0,0.4,0.1c0.1,0.2,0,0.4-0.2,0.5C127,50.8,126.5,50.8,126.2,50.8
			L126.2,50.8z"/>
		<path class="st3" d="M127.4,46.5c0,0.6-0.4,1.2-1,1.4c-0.1,0-0.2,0.1-0.2,0.2c0,0.1,0,0.1,0,0.2c0,0.2-0.1,0.2-0.3,0.3
			c-0.2,0-0.3-0.1-0.3-0.3c0.1-0.3-0.1-0.4-0.3-0.4c-0.3-0.1-0.5-0.3-0.7-0.5s-0.2-0.3,0-0.5c0.1-0.1,0.3-0.1,0.4,0.1
			c0.3,0.3,0.7,0.5,1.1,0.4s0.6-0.3,0.6-0.7c0.1-0.3-0.1-0.6-0.4-0.8c-0.2-0.1-0.4-0.2-0.6-0.3s-0.4-0.2-0.6-0.3
			c-0.3-0.2-0.5-0.6-0.4-1s0.3-0.8,0.7-0.9c0.1,0,0.2-0.1,0.2-0.2c0,0,0-0.1,0-0.2c0-0.2,0.1-0.3,0.3-0.3c0.2,0,0.3,0.1,0.3,0.3
			c0,0.3,0.1,0.3,0.3,0.4c0.2,0,0.3,0.1,0.4,0.2c0.2,0.1,0.2,0.3,0.1,0.4c-0.1,0.1-0.3,0.2-0.4,0c-0.2-0.1-0.4-0.2-0.7-0.2
			c-0.3,0-0.5,0.2-0.6,0.4s0,0.5,0.3,0.6c0.1,0.1,0.3,0.1,0.4,0.2c0.3,0.1,0.6,0.2,0.8,0.4C127.3,45.8,127.4,46.1,127.4,46.5
			L127.4,46.5z"/>
		<path class="st3" d="M119,45.9c0-0.1,0-0.2,0-0.2c0-0.2,0.1-0.3,0.3-0.3c0.2,0,0.3,0.1,0.3,0.3c0,0.4,0,0.8,0.1,1.1
			c0.6,2.6,2.2,4.3,4.7,5.1c0,0,0,0,0.1,0c0.2,0.1,0.4,0.2,0.3,0.4s-0.2,0.2-0.5,0.2c-2.8-0.7-4.9-3.1-5.3-6
			C119.1,46.2,119,46,119,45.9L119,45.9z"/>
		<path class="st3" d="M132.9,45.4c0,0,0,0.1,0,0.2c0,0.2-0.1,0.3-0.3,0.3s-0.3-0.1-0.3-0.3c0-0.5-0.1-1.1-0.2-1.6
			c-0.7-2.4-2.2-3.9-4.7-4.6c-0.1,0-0.3-0.1-0.3-0.2c-0.1-0.2,0.1-0.4,0.4-0.3c0.6,0.1,1.1,0.3,1.6,0.6
			C131.5,40.7,132.8,42.8,132.9,45.4L132.9,45.4z"/>
		<path class="st3" d="M126.6,39c0,0.2-0.1,0.3-0.3,0.3c-0.2,0-0.3-0.1-0.3-0.3s0.1-0.3,0.3-0.3S126.6,38.8,126.6,39z"/>
		<path class="st3" d="M125.7,52c0.2,0,0.3,0.1,0.3,0.3s-0.1,0.3-0.3,0.3s-0.3-0.1-0.3-0.3C125.4,52.1,125.5,52,125.7,52z"/>
	</g>
</g>
</svg>
