<?xml version="1.0" encoding="utf-8"?>
<!-- Generator: Adobe Illustrator 27.0.1, SVG Export Plug-In . SVG Version: 6.00 Build 0)  -->
<svg version="1.1"
	 id="svg8" xmlns:rdf="http://www.w3.org/1999/02/22-rdf-syntax-ns#" xmlns:cc="http://creativecommons.org/ns#" xmlns:dc="http://purl.org/dc/elements/1.1/" xmlns:svg="http://www.w3.org/2000/svg"
	 xmlns="http://www.w3.org/2000/svg" xmlns:xlink="http://www.w3.org/1999/xlink" x="0px" y="0px" viewBox="0 0 24 24"
	 style="enable-background:new 0 0 24 24;" xml:space="preserve">
<style type="text/css">
	.st0{fill:#1515BB;}
</style>
<g id="g1871" transform="translate(0,-290.65039)">
	<path id="circle1856" class="st0" d="M12,292.7c-5.5,0-10,4.5-10,10s4.5,10,10,10s10-4.5,10-10S17.5,292.7,12,292.7z M12,294.7
		c4.4,0,8,3.6,8,8s-3.6,8-8,8s-8-3.6-8-8S7.6,294.7,12,294.7z"/>
	<path id="path1867" class="st0" d="M15.2,299l-3.9,5.1l-2.6-2.6c-0.4-0.4-1-0.4-1.4,0c-0.4,0.4-0.4,1,0,1.4l3.4,3.4
		c0.4,0.4,1.1,0.4,1.5-0.1l4.6-6c0.3-0.4,0.2-1.1-0.2-1.4C16.2,298.5,15.6,298.6,15.2,299L15.2,299z"/>
</g>
</svg>
