<?xml version="1.0" encoding="utf-8"?>
<!-- Generator: Adobe Illustrator 27.0.1, SVG Export Plug-In . SVG Version: 6.00 Build 0)  -->
<svg version="1.1" id="Layer_1" xmlns="http://www.w3.org/2000/svg" xmlns:xlink="http://www.w3.org/1999/xlink" x="0px" y="0px"
	 viewBox="0 0 413 274" style="enable-background:new 0 0 413 274;" xml:space="preserve">
<style type="text/css">
	.st0{opacity:5.000000e-02;fill:#FFFFFF;enable-background:new    ;}
	.st1{opacity:0.42;}
	.st2{fill:#3BC8D0;}
</style>
<path class="st0" d="M303.4,45.3H116.7c-3.7,0-6.6,4.1-6.6,9.2v164.8c0,5.1,3,9.2,6.6,9.2h186.7c3.7,0,6.6-4.1,6.6-9.2V54.5
	C310,49.4,307,45.3,303.4,45.3z"/>
<g id="LZGUN1.tif" class="st1">
	<g>
		<path class="st2" d="M246.4,200.4c-2.6,0-5.2,0-7.7,0c-0.1-0.4-0.5-0.3-0.8-0.3c-6.3-0.9-12.1-3.2-17.2-7c-0.9-0.7-1.8-1-2.9-1
			c-20.6,0-41.2,0-61.8,0c0-11,0-22,0-33c2.5,0,4.9,0,7.4,0c0.7,0,0.9-0.2,0.9-0.9c0-2.1,0-4.3,0-6.4c0-0.7-0.2-0.9-0.9-0.9
			c-2.5,0-4.9,0-7.4,0c0-11,0-22,0-33c2.5,0,4.9,0,7.4,0c0.7,0,0.9-0.2,0.9-0.9c0-2.1,0-4.3,0-6.4c0-0.7-0.2-0.9-0.9-0.9
			c-2.5,0-4.9,0-7.4,0c0-11,0-22,0-33c38,0,76,0,114,0c0.3,0,0.5,0,0.8,0c0.7-0.1,0.9,0.1,0.9,0.9c0,10.4,0,20.8,0,31.2
			c0,0.7-0.2,1-0.9,0.9c-2.2-0.1-4.3,0-6.5,0c-0.7,0-1,0.2-0.9,0.9c0.1,2.1,0,4.3,0,6.4c0,0.7,0.2,1,0.9,0.9c2.1-0.1,4.1,0,6.2,0
			c1,0,1.2,0.2,1.2,1.2c-0.1,6.6,0,13.2,0,19.8c0,0.7,0.2,1.3,0.6,1.9c3.2,4.2,5.5,8.9,6.7,14.1c0.4,1.6,0.7,3.2,1,4.8
			c0,2.6,0,5.2,0,7.7c-0.5,0.5-0.4,1.2-0.5,1.8c-2.2,14.6-13.7,27-28.2,30.2C249.7,199.8,248.1,200.1,246.4,200.4z M242.8,134.9
			c-15.7,0-28.4,12.6-28.5,28.2c-0.1,15.7,12.7,28.4,28.4,28.5c15.6,0,28.4-12.7,28.5-28.3C271.3,147.7,258.5,134.9,242.8,134.9z
			 M213.7,117.9c13.4,0,26.9,0,40.3,0c1,0,1.2-0.2,1.2-1.2c-0.1-1.9-0.1-3.9,0-5.8c0.1-1.1-0.2-1.3-1.3-1.3c-11.8,0-23.7,0-35.5,0
			c-14.9,0-29.8,0-44.7,0c-1,0-1.2,0.2-1.2,1.2c0.1,1.9,0.1,3.9,0,5.8c-0.1,1.1,0.2,1.3,1.3,1.3
			C187.1,117.9,200.4,117.9,213.7,117.9z M207.8,150.9c-3.2,0-6.2,0-9.2,0c-8.3,0-16.5,0-24.8,0c-1.1,0-1.3,0.3-1.3,1.3
			c0.1,1.9,0.1,3.9,0,5.8c0,1,0.3,1.2,1.2,1.2c6.5,0,13.1,0,19.6,0c3.9,0,7.7,0,11.6,0c0.7,0,1-0.1,1-0.9
			C206.3,155.9,206.9,153.5,207.8,150.9z M172.5,93.2c-2.5,0-4.9,0-7.4,0c-0.7,0-1,0.2-0.9,0.9c0.1,2.1,0,4.3,0,6.4
			c0,0.7,0.2,0.9,0.9,0.9c4.9,0,9.8,0,14.7,0c0.7,0,1-0.2,0.9-0.9c-0.1-2.1,0-4.3,0-6.4c0-0.7-0.2-0.9-0.9-0.9
			C177.5,93.2,175,93.2,172.5,93.2z M172.4,142.7c2.5,0,5,0,7.5,0c0.6,0,0.9,0,0.9-0.8c-0.1-2.2,0-4.5,0-6.7c0-0.6-0.2-0.8-0.8-0.8
			c-5,0-10,0-15,0c-0.6,0-0.8,0.2-0.8,0.8c0,2.2,0,4.4,0,6.6c0,0.8,0.2,0.9,0.9,0.9C167.6,142.7,170,142.7,172.4,142.7z
			 M172.6,175.7c-2.5,0-5,0-7.5,0c-0.6,0-0.9,0.1-0.9,0.8c0.1,2.2,0,4.4,0,6.6c0,0.6,0.1,0.9,0.8,0.9c4.9,0,9.9,0,14.8,0
			c0.6,0,0.9-0.1,0.9-0.8c-0.1-2.2-0.1-4.4,0-6.6c0-0.8-0.3-0.9-1-0.9C177.4,175.7,175,175.7,172.6,175.7z"/>
		<path class="st2" d="M242.7,183.9c-1,0-2-0.1-3,0c-1,0.1-1.1-0.3-1.1-1.1c0.1-1.6,0-3.3,0-4.9c0-0.6-0.1-1-0.7-1.1
			c-0.8-0.1-1.5-1.2-2.4-0.2c-1.2,1.3-2.5,2.5-3.7,3.8c-0.4,0.4-0.7,0.5-1.1,0c-1.6-1.6-3.1-3.2-4.7-4.7c-0.5-0.5-0.4-0.8,0.1-1.2
			c1.2-1.2,2.4-2.4,3.6-3.5c0.5-0.5,0.4-0.8,0.3-1.4c-0.5-1.8-1.5-2.4-3.3-2.1c-1.1,0.2-2.3,0-3.5,0c-0.7,0-1-0.1-1-0.9
			c0.1-2.2,0.1-4.4,0-6.6c0-0.7,0.3-0.8,0.9-0.8c1.7,0,3.4,0,5,0c0.7,0,1-0.2,1.3-0.8c0.8-1.4,0.6-2.4-0.7-3.4
			c-1-0.7-1.8-1.8-2.7-2.6c-0.5-0.4-0.4-0.7,0-1.1c1.6-1.6,3.2-3.1,4.7-4.7c0.4-0.4,0.7-0.5,1.1,0c1.1,1.2,2.3,2.3,3.4,3.5
			c0.5,0.6,0.9,0.5,1.6,0.3c1.5-0.4,2-1.2,1.8-2.7c-0.2-1.4,0-2.7,0-4.1c0-0.6,0.2-0.7,0.7-0.7c2.3,0,4.6,0,6.8,0
			c0.6,0,0.7,0.2,0.7,0.7c0,1.7,0,3.4,0,5.2c0,0.8,0.4,1,0.9,1.4c1.6,1,2.6,0.5,3.6-0.8c0.8-0.9,1.7-1.7,2.5-2.6
			c0.4-0.5,0.7-0.6,1.2-0.1c1.5,1.6,3.1,3.2,4.7,4.7c0.5,0.5,0.4,0.7,0,1.1c-1.3,1.2-2.5,2.5-3.8,3.7c-0.5,0.5-0.6,0.9-0.2,1.4
			c0.4,0.6,0.1,1.8,1.5,1.7c1.7-0.1,3.4,0,5.2,0c0.6,0,0.9,0.1,0.9,0.8c0,2.2-0.1,4.4,0,6.6c0,0.8-0.3,0.9-1,0.9c-1.7,0-3.4,0-5,0
			c-0.7,0-0.9,0.2-1.2,0.8c-0.9,1.5-0.5,2.5,0.8,3.5c1.1,0.8,2,1.9,3,2.9c0.4,0.4,0.4,0.6,0,1c-1.6,1.6-3.2,3.1-4.7,4.7
			c-0.5,0.5-0.7,0.5-1.2,0c-1.2-1.3-2.5-2.5-3.7-3.8c-0.5-0.5-0.8-0.5-1.5-0.3c-1.6,0.4-2.1,1.4-1.9,3c0.1,1.1-0.1,2.3,0.1,3.5
			c0.1,1.1-0.3,1.3-1.3,1.2C244.7,183.8,243.7,183.9,242.7,183.9z M249,163.3c0-3.4-2.7-6.2-6.1-6.2c-3.4,0-6.3,2.7-6.3,6.1
			c0,3.4,2.8,6.2,6.2,6.2C246.2,169.5,249,166.7,249,163.3z"/>
	</g>
</g>
</svg>
