<?xml version="1.0" encoding="utf-8"?>
<!-- Generator: Adobe Illustrator 27.0.1, SVG Export Plug-In . SVG Version: 6.00 Build 0)  -->
<svg version="1.1" id="Layer_1" xmlns="http://www.w3.org/2000/svg" xmlns:xlink="http://www.w3.org/1999/xlink" x="0px" y="0px"
	 viewBox="0 0 186 49" style="enable-background:new 0 0 186 49;" xml:space="preserve">
<style type="text/css">
	.st0{fill-opacity:0.1;}
	.st1{fill:#3BC9D0;stroke:#000000;stroke-width:0.2471;stroke-opacity:5.000000e-02;}
	.st2{fill:#FFFFFF;fill-opacity:0.3;}
	.st3{fill:none;}
	.st4{enable-background:new    ;}
	.st5{fill:#FFFFFF;}
</style>
<g>
	<g>
		<g>
			<path class="st0" d="M142.4,25.1h-113c-0.9,0-1.7,0.8-1.7,1.7c0,0.9,0.8,1.7,1.7,1.7h113c0.9,0,1.7-0.8,1.7-1.7
				C144.1,25.9,143.3,25.1,142.4,25.1z"/>
			<path class="st1" d="M114.2,25.8H29.4c-0.6,0-1,0.5-1,1c0,0.6,0.5,1,1,1h84.8c0.6,0,1-0.5,1-1S114.8,25.8,114.2,25.8z"/>
		</g>
		<path class="st2" d="M122.3,34H29.1c-0.8,0-1.4,0.6-1.4,1.4s0.6,1.4,1.4,1.4h93.2c0.8,0,1.4-0.6,1.4-1.4S123,34,122.3,34z"/>
		<path class="st2" d="M92.3,42.3H29.1c-0.8,0-1.4,0.6-1.4,1.4s0.6,1.4,1.4,1.4h63.2c0.8,0,1.4-0.6,1.4-1.4S93,42.3,92.3,42.3z"/>
	</g>
</g>
<rect x="26.9" y="5.6" class="st3" width="88.5" height="11.7"/>
<g class="st4">
	<path class="st5" d="M32.4,14.5h-3.5l-0.6,1.7h-1.4l3-8.4h1.6l3,8.4H33L32.4,14.5z M32,13.4l-1.4-3.9l-1.4,3.9H32z"/>
	<path class="st5" d="M40.5,9.8c0.4,0.2,0.7,0.5,1,1c0.2,0.4,0.3,0.9,0.3,1.5v3.9h-1.4v-3.7c0-0.6-0.1-1-0.4-1.4
		c-0.3-0.3-0.7-0.5-1.2-0.5c-0.5,0-0.9,0.2-1.2,0.5c-0.3,0.3-0.4,0.8-0.4,1.4v3.7h-1.4V9.6h1.4v0.8c0.2-0.3,0.5-0.5,0.9-0.6
		c0.3-0.2,0.7-0.2,1.1-0.2C39.6,9.5,40.1,9.6,40.5,9.8z"/>
	<path class="st5" d="M43.5,11.1c0.3-0.5,0.7-0.9,1.1-1.2s1-0.4,1.6-0.4c0.5,0,1,0.1,1.4,0.3c0.4,0.2,0.7,0.5,0.9,0.8v-1h1.4v6.6
		h-1.4v-1c-0.2,0.3-0.5,0.6-0.9,0.8c-0.4,0.2-0.9,0.3-1.4,0.3c-0.6,0-1.1-0.1-1.6-0.4s-0.8-0.7-1.1-1.2c-0.3-0.5-0.4-1.1-0.4-1.8
		S43.2,11.7,43.5,11.1z M48.2,11.7c-0.2-0.3-0.4-0.6-0.7-0.8c-0.3-0.2-0.6-0.3-1-0.3s-0.7,0.1-1,0.3c-0.3,0.2-0.6,0.4-0.7,0.8
		s-0.3,0.7-0.3,1.2s0.1,0.9,0.3,1.2s0.4,0.6,0.7,0.8c0.3,0.2,0.6,0.3,1,0.3c0.4,0,0.7-0.1,1-0.3s0.5-0.4,0.7-0.8
		c0.2-0.3,0.3-0.7,0.3-1.2C48.5,12.5,48.4,12.1,48.2,11.7z M47.9,7.9l-2.7,1.3v-1l2.7-1.5V7.9z"/>
	<path class="st5" d="M53,7.4v8.9h-1.4V7.4H53z"/>
	<path class="st5" d="M54.9,8.5c-0.2-0.2-0.3-0.4-0.3-0.6s0.1-0.5,0.3-0.6S55.3,7,55.5,7c0.2,0,0.4,0.1,0.6,0.3s0.3,0.4,0.3,0.6
		s-0.1,0.5-0.3,0.6s-0.4,0.3-0.6,0.3C55.3,8.8,55.1,8.7,54.9,8.5z M56.2,9.6v6.6h-1.4V9.6H56.2z"/>
	<path class="st5" d="M59,16.1c-0.4-0.2-0.7-0.4-1-0.8c-0.2-0.3-0.4-0.7-0.4-1.1h1.4c0,0.3,0.2,0.5,0.4,0.7c0.2,0.2,0.5,0.3,0.9,0.3
		c0.4,0,0.7-0.1,0.9-0.2c0.2-0.1,0.3-0.3,0.3-0.6c0-0.2-0.1-0.4-0.4-0.6c-0.2-0.1-0.6-0.3-1.1-0.4c-0.5-0.1-0.9-0.3-1.2-0.4
		s-0.6-0.3-0.8-0.6c-0.2-0.3-0.3-0.6-0.3-1c0-0.4,0.1-0.7,0.3-1s0.5-0.5,0.9-0.7c0.4-0.2,0.8-0.3,1.3-0.3c0.8,0,1.4,0.2,1.8,0.6
		c0.5,0.4,0.7,0.9,0.7,1.6h-1.4c0-0.3-0.1-0.5-0.4-0.7s-0.5-0.3-0.9-0.3c-0.4,0-0.6,0.1-0.8,0.2c-0.2,0.1-0.3,0.3-0.3,0.5
		c0,0.2,0.1,0.3,0.2,0.4c0.1,0.1,0.3,0.2,0.5,0.3c0.2,0.1,0.5,0.2,0.8,0.3c0.5,0.1,0.9,0.3,1.2,0.4c0.3,0.1,0.6,0.3,0.8,0.6
		s0.3,0.6,0.3,1c0,0.4-0.1,0.7-0.3,1s-0.5,0.5-0.9,0.7c-0.4,0.2-0.8,0.3-1.3,0.3C59.9,16.4,59.4,16.3,59,16.1z"/>
	<path class="st5" d="M64.5,8.5c-0.2-0.2-0.3-0.4-0.3-0.6s0.1-0.5,0.3-0.6S64.9,7,65.1,7c0.2,0,0.4,0.1,0.6,0.3S66,7.6,66,7.9
		s-0.1,0.5-0.3,0.6s-0.4,0.3-0.6,0.3C64.9,8.8,64.6,8.7,64.5,8.5z M65.8,9.6v6.6h-1.4V9.6H65.8z"/>
	<path class="st5" d="M68.6,16.1c-0.4-0.2-0.7-0.4-1-0.8c-0.2-0.3-0.4-0.7-0.4-1.1h1.4c0,0.3,0.2,0.5,0.4,0.7
		c0.2,0.2,0.5,0.3,0.9,0.3c0.4,0,0.7-0.1,0.9-0.2c0.2-0.1,0.3-0.3,0.3-0.6c0-0.2-0.1-0.4-0.4-0.6c-0.2-0.1-0.6-0.3-1.1-0.4
		c-0.5-0.1-0.9-0.3-1.2-0.4s-0.6-0.3-0.8-0.6c-0.2-0.3-0.3-0.6-0.3-1c0-0.4,0.1-0.7,0.3-1s0.5-0.5,0.9-0.7c0.4-0.2,0.8-0.3,1.3-0.3
		c0.8,0,1.4,0.2,1.8,0.6c0.5,0.4,0.7,0.9,0.7,1.6h-1.4c0-0.3-0.1-0.5-0.4-0.7s-0.5-0.3-0.9-0.3c-0.4,0-0.6,0.1-0.8,0.2
		c-0.2,0.1-0.3,0.3-0.3,0.5c0,0.2,0.1,0.3,0.2,0.4c0.1,0.1,0.3,0.2,0.5,0.3c0.2,0.1,0.5,0.2,0.8,0.3c0.5,0.1,0.9,0.3,1.2,0.4
		c0.3,0.1,0.6,0.3,0.8,0.6s0.3,0.6,0.3,1c0,0.4-0.1,0.7-0.3,1s-0.5,0.5-0.9,0.7c-0.4,0.2-0.8,0.3-1.3,0.3
		C69.5,16.4,69,16.3,68.6,16.1z"/>
	<path class="st5" d="M77.1,11.1c0.3-0.5,0.7-0.9,1.1-1.2s1-0.4,1.6-0.4c0.4,0,0.9,0.1,1.3,0.3c0.4,0.2,0.8,0.4,1,0.8V7.4h1.4v8.9
		h-1.4v-1c-0.2,0.3-0.5,0.6-0.9,0.8s-0.9,0.3-1.4,0.3c-0.6,0-1.1-0.1-1.6-0.4s-0.9-0.7-1.1-1.2c-0.3-0.5-0.4-1.1-0.4-1.8
		S76.8,11.7,77.1,11.1z M81.8,11.7c-0.2-0.3-0.4-0.6-0.7-0.8c-0.3-0.2-0.6-0.3-1-0.3s-0.7,0.1-1,0.3c-0.3,0.2-0.6,0.4-0.7,0.8
		s-0.3,0.7-0.3,1.2s0.1,0.9,0.3,1.2s0.4,0.6,0.7,0.8c0.3,0.2,0.6,0.3,1,0.3c0.4,0,0.7-0.1,1-0.3s0.5-0.4,0.7-0.8
		c0.2-0.3,0.3-0.7,0.3-1.2C82.1,12.5,82,12.1,81.8,11.7z"/>
	<path class="st5" d="M91.3,13.5h-5.1c0,0.5,0.2,1,0.6,1.3c0.4,0.3,0.8,0.5,1.3,0.5c0.7,0,1.3-0.3,1.6-0.9h1.5
		c-0.2,0.6-0.6,1.1-1.1,1.5c-0.5,0.4-1.2,0.6-1.9,0.6c-0.6,0-1.2-0.1-1.7-0.4c-0.5-0.3-0.9-0.7-1.2-1.2c-0.3-0.5-0.4-1.1-0.4-1.8
		c0-0.7,0.1-1.3,0.4-1.8c0.3-0.5,0.7-0.9,1.2-1.2s1.1-0.4,1.7-0.4c0.6,0,1.2,0.1,1.7,0.4c0.5,0.3,0.9,0.7,1.1,1.1s0.4,1.1,0.4,1.7
		C91.3,13,91.3,13.2,91.3,13.5z M89.9,12.3c0-0.5-0.2-0.9-0.5-1.2c-0.4-0.3-0.8-0.5-1.3-0.5c-0.5,0-0.9,0.2-1.2,0.5
		s-0.5,0.7-0.6,1.2H89.9z"/>
	<path class="st5" d="M95.7,11.1c0.3-0.5,0.7-0.9,1.1-1.2c0.5-0.3,1-0.4,1.6-0.4c0.4,0,0.9,0.1,1.3,0.3c0.4,0.2,0.8,0.4,1,0.8V7.4
		h1.4v8.9h-1.4v-1c-0.2,0.3-0.5,0.6-0.9,0.8c-0.4,0.2-0.8,0.3-1.4,0.3c-0.6,0-1.1-0.1-1.6-0.4c-0.5-0.3-0.9-0.7-1.1-1.2
		c-0.3-0.5-0.4-1.1-0.4-1.8S95.4,11.7,95.7,11.1z M100.4,11.7c-0.2-0.3-0.4-0.6-0.7-0.8c-0.3-0.2-0.6-0.3-1-0.3
		c-0.4,0-0.7,0.1-1,0.3c-0.3,0.2-0.5,0.4-0.7,0.8c-0.2,0.3-0.3,0.7-0.3,1.2s0.1,0.9,0.3,1.2c0.2,0.3,0.4,0.6,0.7,0.8
		c0.3,0.2,0.6,0.3,1,0.3c0.4,0,0.7-0.1,1-0.3c0.3-0.2,0.5-0.4,0.7-0.8c0.2-0.3,0.3-0.7,0.3-1.2C100.7,12.5,100.6,12.1,100.4,11.7z"
		/>
	<path class="st5" d="M103.9,11.1c0.3-0.5,0.7-0.9,1.1-1.2c0.5-0.3,1-0.4,1.6-0.4c0.5,0,1,0.1,1.4,0.3s0.7,0.5,0.9,0.8v-1h1.4v6.6
		h-1.4v-1c-0.2,0.3-0.5,0.6-0.9,0.8c-0.4,0.2-0.9,0.3-1.4,0.3c-0.6,0-1.1-0.1-1.6-0.4c-0.5-0.3-0.8-0.7-1.1-1.2
		c-0.3-0.5-0.4-1.1-0.4-1.8S103.6,11.7,103.9,11.1z M108.6,11.7c-0.2-0.3-0.4-0.6-0.7-0.8c-0.3-0.2-0.6-0.3-1-0.3
		c-0.4,0-0.7,0.1-1,0.3c-0.3,0.2-0.6,0.4-0.7,0.8c-0.2,0.3-0.3,0.7-0.3,1.2s0.1,0.9,0.3,1.2c0.2,0.3,0.4,0.6,0.7,0.8
		c0.3,0.2,0.6,0.3,1,0.3c0.4,0,0.7-0.1,1-0.3c0.3-0.2,0.5-0.4,0.7-0.8c0.2-0.3,0.3-0.7,0.3-1.2C108.9,12.5,108.8,12.1,108.6,11.7z"
		/>
	<path class="st5" d="M113.6,10.8v3.7c0,0.2,0.1,0.4,0.2,0.5c0.1,0.1,0.3,0.2,0.6,0.2h0.8v1.1h-1.1c-0.6,0-1.1-0.1-1.4-0.4
		s-0.5-0.8-0.5-1.4v-3.7h-0.8V9.6h0.8V8h1.4v1.6h1.6v1.1H113.6z"/>
	<path class="st5" d="M117.7,15.9c-0.5-0.3-0.9-0.7-1.2-1.2c-0.3-0.5-0.4-1.1-0.4-1.8c0-0.7,0.1-1.3,0.4-1.8
		c0.3-0.5,0.7-0.9,1.2-1.2c0.5-0.3,1.1-0.4,1.7-0.4c0.6,0,1.2,0.1,1.7,0.4c0.5,0.3,0.9,0.7,1.2,1.2c0.3,0.5,0.4,1.1,0.4,1.8
		c0,0.7-0.2,1.3-0.5,1.8c-0.3,0.5-0.7,0.9-1.2,1.2c-0.5,0.3-1.1,0.4-1.7,0.4C118.7,16.4,118.2,16.2,117.7,15.9z M120.4,14.9
		c0.3-0.2,0.6-0.4,0.8-0.8s0.3-0.7,0.3-1.2c0-0.5-0.1-0.9-0.3-1.2c-0.2-0.3-0.4-0.6-0.7-0.8c-0.3-0.2-0.6-0.3-1-0.3
		c-0.4,0-0.7,0.1-1,0.3c-0.3,0.2-0.5,0.4-0.7,0.8c-0.2,0.3-0.3,0.7-0.3,1.2c0,0.7,0.2,1.3,0.5,1.6c0.4,0.4,0.8,0.6,1.4,0.6
		C119.7,15.2,120,15.1,120.4,14.9z"/>
	<path class="st5" d="M125.2,16.1c-0.4-0.2-0.7-0.4-1-0.8c-0.2-0.3-0.4-0.7-0.4-1.1h1.4c0,0.3,0.2,0.5,0.4,0.7
		c0.2,0.2,0.5,0.3,0.9,0.3c0.4,0,0.7-0.1,0.9-0.2c0.2-0.1,0.3-0.3,0.3-0.6c0-0.2-0.1-0.4-0.4-0.6c-0.2-0.1-0.6-0.3-1.1-0.4
		c-0.5-0.1-0.9-0.3-1.2-0.4c-0.3-0.1-0.6-0.3-0.8-0.6c-0.2-0.3-0.3-0.6-0.3-1c0-0.4,0.1-0.7,0.3-1s0.5-0.5,0.9-0.7
		c0.4-0.2,0.8-0.3,1.3-0.3c0.8,0,1.4,0.2,1.8,0.6c0.5,0.4,0.7,0.9,0.7,1.6h-1.4c0-0.3-0.1-0.5-0.4-0.7s-0.5-0.3-0.9-0.3
		c-0.4,0-0.6,0.1-0.8,0.2c-0.2,0.1-0.3,0.3-0.3,0.5c0,0.2,0.1,0.3,0.2,0.4c0.1,0.1,0.3,0.2,0.5,0.3c0.2,0.1,0.5,0.2,0.8,0.3
		c0.5,0.1,0.9,0.3,1.2,0.4c0.3,0.1,0.6,0.3,0.8,0.6c0.2,0.3,0.3,0.6,0.3,1c0,0.4-0.1,0.7-0.3,1s-0.5,0.5-0.9,0.7
		c-0.4,0.2-0.8,0.3-1.3,0.3C126,16.4,125.6,16.3,125.2,16.1z"/>
</g>
<g id="czbyoc.tif">
	<g>
		<path class="st5" d="M18.9,14.9c-0.1,0.2-0.2,0.2-0.4,0.2c-0.3,0-0.7,0-1,0c-0.2,0-0.3-0.1-0.3-0.3c0-1.6,0-3.2,0-4.8
			c0-0.2,0.1-0.3,0.3-0.3c0.4,0,0.7,0,1.1,0c0.2,0,0.3,0.1,0.4,0.2C18.9,11.5,18.9,13.2,18.9,14.9z"/>
		<path class="st5" d="M9.3,10.4C9.3,10.4,9.3,10.3,9.3,10.4c0.2-0.7,0.9-0.9,1.4-0.6c0,0,0.1,0,0.1,0c0.3-0.2,0.7-0.5,1-0.7
			c0,0,0.1-0.1,0-0.1c-0.1-0.4,0-0.7,0.3-0.9c0.3-0.2,0.6-0.3,1-0.1c0.3,0.2,0.5,0.4,0.5,0.8c0,0.1,0,0.1,0.1,0.1
			C14,8.9,14.3,9,14.6,9.1c0.1,0,0.1,0,0.1,0c0.3-0.4,0.8-0.5,1.2-0.2c0,0,0.1,0,0.1,0c0.4-0.2,0.7-0.5,1.1-0.7c0,0,0,0,0-0.1
			c-0.1-0.5,0.1-1,0.7-1.1c0.5-0.1,1,0.2,1.1,0.7c0,0,0,0,0,0c0,0.1,0,0.2,0,0.3c0,0,0,0,0,0.1c-0.2,0.6-0.9,0.9-1.4,0.5
			c-0.1,0-0.1,0-0.2,0c-0.3,0.2-0.7,0.5-1,0.7c0,0-0.1,0.1,0,0.1c0.1,0.4,0,0.7-0.3,0.9c-0.3,0.2-0.6,0.3-1,0.1
			c-0.3-0.2-0.5-0.4-0.5-0.8c0-0.1,0-0.1-0.1-0.1c-0.3-0.1-0.5-0.2-0.8-0.3c-0.1,0-0.1,0-0.1,0c-0.3,0.4-0.8,0.5-1.2,0.2
			c0,0-0.1,0-0.1,0c-0.4,0.2-0.7,0.5-1.1,0.7c0,0-0.1,0.1,0,0.1c0.1,0.5-0.2,1-0.6,1.1c-0.5,0.1-1-0.2-1.1-0.6c0,0,0-0.1,0-0.1
			C9.3,10.6,9.3,10.5,9.3,10.4z M15.8,9.6c0-0.3-0.2-0.5-0.5-0.5c-0.2,0-0.4,0.2-0.4,0.5c0,0.2,0.2,0.5,0.5,0.5
			C15.6,10.1,15.8,9.9,15.8,9.6z M12.3,8.7c0,0.3,0.2,0.5,0.5,0.5c0.2,0,0.4-0.2,0.5-0.4c0-0.2-0.2-0.5-0.5-0.5
			C12.5,8.3,12.3,8.5,12.3,8.7z M18.5,7.8c0-0.2-0.2-0.4-0.5-0.4c-0.3,0-0.5,0.2-0.5,0.5c0,0.2,0.2,0.4,0.5,0.4
			C18.3,8.3,18.5,8.1,18.5,7.8z M10.2,11c0.2,0,0.5-0.2,0.4-0.4c0-0.3-0.2-0.5-0.5-0.5c-0.2,0-0.4,0.2-0.4,0.4
			C9.7,10.8,9.9,11,10.2,11z"/>
		<path class="st5" d="M9.3,12.6C9.3,12.6,9.3,12.5,9.3,12.6c0.1-0.2,0.2-0.2,0.3-0.2c0.4,0,0.8,0,1.2,0c0.2,0,0.3,0.1,0.3,0.3
			c0,0.7,0,1.4,0,2.1c0,0.2-0.1,0.3-0.3,0.3c-0.3,0-0.7,0-1,0c-0.2,0-0.3,0-0.4-0.2C9.3,14.1,9.3,13.3,9.3,12.6z"/>
		<path class="st5" d="M11.9,12.8c0-0.6,0-1.3,0-1.9c0-0.2,0.1-0.4,0.4-0.4c0.4,0,0.7,0,1.1,0c0.2,0,0.3,0.1,0.3,0.3
			c0,1.3,0,2.6,0,3.9c0,0.2-0.1,0.3-0.3,0.3c-0.4,0-0.8,0-1.1,0c-0.2,0-0.3-0.1-0.3-0.3C11.9,14.1,11.9,13.4,11.9,12.8z"/>
		<path class="st5" d="M16.3,13.3c0,0.5,0,1,0,1.4c0,0.2-0.1,0.3-0.4,0.3c-0.4,0-0.7,0-1.1,0c-0.2,0-0.3-0.1-0.3-0.3c0-1,0-2,0-2.9
			c0-0.2,0.1-0.3,0.3-0.3c0.4,0,0.8,0,1.1,0c0.2,0,0.3,0.1,0.3,0.3C16.3,12.3,16.3,12.8,16.3,13.3z"/>
	</g>
</g>
</svg>
