<?xml version="1.0" encoding="utf-8"?>
<!-- Generator: Adobe Illustrator 27.0.1, SVG Export Plug-In . SVG Version: 6.00 Build 0)  -->
<svg version="1.1" id="Layer_1" xmlns="http://www.w3.org/2000/svg" xmlns:xlink="http://www.w3.org/1999/xlink" x="0px" y="0px"
	 viewBox="0 0 186 49" style="enable-background:new 0 0 186 49;" xml:space="preserve">
<style type="text/css">
	.st0{fill-opacity:0.1;}
	.st1{fill:#3BC9D0;stroke:#000000;stroke-width:0.2471;stroke-opacity:5.000000e-02;}
	.st2{fill:#FFFFFF;fill-opacity:0.3;}
	.st3{fill:none;}
	.st4{enable-background:new    ;}
	.st5{fill:#FFFFFF;}
</style>
<g>
	<g>
		<g>
			<path class="st0" d="M142.4,25.1h-113c-0.9,0-1.7,0.8-1.7,1.7c0,0.9,0.8,1.7,1.7,1.7h113c0.9,0,1.7-0.8,1.7-1.7
				C144.1,25.9,143.3,25.1,142.4,25.1z"/>
			<path class="st1" d="M67.5,25.8H29.4c-0.6,0-1,0.5-1,1c0,0.6,0.5,1,1,1h38.1c0.6,0,1-0.5,1-1S68.1,25.8,67.5,25.8z"/>
		</g>
		<path class="st2" d="M122.3,34H29.1c-0.8,0-1.4,0.6-1.4,1.4s0.6,1.4,1.4,1.4h93.2c0.8,0,1.4-0.6,1.4-1.4S123,34,122.3,34z"/>
		<path class="st2" d="M92.3,42.3H29.1c-0.8,0-1.4,0.6-1.4,1.4s0.6,1.4,1.4,1.4h63.2c0.8,0,1.4-0.6,1.4-1.4S93,42.3,92.3,42.3z"/>
	</g>
</g>
<rect x="26.9" y="5.6" class="st3" width="88.5" height="11.7"/>
<g class="st4">
	<path class="st5" d="M33.1,14h-3.5L29,15.7h-1.4l3-8.4h1.6l3,8.4h-1.4L33.1,14z M32.7,12.9L31.4,9L30,12.9H32.7z"/>
	<path class="st5" d="M42,11c-0.2,0.4-0.5,0.7-1,0.9c-0.4,0.2-1,0.4-1.7,0.4h-1.5v3.4h-1.4V7.4h2.9c0.6,0,1.2,0.1,1.6,0.3
		c0.4,0.2,0.8,0.5,1,0.9s0.3,0.8,0.3,1.3C42.3,10.3,42.2,10.7,42,11z M40.5,10.8c0.3-0.2,0.4-0.6,0.4-1c0-0.9-0.5-1.4-1.5-1.4h-1.5
		v2.7h1.5C39.9,11.2,40.2,11.1,40.5,10.8z"/>
	<path class="st5" d="M45,7.4v8.3h-1.4V7.4H45z"/>
	<path class="st5" d="M47,7.4h1.5l-1.3,2.9h-1L47,7.4z"/>
	<path class="st5" d="M50.9,15.5c-0.4-0.2-0.8-0.5-1.1-0.8c-0.3-0.4-0.4-0.8-0.4-1.3h1.5c0,0.4,0.2,0.7,0.4,0.9
		c0.3,0.2,0.6,0.3,1.1,0.3c0.5,0,0.8-0.1,1.1-0.3c0.3-0.2,0.4-0.5,0.4-0.9c0-0.3-0.1-0.5-0.2-0.7c-0.2-0.2-0.4-0.3-0.6-0.4
		c-0.2-0.1-0.6-0.2-1-0.3c-0.5-0.1-1-0.3-1.3-0.4c-0.3-0.1-0.6-0.4-0.9-0.7c-0.2-0.3-0.4-0.7-0.4-1.2c0-0.5,0.1-0.9,0.4-1.3
		c0.2-0.4,0.6-0.6,1-0.8c0.4-0.2,0.9-0.3,1.5-0.3c0.8,0,1.5,0.2,2,0.6c0.5,0.4,0.8,1,0.9,1.7h-1.5c0-0.3-0.2-0.6-0.4-0.8
		c-0.3-0.2-0.6-0.3-1-0.3c-0.4,0-0.7,0.1-1,0.3c-0.2,0.2-0.4,0.5-0.4,0.9c0,0.3,0.1,0.5,0.2,0.6c0.2,0.2,0.4,0.3,0.6,0.4
		c0.2,0.1,0.6,0.2,1,0.3c0.6,0.2,1,0.3,1.4,0.5c0.3,0.2,0.6,0.4,0.9,0.7c0.2,0.3,0.4,0.7,0.4,1.3c0,0.4-0.1,0.8-0.3,1.2
		s-0.6,0.7-1,0.9c-0.4,0.2-1,0.3-1.5,0.3C51.9,15.8,51.4,15.7,50.9,15.5z"/>
</g>
<g id="H2evJJ.tif">
	<g>
		<path class="st5" d="M11.2,4.5c1.9,0,3.9,0,5.8,0l0,0c0.6,0.1,1,0.6,1,1.2c0,0.5,0,1,0,1.5s-0.2,0.9-0.7,1.1
			c-0.1,0-0.1,0.1-0.1,0.1c0,0.3,0,0.5,0,0.8c0,0.1,0,0.1,0.1,0.1c0.5,0.2,0.7,0.6,0.7,1.1s0,1,0,1.5c0,0.7-0.5,1.2-1.2,1.2
			c-0.3,0-0.7,0-1,0c-0.1,0-0.1,0-0.1,0.1c0,0.5,0,1,0,1.4c0,0.3,0.2,0.4,0.4,0.4c0.3,0,0.5,0,0.8,0c-0.1,0.3-0.1,0.5,0,0.8
			c-0.3,0-0.5,0-0.8,0c-0.7,0-1.2-0.5-1.2-1.2c0-0.5,0-1,0-1.4c0-0.1,0-0.1-0.1-0.1c-0.5,0-0.9,0-1.4,0c-0.1,0-0.1,0-0.1,0.1
			c0,0.5,0,1,0,1.5c-0.3-0.1-0.5-0.1-0.8,0c0-0.5,0-1,0-1.5c0-0.1,0-0.1-0.1-0.1c-0.5,0-0.9,0-1.4,0c-0.1,0-0.1,0-0.1,0.1
			c0,0.5,0,1,0,1.5c0,0.6-0.4,1-1,1.1c-0.3,0.1-0.7,0-1,0C9,15.5,9,15.3,8.9,15c0.3,0,0.6,0,0.8,0s0.4-0.2,0.4-0.4c0-0.5,0-1,0-1.5
			c0-0.1,0-0.1-0.1-0.1c-0.4,0-0.7,0-1.1,0c-0.7,0-1.2-0.5-1.2-1.2c0-0.5,0-1.1,0-1.6S8,9.3,8.4,9.1C8.5,9.1,8.5,9,8.5,9
			c0-0.2,0-0.5,0-0.7c0-0.1,0-0.1-0.1-0.1C8,8.1,7.7,7.8,7.7,7.3s0-1.1,0-1.6s0.4-1,0.9-1.1h0.1c0.4,0,0.7,0,1.1,0l0,0
			c0.2,0,0.3,0.2,0.3,0.4S9.9,5.3,9.7,5.3s-0.5,0-0.7,0c-0.3,0-0.4,0.2-0.4,0.4c0,0.5,0,1,0,1.5c0,0.3,0.2,0.5,0.5,0.5
			c2.6,0,5.2,0,7.8,0c0.3,0,0.4-0.2,0.4-0.4c0-0.5,0-1,0-1.5c0-0.3-0.1-0.5-0.5-0.5c-1.8,0-3.6,0-5.4,0c-0.2,0-0.4-0.1-0.5-0.3
			C10.8,4.8,10.9,4.6,11.2,4.5L11.2,4.5z M12.8,10c-1.3,0-2.6,0-3.9,0c-0.3,0-0.5,0.2-0.5,0.5c0,0.5,0,1,0,1.5
			c0,0.3,0.2,0.4,0.4,0.4c2.6,0,5.2,0,7.8,0c0.3,0,0.4-0.2,0.4-0.5c0-0.5,0-1,0-1.5c0-0.3-0.2-0.5-0.5-0.5C15.4,10,14.1,10,12.8,10z
			 M12.8,9.2c1.1,0,2.3,0,3.4,0c0.1,0,0.1,0,0.1-0.1c0-0.2,0-0.4,0-0.6c0-0.1,0-0.1-0.1-0.1c-0.3,0-0.6,0-1,0c-2,0-3.9,0-5.9,0
			c-0.1,0-0.1,0-0.1,0.1c0,0.2,0,0.4,0,0.6c0,0.1,0,0.1,0.1,0.1C10.6,9.2,11.7,9.2,12.8,9.2z"/>
		<path class="st5" d="M16.8,15.1c0.1-0.1,0.2-0.3,0.3-0.4c0.3-0.3,0.7-0.4,1.2-0.3c0.5,0.1,0.7,0.4,0.8,0.9c0,0,0,0,0,0.1
			s0,0.2,0,0.4v0.1c-0.1,0.5-0.6,0.8-1,0.9c-0.5,0-0.9-0.2-1.2-0.7c0,0,0-0.1-0.1-0.1C16.8,15.7,16.8,15.4,16.8,15.1z"/>
		<path class="st5" d="M13.2,14.8c0.1,0.1,0.3,0.2,0.4,0.3c0.4,0.4,0.5,1,0.2,1.5s-0.8,0.7-1.4,0.5c-0.5-0.2-0.9-0.7-0.8-1.2
			c0-0.4,0.3-0.8,0.6-1l0.1-0.1C12.7,14.7,13,14.7,13.2,14.8z"/>
		<path class="st5" d="M8.9,15.9c-0.1,0.2-0.2,0.3-0.3,0.5c-0.4,0.3-0.9,0.4-1.3,0.2c-0.4-0.2-0.7-0.7-0.6-1.2s0.5-0.9,0.9-1
			c0.5-0.1,1,0.1,1.3,0.6L9,15.1C8.9,15.4,8.9,15.7,8.9,15.9z"/>
		<path class="st5" d="M14.8,6.1c0.4,0,0.8,0,1.1,0c0.2,0,0.4,0.2,0.4,0.4c0,0.2-0.2,0.4-0.4,0.4c-0.8,0-1.5,0-2.3,0
			c-0.3,0-0.4-0.2-0.4-0.4c0-0.2,0.2-0.4,0.4-0.4C14.1,6.1,14.4,6.1,14.8,6.1z"/>
		<path class="st5" d="M9.7,6.1c0.2,0,0.4,0.2,0.4,0.4c0,0.2-0.2,0.4-0.4,0.4S9.3,6.7,9.3,6.5C9.3,6.2,9.5,6.1,9.7,6.1z"/>
		<path class="st5" d="M11.3,6.9c-0.2,0-0.4-0.2-0.4-0.4c0-0.2,0.2-0.4,0.4-0.4s0.4,0.2,0.4,0.4C11.7,6.7,11.5,6.9,11.3,6.9z"/>
		<path class="st5" d="M14.8,11.6c-0.4,0-0.8,0-1.2,0c-0.2,0-0.4-0.2-0.4-0.4s0.1-0.4,0.3-0.4h0.1c0.8,0,1.5,0,2.3,0
			c0.3,0,0.4,0.2,0.4,0.4s-0.2,0.4-0.4,0.4C15.6,11.6,15.2,11.6,14.8,11.6z"/>
		<path class="st5" d="M9.7,10.8c0.2,0,0.4,0.2,0.4,0.4s-0.2,0.4-0.4,0.4s-0.4-0.2-0.4-0.4S9.5,10.8,9.7,10.8z"/>
		<path class="st5" d="M11.7,11.2c0,0.2-0.2,0.4-0.4,0.4s-0.4-0.2-0.4-0.4s0.2-0.4,0.4-0.4S11.7,11,11.7,11.2z"/>
	</g>
</g>
</svg>
