<?xml version="1.0" encoding="utf-8"?>
<!-- Generator: Adobe Illustrator 27.0.1, SVG Export Plug-In . SVG Version: 6.00 Build 0)  -->
<svg version="1.1" id="Layer_1" xmlns="http://www.w3.org/2000/svg" xmlns:xlink="http://www.w3.org/1999/xlink" x="0px" y="0px"
	 viewBox="0 0 32 32" style="enable-background:new 0 0 32 32;" xml:space="preserve">
<style type="text/css">
	.st0{fill:#FFFFFF;}
	.st1{fill:#E5E5E5;}
	.st2{fill:#333333;}
</style>
<g id="Flat_copy">
	<g>
		<g>
			<path class="st0" d="M16,31.6c-8.6,0-15.6-7-15.6-15.6S7.4,0.4,16,0.4s15.6,7,15.6,15.6S24.6,31.6,16,31.6z"/>
			<path class="st1" d="M16,0.7c8.4,0,15.2,6.8,15.2,15.2S24.4,31.2,16,31.2S0.8,24.4,0.8,16S7.6,0.7,16,0.7 M16,0C7.2,0,0,7.2,0,16
				c0,8.8,7.2,16,16,16s16-7.2,16-16C32,7.2,24.8,0,16,0L16,0z"/>
		</g>
	</g>
</g>
<path class="st2" d="M19.2,17.6c-1.7-0.8-3.6-0.3-5.4-0.5c0-0.5,0.3-0.8,0.5-1.2c1.6-2.7,3.2-5.5,4.8-8.2c0.5-0.8,0.5-1.5-0.3-2
	c-0.8-0.5-1.5-0.1-1.9,0.6c-0.1,0.2-0.1,0.5-0.6,0.5c-0.1-0.2-0.3-0.5-0.4-0.7c-0.5-0.7-1.1-0.9-1.9-0.5c-0.7,0.4-0.8,1.1-0.4,1.8
	c0.2,0.4,0.4,0.8,0.7,1.2c0.5,0.7,0.5,1.3,0,2c-0.8,1.2-1.7,2.5-2.2,3.9c-0.8,2-2.1,2.9-4.3,2.5c-0.9-0.2-1.8,0.2-1.9,1.3
	c0,1.2,0.9,1.4,1.9,1.4c3.1,0,6.2,0,9.3,0c2.3,0,2.3,0,2-2.1C19,17.6,19.1,17.6,19.2,17.6c0.4,0,0.4,0.4,0.5,0.6
	c0.8,1.4,1.6,2.8,2.5,4.2c0.5,0.9,0.9,2,2.3,1.4c0.9-0.4,0.9-1.1,0-2.6c-0.2-0.4-0.6-0.7-0.6-1.3c0.6,0,1.1,0,1.7,0
	c0.8-0.1,1.3-0.5,1.3-1.3c0-0.8-0.5-1.2-1.3-1.3c-0.8-0.1-1.6-0.1-2.3,0c-0.9,0.1-1.3-0.3-1.7-1c-1-1.9-2.1-3.7-3.3-5.7
	c-1.2,1.5-1.2,2.9-0.5,4.3C18.2,15.7,18.9,16.5,19.2,17.6z M9.5,20.2c-1-0.1-1.2,0.7-1.5,1.3c-0.4,0.6-0.6,1.1-0.2,1.8
	c0.5,0.8,1.5,0.9,2.1,0.2c0.3-0.4,0.6-0.8,0.8-1.3c0.2-0.4,0.8-0.7,0.4-1.2C10.7,20.4,10.1,20.3,9.5,20.2z"/>
<path class="st2" d="M19.1,17.6c0,0-0.1,0.1-0.1,0.1c0.3,2.1,0.3,2.1-2,2.1c-3.1,0-6.2,0-9.3,0c-1,0-1.9-0.2-1.9-1.4
	c0-1.1,0.9-1.4,1.9-1.3c2.2,0.4,3.5-0.5,4.3-2.5c0.6-1.4,1.4-2.6,2.2-3.9c0.5-0.7,0.5-1.4,0-2c-0.3-0.4-0.5-0.8-0.7-1.2
	c-0.4-0.7-0.3-1.4,0.4-1.8c0.7-0.5,1.4-0.2,1.9,0.5c0.2,0.2,0.3,0.5,0.4,0.7c0.4,0,0.5-0.3,0.6-0.5c0.5-0.8,1.1-1.1,1.9-0.6
	c0.8,0.5,0.8,1.2,0.3,2c-1.6,2.7-3.2,5.4-4.8,8.2c-0.2,0.4-0.5,0.7-0.5,1.2C15.6,17.2,17.4,16.8,19.1,17.6L19.1,17.6z"/>
<path class="st2" d="M19.2,17.6c-0.2-1.1-1-1.8-1.4-2.8c-0.7-1.5-0.7-2.9,0.5-4.3c1.1,2,2.3,3.8,3.3,5.7c0.4,0.7,0.8,1.1,1.7,1
	c0.8-0.1,1.5-0.1,2.3,0c0.8,0.1,1.3,0.5,1.3,1.3c0,0.8-0.5,1.2-1.3,1.3c-0.5,0-1.1,0-1.7,0c0,0.6,0.3,1,0.6,1.3
	c0.8,1.5,0.9,2.2,0,2.6c-1.4,0.6-1.8-0.5-2.3-1.4c-0.8-1.4-1.6-2.8-2.5-4.2C19.5,17.9,19.5,17.6,19.2,17.6
	C19.1,17.6,19.2,17.6,19.2,17.6z"/>
<path class="st2" d="M9.5,20.2c0.6,0.1,1.2,0.2,1.6,0.7c0.3,0.5-0.3,0.8-0.4,1.2c-0.2,0.5-0.5,0.9-0.8,1.3c-0.6,0.7-1.6,0.6-2.1-0.2
	c-0.4-0.7-0.1-1.2,0.2-1.8C8.3,20.9,8.5,20.1,9.5,20.2z"/>
</svg>
