<?xml version="1.0" encoding="UTF-8"?>
<svg id="Layer_1" data-name="Layer 1" xmlns="http://www.w3.org/2000/svg" viewBox="0 0 153.89 111.66">
  <defs>
    <style>
      .cls-1 {
        fill: none;
      }

      .cls-2 {
        fill: #fff;
      }

      .cls-3, .cls-4, .cls-5 {
        fill: #3bc9d0;
      }

      .cls-6 {
        fill: rgba(255, 255, 255, .3);
      }

      .cls-4 {
        fill-rule: evenodd;
      }

      .cls-5 {
        stroke: rgba(0, 0, 0, .05);
        stroke-width: .25px;
      }
    </style>
  </defs>
  <g>
    <path d="M135.4,20.06H22.4c-.9,0-1.7,.8-1.7,1.7s.8,1.7,1.7,1.7h113c.9,0,1.7-.8,1.7-1.7,0-.9-.8-1.7-1.7-1.7Z"/>
    <path class="cls-5" d="M135.05,20.76H22.4c-.6,0-1,.5-1,1,0,.6,.5,1,1,1h112.65c.6,0,1-.5,1-1s-.4-1-1-1Z"/>
  </g>
  <rect class="cls-1" x="19.9" y=".56" width="88.5" height="11.7"/>
  <g>
    <path class="cls-2" d="M20.64,2.91c.44-.76,1.04-1.35,1.81-1.77,.76-.42,1.59-.64,2.5-.64,1.04,0,1.96,.25,2.77,.76s1.39,1.23,1.76,2.16h-1.92c-.25-.51-.6-.9-1.05-1.15-.45-.25-.97-.38-1.55-.38-.64,0-1.22,.15-1.72,.43-.5,.29-.9,.7-1.18,1.25s-.43,1.17-.43,1.89,.14,1.35,.43,1.89c.28,.54,.68,.96,1.18,1.25s1.08,.44,1.72,.44c.59,0,1.11-.13,1.55-.38,.45-.25,.8-.63,1.05-1.15h1.92c-.36,.93-.95,1.65-1.76,2.16s-1.73,.76-2.77,.76c-.91,0-1.75-.21-2.51-.64-.76-.42-1.36-1.01-1.8-1.77-.44-.76-.67-1.61-.67-2.56s.22-1.81,.67-2.56Z"/>
    <path class="cls-2" d="M31.28,4.41c.32-.6,.76-1.06,1.32-1.39,.56-.33,1.17-.5,1.84-.5,.61,0,1.14,.12,1.59,.36,.45,.24,.81,.53,1.08,.89v-1.12h1.61v7.71h-1.61v-1.15c-.27,.36-.64,.67-1.11,.91-.47,.24-1,.36-1.6,.36-.66,0-1.27-.17-1.82-.51-.55-.34-.99-.82-1.31-1.43-.32-.61-.48-1.3-.48-2.08s.16-1.46,.48-2.06Zm5.5,.7c-.22-.39-.51-.69-.86-.9-.35-.21-.74-.31-1.15-.31s-.79,.1-1.15,.3c-.35,.2-.64,.49-.86,.88s-.33,.85-.33,1.38,.11,1,.33,1.4c.22,.4,.51,.71,.87,.92s.74,.32,1.14,.32,.79-.1,1.15-.31c.35-.21,.64-.51,.86-.9,.22-.4,.33-.86,.33-1.39s-.11-.99-.33-1.39Z"/>
    <path class="cls-2" d="M43.35,2.85c.39-.22,.85-.33,1.38-.33v1.65h-.41c-.62,0-1.1,.16-1.42,.48-.32,.32-.48,.87-.48,1.65v4.06h-1.6V2.65h1.6v1.12c.23-.39,.54-.7,.93-.92Z"/>
    <path class="cls-2" d="M46.15,4.41c.32-.6,.76-1.06,1.32-1.39,.56-.33,1.17-.5,1.85-.5,.5,0,1,.11,1.49,.33,.49,.22,.88,.51,1.17,.88V0h1.61V10.36h-1.61v-1.16c-.26,.37-.62,.68-1.08,.92-.46,.24-.99,.36-1.59,.36-.67,0-1.29-.17-1.84-.51s-.99-.82-1.32-1.43c-.32-.61-.48-1.3-.48-2.08s.16-1.46,.48-2.06Zm5.5,.7c-.22-.39-.51-.69-.86-.9-.35-.21-.74-.31-1.15-.31s-.79,.1-1.15,.3c-.35,.2-.64,.49-.86,.88s-.33,.85-.33,1.38,.11,1,.33,1.4c.22,.4,.51,.71,.87,.92s.74,.32,1.14,.32,.79-.1,1.15-.31c.35-.21,.64-.51,.86-.9,.22-.4,.33-.86,.33-1.39s-.11-.99-.33-1.39Z"/>
    <path class="cls-2" d="M69.58,.63V10.36h-1.6V3.7l-2.97,6.66h-1.11l-2.98-6.66v6.66h-1.6V.63h1.72l3.42,7.63,3.4-7.63h1.71Z"/>
    <path class="cls-2" d="M71.63,4.41c.32-.6,.76-1.06,1.32-1.39,.56-.33,1.17-.5,1.84-.5,.61,0,1.14,.12,1.59,.36,.45,.24,.81,.53,1.08,.89v-1.12h1.61v7.71h-1.61v-1.15c-.27,.36-.64,.67-1.11,.91-.47,.24-1,.36-1.6,.36-.66,0-1.27-.17-1.82-.51-.55-.34-.99-.82-1.31-1.43-.32-.61-.48-1.3-.48-2.08s.16-1.46,.48-2.06Zm5.5,.7c-.22-.39-.51-.69-.86-.9-.35-.21-.74-.31-1.15-.31s-.79,.1-1.15,.3c-.35,.2-.64,.49-.86,.88s-.33,.85-.33,1.38,.11,1,.33,1.4c.22,.4,.51,.71,.87,.92s.74,.32,1.14,.32,.79-.1,1.15-.31c.35-.21,.64-.51,.86-.9,.22-.4,.33-.86,.33-1.39s-.11-.99-.33-1.39Z"/>
    <path class="cls-2" d="M86.7,2.9c.48,.25,.86,.63,1.13,1.12s.41,1.09,.41,1.79v4.55h-1.58V6.05c0-.69-.17-1.22-.52-1.59s-.82-.55-1.41-.55-1.07,.18-1.42,.55-.52,.9-.52,1.59v4.31h-1.6V2.65h1.6v.88c.26-.32,.6-.56,1-.74,.41-.18,.84-.27,1.29-.27,.61,0,1.15,.13,1.63,.38Z"/>
    <path class="cls-2" d="M90.21,4.41c.32-.6,.76-1.06,1.32-1.39,.55-.33,1.17-.5,1.84-.5,.61,0,1.14,.12,1.59,.36,.45,.24,.81,.53,1.08,.89v-1.12h1.61v7.71h-1.61v-1.15c-.27,.36-.64,.67-1.11,.91-.47,.24-1,.36-1.6,.36-.66,0-1.27-.17-1.82-.51-.55-.34-.99-.82-1.31-1.43-.32-.61-.48-1.3-.48-2.08s.16-1.46,.48-2.06Zm5.5,.7c-.22-.39-.51-.69-.86-.9-.36-.21-.74-.31-1.15-.31s-.79,.1-1.15,.3c-.36,.2-.64,.49-.86,.88-.22,.39-.33,.85-.33,1.38s.11,1,.33,1.4c.22,.4,.51,.71,.87,.92s.74,.32,1.14,.32,.79-.1,1.15-.31c.35-.21,.64-.51,.86-.9,.22-.4,.33-.86,.33-1.39s-.11-.99-.33-1.39Z"/>
    <path class="cls-2" d="M104.45,2.88c.46,.24,.82,.53,1.08,.89v-1.12h1.61v7.84c0,.71-.15,1.34-.45,1.9s-.73,.99-1.29,1.31c-.57,.32-1.24,.48-2.02,.48-1.05,0-1.91-.25-2.6-.73-.69-.49-1.08-1.16-1.18-2h1.58c.12,.4,.38,.73,.78,.97,.4,.25,.87,.37,1.42,.37,.64,0,1.16-.2,1.56-.59,.4-.39,.59-.96,.59-1.71v-1.29c-.27,.36-.64,.67-1.1,.92s-.99,.37-1.58,.37c-.67,0-1.29-.17-1.84-.51-.55-.34-.99-.82-1.32-1.43s-.48-1.3-.48-2.08,.16-1.46,.48-2.06c.32-.6,.76-1.06,1.32-1.39,.56-.33,1.17-.5,1.84-.5,.6,0,1.13,.12,1.59,.36Zm.76,2.23c-.22-.39-.51-.69-.86-.9-.35-.21-.74-.31-1.15-.31s-.79,.1-1.15,.3c-.36,.2-.64,.49-.86,.88-.22,.39-.33,.85-.33,1.38s.11,1,.33,1.4c.22,.4,.51,.71,.87,.92s.74,.32,1.14,.32,.79-.1,1.15-.31c.36-.21,.64-.51,.86-.9,.22-.4,.33-.86,.33-1.39s-.11-.99-.33-1.39Z"/>
    <path class="cls-2" d="M116.26,7.1h-5.89c.05,.62,.28,1.11,.69,1.48,.41,.37,.91,.56,1.51,.56,.86,0,1.46-.36,1.82-1.08h1.72c-.23,.71-.66,1.29-1.27,1.74-.61,.45-1.37,.68-2.27,.68-.74,0-1.4-.17-1.98-.5-.58-.33-1.04-.8-1.37-1.4s-.5-1.3-.5-2.09,.16-1.49,.48-2.09,.77-1.07,1.36-1.39c.58-.33,1.25-.49,2.01-.49s1.38,.16,1.95,.48c.57,.32,1.01,.76,1.33,1.34,.32,.57,.48,1.23,.48,1.98,0,.29-.02,.55-.06,.78Zm-1.61-1.29c0-.59-.22-1.06-.63-1.41-.41-.35-.92-.53-1.53-.53-.55,0-1.02,.18-1.41,.52-.39,.35-.62,.82-.7,1.42h4.27Z"/>
    <path class="cls-2" d="M128.85,2.9c.48,.25,.86,.63,1.13,1.12,.27,.49,.41,1.09,.41,1.79v4.55h-1.58V6.05c0-.69-.17-1.22-.52-1.59s-.82-.55-1.41-.55-1.07,.18-1.42,.55c-.35,.37-.52,.9-.52,1.59v4.31h-1.58V6.05c0-.69-.17-1.22-.52-1.59s-.82-.55-1.41-.55-1.07,.18-1.42,.55c-.35,.37-.52,.9-.52,1.59v4.31h-1.6V2.65h1.6v.88c.26-.32,.59-.56,.99-.74,.4-.18,.83-.27,1.29-.27,.62,0,1.17,.13,1.65,.39,.49,.26,.86,.64,1.12,1.13,.23-.47,.6-.84,1.09-1.11,.49-.28,1.03-.41,1.6-.41,.61,0,1.15,.13,1.63,.38Z"/>
    <path class="cls-2" d="M139.44,7.1h-5.89c.05,.62,.28,1.11,.69,1.48,.41,.37,.91,.56,1.51,.56,.86,0,1.46-.36,1.82-1.08h1.72c-.23,.71-.66,1.29-1.27,1.74-.61,.45-1.37,.68-2.27,.68-.74,0-1.4-.17-1.98-.5-.58-.33-1.04-.8-1.37-1.4s-.5-1.3-.5-2.09,.16-1.49,.48-2.09,.77-1.07,1.36-1.39c.58-.33,1.25-.49,2.01-.49s1.38,.16,1.95,.48c.57,.32,1.01,.76,1.33,1.34,.32,.57,.48,1.23,.48,1.98,0,.29-.02,.55-.06,.78Zm-1.61-1.29c0-.59-.22-1.06-.63-1.41-.41-.35-.92-.53-1.53-.53-.55,0-1.02,.18-1.41,.52-.39,.35-.62,.82-.7,1.42h4.27Z"/>
    <path class="cls-2" d="M146.59,2.9c.48,.25,.86,.63,1.13,1.12,.27,.49,.41,1.09,.41,1.79v4.55h-1.58V6.05c0-.69-.17-1.22-.52-1.59s-.82-.55-1.41-.55-1.07,.18-1.42,.55c-.35,.37-.52,.9-.52,1.59v4.31h-1.6V2.65h1.6v.88c.26-.32,.59-.56,1-.74,.41-.18,.84-.27,1.29-.27,.61,0,1.15,.13,1.63,.38Z"/>
    <path class="cls-2" d="M152.01,3.95v4.27c0,.29,.07,.5,.2,.62,.13,.13,.37,.19,.69,.19h.98v1.33h-1.26c-.72,0-1.27-.17-1.65-.5s-.57-.88-.57-1.64V3.95h-.91v-1.3h.91V.73h1.61v1.92h1.88v1.3h-1.88Z"/>
  </g>
  <g id="_0jYBIZ.tif" data-name="0jYBIZ.tif">
    <g>
      <path class="cls-2" d="M6.86,3.96c-2.05,0-4.11,0-6.16,0-.15,0-.17,.04-.17,.18,0,1.94,0,3.88,0,5.81,0,.56,.32,.88,.88,.88,.47,0,.95,0,1.42,0,.22,0,.34,.1,.34,.27,0,.16-.12,.26-.33,.26-.5,0-.99,0-1.49,0C.58,11.36,0,10.78,0,10.01,0,7.3,0,4.58,0,1.86c0-.75,.58-1.33,1.33-1.33,3.69,0,7.39,0,11.08,0,.74,0,1.33,.58,1.33,1.32,0,2.73,0,5.46,0,8.19,0,.74-.58,1.32-1.32,1.32-.42,0-.85,0-1.27,0-.2,0-.31-.1-.31-.26,0-.16,.12-.26,.31-.26,.41,0,.83,0,1.24,0,.48,0,.83-.34,.83-.82,0-1.97,0-3.94,0-5.91,0-.14-.06-.14-.16-.14-2.06,0-4.13,0-6.19,0Zm.01-.53c2.06,0,4.12,0,6.18,0,.14,0,.17-.03,.17-.17,0-.46,0-.91,0-1.37,0-.5-.33-.84-.84-.84-3.67,0-7.34,0-11.01,0-.49,0-.83,.34-.83,.83,0,.46,0,.92,0,1.39,0,.14,.04,.17,.17,.17,2.06,0,4.12,0,6.18,0Z"/>
      <path class="cls-2" d="M6.99,12.68c-.72,0-1.44,0-2.16,0-.69,0-1.13-.43-1.13-1.12,0-.84,0-1.68,0-2.53,0-.67,.44-1.11,1.1-1.11,1.46,0,2.93,0,4.39,0,.67,0,1.11,.44,1.11,1.1,0,.85,0,1.71,0,2.56,0,.65-.44,1.09-1.09,1.09-.74,0-1.49,0-2.23,0Zm.01-2.38c-.87,0-1.74,0-2.61,0-.14,0-.17,.04-.17,.17,0,.37,0,.74,0,1.11,0,.37,.2,.57,.57,.57,1.47,0,2.94,0,4.41,0,.36,0,.57-.21,.57-.58,0-.37,0-.75,0-1.12,0-.13-.03-.15-.15-.15-.88,0-1.75,0-2.63,0Zm0-1.32c.23,0,.45,0,.68,0,.66,0,1.32,0,1.98,0,.11,0,.13-.04,.1-.13-.06-.25-.26-.4-.54-.4-.65,0-1.3,0-1.95,0-.83,0-1.66,0-2.49,0-.28,0-.46,.13-.54,.37-.04,.12-.03,.16,.12,.16,.88,0,1.76,0,2.64,0Zm.01,.53c-.88,0-1.76,0-2.64,0-.1,0-.16,0-.16,.13,0,.13,.06,.13,.16,.13,1.75,0,3.5,0,5.25,0,.1,0,.16,0,.16-.13,0-.13-.06-.13-.16-.13-.87,0-1.74,0-2.61,0Z"/>
      <path class="cls-2" d="M6.87,7.34c-.09,0-.15-.04-.2-.1-.36-.37-.73-.75-1.1-1.12-.12-.13-.12-.29-.01-.4,.12-.11,.26-.1,.39,.03,.26,.27,.53,.53,.78,.8,.1,.11,.16,.13,.27,0,.47-.5,.95-.98,1.42-1.47,.07-.07,.15-.14,.25-.13,.11,0,.19,.06,.23,.16,.04,.11,.02,.22-.07,.3-.29,.29-.58,.59-.86,.89-.29,.3-.58,.6-.87,.9-.07,.07-.14,.13-.24,.12Z"/>
      <path class="cls-2" d="M1.58,1.64c.29,0,.53,.23,.53,.52,0,.29-.24,.54-.53,.54-.29,0-.52-.24-.52-.53,0-.29,.23-.52,.53-.52Z"/>
      <path class="cls-2" d="M3.7,2.16c0,.29-.24,.52-.52,.53-.29,0-.54-.24-.53-.53,0-.29,.24-.52,.53-.52,.29,0,.52,.23,.53,.52Z"/>
      <path class="cls-2" d="M5.29,2.16c0,.29-.23,.52-.52,.53-.29,0-.54-.24-.53-.53,0-.29,.24-.52,.53-.52,.29,0,.52,.23,.53,.52Z"/>
    </g>
  </g>
  <rect class="cls-6" x="21.49" y="29.34" width="35.55" height="35.55" rx="6.4" ry="6.4"/>
  <g id="_2FlcFL.tif" data-name="2FlcFL.tif">
    <g>
      <path class="cls-3" d="M30.45,50.95c.2-.35,.4-.7,.68-1,.92-.99,2.08-1.37,3.41-1.31,.63,.03,1.23,.16,1.78,.47,.1,.06,.21,.11,.3,.21-.43,.22-.83,.47-1.2,.77-.52,.43-.96,.92-1.3,1.5-.05,.08-.11,.16-.12,.25-.03,.29-.22,.28-.44,.28-1.04,0-2.07,0-3.11,0v-1.15Z"/>
      <path class="cls-3" d="M39.75,53.69c-1.62,0-3.25,0-4.87,0-.14,0-.19-.02-.19-.18,.01-.33,.02-.66,0-.99,0-.21,.05-.38,.16-.56,.77-1.23,1.88-1.98,3.27-2.31,1.46-.34,2.91-.27,4.3,.34,.99,.44,1.78,1.12,2.33,2.07,.07,.12,.1,.24,.1,.37,0,.36-.01,.71,0,1.07,0,.15-.03,.18-.18,.18-1.64,0-3.28,0-4.91,0Z"/>
      <path class="cls-3" d="M42.3,45.25c0,1.43-1.1,2.53-2.54,2.53-1.44,0-2.54-1.1-2.54-2.55,0-1.43,1.11-2.52,2.55-2.52,1.43,0,2.53,1.1,2.53,2.54Z"/>
      <path class="cls-3" d="M47.38,44.84c0,1.17-.96,2.12-2.12,2.11-1.16,0-2.12-.97-2.12-2.13,0-1.17,.96-2.1,2.15-2.1,1.16,0,2.09,.95,2.09,2.12Z"/>
      <path class="cls-3" d="M34.27,42.72c1.16,0,2.12,.96,2.11,2.12,0,1.16-.97,2.11-2.12,2.11-1.17,0-2.11-.96-2.11-2.12,0-1.16,.96-2.11,2.12-2.1Z"/>
      <path class="cls-3" d="M42.89,49.31c.42-.31,.88-.5,1.38-.59,1.07-.2,2.1-.11,3.07,.39,.65,.34,1.15,.84,1.54,1.46,.18,.28,.22,.58,.2,.9-.01,.2,.09,.47-.04,.59-.11,.1-.38,.03-.57,.03-.89,0-1.77,0-2.66,0-.14,0-.2-.03-.25-.18-.17-.49-.49-.88-.83-1.26-.52-.57-1.14-1.01-1.84-1.36Z"/>
    </g>
  </g>
  <rect class="cls-6" x="21.49" y="76.11" width="35.55" height="35.55" rx="6.4" ry="6.4"/>
  <rect class="cls-6" x="64.37" y="29.34" width="35.55" height="35.55" rx="6.4" ry="6.4"/>
  <rect class="cls-6" x="64.37" y="76.11" width="35.55" height="35.55" rx="6.4" ry="6.4"/>
  <rect class="cls-6" x="109.67" y="29.34" width="35.55" height="35.55" rx="6.4" ry="6.4"/>
  <rect class="cls-6" x="109.67" y="76.11" width="35.55" height="35.55" rx="6.4" ry="6.4"/>
  <g id="cBYm3W.tif">
    <g>
      <path class="cls-3" d="M89.17,44.34v5.91s-.02,.01-.02,.02c-.22,.6-.52,.81-1.15,.81-2.95,0-5.9,0-8.85,0-.04,0-.09,0-.13,0-.57-.02-1-.43-1.03-.99,0-.07-.02-.08-.09-.08-.59-.03-.99-.45-.99-1.04,0-.55,0-1.1,0-1.65,0-1.3,0-2.59,0-3.89,0-.39,.17-.69,.51-.9,.1-.06,.22-.08,.33-.13,3.17,0,6.34,0,9.51,0,0,0,0,.02,.01,.02,.52,.12,.8,.45,.83,.98,0,.07,.03,.08,.09,.08,.43,.02,.8,.3,.93,.7,.02,.05,.01,.12,.05,.16Zm-6.67,1.42c-1.65,0-3.3,0-4.95,0-.1,0-.13,.02-.13,.13,0,1.02,0,2.03,0,3.05,0,.37,.18,.55,.55,.55,3.02,0,6.04,0,9.06,0,.36,0,.55-.19,.55-.55,0-1.02,0-2.03,0-3.05,0-.11-.03-.13-.13-.13-1.65,0-3.3,0-4.96,0Zm0-1.57h-1.23c-1.24,0-2.48,0-3.71,0-.11,0-.14,.03-.13,.14,0,.26,0,.53,0,.79,0,.11,.03,.13,.14,.13,2.55,0,5.11,0,7.66,0,.75,0,1.49,0,2.24,0,.11,0,.13-.03,.13-.13,0-.27,0-.53,0-.8,0-.11-.03-.13-.13-.13-1.65,0-3.31,0-4.96,0Zm1.07,6.36c1.49,0,2.98,0,4.47,0,.43,0,.62-.19,.62-.61,0-1.77,0-3.55,0-5.32,0-.04,0-.09,0-.13-.02-.25-.18-.44-.42-.49q-.15-.03-.15,.12c0,1.6,0,3.2,0,4.8,0,.09,0,.18-.02,.27-.1,.5-.5,.82-1.04,.82-2,0-3.99,0-5.99,0-.82,0-1.64,0-2.45,0-.09,0-.11,.02-.09,.11,.05,.27,.25,.44,.57,.44,1.5,0,3,0,4.5,0Zm-1.06-6.88c1.64,0,3.29,0,4.93,0,.03,0,.06,0,.1,0,.03,0,.04-.01,.05-.04,.1-.39-.15-.72-.56-.72-3.02,0-6.04,0-9.06,0-.06,0-.11,0-.17,.01-.19,.03-.35,.2-.37,.39,0,.07,0,.15-.01,.23-.02,.11,.03,.13,.14,.13,1.65,0,3.3,0,4.96,0Z"/>
      <path class="cls-3" d="M84.79,46.99c.12,0,.32,.08,.49,.23,.07,.07,.1,.05,.16,0,.32-.27,.76-.29,1.11-.06,.34,.23,.49,.64,.38,1.04-.12,.4-.48,.67-.89,.67-.23,0-.44-.08-.61-.23-.05-.05-.08-.05-.13,0-.59,.47-1.42,.14-1.54-.6-.09-.54,.37-1.06,1.04-1.04Zm-.11,.51c-.23,0-.42,.19-.42,.42,0,.22,.19,.41,.41,.41,.23,0,.42-.18,.42-.41,0-.23-.19-.42-.42-.42Zm1.34,0c-.23,0-.42,.19-.42,.42,0,.22,.19,.41,.41,.41,.23,0,.42-.19,.42-.41,0-.23-.19-.42-.42-.42Z"/>
    </g>
  </g>
  <g id="D5bjam.tif">
    <path class="cls-3" d="M39.72,99.81c-1.59,0-3.17,.04-4.76,0-2.72-.08-4.89-2.1-5.23-4.8-.37-2.94,1.74-5.66,4.68-6.05,.28-.04,.56-.05,.84-.05,2.98,0,5.96,0,8.94,0,2.04,0,3.65,.85,4.74,2.58,2.05,3.23,.12,7.57-3.64,8.25-.38,.07-.75,.09-1.13,.09-1.48,0-2.96,0-4.44,0h0Zm4.47-2.26c1.74,0,3.21-1.46,3.22-3.2,0-1.74-1.42-3.18-3.16-3.19-1.79-.01-3.23,1.41-3.24,3.18,0,1.77,1.41,3.21,3.18,3.22Z"/>
  </g>
  <rect class="cls-1" x="77.06" y="85.42" width="13.13" height="16.05"/>
  <path class="cls-4" d="M131.54,92.06c0,.27-.21,.5-.46,.5s-.46-.22-.46-.5,.21-.5,.46-.5,.46,.22,.46,.5Zm0,8.42h-7.88c-.77,0-1.39-.67-1.39-1.49v-10.4c0-1.1,.83-1.98,1.85-1.98h3.47c.64,0,1.16,.55,1.16,1.24v2.73c0,.55,.41,.99,.93,.99,.25,0,.46,.22,.46,.5s-.21,.5-.46,.5c-1.02,0-1.85-.89-1.85-1.98v-2.48c0-.27-.21-.5-.46-.5h-3.24c-.51,0-.93,.44-.93,.99v10.16c0,.41,.31,.74,.69,.74h7.64c.51,0,.93-.44,.93-.99v-6.32c0-.27-.1-.52-.27-.7l-2.57-2.75c-.18-.19-.18-.51,0-.7,.18-.19,.47-.19,.66,0l2.57,2.75c.34,.36,.54,.85,.54,1.4v6.32c0,1.1-.83,1.98-1.85,1.98h0Zm-1.85,.99c.25,0,.46,.22,.46,.5s-.21,.5-.46,.5h-6.95c-1.28,0-2.32-1.11-2.32-2.48v-7.43c0-.27,.21-.5,.46-.5s.46,.22,.46,.5v7.43c0,.82,.62,1.49,1.39,1.49h6.95Zm-8.8-10.4c-.25,0-.46-.22-.46-.5s.21-.5,.46-.5,.46,.22,.46,.5-.21,.5-.46,.5Z"/>
  <path class="cls-3" d="M83.84,102.41h-7.09c-.07,0-.15,0-.22-.01-.25-.05-.41-.27-.41-.55v-3.54c0-3.33,0-6.66,0-9.98,0-.36,.22-.62,.63-.62,3.09,.01,6.18,0,9.28,0,.08,0,.17,.01,.25,.05,.08,.03,.15,.08,.21,.14,.52,.51,1.04,1.02,1.56,1.52,.07,.07,.13,.15,.16,.23,.04,.09,.05,.19,.05,.28,0,1.33,0,2.66,0,3.99,0,.13-.02,.16-.15,.11-.23-.09-.48-.14-.72-.17-.12-.01-.14-.06-.14-.17,0-1.06,0-2.12,0-3.18,0-.15-.04-.18-.18-.18-.31,.01-.62,0-.93,0-.35,0-.56-.2-.56-.55,0-.3,0-.61,0-.91,0-.13-.03-.16-.16-.16-2.07,0-4.14,0-6.21,0-.64,0-1.27,0-1.91,0-.12,0-.15,.04-.15,.15,0,4.12,0,8.23,0,12.35,0,.14,.03,.18,.18,.18,1.77,0,3.53,0,5.3,0,.15,0,.24,.03,.34,.15,.24,.32,.53,.59,.89,.87Z"/>
  <path class="cls-3" d="M90.5,98.57c0,2.1-1.71,3.83-3.81,3.84-2.11,.01-3.85-1.71-3.86-3.82,0-2.12,1.71-3.84,3.83-3.84,2.11,0,3.82,1.71,3.83,3.82Zm-3.83-2.81c-1.55,0-2.82,1.25-2.82,2.8,0,1.56,1.26,2.83,2.81,2.83,.37,0,.74-.07,1.08-.21,.34-.14,.66-.35,.92-.61,.26-.26,.47-.57,.61-.92,.14-.34,.22-.71,.22-1.08,0-1.54-1.26-2.81-2.81-2.81Z"/>
  <path class="cls-3" d="M80.94,93.06c-.13,0-.26,0-.39,0-.19,0-.37-.09-.5-.23-.13-.14-.2-.32-.2-.51,0-.19,.07-.37,.21-.51,.13-.14,.31-.22,.5-.22,.26,0,.52,0,.78,0,.1,0,.13-.02,.13-.12,0-.25,0-.5,0-.75,0-.42,.32-.74,.72-.74,.4,0,.74,.32,.74,.74,0,.25,0,.5,0,.75,0,.11,.03,.13,.13,.13,.24,0,.48,0,.72,0,.43,0,.76,.32,.76,.74,0,.41-.32,.72-.75,.73-.24,0-.49,0-.73,0-.11,0-.13,.03-.13,.13,0,.24,0,.48,0,.72,0,.43-.32,.76-.74,.76-.41,0-.73-.32-.73-.76,0-.25,0-.5,0-.75,0-.08-.02-.11-.1-.1-.14,0-.28,0-.42,0h0Z"/>
  <path class="cls-3" d="M82.88,95.7c-.2,.28-.38,.57-.53,.88-.03,.06-.07,.06-.12,.06-1.25,0-2.5,0-3.75,0-.06,0-.12-.01-.18-.04-.06-.02-.11-.06-.15-.1-.04-.04-.08-.1-.1-.15-.02-.06-.03-.12-.03-.18,0-.27,.21-.46,.5-.47,.45,0,.91,0,1.36,0h2.87s.07,0,.13,0Z"/>
  <path class="cls-3" d="M80.27,100.14h-1.73c-.31,0-.52-.2-.52-.48,0-.27,.21-.47,.51-.47,1.09,0,2.19,0,3.28,0,.1,0,.14,.03,.16,.13,.03,.23,.08,.45,.15,.67,.05,.14,0,.16-.12,.16-.58,0-1.15,0-1.73,0h0Z"/>
  <path class="cls-3" d="M80.19,97.45h1.66c.19,0,.18,0,.15,.18-.03,.21-.07,.42-.09,.63,0,.09-.03,.12-.12,.12-1.1,0-2.21,0-3.31,0-.12,0-.24-.05-.33-.13-.09-.09-.14-.2-.14-.33s.05-.24,.13-.33c.09-.09,.2-.14,.33-.14,.57,0,1.14,0,1.72,0h0Z"/>
  <path class="cls-3" d="M85.36,99.92c0,.4,.05,.46,.43,.55,.17,.04,.34,.06,.52,.07,.06,0,.11,.02,.1,.09-.03,.15,.05,.18,.17,.16,.05,0,.11,0,.16,0,.14,.02,.21-.02,.18-.18-.01-.08,0-.12,.1-.12,.04,0,.08-.01,.12-.03,.43-.13,.75-.37,.83-.84,.09-.5-.07-.9-.51-1.18-.18-.11-.37-.2-.56-.28-.16-.07-.33-.14-.46-.26-.15-.14-.13-.32,.05-.42,.05-.03,.11-.05,.17-.06,.3-.07,.58,0,.86,.1,.19,.07,.31-.01,.31-.21,0-.09,0-.18,0-.27,0-.21-.1-.32-.3-.37-.17-.04-.33-.06-.5-.06-.05,0-.11,0-.09-.07,.04-.17-.06-.19-.19-.17-.06,0-.13,0-.19,0-.11-.01-.16,.02-.14,.14,.02,.1-.01,.15-.13,.18-.3,.06-.56,.21-.74,.46-.37,.51-.21,1.21,.35,1.57,.21,.13,.44,.21,.66,.32,.14,.06,.27,.13,.37,.24,.13,.14,.1,.32-.07,.41-.07,.04-.15,.06-.23,.07-.28,.04-.56,0-.81-.13-.37-.17-.45-.12-.45,.3Z"/>
  <path class="cls-3" d="M85.36,99.92c0-.41,.08-.46,.45-.3,.25,.12,.54,.16,.81,.13,.08,0,.16-.03,.23-.07,.17-.09,.19-.27,.07-.41-.1-.11-.24-.18-.37-.24-.22-.1-.45-.18-.66-.32-.56-.36-.72-1.06-.35-1.57,.18-.25,.45-.4,.74-.46,.12-.03,.15-.08,.13-.18-.02-.11,.03-.15,.14-.14,.06,0,.13,0,.19,0,.13-.01,.22,0,.19,.18-.02,.08,.04,.07,.09,.07,.17,0,.34,.03,.5,.06,.2,.05,.3,.16,.3,.37,0,.09,0,.18,0,.27,0,.2-.13,.28-.31,.21-.28-.1-.56-.17-.86-.1-.06,.01-.11,.03-.17,.06-.18,.1-.2,.28-.05,.42,.13,.12,.3,.19,.46,.26,.19,.08,.38,.17,.56,.28,.43,.28,.6,.68,.51,1.18-.08,.47-.4,.71-.83,.84-.04,.01-.08,.02-.12,.03-.09,0-.11,.05-.1,.12,.03,.16-.04,.2-.18,.18-.05,0-.11,0-.16,0-.13,.02-.2-.02-.17-.16,.01-.08-.04-.09-.1-.09-.17,0-.35-.03-.52-.07-.38-.1-.43-.16-.44-.55Z"/>
  <g id="EPZHVC.tif">
    <g>
      <path class="cls-3" d="M133.77,51.32c.07,.05,.13,.08,.18,.13,.77,.77,1.54,1.53,2.3,2.3,.23,.23,.22,.35,0,.58-.53,.53-1.06,1.06-1.59,1.59-.2,.2-.34,.21-.54,0-.55-.55-1.09-1.09-1.64-1.64-.16-.16-.17-.33-.05-.46,.13-.13,.3-.11,.46,.05,.46,.46,.92,.91,1.37,1.37,.09,.09,.14,.11,.24,0,.36-.38,.74-.75,1.11-1.11,.09-.09,.07-.13,0-.21-.8-.8-1.61-1.6-2.41-2.4-.25-.25-.22-.43,.08-.6,.5-.28,1-.57,1.51-.85-.22-.1-6.16-1.92-6.33-1.94,.65,2.1,1.29,4.2,1.94,6.3,.07-.03,.09-.09,.11-.14,.33-.56,.65-1.13,.98-1.69,.12-.2,.27-.25,.43-.16,.16,.09,.18,.26,.07,.46-.01,.02-.02,.04-.04,.06-.41,.7-.82,1.41-1.22,2.11-.04,.07-.08,.15-.13,.22-.07,.12-.16,.2-.3,.19-.15-.02-.23-.12-.27-.26-.25-.81-.5-1.62-.75-2.43-.51-1.64-1.01-3.29-1.52-4.93,0,0,0-.01,0-.02-.05-.14-.07-.27,.05-.39,.12-.11,.25-.08,.39-.04,1.26,.39,2.53,.78,3.79,1.17,1.16,.36,2.31,.71,3.47,1.07,.02,0,.04,0,.05,.01,.15,.04,.29,.1,.31,.28,.02,.18-.1,.27-.24,.34-.48,.27-.95,.54-1.43,.81-.12,.07-.23,.13-.39,.22Z"/>
      <path class="cls-3" d="M126.15,50.85c-2.77,0-5-1.94-5.34-4.53-.38-2.91,1.73-5.58,4.64-5.87,2.8-.28,5.32,1.7,5.69,4.49,.1,.73,.04,1.44-.16,2.15-.03,.12-.09,.21-.21,.24-.23,.06-.41-.13-.35-.37,.13-.48,.2-.97,.19-1.46-.04-2.16-1.71-4.09-3.84-4.43-2.51-.4-4.79,1.15-5.33,3.63-.55,2.52,1.21,5.08,3.76,5.5,.7,.11,1.39,.08,2.08-.12,.15-.04,.28-.03,.37,.1,.12,.17,.04,.38-.19,.45-.48,.15-.96,.21-1.31,.21Z"/>
      <path class="cls-3" d="M127.44,46.52c0,.64-.4,1.19-1.01,1.37-.13,.04-.16,.09-.15,.21,0,.06,0,.12,0,.18-.02,.16-.12,.25-.28,.26-.15,0-.31-.11-.29-.26,.05-.3-.11-.37-.35-.44-.28-.08-.51-.27-.7-.5-.15-.17-.15-.34-.02-.46,.14-.12,.3-.09,.45,.08,.31,.34,.68,.5,1.13,.39,.36-.09,.56-.34,.62-.7,.06-.33-.09-.57-.36-.75-.2-.13-.42-.21-.64-.29-.21-.07-.42-.16-.6-.29-.33-.25-.47-.59-.41-1,.06-.43,.3-.75,.71-.91,.12-.05,.17-.09,.15-.21,0-.05,0-.11,0-.16,.01-.17,.13-.29,.29-.28,.16,0,.3,.12,.28,.29-.04,.27,.09,.35,.31,.4,.15,.03,.29,.12,.42,.21,.16,.12,.19,.28,.09,.42-.1,.14-.26,.16-.42,.05-.21-.14-.44-.22-.69-.22-.28,0-.49,.16-.55,.43-.06,.25,.03,.45,.29,.6,.14,.08,.29,.12,.44,.17,.29,.1,.57,.23,.81,.43,.31,.26,.48,.6,.47,.99Z"/>
      <path class="cls-3" d="M119.04,45.89c0-.1,0-.17,0-.23,0-.18,.12-.31,.28-.31,.16,0,.29,.12,.29,.3,0,.37,.03,.75,.11,1.11,.57,2.62,2.15,4.31,4.73,5.06,.02,0,.04,0,.05,0,.25,.06,.36,.2,.31,.38-.05,.18-.21,.25-.46,.19-2.83-.69-4.92-3.06-5.28-5.96-.02-.19-.03-.38-.05-.54Z"/>
      <path class="cls-3" d="M132.94,45.43c0,.05,0,.11,0,.16,0,.2-.11,.33-.28,.33-.17,0-.29-.12-.29-.32,0-.53-.06-1.06-.21-1.57-.71-2.39-2.25-3.94-4.67-4.59-.13-.04-.26-.07-.3-.22-.07-.23,.11-.41,.37-.35,.56,.12,1.09,.31,1.59,.58,2.38,1.29,3.61,3.31,3.81,5.99Z"/>
      <path class="cls-3" d="M126.57,38.97c0,.16-.13,.29-.28,.29-.16,0-.29-.12-.3-.28,0-.16,.13-.3,.29-.3,.16,0,.29,.13,.29,.29Z"/>
      <path class="cls-3" d="M125.69,52.01c.16,0,.29,.12,.3,.28,0,.16-.13,.3-.29,.3-.16,0-.28-.13-.29-.29,0-.16,.12-.29,.28-.29Z"/>
    </g>
  </g>
</svg>