<?xml version="1.0" encoding="UTF-8"?>
<svg id="Layer_1" data-name="Layer 1" xmlns="http://www.w3.org/2000/svg" viewBox="0 0 413 274">
  <defs>
    <style>
      .cls-1 {
        fill: #3bc8d0;
      }

      .cls-2 {
        fill: rgba(255, 255, 255, .15);
        opacity: .35;
      }

      .cls-3 {
        opacity: .43;
      }
    </style>
  </defs>
  <path class="cls-2" d="M303.37,45.34H116.67c-3.67,0-6.64,4.1-6.64,9.16V219.33c0,5.06,2.97,9.16,6.64,9.16h186.7c3.67,0,6.64-4.1,6.64-9.16V54.5c0-5.06-2.97-9.16-6.64-9.16Z"/>
  <g class="cls-3">
    <g>
      <path class="cls-1" d="M198.77,177.56h-22.85c-3.2,0-5.8-2.6-5.8-5.8V101.7c0-3.2,2.6-5.8,5.8-5.8h22.85c3.2,0,5.8,2.6,5.8,5.8s-2.6,5.8-5.8,5.8h-17.05v58.47h17.05c3.2,0,5.8,2.6,5.8,5.8s-2.6,5.8-5.8,5.8Z"/>
      <path class="cls-1" d="M244.11,177.56h-22.85c-3.2,0-5.8-2.6-5.8-5.8s2.6-5.8,5.8-5.8h17.05v-58.47h-17.05c-3.2,0-5.8-2.6-5.8-5.8s2.6-5.8,5.8-5.8h22.85c3.2,0,5.8,2.6,5.8,5.8v70.07c0,3.2-2.6,5.8-5.8,5.8Z"/>
    </g>
    <g>
      <path class="cls-1" d="M251.75,196.38c-2.94,0-5.46-2.23-5.76-5.22-.32-3.18,1.99-6.01,5.17-6.34,.2-.02,8.51-1.04,12.45-6.73,2.37-3.42,2.81-8.19,1.29-14.16-2.72-10.71-1.75-19.17,2.89-25.13,.53-.68,1.09-1.3,1.66-1.87-.57-.57-1.13-1.19-1.66-1.87-4.64-5.96-5.61-14.42-2.89-25.13,1.52-5.97,1.09-10.74-1.29-14.16-3.97-5.73-12.37-6.72-12.46-6.73-3.19-.32-5.5-3.16-5.18-6.34,.32-3.19,3.17-5.51,6.36-5.19,.55,.06,13.66,1.47,20.74,11.56,4.43,6.32,5.46,14.3,3.07,23.73-1.76,6.91-1.5,12.13,.75,15.09,2.31,3.05,6.49,3.25,6.7,3.26,3.17,.03,5.74,2.62,5.74,5.8s-2.56,5.76-5.74,5.8c-.21,0-4.38,.21-6.7,3.26-2.24,2.96-2.5,8.18-.75,15.09,2.39,9.42,1.36,17.41-3.07,23.73-7.07,10.09-20.18,11.51-20.74,11.56-.2,.02-.39,.03-.58,.03Zm31.76-53.66h0Z"/>
      <path class="cls-1" d="M168.29,196.38c-.19,0-.39,0-.58-.03-.55-.06-13.66-1.47-20.74-11.56-4.43-6.32-5.46-14.3-3.07-23.73,1.76-6.91,1.5-12.13-.75-15.09-2.31-3.05-6.49-3.25-6.7-3.26-3.17-.03-5.74-2.62-5.74-5.8s2.56-5.76,5.74-5.8c.21,0,4.38-.21,6.7-3.26,2.24-2.96,2.5-8.18,.75-15.09-2.39-9.42-1.36-17.41,3.07-23.73,7.07-10.09,20.18-11.51,20.74-11.56,3.19-.32,6.03,2.01,6.34,5.19,.32,3.18-1.99,6.01-5.17,6.34-.19,.02-8.51,1.04-12.45,6.73-2.37,3.42-2.8,8.19-1.29,14.16,2.72,10.71,1.75,19.17-2.89,25.13-.53,.68-1.09,1.3-1.66,1.87,.57,.57,1.13,1.19,1.66,1.87,4.64,5.96,5.61,14.42,2.89,25.13-1.53,6-1.08,10.79,1.32,14.21,3.99,5.69,12.31,6.67,12.39,6.68,3.19,.32,5.51,3.16,5.19,6.34-.3,2.99-2.82,5.22-5.76,5.22Zm-31.76-53.66h0Z"/>
    </g>
    <path class="cls-1" d="M200.32,159.91c-1.6,0-3.19-.66-4.34-1.95-2.12-2.4-1.9-6.06,.49-8.18l14.51-12.86-14.51-12.86c-2.4-2.12-2.62-5.79-.49-8.18,2.12-2.4,5.79-2.62,8.18-.49l19.4,17.2c1.24,1.1,1.95,2.68,1.95,4.34s-.71,3.24-1.95,4.34l-19.4,17.2c-1.1,.98-2.48,1.46-3.84,1.46Z"/>
  </g>
</svg>