<?xml version="1.0" encoding="utf-8"?>
<!-- Generator: Adobe Illustrator 27.0.1, SVG Export Plug-In . SVG Version: 6.00 Build 0)  -->
<svg version="1.1" id="Layer_1" xmlns="http://www.w3.org/2000/svg" xmlns:xlink="http://www.w3.org/1999/xlink" x="0px" y="0px"
	 viewBox="0 0 186 49" style="enable-background:new 0 0 186 49;" xml:space="preserve">
<style type="text/css">
	.st0{fill-opacity:0.1;}
	.st1{fill:#3BC9D0;stroke:#000000;stroke-width:0.2471;stroke-opacity:5.000000e-02;}
	.st2{fill:#FFFFFF;fill-opacity:0.3;}
	.st3{fill:none;}
	.st4{enable-background:new    ;}
	.st5{fill:#FFFFFF;}
</style>
<g>
	<g>
		<g>
			<path class="st0" d="M142.4,25.1h-113c-0.9,0-1.7,0.8-1.7,1.7c0,0.9,0.8,1.7,1.7,1.7h113c0.9,0,1.7-0.8,1.7-1.7
				C144.1,25.9,143.3,25.1,142.4,25.1z"/>
			<path class="st1" d="M67.5,25.8H29.4c-0.6,0-1,0.5-1,1c0,0.6,0.5,1,1,1h38.1c0.6,0,1-0.5,1-1S68.1,25.8,67.5,25.8z"/>
		</g>
		<path class="st2" d="M122.3,34H29.1c-0.8,0-1.4,0.6-1.4,1.4s0.6,1.4,1.4,1.4h93.2c0.8,0,1.4-0.6,1.4-1.4S123,34,122.3,34z"/>
		<path class="st2" d="M92.3,42.3H29.1c-0.8,0-1.4,0.6-1.4,1.4s0.6,1.4,1.4,1.4h63.2c0.8,0,1.4-0.6,1.4-1.4S93,42.3,92.3,42.3z"/>
	</g>
</g>
<rect x="26.9" y="5.6" class="st3" width="88.5" height="11.7"/>
<g class="st4">
	<path class="st5" d="M28.1,9.3c0.4-0.6,0.9-1.2,1.5-1.5c0.7-0.4,1.4-0.5,2.1-0.5c0.9,0,1.7,0.2,2.4,0.7c0.7,0.4,1.2,1.1,1.5,1.9H34
		c-0.2-0.4-0.5-0.8-0.9-1c-0.4-0.2-0.8-0.3-1.3-0.3c-0.6,0-1,0.1-1.5,0.4s-0.8,0.6-1,1.1s-0.4,1-0.4,1.6c0,0.6,0.1,1.2,0.4,1.6
		c0.2,0.5,0.6,0.8,1,1.1s0.9,0.4,1.5,0.4c0.5,0,0.9-0.1,1.3-0.3c0.4-0.2,0.7-0.5,0.9-1h1.6c-0.3,0.8-0.8,1.4-1.5,1.8
		c-0.7,0.4-1.5,0.6-2.4,0.6c-0.8,0-1.5-0.2-2.1-0.5c-0.6-0.4-1.2-0.9-1.5-1.5c-0.4-0.6-0.6-1.4-0.6-2.2C27.5,10.7,27.7,10,28.1,9.3z
		"/>
	<path class="st5" d="M38.4,15.4c-0.5-0.3-0.9-0.7-1.2-1.2c-0.3-0.5-0.4-1.1-0.4-1.8c0-0.7,0.1-1.3,0.4-1.8c0.3-0.5,0.7-0.9,1.2-1.2
		C39,9.1,39.6,9,40.2,9c0.6,0,1.2,0.1,1.7,0.4c0.5,0.3,0.9,0.7,1.2,1.2c0.3,0.5,0.4,1.1,0.4,1.8c0,0.7-0.2,1.3-0.5,1.8
		c-0.3,0.5-0.7,0.9-1.2,1.2c-0.5,0.3-1.1,0.4-1.7,0.4C39.5,15.8,38.9,15.7,38.4,15.4z M41.1,14.4c0.3-0.2,0.6-0.4,0.8-0.8
		c0.2-0.3,0.3-0.7,0.3-1.2c0-0.5-0.1-0.9-0.3-1.2s-0.4-0.6-0.7-0.8c-0.3-0.2-0.6-0.3-1-0.3c-0.4,0-0.7,0.1-1,0.3
		c-0.3,0.2-0.5,0.4-0.7,0.8c-0.2,0.3-0.3,0.7-0.3,1.2c0,0.7,0.2,1.3,0.5,1.6c0.4,0.4,0.8,0.6,1.4,0.6C40.5,14.6,40.8,14.5,41.1,14.4
		z"/>
	<path class="st5" d="M47.1,9.3C47.4,9.1,47.8,9,48.3,9v1.4h-0.3c-0.5,0-0.9,0.1-1.2,0.4c-0.3,0.3-0.4,0.7-0.4,1.4v3.5h-1.4V9.1h1.4
		v1C46.5,9.7,46.8,9.4,47.1,9.3z"/>
	<path class="st5" d="M55.5,12.9h-5.1c0,0.5,0.2,1,0.6,1.3c0.4,0.3,0.8,0.5,1.3,0.5c0.7,0,1.3-0.3,1.6-0.9h1.5
		c-0.2,0.6-0.6,1.1-1.1,1.5c-0.5,0.4-1.2,0.6-1.9,0.6c-0.6,0-1.2-0.1-1.7-0.4c-0.5-0.3-0.9-0.7-1.2-1.2c-0.3-0.5-0.4-1.1-0.4-1.8
		c0-0.7,0.1-1.3,0.4-1.8c0.3-0.5,0.7-0.9,1.2-1.2S51.7,9,52.4,9C53,9,53.6,9.1,54,9.4c0.5,0.3,0.9,0.7,1.1,1.1s0.4,1.1,0.4,1.7
		C55.6,12.5,55.6,12.7,55.5,12.9z M54.2,11.8c0-0.5-0.2-0.9-0.5-1.2c-0.4-0.3-0.8-0.5-1.3-0.5c-0.5,0-0.9,0.2-1.2,0.5
		s-0.5,0.7-0.6,1.2H54.2z"/>
	<path class="st5" d="M65.7,12.1c0.3,0.4,0.5,0.8,0.5,1.3c0,0.4-0.1,0.8-0.3,1.1c-0.2,0.3-0.5,0.6-1,0.8s-0.9,0.3-1.5,0.3h-3.3V7.4
		h3.2c0.6,0,1.1,0.1,1.5,0.3c0.4,0.2,0.7,0.5,0.9,0.8c0.2,0.3,0.3,0.7,0.3,1.1c0,0.5-0.1,0.9-0.4,1.2c-0.3,0.3-0.6,0.6-1,0.7
		C65,11.5,65.3,11.7,65.7,12.1z M61.4,10.9h1.7c0.4,0,0.8-0.1,1-0.3c0.3-0.2,0.4-0.5,0.4-0.9c0-0.4-0.1-0.7-0.4-0.9
		c-0.3-0.2-0.6-0.3-1-0.3h-1.7V10.9z M64.4,14.2c0.3-0.2,0.4-0.5,0.4-0.9c0-0.4-0.1-0.7-0.4-1c-0.3-0.2-0.7-0.4-1.1-0.4h-1.8v2.6
		h1.8C63.7,14.6,64.1,14.5,64.4,14.2z"/>
	<path class="st5" d="M67.6,10.6c0.3-0.5,0.7-0.9,1.1-1.2s1-0.4,1.6-0.4c0.5,0,1,0.1,1.4,0.3c0.4,0.2,0.7,0.5,0.9,0.8v-1H74v6.6
		h-1.4v-1c-0.2,0.3-0.5,0.6-0.9,0.8c-0.4,0.2-0.9,0.3-1.4,0.3c-0.6,0-1.1-0.1-1.6-0.4s-0.8-0.7-1.1-1.2c-0.3-0.5-0.4-1.1-0.4-1.8
		S67.3,11.1,67.6,10.6z M72.3,11.2c-0.2-0.3-0.4-0.6-0.7-0.8c-0.3-0.2-0.6-0.3-1-0.3s-0.7,0.1-1,0.3c-0.3,0.2-0.6,0.4-0.7,0.8
		s-0.3,0.7-0.3,1.2s0.1,0.9,0.3,1.2s0.4,0.6,0.7,0.8c0.3,0.2,0.6,0.3,1,0.3c0.4,0,0.7-0.1,1-0.3s0.5-0.4,0.7-0.8
		c0.2-0.3,0.3-0.7,0.3-1.2C72.6,11.9,72.5,11.5,72.3,11.2z"/>
	<path class="st5" d="M80.5,9.3c0.4,0.2,0.7,0.5,1,1c0.2,0.4,0.3,0.9,0.3,1.5v3.9h-1.4V12c0-0.6-0.1-1-0.4-1.4
		c-0.3-0.3-0.7-0.5-1.2-0.5c-0.5,0-0.9,0.2-1.2,0.5c-0.3,0.3-0.4,0.8-0.4,1.4v3.7h-1.4V9.1h1.4v0.8c0.2-0.3,0.5-0.5,0.9-0.6
		C78.3,9,78.7,9,79.1,9C79.6,9,80.1,9.1,80.5,9.3z"/>
	<path class="st5" d="M86.2,12.4l3,3.3h-1.8l-2.4-2.8v2.8h-1.4V6.8h1.4V12l2.4-2.9h1.9L86.2,12.4z"/>
	<path class="st5" d="M90.3,8C90.1,7.8,90,7.6,90,7.3s0.1-0.5,0.3-0.6s0.4-0.3,0.6-0.3c0.2,0,0.4,0.1,0.6,0.3s0.3,0.4,0.3,0.6
		S91.7,7.8,91.5,8s-0.4,0.3-0.6,0.3C90.6,8.2,90.4,8.1,90.3,8z M91.6,9.1v6.6h-1.4V9.1H91.6z"/>
	<path class="st5" d="M98.1,9.3c0.4,0.2,0.7,0.5,1,1c0.2,0.4,0.3,0.9,0.3,1.5v3.9H98V12c0-0.6-0.1-1-0.4-1.4
		c-0.3-0.3-0.7-0.5-1.2-0.5c-0.5,0-0.9,0.2-1.2,0.5c-0.3,0.3-0.4,0.8-0.4,1.4v3.7h-1.4V9.1h1.4v0.8c0.2-0.3,0.5-0.5,0.9-0.6
		C95.9,9,96.3,9,96.7,9C97.2,9,97.7,9.1,98.1,9.3z"/>
	<path class="st5" d="M105.2,9.3c0.4,0.2,0.7,0.5,0.9,0.8v-1h1.4v6.7c0,0.6-0.1,1.1-0.4,1.6c-0.3,0.5-0.6,0.8-1.1,1.1
		c-0.5,0.3-1.1,0.4-1.7,0.4c-0.9,0-1.6-0.2-2.2-0.6c-0.6-0.4-0.9-1-1-1.7h1.4c0.1,0.3,0.3,0.6,0.7,0.8c0.3,0.2,0.7,0.3,1.2,0.3
		c0.6,0,1-0.2,1.3-0.5s0.5-0.8,0.5-1.5v-1.1c-0.2,0.3-0.5,0.6-0.9,0.8c-0.4,0.2-0.8,0.3-1.4,0.3c-0.6,0-1.1-0.1-1.6-0.4
		c-0.5-0.3-0.9-0.7-1.1-1.2c-0.3-0.5-0.4-1.1-0.4-1.8s0.1-1.3,0.4-1.8c0.3-0.5,0.7-0.9,1.1-1.2c0.5-0.3,1-0.4,1.6-0.4
		C104.3,9,104.8,9.1,105.2,9.3z M105.8,11.2c-0.2-0.3-0.4-0.6-0.7-0.8c-0.3-0.2-0.6-0.3-1-0.3c-0.4,0-0.7,0.1-1,0.3
		c-0.3,0.2-0.6,0.4-0.7,0.8c-0.2,0.3-0.3,0.7-0.3,1.2s0.1,0.9,0.3,1.2c0.2,0.3,0.4,0.6,0.7,0.8c0.3,0.2,0.6,0.3,1,0.3
		c0.4,0,0.7-0.1,1-0.3c0.3-0.2,0.5-0.4,0.7-0.8c0.2-0.3,0.3-0.7,0.3-1.2C106.1,11.9,106,11.5,105.8,11.2z"/>
</g>
<g id="_x36_MUDVt.tif">
	<g>
		<path class="st5" d="M14.2,17.1c-1.8,0-3.6,0-5.4,0c-0.1,0-0.2,0-0.2-0.2c0-0.5,0-1,0-1.5c0-0.1,0-0.2,0.2-0.2c2.8,0,5.6,0,8.4,0
			c0.8,0,1.6,0,2.4,0c0.1,0,0.1,0,0.1,0.1c0,0.5,0,1,0,1.6c0,0.1,0,0.1-0.1,0.1C17.8,17.1,16,17.1,14.2,17.1z M14.2,15.9
			c-1.5,0-3,0-4.4,0c-0.1,0-0.3-0.1-0.4,0c-0.1,0.1,0,0.3,0,0.4c0,0.1,0,0.2,0.2,0.2c2,0,4,0,6,0c1.2,0,2.4,0,3.5,0
			c0.1,0,0.1,0,0.1-0.1c0-0.1,0-0.2,0-0.3c0-0.1,0-0.1-0.1-0.1C17.4,15.9,15.8,15.9,14.2,15.9z"/>
		<path class="st5" d="M14.2,9.1c-1.8,0-3.6,0-5.4,0c-0.1,0-0.2,0-0.2-0.2c0-0.3,0-0.6,0-1c0-0.1,0-0.1,0.1-0.2
			c1.8-0.9,3.6-1.8,5.3-2.7c0.1,0,0.1,0,0.2,0c1.8,0.9,3.6,1.8,5.3,2.7c0.1,0,0.1,0.1,0.1,0.2c0,0.3,0,0.7,0,1c0,0.1,0,0.1-0.1,0.1
			C17.8,9.1,16,9.1,14.2,9.1z M14.2,8.5c1.6,0,3.2,0,4.8,0c0.1,0,0.1,0,0.1-0.1c0-0.1,0-0.2-0.1-0.2c-1.6-0.8-3.2-1.6-4.7-2.4
			c-0.1,0-0.1,0-0.2,0C12.5,6.7,11,7.5,9.4,8.2C9.3,8.3,9.3,8.4,9.3,8.5c0,0.1,0.1,0,0.1,0C11,8.5,12.6,8.5,14.2,8.5z"/>
		<path class="st5" d="M11.8,12.2c0,0.8,0,1.6,0,2.3c0,0.1,0,0.1-0.1,0.1c-0.7,0-1.5,0-2.2,0c-0.1,0-0.1,0-0.1-0.1
			c0-1.6,0-3.1,0-4.7c0-0.1,0-0.1,0.1-0.1c0.7,0,1.5,0,2.2,0c0.1,0,0.1,0,0.1,0.1C11.8,10.7,11.8,11.4,11.8,12.2z M11.1,12.2
			c0-0.6,0-1.1,0-1.7c0-0.1,0-0.1-0.1-0.1c-0.3,0-0.7,0-1,0c-0.1,0-0.1,0-0.1,0.1c0,1.2,0,2.3,0,3.5c0,0.1,0,0.1,0.1,0.1
			c0.3,0,0.7,0,1,0c0.1,0,0.1,0,0.1-0.1C11.1,13.4,11.1,12.8,11.1,12.2z"/>
		<path class="st5" d="M13,12.2c0-0.8,0-1.5,0-2.3c0-0.1,0-0.1,0.1-0.1c0.7,0,1.4,0,2.2,0c0.1,0,0.1,0,0.1,0.2c0,1.5,0,3.1,0,4.6
			c0,0.1,0,0.1-0.1,0.1c-0.7,0-1.5,0-2.2,0c-0.1,0-0.1,0-0.1-0.1C13,13.8,13,13,13,12.2z M14.8,12.2c0-0.6,0-1.1,0-1.7
			c0-0.1,0-0.1-0.1-0.1c-0.3,0-0.6,0-1,0c-0.1,0-0.1,0-0.1,0.1c0,1.1,0,2.3,0,3.4c0,0.1,0,0.1,0.1,0.1c0.3,0,0.7,0,1,0
			c0.1,0,0.1,0,0.1-0.1C14.8,13.4,14.8,12.8,14.8,12.2z"/>
		<path class="st5" d="M19.1,12.2c0,0.8,0,1.5,0,2.3c0,0.1,0,0.1-0.1,0.1c-0.7,0-1.5,0-2.2,0c-0.1,0-0.1,0-0.1-0.1
			c0-1.6,0-3.1,0-4.7c0-0.1,0-0.1,0.1-0.1c0.7,0,1.4,0,2.2,0c0.1,0,0.1,0,0.1,0.1C19.1,10.7,19.1,11.4,19.1,12.2z M18.5,12.2
			c0-0.6,0-1.1,0-1.7c0-0.1,0-0.1-0.1-0.1c-0.3,0-0.7,0-1,0c-0.1,0-0.1,0-0.1,0.1c0,1.1,0,2.3,0,3.4c0,0.1,0,0.1,0.1,0.1
			c0.3,0,0.7,0,1,0c0.1,0,0.1,0,0.1-0.1C18.5,13.3,18.5,12.8,18.5,12.2z"/>
	</g>
</g>
</svg>
