<?xml version="1.0" encoding="utf-8"?>
<!-- Generator: Adobe Illustrator 27.0.1, SVG Export Plug-In . SVG Version: 6.00 Build 0)  -->
<svg version="1.1" id="Layer_1" xmlns="http://www.w3.org/2000/svg" xmlns:xlink="http://www.w3.org/1999/xlink" x="0px" y="0px"
	 viewBox="0 0 186 49" style="enable-background:new 0 0 186 49;" xml:space="preserve">
<style type="text/css">
	.st0{fill-opacity:0.1;}
	.st1{fill:#3BC9D0;stroke:#000000;stroke-width:0.2471;stroke-opacity:5.000000e-02;}
	.st2{fill:#FFFFFF;fill-opacity:0.3;}
	.st3{fill:none;}
	.st4{enable-background:new    ;}
	.st5{fill:#FFFFFF;}
</style>
<g>
	<g>
		<g>
			<path class="st0" d="M142.4,25.1h-113c-0.9,0-1.7,0.8-1.7,1.7c0,0.9,0.8,1.7,1.7,1.7h113c0.9,0,1.7-0.8,1.7-1.7
				C144.1,25.9,143.3,25.1,142.4,25.1z"/>
			<path class="st1" d="M42.4,25.8h-13c-0.6,0-1,0.5-1,1c0,0.6,0.5,1,1,1h13c0.6,0,1-0.5,1-1S43,25.8,42.4,25.8z"/>
		</g>
		<path class="st2" d="M122.3,34H29.1c-0.8,0-1.4,0.6-1.4,1.4s0.6,1.4,1.4,1.4h93.2c0.8,0,1.4-0.6,1.4-1.4S123,34,122.3,34z"/>
		<path class="st2" d="M92.3,42.3H29.1c-0.8,0-1.4,0.6-1.4,1.4s0.6,1.4,1.4,1.4h63.2c0.8,0,1.4-0.6,1.4-1.4S93,42.3,92.3,42.3z"/>
	</g>
</g>
<rect x="26.9" y="5.6" class="st3" width="88.5" height="11.7"/>
<g class="st4">
	<path class="st5" d="M32.9,6.6C33.5,7,34,7.5,34.4,8.1c0.4,0.6,0.5,1.4,0.5,2.2c0,0.8-0.2,1.6-0.5,2.2c-0.4,0.6-0.9,1.1-1.5,1.4
		s-1.4,0.5-2.3,0.5h-2.7V6.1h2.7C31.4,6.1,32.2,6.3,32.9,6.6z M32.8,12.6c0.5-0.5,0.8-1.3,0.8-2.2c0-1-0.3-1.7-0.8-2.3
		c-0.5-0.5-1.3-0.8-2.2-0.8h-1.4v6.1h1.4C31.5,13.3,32.2,13.1,32.8,12.6z"/>
	<path class="st5" d="M42.3,11.7h-5.1c0,0.5,0.2,1,0.6,1.3c0.4,0.3,0.8,0.5,1.3,0.5c0.7,0,1.3-0.3,1.6-0.9h1.5
		c-0.2,0.6-0.6,1.1-1.1,1.5c-0.5,0.4-1.2,0.6-1.9,0.6c-0.6,0-1.2-0.1-1.7-0.4c-0.5-0.3-0.9-0.7-1.2-1.2c-0.3-0.5-0.4-1.1-0.4-1.8
		c0-0.7,0.1-1.3,0.4-1.8c0.3-0.5,0.7-0.9,1.2-1.2s1.1-0.4,1.7-0.4c0.6,0,1.2,0.1,1.7,0.4c0.5,0.3,0.9,0.7,1.1,1.1s0.4,1.1,0.4,1.7
		C42.4,11.2,42.3,11.5,42.3,11.7z M40.9,10.6c0-0.5-0.2-0.9-0.5-1.2C40,9,39.6,8.9,39.1,8.9c-0.5,0-0.9,0.2-1.2,0.5
		s-0.5,0.7-0.6,1.2H40.9z"/>
	<path class="st5" d="M44.7,14.3c-0.4-0.2-0.7-0.4-1-0.8c-0.2-0.3-0.4-0.7-0.4-1.1h1.4c0,0.3,0.2,0.5,0.4,0.7
		c0.2,0.2,0.5,0.3,0.9,0.3c0.4,0,0.7-0.1,0.9-0.2c0.2-0.1,0.3-0.3,0.3-0.6c0-0.2-0.1-0.4-0.4-0.6c-0.2-0.1-0.6-0.3-1.1-0.4
		c-0.5-0.1-0.9-0.3-1.2-0.4S44,11,43.8,10.7c-0.2-0.3-0.3-0.6-0.3-1c0-0.4,0.1-0.7,0.3-1s0.5-0.5,0.9-0.7c0.4-0.2,0.8-0.3,1.3-0.3
		c0.8,0,1.4,0.2,1.8,0.6c0.5,0.4,0.7,0.9,0.7,1.6h-1.4c0-0.3-0.1-0.5-0.4-0.7S46.3,8.9,46,8.9c-0.4,0-0.6,0.1-0.8,0.2
		c-0.2,0.1-0.3,0.3-0.3,0.5c0,0.2,0.1,0.3,0.2,0.4c0.1,0.1,0.3,0.2,0.5,0.3c0.2,0.1,0.5,0.2,0.8,0.3c0.5,0.1,0.9,0.3,1.2,0.4
		c0.3,0.1,0.6,0.3,0.8,0.6s0.3,0.6,0.3,1c0,0.4-0.1,0.7-0.3,1s-0.5,0.5-0.9,0.7c-0.4,0.2-0.8,0.3-1.3,0.3
		C45.6,14.6,45.1,14.5,44.7,14.3z"/>
	<path class="st5" d="M50.1,9.4c0.3-0.5,0.7-0.9,1.1-1.2s1-0.4,1.6-0.4c0.5,0,1,0.1,1.4,0.3c0.4,0.2,0.7,0.5,0.9,0.8v-1h1.4v6.6
		h-1.4v-1c-0.2,0.3-0.5,0.6-0.9,0.8c-0.4,0.2-0.9,0.3-1.4,0.3c-0.6,0-1.1-0.1-1.6-0.4s-0.8-0.7-1.1-1.2c-0.3-0.5-0.4-1.1-0.4-1.8
		S49.8,9.9,50.1,9.4z M54.8,10c-0.2-0.3-0.4-0.6-0.7-0.8c-0.3-0.2-0.6-0.3-1-0.3s-0.7,0.1-1,0.3c-0.3,0.2-0.6,0.4-0.7,0.8
		s-0.3,0.7-0.3,1.2s0.1,0.9,0.3,1.2s0.4,0.6,0.7,0.8c0.3,0.2,0.6,0.3,1,0.3c0.4,0,0.7-0.1,1-0.3s0.5-0.4,0.7-0.8
		c0.2-0.3,0.3-0.7,0.3-1.2C55.1,10.7,55,10.3,54.8,10z"/>
	<path class="st5" d="M60.4,8c0.3-0.2,0.7-0.3,1.2-0.3v1.4h-0.3c-0.5,0-0.9,0.1-1.2,0.4c-0.3,0.3-0.4,0.7-0.4,1.4v3.5h-1.4V7.8h1.4
		v1C59.8,8.5,60.1,8.2,60.4,8z"/>
	<path class="st5" d="M65,8c0.3-0.2,0.7-0.3,1.2-0.3v1.4h-0.3c-0.5,0-0.9,0.1-1.2,0.4c-0.3,0.3-0.4,0.7-0.4,1.4v3.5h-1.4V7.8h1.4v1
		C64.4,8.5,64.7,8.2,65,8z"/>
	<path class="st5" d="M68.6,14.1c-0.5-0.3-0.9-0.7-1.2-1.2c-0.3-0.5-0.4-1.1-0.4-1.8c0-0.7,0.1-1.3,0.4-1.8c0.3-0.5,0.7-0.9,1.2-1.2
		c0.5-0.3,1.1-0.4,1.7-0.4c0.6,0,1.2,0.1,1.7,0.4c0.5,0.3,0.9,0.7,1.2,1.2c0.3,0.5,0.4,1.1,0.4,1.8c0,0.7-0.2,1.3-0.5,1.8
		c-0.3,0.5-0.7,0.9-1.2,1.2c-0.5,0.3-1.1,0.4-1.7,0.4C69.7,14.6,69.1,14.4,68.6,14.1z M71.3,13.1c0.3-0.2,0.6-0.4,0.8-0.8
		c0.2-0.3,0.3-0.7,0.3-1.2c0-0.5-0.1-0.9-0.3-1.2s-0.4-0.6-0.7-0.8c-0.3-0.2-0.6-0.3-1-0.3c-0.4,0-0.7,0.1-1,0.3
		c-0.3,0.2-0.5,0.4-0.7,0.8c-0.2,0.3-0.3,0.7-0.3,1.2c0,0.7,0.2,1.3,0.5,1.6c0.4,0.4,0.8,0.6,1.4,0.6C70.7,13.4,71,13.3,71.3,13.1z"
		/>
	<path class="st5" d="M76.5,5.6v8.9h-1.4V5.6H76.5z"/>
	<path class="st5" d="M79.7,5.6v8.9h-1.4V5.6H79.7z"/>
	<path class="st5" d="M82.6,14.1c-0.5-0.3-0.9-0.7-1.2-1.2c-0.3-0.5-0.4-1.1-0.4-1.8c0-0.7,0.1-1.3,0.4-1.8c0.3-0.5,0.7-0.9,1.2-1.2
		c0.5-0.3,1.1-0.4,1.7-0.4c0.6,0,1.2,0.1,1.7,0.4c0.5,0.3,0.9,0.7,1.2,1.2c0.3,0.5,0.4,1.1,0.4,1.8c0,0.7-0.2,1.3-0.5,1.8
		c-0.3,0.5-0.7,0.9-1.2,1.2c-0.5,0.3-1.1,0.4-1.7,0.4C83.7,14.6,83.1,14.4,82.6,14.1z M85.3,13.1c0.3-0.2,0.6-0.4,0.8-0.8
		c0.2-0.3,0.3-0.7,0.3-1.2c0-0.5-0.1-0.9-0.3-1.2s-0.4-0.6-0.7-0.8c-0.3-0.2-0.6-0.3-1-0.3c-0.4,0-0.7,0.1-1,0.3
		c-0.3,0.2-0.5,0.4-0.7,0.8c-0.2,0.3-0.3,0.7-0.3,1.2c0,0.7,0.2,1.3,0.5,1.6c0.4,0.4,0.8,0.6,1.4,0.6C84.7,13.4,85,13.3,85.3,13.1z"
		/>
	<path class="st5" d="M93.6,6.1v8.3h-1.4V6.1H93.6z"/>
	<path class="st5" d="M100.8,6.1v1.1h-2.2v7.2h-1.4V7.2H95V6.1H100.8z"/>
</g>
<path class="st5" d="M13.8,5.5c0-0.2-0.2-0.7-0.7-0.7c-0.3,0-0.6,0.2-0.6,0.5l-2.7,9.3c0,0.1,0,0.1,0,0.2c0,0.2,0.2,0.7,0.7,0.7
	c0.3,0,0.6-0.2,0.6-0.5l2.7-9.3C13.8,5.6,13.8,5.5,13.8,5.5z M8.8,7.8c0-0.4-0.3-0.7-0.7-0.7C8,7.1,7.8,7.2,7.7,7.3L5.4,9.6
	C5.3,9.8,5.2,10,5.2,10.1c0,0.2,0.1,0.4,0.2,0.5l2.3,2.3C7.8,13,8,13.1,8.2,13.1c0.4,0,0.7-0.3,0.7-0.7c0-0.2-0.1-0.3-0.2-0.5
	L6.8,10l1.9-1.9C8.8,8.1,8.8,8,8.8,7.8z M18.5,10.1c0-0.2-0.1-0.3-0.2-0.5L16,7.3c-0.1-0.1-0.3-0.2-0.5-0.2c-0.4,0-0.7,0.3-0.7,0.7
	c0,0.2,0.1,0.3,0.2,0.5l1.9,1.9L15,12c-0.1,0.1-0.2,0.3-0.2,0.5c0,0.4,0.3,0.7,0.7,0.7c0.2,0,0.3-0.1,0.5-0.2l2.3-2.3
	C18.4,10.5,18.5,10.3,18.5,10.1z"/>
</svg>
