<?xml version="1.0" encoding="UTF-8"?>
<svg id="Layer_1" data-name="Layer 1" xmlns="http://www.w3.org/2000/svg" viewBox="0 0 135.99 40.97">
  <defs>
    <style>
      .cls-1 {
        fill: none;
      }

      .cls-2, .cls-3 {
        fill: #fff;
      }

      .cls-4 {
        fill: rgba(255, 255, 255, .3);
      }

      .cls-3 {
        fill-rule: evenodd;
      }

      .cls-5 {
        fill: #3bc9d0;
        stroke: rgba(0, 0, 0, .05);
        stroke-width: .25px;
      }
    </style>
  </defs>
  <g>
    <g>
      <path d="M134.29,20.97H21.29c-.9,0-1.7,.8-1.7,1.7s.8,1.7,1.7,1.7h113c.9,0,1.7-.8,1.7-1.7,0-.9-.8-1.7-1.7-1.7Z"/>
      <path class="cls-5" d="M133.94,21.67H21.29c-.6,0-1,.5-1,1,0,.6,.5,1,1,1h112.65c.6,0,1-.5,1-1s-.4-1-1-1Z"/>
    </g>
    <path class="cls-4" d="M114.19,29.87H20.99c-.8,0-1.4,.6-1.4,1.4s.6,1.4,1.4,1.4H114.19c.8,0,1.4-.6,1.4-1.4s-.7-1.4-1.4-1.4Z"/>
    <path class="cls-4" d="M84.19,38.17H20.99c-.8,0-1.4,.6-1.4,1.4s.6,1.4,1.4,1.4h63.2c.8,0,1.4-.6,1.4-1.4s-.7-1.4-1.4-1.4Z"/>
  </g>
  <rect class="cls-1" x="18.79" y="1.47" width="88.5" height="11.7"/>
  <g>
    <path class="cls-2" d="M25.3,2.14c.78,.4,1.38,.97,1.81,1.71,.42,.74,.64,1.61,.64,2.6s-.21,1.85-.64,2.58-1.03,1.29-1.81,1.67c-.78,.39-1.69,.58-2.72,.58h-3.18V1.54h3.18c1.04,0,1.94,.2,2.72,.6Zm-.1,6.91c.61-.62,.91-1.48,.91-2.6s-.3-2.01-.91-2.65c-.61-.63-1.48-.95-2.62-.95h-1.58v7.13h1.58c1.14,0,2.01-.31,2.62-.92Z"/>
    <path class="cls-2" d="M29.41,2.24c-.2-.2-.29-.44-.29-.73s.1-.53,.29-.73,.44-.29,.73-.29,.52,.1,.71,.29,.29,.44,.29,.73-.1,.53-.29,.73c-.2,.2-.43,.29-.71,.29s-.53-.1-.73-.29Zm1.51,1.32v7.71h-1.6V3.56h1.6Z"/>
    <path class="cls-2" d="M34.19,11.07c-.48-.22-.86-.52-1.14-.9-.28-.38-.43-.8-.45-1.27h1.65c.03,.33,.18,.6,.47,.82s.64,.33,1.07,.33,.8-.09,1.04-.26c.25-.17,.37-.39,.37-.67,0-.29-.14-.5-.41-.64-.28-.14-.71-.29-1.31-.46-.58-.16-1.05-.31-1.41-.46-.36-.15-.68-.38-.95-.69-.27-.31-.4-.71-.4-1.22,0-.41,.12-.79,.36-1.13,.24-.34,.59-.61,1.04-.8,.45-.2,.97-.29,1.56-.29,.88,0,1.58,.22,2.12,.67,.54,.44,.82,1.05,.86,1.81h-1.6c-.03-.35-.17-.62-.42-.83-.25-.21-.59-.31-1.02-.31s-.74,.08-.97,.24c-.22,.16-.34,.37-.34,.63,0,.21,.07,.38,.22,.52,.15,.14,.33,.25,.55,.33,.21,.08,.53,.18,.95,.3,.56,.15,1.02,.3,1.38,.46,.36,.15,.67,.38,.93,.68,.26,.3,.4,.7,.41,1.19,0,.44-.12,.83-.36,1.18s-.59,.62-1.03,.81c-.44,.2-.96,.29-1.56,.29s-1.15-.11-1.63-.33Z"/>
    <path class="cls-2" d="M43.2,3.79c.47-.24,.99-.36,1.58-.36,.67,0,1.29,.17,1.84,.5,.56,.33,.99,.8,1.31,1.39,.32,.6,.48,1.28,.48,2.06s-.16,1.47-.48,2.08-.75,1.09-1.31,1.43-1.17,.51-1.84,.51c-.59,0-1.11-.12-1.57-.36-.46-.24-.83-.53-1.12-.89v4.79h-1.6V3.56h1.6v1.13c.27-.35,.64-.65,1.11-.9Zm3.25,2.21c-.22-.39-.51-.68-.87-.88-.36-.2-.74-.3-1.16-.3s-.78,.1-1.14,.31c-.36,.21-.65,.5-.87,.9-.22,.39-.33,.85-.33,1.39s.11,1,.33,1.39c.22,.4,.51,.7,.87,.9s.74,.31,1.14,.31,.8-.11,1.16-.32c.36-.21,.65-.52,.87-.92,.22-.4,.33-.87,.33-1.4s-.11-.99-.33-1.38Z"/>
    <path class="cls-2" d="M57,8.01h-5.89c.05,.62,.28,1.11,.69,1.48,.41,.37,.91,.56,1.51,.56,.86,0,1.46-.36,1.82-1.08h1.72c-.23,.71-.66,1.29-1.27,1.74-.61,.45-1.37,.68-2.27,.68-.74,0-1.4-.17-1.98-.5-.58-.33-1.04-.8-1.37-1.4-.33-.6-.5-1.3-.5-2.09s.16-1.49,.48-2.09c.32-.6,.77-1.07,1.36-1.39,.58-.33,1.25-.49,2.01-.49s1.38,.16,1.95,.48,1.01,.76,1.33,1.34c.32,.57,.48,1.23,.48,1.98,0,.29-.02,.55-.06,.78Zm-1.61-1.29c0-.59-.22-1.06-.63-1.41-.41-.35-.92-.53-1.53-.53-.55,0-1.02,.18-1.41,.52-.39,.35-.62,.82-.7,1.42h4.27Z"/>
    <path class="cls-2" d="M61.15,3.76c.39-.22,.85-.33,1.38-.33v1.65h-.41c-.62,0-1.1,.16-1.42,.48-.32,.32-.48,.87-.48,1.65v4.06h-1.6V3.56h1.6v1.12c.23-.39,.54-.7,.93-.92Z"/>
    <path class="cls-2" d="M65.17,11.07c-.48-.22-.86-.52-1.14-.9-.28-.38-.43-.8-.45-1.27h1.65c.03,.33,.18,.6,.47,.82s.64,.33,1.07,.33,.8-.09,1.04-.26c.25-.17,.37-.39,.37-.67,0-.29-.14-.5-.41-.64-.28-.14-.71-.29-1.31-.46-.58-.16-1.05-.31-1.41-.46-.36-.15-.68-.38-.95-.69-.27-.31-.4-.71-.4-1.22,0-.41,.12-.79,.36-1.13,.24-.34,.59-.61,1.04-.8,.45-.2,.97-.29,1.56-.29,.88,0,1.58,.22,2.12,.67,.54,.44,.82,1.05,.86,1.81h-1.6c-.03-.35-.17-.62-.42-.83-.25-.21-.59-.31-1.02-.31s-.74,.08-.97,.24c-.22,.16-.34,.37-.34,.63,0,.21,.07,.38,.22,.52,.15,.14,.33,.25,.55,.33,.21,.08,.53,.18,.95,.3,.56,.15,1.02,.3,1.38,.46,.36,.15,.67,.38,.93,.68,.26,.3,.4,.7,.41,1.19,0,.44-.12,.83-.36,1.18s-.59,.62-1.03,.81c-.44,.2-.96,.29-1.56,.29s-1.15-.11-1.63-.33Z"/>
    <path class="cls-2" d="M71.56,2.24c-.2-.2-.29-.44-.29-.73s.1-.53,.29-.73,.44-.29,.73-.29,.52,.1,.71,.29,.29,.44,.29,.73-.1,.53-.29,.73c-.2,.2-.43,.29-.71,.29s-.53-.1-.73-.29Zm1.51,1.32v7.71h-1.6V3.56h1.6Z"/>
    <path class="cls-2" d="M76.55,10.9c-.59-.33-1.05-.8-1.39-1.4s-.5-1.3-.5-2.09,.17-1.48,.52-2.09c.35-.61,.82-1.07,1.41-1.4,.6-.33,1.26-.49,2-.49s1.4,.16,2,.49c.6,.33,1.07,.79,1.41,1.4,.35,.61,.52,1.3,.52,2.09s-.18,1.48-.53,2.09c-.35,.61-.84,1.08-1.45,1.41-.61,.33-1.29,.5-2.02,.5s-1.39-.17-1.97-.5Zm3.13-1.18c.36-.2,.65-.49,.88-.88,.22-.39,.34-.87,.34-1.43s-.11-1.03-.32-1.42c-.21-.39-.5-.68-.85-.88-.35-.2-.74-.29-1.15-.29s-.79,.1-1.14,.29c-.35,.2-.63,.49-.83,.88-.21,.39-.31,.86-.31,1.42,0,.83,.21,1.47,.64,1.92s.96,.68,1.6,.68c.41,0,.8-.1,1.15-.29Zm.36-8.36l-3.09,1.53V1.71l3.09-1.71V1.36Z"/>
    <path class="cls-2" d="M89.63,3.81c.48,.25,.86,.63,1.13,1.12s.41,1.09,.41,1.79v4.55h-1.58V6.96c0-.69-.17-1.22-.52-1.59-.34-.37-.82-.55-1.41-.55s-1.07,.18-1.42,.55c-.35,.37-.52,.9-.52,1.59v4.31h-1.6V3.56h1.6v.88c.26-.32,.6-.56,1-.74,.41-.18,.84-.27,1.29-.27,.61,0,1.15,.13,1.63,.38Z"/>
  </g>
  <path class="cls-2" d="M4.48,8.32c0,.34,0,.34,.33,.43,.39,.1,.7,.3,.77,.74,.07,.41-.13,.8-.51,1.04-.07,.04-.15,.09-.23,.11-.22,.06-.42,.1-.4,.42,0,.14-.16,.22-.31,.21-.17-.02-.29-.13-.28-.3,.01-.21-.08-.27-.25-.31-.26-.07-.49-.2-.68-.41-.17-.18-.18-.39-.03-.53,.14-.13,.31-.1,.48,.09,.02,.02,.04,.04,.06,.05,.12,.08,.25,.21,.38,.16,.08-.03,.03-.22,.03-.33,0-.37,0-.36-.32-.47-.1-.04-.21-.08-.3-.14-.42-.26-.55-.72-.32-1.17,.12-.24,.3-.42,.55-.51,.24-.09,.46-.15,.42-.5-.02-.16,.15-.25,.31-.23,.17,.01,.3,.12,.28,.3-.02,.25,.08,.3,.29,.34,.31,.05,.58,.19,.75,.48,.13,.22,.11,.42-.06,.53-.17,.11-.32,.05-.46-.17-.1-.16-.27-.19-.44-.23-.08-.02-.08,.05-.08,.1,0,.1,0,.2,0,.3h0Zm0,1.43c.02,.1-.05,.29,.04,.31,.15,.03,.29-.09,.39-.21,0-.01,.02-.02,.02-.03,.06-.11,.09-.22,0-.31-.11-.12-.26-.17-.41-.14-.09,.02-.02,.16-.04,.25,0,.04,0,.08,0,.14h0Zm-.63-1.09v-.71c-.26,.06-.44,.23-.42,.4,.03,.22,.23,.23,.42,.31Z"/>
  <path class="cls-3" d="M9.69,8.74l2.58-2.58c.71-.71,.71-1.87,0-2.58L9.69,1c-.35-.35-.82-.53-1.28-.53h0c-.66,0-1.2,.54-1.2,1.2,0,.22-.18,.4-.4,.4h-1.2C2.51,2.07,0,4.58,0,7.67s2.51,5.6,5.6,5.6h2c.22,0,.4-.18,.4-.4s-.18-.4-.4-.4h-2C2.95,12.47,.8,10.32,.8,7.67S2.95,2.87,5.6,2.87h1.2c.66,0,1.2-.54,1.2-1.2,0-.22,.18-.4,.4-.4,.03,0,.06,0,.09,.01,.2,.02,.39,.1,.54,.25l2.7,2.7c.35,.35,.35,.92,0,1.27l-2.7,2.7c-.15,.15-.34,.23-.54,.25-.03,0-.06,.01-.09,.01-.22,0-.4-.18-.4-.4,0-.66-.54-1.2-1.2-1.2h-.8c-.33,0-.64,.06-.94,.16,.36,.14,.67,.36,.93,.64,0,0,0,0,.01,0h.8c.22,0,.4,.18,.4,.4,0,.66,.54,1.2,1.2,1.2h0c.46,0,.93-.18,1.28-.53Z"/>
</svg>