<svg width="57" height="67" viewBox="0 0 57 67" fill="none" xmlns="http://www.w3.org/2000/svg">
<path d="M21.0481 54.4068C21.0481 53.7752 21.0414 53.1436 21.0492 52.511C21.0571 51.9006 21.3313 51.5697 21.9472 51.5273C22.2733 51.5049 22.2947 51.42 22.2417 51.1316C21.5422 47.2873 19.8737 43.9216 17.1019 41.1404C14.6268 38.6566 12.9944 35.7547 12.3006 32.3297C10.7088 24.4747 15.5913 16.2811 23.3439 13.814C32.5709 10.8775 42.2209 16.1424 44.4884 25.4819C45.876 31.1973 44.4185 36.2946 40.3866 40.5994C37.6463 43.5247 35.786 46.8693 34.9377 50.7705C34.8418 51.2087 34.7188 51.5485 35.4013 51.5798C35.8086 51.5977 36.0376 51.9576 36.0399 52.3779C36.0478 53.7339 36.0579 55.0909 36.0353 56.4468C36.0263 56.9867 35.6811 57.2707 35.1238 57.2941C34.7888 57.3087 34.3736 57.2069 34.1423 57.3668C33.9415 57.5054 33.9664 57.9447 33.8626 58.2409C33.1315 60.3357 31.031 62.1958 27.9963 61.9834C25.766 61.8269 23.6135 60.0138 23.0957 57.7245C23.0156 57.3701 22.896 57.2517 22.553 57.2908C22.3489 57.3131 22.1402 57.3031 21.9348 57.293C21.3978 57.2651 21.0662 56.9476 21.0526 56.4133C21.0357 55.7448 21.0481 55.0752 21.0481 54.4068ZM28.4893 19.9274C28.5367 19.8983 28.5705 19.886 28.5931 19.8626C29.9773 18.4239 31.6447 18.0081 33.3199 18.6855C34.9952 19.3629 35.9395 20.8496 35.8864 22.789C35.8774 23.111 35.9868 23.2295 36.2576 23.3591C38.6052 24.4825 39.3656 27.238 37.9193 29.3809C37.7693 29.6022 37.7275 29.7654 37.8359 30.0236C38.6662 32.0033 37.9949 34.0679 36.1504 35.1902C35.9034 35.34 35.8492 35.4551 35.8752 35.7435C36.0229 37.3912 35.4487 38.7483 34.0363 39.6626C32.6318 40.5714 31.1584 40.5904 29.6806 39.7901C29.5937 39.7431 29.5193 39.6135 29.376 39.7319C29.376 40.3691 29.376 41.0197 29.376 41.6703C29.376 44.7924 29.3794 47.9144 29.3715 51.0365C29.3715 51.3506 29.3794 51.5418 29.8013 51.525C30.7568 51.4893 31.7135 51.506 32.6701 51.5183C32.9499 51.5217 33.0582 51.4345 33.0988 51.1506C33.2466 50.1233 33.5174 49.1239 33.8344 48.1347C34.9546 44.6381 36.9672 41.7071 39.4389 39.0009C42.5706 35.5714 43.7811 31.479 43.0027 26.8982C41.6219 18.7693 33.7295 13.4183 25.5776 15.1397C20.0396 16.309 16.266 19.6535 14.5557 24.9845C12.8364 30.3444 13.9917 35.2584 17.8781 39.3619C21.0707 42.7333 23.2739 46.525 23.988 51.1181C24.0388 51.4412 24.1809 51.5306 24.5058 51.5206C25.3677 51.4948 26.2319 51.4848 27.0938 51.5217C27.5213 51.5396 27.615 51.4177 27.6127 51.003C27.5947 47.398 27.6037 43.793 27.6026 40.1869C27.6026 40.0259 27.589 39.865 27.58 39.6582C27.342 39.77 27.1468 39.8683 26.9449 39.9544C23.9768 41.2198 20.748 38.8567 21.1384 35.6966C21.1756 35.3992 21.0696 35.2841 20.8338 35.1388C18.978 33.9964 18.3237 31.9776 19.1596 29.9688C19.2612 29.7252 19.2341 29.5776 19.0987 29.3697C17.6231 27.0994 18.3733 24.4714 20.8372 23.3066C21.091 23.187 21.1429 23.0886 21.1102 22.8159C20.8405 20.5601 22.7493 18.4239 25.0428 18.3703C26.4507 18.3379 27.58 18.8901 28.4859 19.9229L28.4893 19.9274ZM27.6533 29.2624H27.6511C27.6511 27.5152 27.6567 25.7681 27.6477 24.022C27.6443 23.3547 27.7052 22.6851 27.5947 22.0189C27.3149 20.3421 25.3948 19.5093 23.9632 20.445C22.4109 21.4588 22.57 23.6386 24.2633 24.5474C24.8578 24.866 25.0462 25.3276 24.78 25.815C24.5307 26.2711 24.0478 26.3817 23.4713 26.1157C22.9186 25.8597 22.4414 25.4987 22.077 25.018C21.8807 24.7598 21.7137 24.7765 21.4689 24.9096C20.6172 25.3723 20.1907 26.0956 20.1851 27.039C20.1795 27.9948 20.8033 28.8421 21.6934 29.1942C22.0702 29.3429 22.4583 29.3384 22.8543 29.3294C23.4307 29.3172 23.8312 29.657 23.8606 30.1555C23.891 30.672 23.5503 31.0341 22.9727 31.0923C22.4267 31.1482 21.8874 31.1135 21.3595 30.9604C20.6961 30.7681 20.6194 30.824 20.5946 31.5349C20.5608 32.4884 21.1136 33.3916 21.989 33.7594C22.9941 34.1819 23.8865 33.974 24.6706 33.2385C25.1635 32.7768 25.6622 32.7511 26.0435 33.158C26.4079 33.5459 26.3605 34.0288 25.9081 34.4826C25.1974 35.1958 24.3389 35.6161 23.3269 35.6798C22.9535 35.7033 22.8306 35.8564 22.8712 36.2019C22.9479 36.8524 23.1859 37.4259 23.706 37.8484C24.4664 38.4654 25.3215 38.6208 26.224 38.2173C27.1931 37.7847 27.6477 36.9933 27.6511 35.9526C27.6578 33.7225 27.6533 31.4924 27.6533 29.2624ZM34.5022 31.0867C34.4154 31.0867 34.2845 31.0934 34.1536 31.0867C33.5467 31.0531 33.1733 30.682 33.2049 30.1488C33.2342 29.6469 33.6369 29.3183 34.2134 29.3283C34.3262 29.3306 34.4379 29.3473 34.5496 29.3473C35.6439 29.3417 36.5746 28.6275 36.8081 27.6158C37.0597 26.5215 36.5577 25.4394 35.5852 24.9375C35.3133 24.7967 35.1374 24.7888 34.9287 25.0593C34.5361 25.5668 34.0228 25.9424 33.4226 26.1884C32.9398 26.3873 32.484 26.2543 32.2516 25.8564C32.0045 25.4338 32.132 24.9655 32.5855 24.6502C32.7074 24.5653 32.845 24.5027 32.9713 24.4233C33.7757 23.918 34.2303 22.9478 34.069 22.0904C33.8355 20.8485 32.7446 19.9665 31.5702 20.0705C30.2604 20.1867 29.3568 21.1481 29.3546 22.4861C29.3444 27.058 29.3444 31.6288 29.3546 36.2007C29.3568 37.4795 30.2424 38.4677 31.4213 38.5705C32.7818 38.6879 33.8344 37.8898 34.0724 36.5607C34.1954 35.8754 34.1074 35.7592 33.4147 35.6653C32.4276 35.5312 31.6119 35.0717 30.9531 34.3451C30.6158 33.9729 30.6418 33.4643 30.97 33.1401C31.3141 32.8014 31.7789 32.7947 32.1817 33.1267C32.2674 33.1982 32.3385 33.2866 32.4231 33.3603C33.2218 34.0489 34.2822 34.1663 35.187 33.6666C36.085 33.1703 36.5306 32.2023 36.358 31.1627C36.305 30.8441 36.2057 30.7133 35.8627 30.8665C35.4487 31.0509 35.0031 31.1169 34.5022 31.0889V31.0867ZM28.4735 55.5347C30.2537 55.5347 32.0339 55.5257 33.8141 55.5414C34.1683 55.5447 34.324 55.4687 34.2946 55.0842C34.2608 54.6594 34.254 54.2268 34.2969 53.8043C34.3432 53.346 34.1559 53.2621 33.734 53.2644C30.6982 53.2811 27.6624 53.2677 24.6254 53.2778C24.032 53.28 23.2175 53.0196 22.9073 53.3873C22.6095 53.7406 22.8441 54.5197 22.808 55.1099C22.7866 55.4587 22.9005 55.5436 23.2457 55.5403C24.9887 55.5224 26.7316 55.5324 28.4746 55.5336L28.4735 55.5347ZM32.2313 57.2941C29.8724 57.2941 27.5168 57.3008 25.1613 57.2863C24.798 57.2841 24.8059 57.4383 24.8962 57.6798C25.1624 58.3896 25.5922 58.9798 26.1947 59.4504C28.3607 61.1406 31.8173 59.9188 32.2313 57.2941Z" fill="#3BC9D0"/>
<path d="M11.9986 39.7275C12.0011 40.1221 11.7923 40.3366 11.4728 40.4876C10.481 40.9547 9.49166 41.4279 8.48741 41.8789C7.94302 42.1235 7.37129 41.9836 7.11277 41.5849C6.86792 41.2074 7.02701 40.7624 7.53908 40.5168C8.54458 40.0355 9.55754 39.5624 10.5829 39.1063C11.2615 38.8043 12.0135 39.1879 11.9998 39.7275H11.9986Z" fill="#3BC9D0"/>
<path d="M50 41.3326C50.0025 41.75 49.2761 42.1796 48.6623 41.9223C47.5646 41.4612 46.4932 40.9566 45.438 40.4348C44.9704 40.2038 44.8917 39.8157 45.133 39.4185C45.3605 39.0446 45.9256 38.8835 46.4044 39.0922C47.4583 39.5512 48.4922 40.0386 49.5274 40.523C49.835 40.6668 49.9787 40.906 50 41.3315V41.3326Z" fill="#3BC9D0"/>
<path d="M28.9975 7.46385C28.9975 7.99745 29.0038 8.53106 28.9963 9.06351C28.9881 9.60171 28.7788 9.99187 28.5122 9.9999C28.2651 10.0068 28.0237 9.64417 28.0149 9.14155C27.9966 8.03876 27.9935 6.93254 28.0149 5.82975C28.025 5.28697 28.2639 4.9691 28.5469 5.00238C28.8091 5.03336 28.9881 5.3868 28.9956 5.92041C29.0032 6.43451 28.9975 6.9486 28.9975 7.4627V7.46385Z" fill="#3BC9D0"/>
<path d="M6.40827 29.9954C5.91288 29.9954 5.4175 30.008 4.92326 29.9916C4.36939 29.9727 4.00931 29.584 4.00014 29.0317C3.99211 28.477 4.33384 28.0392 4.88541 28.0228C5.95073 27.9914 7.01833 27.9939 8.08364 28.0215C8.61229 28.0354 9.00791 28.5109 8.99988 29.0204C8.99185 29.5727 8.58476 29.9815 8.00681 29.9941C7.47358 30.0054 6.94035 29.9966 6.40712 29.9954H6.40827Z" fill="#3BC9D0"/>
<path d="M11.996 18.9699C11.9885 19.7221 11.2805 20.2442 10.6373 19.8828C9.54047 19.2684 8.47477 18.5884 7.42153 17.8897C6.96658 17.5872 6.88556 16.9942 7.15105 16.5391C7.4502 16.0251 7.9201 15.8605 8.38503 16.1242C9.47815 16.7452 10.5389 17.4346 11.6008 18.1172C11.88 18.2966 12.0221 18.6005 11.9972 18.9686L11.996 18.9699Z" fill="#3BC9D0"/>
<path d="M50.4915 29.9954C49.9711 29.9954 49.4496 30.008 48.9292 29.9916C48.3634 29.974 48.0071 29.5917 48.0001 29.0309C47.992 28.4687 48.3308 28.0387 48.8919 28.0236C49.9711 27.9921 51.0527 27.9921 52.1319 28.0236C52.7315 28.0399 53.0167 28.431 52.9992 29.0849C52.9841 29.6634 52.6616 29.9815 52.0539 29.9941C51.5335 30.0054 51.0119 29.9966 50.4915 29.9966V29.9954Z" fill="#3BC9D0"/>
<path d="M41 8.85789C40.9438 8.99178 40.8896 9.16895 40.7986 9.326C40.3908 10.0367 39.9778 10.7434 39.5587 11.4471C39.2428 11.9766 38.8135 12.1316 38.3862 11.887C37.963 11.6444 37.8792 11.1924 38.1766 10.6719C38.609 9.91792 39.0465 9.16694 39.4902 8.41999C39.6905 8.08275 39.9952 7.9237 40.3897 8.03544C40.7761 8.14416 40.9581 8.43006 40.999 8.85689L41 8.85789Z" fill="#3BC9D0"/>
<path d="M45 19.2023C45.0502 18.8545 45.2272 18.6383 45.5373 18.4935C46.5102 18.0397 47.4757 17.5777 48.4561 17.1351C49.0223 16.8801 49.5935 16.9974 49.8672 17.3921C50.1434 17.7898 49.9839 18.2498 49.4341 18.5139C48.4699 18.9779 47.492 19.4246 46.5178 19.8734C46.1437 20.0457 45.762 20.0468 45.4005 19.8479C45.0967 19.6806 45.0063 19.4257 45 19.2033V19.2023Z" fill="#3BC9D0"/>
<path d="M18.999 11.193C18.9859 11.5903 18.8035 11.8386 18.4751 11.9489C18.1477 12.0581 17.8101 11.9995 17.6258 11.7025C17.0868 10.8344 16.5548 9.96029 16.0793 9.05838C15.8969 8.71271 16.0379 8.33923 16.4127 8.12567C16.7623 7.92602 17.1402 7.95681 17.3598 8.27169C17.9623 9.13784 18.4801 10.0576 18.9617 10.9953C18.998 11.0658 18.9929 11.1562 19 11.192L18.999 11.193Z" fill="#3BC9D0"/>
<path d="M16.7954 50.9999C16.1779 51.0112 15.8016 50.2586 16.1098 49.5462C16.5615 48.5022 17.0457 47.4782 17.5411 46.4656C17.7761 45.9856 18.2277 45.8776 18.6011 46.1376C18.9378 46.3738 19.1158 46.9329 18.9164 47.3852C18.4363 48.4821 17.9236 49.5563 17.4068 50.628C17.2807 50.8893 17.0487 50.9986 16.7954 50.9999Z" fill="#3BC9D0"/>
<path d="M40.2035 50.9994C39.8826 51.012 39.6594 50.8164 39.5045 50.487C39.0389 49.4986 38.5671 48.5141 38.1178 47.5144C37.8824 46.9906 38.0128 46.4352 38.3929 46.1538C38.7821 45.866 39.2264 45.9808 39.4852 46.5097C39.9732 47.5056 40.4491 48.5141 40.8923 49.5416C41.197 50.2484 40.82 51.0019 40.2035 50.9994Z" fill="#3BC9D0"/>
</svg>
