<svg width="57" height="67" viewBox="0 0 57 67" fill="none" xmlns="http://www.w3.org/2000/svg">
<path d="M29.7044 27.9177C30.9508 27.627 31.997 27.8709 32.8518 28.7543C33.0406 28.9502 33.2103 28.9514 33.4693 28.8794C35.9431 28.1944 38.0801 28.7732 39.7936 30.6739C40.2707 31.2034 40.79 31.4207 41.4789 31.4827C43.0508 31.6255 44.1965 32.4014 44.8931 33.8408C45.7198 35.5506 45.8754 37.3843 45.9762 39.2268C46.1268 41.9754 45.6343 44.5913 44.3815 47.0796C43.4578 48.9133 43.1286 50.929 42.8262 52.9434C42.4817 55.2421 42.0646 57.532 41.7239 59.8319C41.655 60.2983 41.4968 60.393 41.0567 60.3918C36.5811 60.3754 32.1042 60.3817 27.6286 60.3817C26.7164 60.3817 25.8041 60.3703 24.8919 60.3867C24.5691 60.393 24.425 60.3096 24.3255 59.971C23.5281 57.264 22.5253 54.6026 21.9244 51.8553C21.118 48.1715 18.6493 46.1849 15.4023 44.8479C13.7106 44.1516 12.2064 43.2543 11.4205 41.5432C10.174 38.8287 11.816 35.8021 14.8001 35.2574C16.7139 34.9074 18.5996 35.1222 20.4495 35.6492C20.9535 35.7933 21.0798 35.7503 21.0772 35.2006C21.0542 30.7459 21.0645 26.2913 21.0542 21.8379C21.0517 21.0367 21.0747 20.238 21.3298 19.4734C21.7993 18.0656 22.7218 17.1608 24.2553 16.9371C24.9328 16.8373 25.6141 16.8006 26.2839 16.8967C28.1491 17.1621 29.4122 18.5977 29.5831 20.6487C29.7656 22.8286 29.6304 25.0162 29.7031 27.1999C29.7107 27.4261 29.7031 27.6536 29.7031 27.9177H29.7044ZM23.1236 38.6038C22.3939 38.3763 21.7355 38.1653 21.0734 37.9643C19.226 37.4058 17.3748 36.9319 15.4049 37.2352C14.3421 37.3995 13.5792 37.8746 13.2271 38.8919C12.8647 39.9358 13.2054 40.8267 13.9364 41.5976C14.5131 42.2054 15.2467 42.577 16.016 42.8853C20.0298 44.4966 23.0024 46.9975 23.9542 51.4521C24.425 53.6523 25.239 55.7804 25.873 57.9477C25.9636 58.2586 26.0989 58.337 26.3987 58.3357C30.7684 58.3281 35.1368 58.3281 39.5065 58.3357C39.7974 58.3357 39.8854 58.2637 39.9301 57.9654C40.2006 56.1848 40.545 54.4143 40.7862 52.6299C41.1217 50.1455 41.7737 47.7722 42.8237 45.4785C44.3457 42.1574 44.1901 38.7201 43.26 35.2764C42.9334 34.0695 42.1271 33.4377 40.8512 33.4705C39.9696 33.4933 39.2539 33.2165 38.7117 32.5063C38.5088 32.2396 38.2537 32.0109 38.0151 31.7721C37.4154 31.1693 36.6908 30.8129 35.8436 30.7004C34.911 30.5753 34.0243 30.7522 33.1963 31.1592C32.7344 31.3866 32.4244 31.3083 32.1157 30.9203C31.8682 30.6094 31.5594 30.3643 31.1907 30.1722C30.1853 29.6452 29.2042 29.9295 28.2384 30.2328C27.7498 30.3857 27.6834 30.2682 27.6796 29.8145C27.6579 27.0002 27.6133 24.1859 27.5686 21.3716C27.538 19.4494 26.8184 18.7973 24.9034 18.9363C24.8817 18.9376 24.8613 18.9363 24.8396 18.9389C23.8891 19.0134 23.44 19.3698 23.2499 20.2696C23.1594 20.698 23.1096 21.1441 23.1083 21.5813C23.1045 25.1109 23.1173 28.6393 23.1224 32.1689C23.1249 34.2869 23.1224 36.4062 23.1224 38.6013L23.1236 38.6038Z" fill="#3BC9D0"/>
<path d="M17.9782 16.8285C17.9999 17.4818 17.3454 17.9886 16.7369 17.7409C15.3947 17.1937 14.0627 16.6225 12.7372 16.0361C12.1975 15.7972 12.0367 15.341 12.2523 14.8494C12.4833 14.325 12.9464 14.1177 13.495 14.3477C14.7925 14.8924 16.0798 15.4611 17.3722 16.0146C17.7384 16.1713 17.9285 16.4443 17.977 16.8272L17.9782 16.8285Z" fill="#3BC9D0"/>
<path d="M20.8361 7.01178C21.1168 7.01557 21.4255 7.25315 21.5391 7.67777C21.9116 9.06661 22.2637 10.4592 22.6146 11.8544C22.7524 12.4016 22.4742 12.7479 21.9779 12.9121C21.4689 13.0815 20.9649 12.8275 20.8246 12.3169C20.438 10.9104 20.0706 9.50007 19.721 8.08342C19.5832 7.52485 20.0502 7.01936 20.8361 7.01304V7.01178Z" fill="#3BC9D0"/>
<path d="M28.4183 12.9399C27.7715 12.9475 27.3275 12.4395 27.4831 11.8279C27.8225 10.4908 28.1772 9.15759 28.5382 7.82561C28.713 7.18238 29.1392 6.8993 29.6801 7.03199C30.2287 7.16595 30.4966 7.62594 30.3384 8.26034C30.0054 9.59989 29.6559 10.9344 29.2948 12.2664C29.18 12.6885 28.8955 12.9513 28.4183 12.9399Z" fill="#3BC9D0"/>
<path d="M32.1386 16.7159C32.1437 16.4581 32.3466 16.189 32.7076 16.0323C34.0179 15.4649 35.3243 14.8899 36.6423 14.3389C37.1475 14.1278 37.6374 14.3477 37.8479 14.8204C38.0648 15.3056 37.9066 15.796 37.3899 16.0259C36.0669 16.6136 34.7349 17.1848 33.3953 17.7333C32.7663 17.9911 32.1424 17.5323 32.1386 16.7172V16.7159Z" fill="#3BC9D0"/>
<path d="M37.3529 24.6396C37.3389 25.2891 36.7622 25.7289 36.123 25.5077C34.7502 25.0313 33.3902 24.5195 32.0327 24.0026C31.5326 23.8118 31.3948 23.3796 31.5313 22.9146C31.6781 22.4167 32.0723 22.0969 32.5992 22.2764C34.0536 22.7705 35.4902 23.3126 36.9255 23.8624C37.247 23.9849 37.367 24.2971 37.3529 24.6408V24.6396Z" fill="#3BC9D0"/>
<path d="M13.6379 25.5633C13.1747 25.5343 12.8851 25.2929 12.7856 24.8556C12.6874 24.4285 12.7767 24.014 13.2117 23.8447C14.6241 23.2962 16.0441 22.7667 17.4781 22.2776C17.9974 22.1007 18.3801 22.3876 18.5626 22.8918C18.731 23.3569 18.583 23.7777 18.1479 23.9508C16.7407 24.5106 15.3105 25.0136 13.8879 25.5343C13.8114 25.5621 13.7208 25.5545 13.6379 25.5633Z" fill="#3BC9D0"/>
</svg>
