<?xml version="1.0" encoding="UTF-8"?>
<svg id="Layer_1" data-name="Layer 1" xmlns="http://www.w3.org/2000/svg" viewBox="0 0 92.55 76.3">
  <defs>
    <style>
      .cls-1 {
        fill: #3bc8d0;
      }
    </style>
  </defs>
  <g id="UcWxoo.tif">
    <g>
      <path class="cls-1" d="M64.15,36.52c0,9.55-7.8,17.34-17.35,17.32-9.57-.02-17.33-7.79-17.32-17.35,0-9.57,7.78-17.32,17.35-17.32,9.56,0,17.32,7.77,17.32,17.35Zm-19.95,7.79c.68,.01,1.13-.38,1.57-.82,2.52-2.53,5.05-5.05,7.57-7.58,1.1-1.1,2.2-2.19,3.29-3.29,.52-.52,.74-1.15,.47-1.88-.23-.63-.69-1.02-1.33-1.14-.8-.15-1.36,.3-1.89,.83-3.03,3.04-6.07,6.07-9.09,9.13-.47,.48-.71,.5-1.18,0-1.31-1.39-2.68-2.73-4.04-4.07-.9-.89-1.92-.95-2.67-.21-.75,.75-.68,1.76,.21,2.67,1.88,1.9,3.77,3.78,5.66,5.67,.39,.4,.83,.69,1.41,.69Z"/>
      <path class="cls-1" d="M72.79,36.51c1.97-2.42,3.75-4.64,5.58-6.83,.94-1.13,2.05-1.08,3,.11,1.73,2.17,3.44,4.36,5.3,6.72-.96,0-1.8,.05-2.63-.02-.68-.06-.82,.18-.84,.83-.15,6.36-1.76,12.34-5.1,17.76-6.43,10.44-15.77,16.37-28,17.65-4.07,.42-8.15,.16-12.23,.17-11.81,.03-23.61,.01-35.42,.01-1.92,0-2.44-.52-2.44-2.43,0-.72,0-1.44,0-2.17,0-1.79,.54-2.34,2.31-2.34,9.89,0,19.79,0,29.68,0,4.84,0,9.68,0,14.51,0,14.48-.03,26.34-9.71,29.24-23.88,.33-1.63,.48-3.28,.54-4.94,.02-.53-.14-.68-.66-.66-.85,.04-1.71,.01-2.84,.01Z"/>
      <path class="cls-1" d="M20.8,36.51c-1.97,2.44-3.76,4.69-5.6,6.91-.77,.93-1.92,1.03-2.63,.16-1.87-2.27-3.65-4.6-5.6-7.07,.97,0,1.76-.04,2.53,.01,.65,.04,.91-.08,.93-.85,.14-7.41,2.35-14.17,6.59-20.24,15.5-22.18,49.29-20.07,61.92,3.86,.67,1.26,.6,1.8-.37,2.79-.66,.67-1.32,1.34-1.99,1.99-1.32,1.29-2.5,1.09-3.33-.58-2.85-5.74-7.11-10.11-12.76-13.11C42.83,.99,20.85,11.99,17.73,31.76c-.21,1.36-.35,2.72-.4,4.09-.02,.51,.12,.7,.65,.67,.85-.04,1.71-.01,2.81-.01Z"/>
      <path class="cls-1" d="M84.95,76.3c0-.9-.06-1.65,.02-2.39,.08-.79-.15-1.02-.98-1.01-6.53,.04-13.06,.02-19.59,.02-.29,0-.58,0-.87,0-.08-.35,.24-.33,.38-.39,3.34-1.58,6.4-3.6,9.16-6.06,.41-.36,.82-.5,1.35-.5,3.17,.02,6.35-.03,9.52,.04,.89,.02,1.1-.27,1.02-1.07-.07-.71-.01-1.43-.01-2.13,.36-.19,.49,.12,.66,.25,1.97,1.57,3.94,3.15,5.9,4.74,1.37,1.11,1.38,2.18,.03,3.28-2.07,1.68-4.15,3.35-6.23,5.02-.06,.04-.12,.07-.37,.2Z"/>
      <path class="cls-1" d="M19.16,46.81c2.69,6.84,7.15,11.99,13.47,15.54-.27,.31-.62,.15-.91,.16-3.18,.01-6.35,0-9.53,.02-.57,0-1-.13-1.42-.56-2.66-2.74-4.87-5.79-6.57-9.2-.15-.3-.45-.56-.06-.94,1.67-1.64,3.31-3.3,5.02-5.02Z"/>
    </g>
  </g>
</svg>