<svg width="57" height="67" viewBox="0 0 57 67" fill="none" xmlns="http://www.w3.org/2000/svg">
<g clip-path="url(#clip0_1239_643)">
<path d="M43.0761 50.5273C41.348 50.5273 39.6208 50.5283 37.8927 50.5273C36.8795 50.5264 36.179 49.9011 36.18 49.0037C36.18 48.1035 36.8757 47.4821 37.8956 47.4811C40.7274 47.4782 43.5591 47.4716 46.3909 47.4887C46.7787 47.4907 46.8691 47.3895 46.8316 47.0162C46.0291 39.0307 39.7055 32.3245 31.7173 31.0004C22.8467 29.5303 14.5323 34.2032 11.2617 42.5027C10.6892 43.9566 10.3621 45.4726 10.1668 47.02C10.1186 47.4028 10.2332 47.4916 10.6113 47.4887C12.8831 47.4706 15.1548 47.4696 17.4266 47.4887C17.7807 47.4916 17.8817 47.3732 17.9385 47.0553C18.7448 42.5113 22.6071 38.9496 27.2575 38.4121C29.0674 38.2031 30.7916 38.478 32.4639 39.1548C33.3838 39.5272 33.787 40.351 33.4666 41.171C33.1394 42.0101 32.2551 42.3576 31.317 41.97C26.8264 40.1142 22.1491 42.9352 21.0724 47.0811C20.9165 47.6816 20.828 48.2916 20.8184 48.914C20.802 49.9039 20.1833 50.5235 19.1951 50.5245C15.659 50.5302 12.1239 50.5311 8.58778 50.5254C7.64001 50.5245 6.96839 49.8715 7.00207 48.9283C7.31286 40.098 11.4263 33.6457 19.3905 29.6849C22.5638 28.1069 25.9941 27.517 29.534 27.6898C38.5643 28.1308 46.0426 33.9588 48.8445 42.0731C49.6018 44.2659 49.979 46.5236 50.0011 48.8405C50.0107 49.8992 49.3853 50.5235 48.3086 50.5245C46.5651 50.5264 44.8206 50.5245 43.0771 50.5245L43.0761 50.5273Z" fill="#3BC9D0"/>
<path d="M9.26036 26.9127C8.66187 26.8736 8.16826 26.5958 7.90173 26.002C7.6275 25.3891 7.73527 24.8125 8.19616 24.3304C8.76867 23.7319 9.36043 23.1524 9.95988 22.5806C10.1543 22.3954 10.1639 22.2828 9.9647 22.0937C9.39796 21.5572 8.8495 21.0017 8.29816 20.4489C7.60922 19.7578 7.58035 18.8356 8.22118 18.2075C8.86105 17.5803 9.77995 17.6194 10.4814 18.3096C11.0376 18.8566 11.5966 19.4027 12.1402 19.9621C12.3125 20.1396 12.4193 20.1492 12.5963 19.9649C13.1159 19.4265 13.6548 18.9053 14.1869 18.3793C14.948 17.628 15.8601 17.5602 16.5154 18.2046C17.1909 18.869 17.1254 19.7683 16.3432 20.5482C15.8245 21.0656 15.3117 21.5897 14.7786 22.0928C14.5823 22.2789 14.5775 22.3906 14.7767 22.5797C15.3434 23.1162 15.8928 23.6708 16.4423 24.2254C17.1302 24.9214 17.1562 25.8426 16.5173 26.4669C15.8774 27.0922 14.9643 27.0521 14.2581 26.3609C13.7 25.8149 13.1419 25.2688 12.5992 24.7085C12.4251 24.529 12.3202 24.5242 12.1431 24.7066C11.5889 25.2784 11.0135 25.8292 10.4516 26.3943C10.134 26.7141 9.75975 26.8974 9.2594 26.9137L9.26036 26.9127Z" fill="#3BC9D0"/>
<path d="M43.0665 26.9099C42.6604 26.8917 42.2987 26.7495 42.0013 26.4545C40.9843 25.4445 39.9586 24.4431 38.9521 23.4236C38.3161 22.7792 38.3257 21.857 38.9425 21.2527C39.5573 20.6504 40.4724 20.6599 41.1315 21.2919C41.6376 21.7759 42.1437 22.2627 42.62 22.7754C42.8664 23.0398 42.9895 23.0474 43.2214 22.7467C44.5098 21.0704 45.8261 19.4141 47.1241 17.7454C47.5494 17.1994 48.0709 16.8872 48.7801 17.0361C49.9164 17.2758 50.3696 18.5559 49.6432 19.5C48.5376 20.9358 47.4099 22.3553 46.2918 23.7825C45.6548 24.5958 45.014 25.4073 44.3818 26.2254C44.0499 26.655 43.6275 26.8984 43.0665 26.9089V26.9099Z" fill="#3BC9D0"/>
<path d="M28.5872 50.9999C27.626 51.0018 26.8254 50.3994 26.5887 49.6481C26.3222 48.8004 26.6137 47.9995 27.4432 47.4802C28.9028 46.5666 30.3808 45.6807 31.853 44.7862C34.4018 43.2368 36.9507 41.6884 39.5015 40.1419C39.6237 40.0684 39.7507 39.9968 39.8854 39.951C40.2395 39.8298 40.5138 39.9529 40.6975 40.2641C40.8698 40.5562 40.7947 40.8044 40.5426 41.0231C39.1224 42.2545 37.708 43.4927 36.2868 44.7241C34.1199 46.6019 31.9472 48.4739 29.7832 50.3545C29.3762 50.7077 28.949 50.9951 28.5872 51.0008V50.9999Z" fill="#3BC9D0"/>
</g>
<defs>
<clipPath id="clip0_1239_643">
<rect width="43" height="34" fill="white" transform="translate(7 17)"/>
</clipPath>
</defs>
</svg>
