<?xml version="1.0" encoding="UTF-8"?>
<svg id="Layer_1" data-name="Layer 1" xmlns="http://www.w3.org/2000/svg" viewBox="0 0 77.29 86.78">
  <defs>
    <style>
      .cls-1 {
        fill: #3bc8d0;
      }
    </style>
  </defs>
  <g id="MF9Seq.tif">
    <g>
      <path class="cls-1" d="M39.33,0c2.41,.9,4.81,1.82,7.23,2.7,9.26,3.36,18.52,6.72,27.79,10.06,1.29,.47,2.04,1.29,2.18,2.71,.73,7.32,1.03,14.64,.48,21.99-.5,6.75-1.65,13.37-3.94,19.76-3.39,9.46-8.81,17.43-17.22,23.15-4.95,3.36-10.37,5.54-16.32,6.34-1.86,.25-3.65-.23-5.42-.69-12.1-3.15-20.78-10.59-26.66-21.46-3.5-6.47-5.42-13.45-6.47-20.7C-.4,34.34-.2,24.82,.8,15.29c.13-1.23,.78-2.01,1.93-2.43C14.43,8.63,26.12,4.4,37.82,.16c.06-.02,.1-.11,.15-.16,.45,0,.9,0,1.36,0Zm32.55,29.3c0-3.76-.25-7.51-.52-11.25-.04-.53-.3-.71-.73-.87-10.48-3.79-20.95-7.59-31.43-11.4-.36-.13-.68-.14-1.05,0-10.5,3.82-21,7.64-31.5,11.43-.47,.17-.66,.39-.7,.89-.72,8.58-.83,17.14,.5,25.68,1.07,6.87,2.98,13.47,6.51,19.52,4.99,8.58,12.1,14.54,21.74,17.27,1.43,.4,2.9,.95,4.39,.72,7.01-1.08,13.06-4.17,18.21-9,5.44-5.1,8.93-11.41,11.2-18.44,2.58-7.98,3.37-16.21,3.38-24.54Z"/>
      <path class="cls-1" d="M38.65,61.02c-3.95,0-7.91,0-11.86,0-2.74,0-4.41-1.68-4.41-4.44,0-5.19,0-10.39,0-15.58,0-2.69,1.68-4.39,4.38-4.37,.65,0,.78-.18,.77-.79-.04-2.34-.02-4.69-.01-7.03,.02-5.01,3.46-8.46,8.46-8.47,2.2,0,4.42-.15,6.6,.07,4.28,.44,7.16,3.86,7.2,8.3,.02,2.4,.02,4.8,0,7.2,0,.53,.1,.71,.68,.71,2.89,.01,4.47,1.63,4.47,4.53,0,5.14,0,10.28,0,15.42,0,2.76-1.67,4.44-4.41,4.44-3.95,0-7.91,0-11.86,0Zm-.01-24.41c1.69,0,3.39-.01,5.08,0,.44,0,.65-.05,.65-.58-.03-2.51,.01-5.03-.02-7.54-.02-1.67-1.14-2.73-2.8-2.74-1.92-.01-3.84,0-5.76,0-1.7,0-2.81,1.08-2.83,2.8-.03,2.48,0,4.97-.02,7.45,0,.49,.15,.61,.62,.61,1.69-.03,3.39-.01,5.08-.01Zm-1.68,15.04c0,.59,0,1.19,0,1.78q0,2.2,2.19,2.17c.94-.01,1.2-.26,1.2-1.21,0-1.75,.02-3.5,0-5.25,0-.52,.13-.85,.55-1.2,1.42-1.2,1.54-3.29,.34-4.7-1.21-1.43-3.35-1.6-4.78-.38-1.4,1.2-1.71,3.41-.37,4.67,.9,.84,.89,1.7,.88,2.69,0,.48,0,.96,0,1.44Z"/>
    </g>
  </g>
</svg>