<svg width="57" height="67" viewBox="0 0 57 67" fill="none" xmlns="http://www.w3.org/2000/svg">
<path d="M28.0577 10C26.172 10.6955 24.288 11.3973 22.3996 12.0864C18.0872 13.6598 13.7758 15.2323 9.458 16.7903C8.70913 17.0599 8.29762 17.5384 8.22436 18.3355C7.90147 21.871 7.73144 25.4073 7.92318 28.959C8.10768 32.3701 8.58703 35.7284 9.56654 39.0042C10.8816 43.403 12.9889 47.3479 16.3127 50.5628C19.4041 53.5535 23.0607 55.4655 27.2907 56.2672C28.7632 56.546 30.1605 56.1973 31.5398 55.7888C37.6293 53.9856 42.0131 50.0943 45.0104 44.5543C46.7578 41.3239 47.7653 37.8439 48.3614 34.2313C49.0451 30.0867 49.1084 25.9148 48.8832 21.733C48.8226 20.6035 48.6987 19.4786 48.6128 18.351C48.5522 17.5538 48.1425 17.0681 47.3927 16.7966C41.3421 14.604 35.2968 12.3987 29.2498 10.1961C29.1159 10.1471 28.954 10.148 28.8699 10C28.5986 10 28.3281 10 28.0577 10ZM10.7296 25.8621C10.7468 23.7376 10.868 21.7511 11.0091 19.7637C11.0308 19.4623 11.1249 19.2843 11.4342 19.1717C16.6953 17.2678 21.9591 15.3685 27.2039 13.4201C28.0514 13.1051 28.7731 13.1051 29.6233 13.421C34.8762 15.3767 40.1491 17.2787 45.4201 19.1872C45.6897 19.2843 45.8072 19.4169 45.8208 19.6947C45.8407 20.1014 45.8886 20.5064 45.9167 20.9122C46.2179 25.2429 46.1907 29.5628 45.4771 33.8581C44.939 37.0948 44.0382 40.2172 42.4798 43.1161C39.8244 48.0561 35.9344 51.5161 30.4771 53.0487C29.5871 53.2984 28.6917 53.5598 27.7412 53.3719C24.194 52.6701 21.0999 51.0767 18.4716 48.5926C15.667 45.9415 13.8373 42.6767 12.6262 39.0387C11.1882 34.7188 10.764 30.251 10.7296 25.8603V25.8621Z" fill="#3BC9D0"/>
<path d="M28.4221 42.6086C30.5711 42.6086 32.7209 42.6104 34.8699 42.6086C36.1514 42.6068 37.0785 41.6753 37.0803 40.3878C37.083 37.5361 37.083 34.6843 37.0821 31.8335C37.0821 30.4843 36.1686 29.5483 34.8255 29.5782C34.4059 29.5873 34.3453 29.4538 34.3525 29.0789C34.376 27.8269 34.3688 26.5748 34.3598 25.3219C34.3435 23.0431 32.9181 21.3117 30.6905 20.9176C29.8909 20.776 29.0706 20.8722 28.2602 20.875C27.5258 20.8777 26.786 20.7924 26.057 20.9349C23.9289 21.3507 22.5107 23.0512 22.4827 25.2357C22.4655 26.563 22.4719 27.8913 22.4854 29.2187C22.4881 29.4892 22.4303 29.5701 22.1435 29.5728C20.5581 29.59 19.7586 30.4199 19.7576 32.0187C19.7567 34.7797 19.7558 37.5406 19.7576 40.3016C19.7576 41.7152 20.6521 42.6068 22.0649 42.6077C24.184 42.6086 26.303 42.6077 28.4221 42.6077V42.6086ZM28.4248 29.5646C27.524 29.5646 26.6223 29.5546 25.7224 29.571C25.4628 29.5755 25.3995 29.4992 25.4013 29.2441C25.414 27.9177 25.3995 26.5912 25.4104 25.2647C25.4176 24.3477 25.9937 23.7776 26.9054 23.7703C27.9111 23.7621 28.9178 23.763 29.9235 23.7703C30.8388 23.7767 31.4212 24.3423 31.4303 25.2538C31.4429 26.5803 31.424 27.9068 31.4411 29.2332C31.4448 29.5283 31.3444 29.5755 31.083 29.571C30.1975 29.5555 29.3112 29.5655 28.4248 29.5646ZM29.3202 37.5706C29.3202 37.902 29.3202 38.2343 29.3202 38.5657C29.323 39.7205 29.3157 39.7278 28.1752 39.7096C27.6669 39.7015 27.5186 39.5516 27.5168 39.026C27.5141 38.1208 27.5059 37.2156 27.5213 36.3113C27.5267 36.0081 27.4598 35.7983 27.212 35.5832C26.4649 34.934 26.427 33.8118 27.0818 33.0746C27.723 32.3537 28.8065 32.2693 29.5536 32.883C30.316 33.5095 30.4969 34.6743 29.7996 35.3653C29.3347 35.8265 29.2976 36.2922 29.3193 36.8452C29.3284 37.0858 29.3211 37.3273 29.3202 37.5688V37.5706Z" fill="#3BC9D0"/>
</svg>
