<?xml version="1.0" encoding="UTF-8"?>
<svg id="Layer_1" data-name="Layer 1" xmlns="http://www.w3.org/2000/svg" viewBox="0 0 85.02 85.03">
  <defs>
    <style>
      .cls-1 {
        fill: #45c1cb;
      }
    </style>
  </defs>
  <g id="lI2Ph2.tif">
    <g>
      <path class="cls-1" d="M0,50.49c.3-.15,.25-.46,.32-.71,1.01-3.38,4.12-5.74,7.66-5.76,5.06-.02,10.13-.01,15.19,0,1.64,0,2.86,1.19,2.82,2.72-.03,1.51-1.21,2.6-2.84,2.6-4.84,0-9.68,0-14.52,0-2.25,0-3.31,1.06-3.31,3.29,0,7.97,0,15.94,0,23.9,0,2.19,1,3.18,3.19,3.18,8.02,0,16.05,0,24.07,0,.59,0,1.16-.05,1.69-.32,1.01-.51,1.47-1.33,1.47-2.47-.02-4.95-.01-9.9,0-14.86,0-1.84,1.26-3.07,2.94-2.94,1.45,.12,2.45,1.33,2.45,3.02,0,4.87,0,9.74,0,14.61,0,1.48-.25,2.92-1.02,4.21-1.3,2.18-3.16,3.57-5.73,3.91-.06,0-.11,.09-.17,.14H6.48c-.09-.28-.37-.21-.55-.27-2.92-.82-4.8-2.68-5.67-5.58-.05-.16,.02-.41-.25-.47v-28.23Z"/>
      <path class="cls-1" d="M55.95,0C62.32,0,68.68,0,75.05,0c5.62,0,9.97,4.35,9.97,9.97,0,12.51,0,25.02,0,37.53,0,5.63-4.29,10.04-9.91,10.06-9.38,.04-18.76,.01-28.15,0-1.72,0-2.95-1.15-2.95-2.69,0-1.56,1.21-2.69,2.95-2.69,9.19,0,18.38-.08,27.57,.03,3.24,.04,5.23-2.23,5.21-5.26-.08-12.26-.03-24.52-.03-36.78,0-2.04-.86-3.56-2.73-4.45-.66-.31-1.37-.42-2.09-.42-12.65,0-25.3,0-37.94,0-2.34,0-3.89,1.46-4.06,3.81-.03,.39-.03,.77-.03,1.16,0,9.24,0,18.49,0,27.73,0,1.75-1.01,2.95-2.52,3.01-1.72,.07-2.86-1.11-2.87-3,0-5.31,0-10.63,0-15.94,0-3.96,0-7.92,0-11.87,.01-2.95,.76-5.63,2.94-7.75C32.02,.87,34,.03,36.27,.02c6.56-.03,13.12-.01,19.68-.01h0Z"/>
      <path class="cls-1" d="M64.7,16.39c-2.2,0-4.41,0-6.61,0-.8,0-1.61,.02-2.41,0-1.66-.05-2.87-1.21-2.86-2.72,.02-1.51,1.24-2.67,2.9-2.67,5.15-.01,10.29-.01,15.44,0,1.77,0,2.89,1.15,2.89,2.92,0,5.15,0,10.29,0,15.44,0,1.34-.82,2.39-2.03,2.69-1.21,.29-2.43-.25-3.02-1.33-.28-.51-.29-1.06-.29-1.61,0-2.9,0-5.81,0-8.77-.36,.04-.51,.32-.71,.52-17.23,17.21-34.45,34.43-51.67,51.64-.31,.31-.62,.64-.96,.91-1.12,.89-2.61,.78-3.59-.25-.95-1-.97-2.56-.05-3.61,.2-.23,.43-.43,.64-.65,17.22-17.22,34.44-34.43,51.66-51.65,.23-.23,.49-.44,.73-.67-.02-.07-.05-.13-.07-.2Z"/>
    </g>
  </g>
</svg>