<?xml version="1.0" encoding="utf-8"?>
<!-- Generator: Adobe Illustrator 27.0.1, SVG Export Plug-In . SVG Version: 6.00 Build 0)  -->
<svg version="1.1" id="Layer_1" xmlns="http://www.w3.org/2000/svg" xmlns:xlink="http://www.w3.org/1999/xlink" x="0px" y="0px"
	 viewBox="0 0 35 35" style="enable-background:new 0 0 35 35;" xml:space="preserve">
<style type="text/css">
	.st0{fill:none;stroke:#E4EBF3;}
</style>
<path class="st0" d="M34.5,17.5c0,9.4-7.6,17-17,17c-9.4,0-17-7.6-17-17c0-9.4,7.6-17,17-17C26.9,0.5,34.5,8.1,34.5,17.5z"/>
<g>
	<path d="M22.4,8h-8.7c-2.9,0-5.2,2.3-5.2,5.2v8.7c0,2.9,2.3,5.2,5.2,5.2h8.7c2.9,0,5.2-2.3,5.2-5.2v-8.7C27.6,10.3,25.3,8,22.4,8z
		 M25.9,21.9c0,1.9-1.6,3.5-3.5,3.5h-8.7c-1.9,0-3.5-1.6-3.5-3.5v-8.7c0-1.9,1.6-3.5,3.5-3.5h8.7c1.9,0,3.5,1.6,3.5,3.5V21.9z"/>
	<path d="M18.7,13.2c-0.4-0.1-0.9-0.1-1.3,0c-1.1,0.2-2.2,0.8-2.9,1.7c-0.7,0.9-1,2.1-0.8,3.2c0.2,1.1,0.8,2.2,1.7,2.9
		c0.8,0.6,1.7,0.9,2.6,0.9c0.2,0,0.4,0,0.6,0c1.1-0.2,2.2-0.8,2.9-1.7c0.7-0.9,1-2.1,0.8-3.2C22.1,14.9,20.6,13.5,18.7,13.2z
		 M20.2,19c-0.4,0.6-1,0.9-1.7,1c-0.7,0.1-1.4-0.1-1.9-0.5c-0.6-0.4-0.9-1-1-1.7c-0.1-0.7,0.1-1.4,0.5-1.9c0.4-0.6,1-0.9,1.7-1
		c0.1,0,0.3,0,0.4,0c0.1,0,0.3,0,0.4,0c1.1,0.2,2,1.1,2.2,2.2C20.8,17.8,20.6,18.5,20.2,19z"/>
	<path d="M22.8,11.9L22.8,11.9c-0.5,0-0.9,0.4-0.9,0.9c0,0.5,0.4,0.9,0.9,0.9c0.5,0,0.9-0.4,0.9-0.9C23.7,12.3,23.3,11.9,22.8,11.9z
		"/>
</g>
</svg>
