<svg width="186" height="50" viewBox="0 0 186 50" fill="none" xmlns="http://www.w3.org/2000/svg">
<g clip-path="url(#clip0_49_8369)">
<path d="M48.5646 25.9689C48.5646 33.6671 48.5557 41.364 48.5809 49.0623C48.5824 49.7151 48.4092 49.8765 47.7594 49.8707C44.2572 49.8384 40.7551 49.8384 37.2544 49.8707C36.5854 49.8765 36.39 49.7137 36.3915 49.0285C36.4122 39.2542 36.3915 29.4783 36.4151 19.704C36.4166 18.9763 36.2627 18.7371 35.4945 18.7782C33.4044 18.8912 31.3085 18.6916 29.2169 18.9191C24.1206 19.4707 19.5631 23.6786 18.6601 28.7139C18.484 29.6999 18.3937 30.6946 18.3937 31.6982C18.3937 37.4657 18.3833 43.2332 18.4085 49.0006C18.4115 49.6594 18.256 49.8692 17.5559 49.8648C12.0807 49.8355 6.60687 49.8384 1.13161 49.8604C0.517331 49.8633 0.283459 49.7606 0.28938 49.074C0.323424 44.4553 0.236093 39.8352 0.323424 35.2179C0.480326 27.0003 3.28086 19.7465 8.75168 13.5536C13.9857 7.62618 20.5652 4.00371 28.3703 2.55267C31.1708 2.03182 34.0054 2.04356 36.84 2.04649C40.4901 2.04943 44.1403 2.06117 47.789 2.03329C48.4033 2.02889 48.5705 2.19028 48.5691 2.80356C48.5483 10.5253 48.5557 18.2486 48.5557 25.9703C48.5587 25.9703 48.5631 25.9703 48.5661 25.9703L48.5646 25.9689Z" fill="black"/>
<path d="M118.411 24.8746C118.411 16.833 118.418 8.79135 118.395 0.751212C118.393 0.133529 118.551 -0.00878693 119.161 0.00148332C121.602 0.03963 124.044 0.0352284 126.487 0.00441768C127.057 -0.00291821 127.221 0.134997 127.219 0.718934C127.197 7.44008 127.205 14.1612 127.209 20.8838C127.209 21.2726 127.225 21.6688 127.298 22.0503C127.443 22.8103 128.044 23.3076 128.786 23.337C129.609 23.3692 130.171 22.9496 130.427 22.153C130.588 21.6497 130.494 21.1318 130.571 20.6256C130.895 18.5173 132.194 17.0252 134.45 16.8139C137.608 16.5175 140.812 16.3327 143.934 17.1499C148.397 18.3177 151.45 21.8771 151.865 26.4122C152.225 30.3604 151.945 34.3247 152.008 38.2817C152.032 39.7811 151.814 41.2527 151.295 42.6656C149.778 46.803 146.74 49.1285 142.405 49.7257C139.742 50.0925 137.032 50.091 134.369 49.7374C131.888 49.4073 130.614 47.786 130.531 45.3021C130.522 45.0365 130.492 44.7651 130.424 44.5084C130.207 43.6999 129.566 43.2466 128.731 43.2833C127.949 43.317 127.372 43.8173 127.276 44.6683C127.113 46.1032 127.199 47.5498 127.225 48.9891C127.239 49.686 127.117 49.9443 126.324 49.9237C123.908 49.8606 121.49 49.8797 119.072 49.9164C118.494 49.9252 118.399 49.7447 118.4 49.2209C118.417 41.106 118.412 32.991 118.412 24.8775L118.411 24.8746ZM135.244 41.1896C135.244 41.1999 135.244 41.2087 135.244 41.219C136.155 41.219 137.069 41.2439 137.979 41.2146C140.703 41.128 142.768 39.363 143.135 36.6883C143.431 34.5315 143.411 32.3366 143.176 30.1858C142.83 27.0357 140.775 25.3896 137.556 25.3896C135.88 25.3896 134.205 25.3866 132.529 25.3896C129.717 25.3969 127.541 27.3585 127.289 30.13C127.116 32.03 127.143 33.9403 127.242 35.8388C127.405 38.9551 129.114 40.8228 132.07 41.1705C133.115 41.2938 134.187 41.1896 135.245 41.1896H135.244Z" fill="black"/>
<path d="M185.751 33.312C185.751 38.6159 185.742 43.9183 185.763 49.2221C185.764 49.7547 185.656 49.9205 185.085 49.9132C182.594 49.8779 180.103 49.8838 177.613 49.9102C177.101 49.9161 176.942 49.7884 176.954 49.2676C176.99 47.7769 176.981 46.2863 176.962 44.7956C176.947 43.6307 176.435 42.9338 175.584 42.8443C174.502 42.7298 173.776 43.3343 173.652 44.4743C173.608 44.8866 173.642 45.3092 173.572 45.7156C173.174 48.0249 171.68 49.6109 169.303 49.8193C166.732 50.0437 164.127 50.0922 161.612 49.2632C157.309 47.8474 154.325 43.9593 154.239 39.3715C154.14 34.1425 154.196 28.912 154.187 23.6815C154.184 21.5555 154.202 19.4281 154.175 17.3022C154.17 16.7931 154.313 16.6361 154.834 16.6419C157.275 16.6669 159.717 16.6757 162.158 16.6375C162.789 16.6273 162.98 16.7564 162.977 17.4254C162.946 23.4863 162.957 29.5472 162.959 35.6082C162.959 39.012 165.15 41.1996 168.588 41.2187C169.771 41.2245 170.968 41.3067 172.135 41.1614C175.248 40.7741 176.956 38.6834 176.963 35.3573C176.975 29.4181 176.984 23.479 176.945 17.5413C176.941 16.7637 177.175 16.6229 177.896 16.6361C180.288 16.6816 182.68 16.6713 185.072 16.639C185.627 16.6317 185.766 16.7755 185.763 17.3271C185.739 22.6544 185.75 27.9832 185.75 33.3106L185.751 33.312Z" fill="black"/>
<path d="M68.5356 10.0722C68.5356 12.0514 68.5519 14.0307 68.5238 16.0099C68.5164 16.5087 68.6318 16.676 69.1662 16.6657C70.9661 16.632 72.7675 16.6716 74.5659 16.6408C75.0855 16.632 75.2261 16.7831 75.2217 17.2937C75.195 19.7864 75.1921 22.2792 75.2232 24.7719C75.2306 25.3103 75.0529 25.4057 74.5571 25.3984C72.7571 25.369 70.9572 25.3984 69.1558 25.3778C68.7147 25.3734 68.5164 25.4307 68.5208 25.9544C68.5489 29.326 68.5371 32.6991 68.5356 36.0721C68.5356 36.6384 68.6244 37.193 68.7606 37.7374C69.2742 39.7782 70.7233 40.8947 72.994 41.0825C74.1248 41.1764 75.2557 41.241 76.3895 41.2146C76.7774 41.2058 76.8913 41.3261 76.8899 41.709C76.8751 44.2751 76.8795 46.8412 76.8854 49.4073C76.8854 49.7125 76.8602 49.9047 76.4621 49.9017C73.1716 49.8783 69.9122 49.6274 66.7905 48.4976C62.56 46.9688 60.4656 43.8041 59.9549 39.5053C59.5641 36.2188 59.8424 32.9147 59.7773 29.618C59.7521 28.3723 59.7595 27.1252 59.7817 25.8796C59.7876 25.4981 59.6781 25.3646 59.2844 25.3778C58.4954 25.4042 57.705 25.3617 56.9175 25.3954C56.4883 25.413 56.3876 25.2663 56.3906 24.8614C56.4083 22.3202 56.4157 19.7776 56.3861 17.2365C56.3802 16.7185 56.5682 16.6393 57.0211 16.6437C59.2163 16.6628 61.4114 16.6569 63.6051 16.6496C64.1735 16.6481 64.7359 16.6261 65.1785 16.1698C65.6685 15.6651 65.8609 15.0988 65.5989 14.4327C65.3324 13.7592 64.8395 13.3822 64.0846 13.3543C63.5932 13.3352 63.1003 13.2986 62.6148 13.2223C61.0606 12.9743 59.8631 11.7375 59.8113 10.1735C59.7417 8.04898 59.7861 5.92157 59.7699 3.79563C59.7669 3.48606 59.8557 3.37015 60.1843 3.37162C62.8235 3.38189 65.4612 3.38776 68.1004 3.36721C68.5608 3.36428 68.54 3.59756 68.5386 3.91154C68.5326 5.96412 68.5356 8.01671 68.5356 10.0693V10.0722Z" fill="black"/>
<path d="M79.0436 33.2743C79.0436 27.9719 79.0525 22.6695 79.0303 17.3671C79.0274 16.7935 79.1739 16.6335 79.7571 16.6409C82.2231 16.6731 84.6891 16.6687 87.1551 16.6438C87.6732 16.6379 87.8257 16.7861 87.8138 17.2982C87.7798 18.6656 87.7887 20.0345 87.8064 21.4033C87.8212 22.5287 88.4192 23.2725 89.3162 23.3341C90.1984 23.3958 90.8616 22.938 91.0303 22.0738C91.1428 21.5016 91.1162 20.903 91.2257 20.3308C91.6638 18.0552 93.4386 16.7128 96.0645 16.679C98.2285 16.6511 100.394 16.6746 102.56 16.6453C103.033 16.6394 103.186 16.7553 103.181 17.2512C103.155 19.7674 103.155 22.2851 103.181 24.8013C103.186 25.2899 103.041 25.4029 102.567 25.3999C99.5592 25.3794 96.55 25.3897 93.5422 25.3897C90.0075 25.3897 87.8197 27.52 87.8079 31.0383C87.7887 37.0493 87.7931 43.0604 87.8168 49.0714C87.8197 49.7125 87.6924 49.9326 86.9908 49.9194C84.5751 49.871 82.158 49.8769 79.7423 49.9165C79.1339 49.9268 79.0318 49.7287 79.0333 49.1829C79.0525 43.8805 79.0451 38.5781 79.0451 33.2757L79.0436 33.2743Z" fill="black"/>
<path d="M115.598 33.3021C115.598 38.581 115.582 43.8584 115.618 49.1374C115.622 49.8167 115.413 49.9223 114.798 49.9135C112.357 49.8783 109.914 49.8886 107.474 49.9091C106.996 49.9135 106.79 49.8475 106.791 49.2899C106.809 38.6353 106.808 27.9806 106.796 17.326C106.796 16.8433 106.89 16.6379 107.438 16.6437C109.953 16.6701 112.469 16.6731 114.984 16.6423C115.547 16.6349 115.607 16.8491 115.606 17.3216C115.591 22.6489 115.597 27.9762 115.597 33.3036L115.598 33.3021Z" fill="black"/>
<path d="M32.7221 36.7441C32.7221 40.8728 32.7117 45.0029 32.7354 49.1315C32.7384 49.6729 32.6125 49.8299 32.0486 49.8255C28.9668 49.7962 25.885 49.7991 22.8033 49.8226C22.2541 49.827 22.0928 49.6758 22.0942 49.1227C22.115 43.4785 22.0794 37.8357 22.1179 32.1915C22.1387 29.1529 23.194 26.559 25.7873 24.7411C26.8635 23.987 28.0683 23.6158 29.3887 23.6143C30.3005 23.6143 31.2138 23.6422 32.1256 23.6026C32.6155 23.5806 32.7354 23.7361 32.7324 24.21C32.7147 28.3871 32.7221 32.5656 32.7221 36.7441Z" fill="black"/>
<path d="M111.157 9.65811C110.467 9.65811 109.778 9.67131 109.089 9.65517C107.594 9.62143 106.803 8.86436 106.774 7.39718C106.747 6.03271 106.765 4.6653 106.769 3.30082C106.774 1.98623 107.66 1.10005 108.981 1.08978C110.433 1.07951 111.885 1.05897 113.337 1.09565C114.74 1.13233 115.505 1.90553 115.538 3.30229C115.57 4.69171 115.573 6.08259 115.536 7.47201C115.499 8.86143 114.713 9.60529 113.298 9.65224C112.585 9.67571 111.871 9.65664 111.158 9.65664L111.157 9.65811Z" fill="black"/>
</g>
<defs>
<clipPath id="clip0_49_8369">
<rect width="185.484" height="50" fill="white" transform="translate(0.281982)"/>
</clipPath>
</defs>
</svg>
