<svg width="92" height="50" viewBox="0 0 92 50" fill="none" xmlns="http://www.w3.org/2000/svg">
<g clip-path="url(#clip0_49_8341)">
<path d="M11.9616 49.3884C8.46211 49.3884 4.96262 49.3287 1.46313 49.4182C0.180994 49.448 -0.0905184 49.0155 0.0150696 47.852C0.46759 43.034 3.51456 40.1551 8.40178 40.0954C12.3689 40.0507 16.336 40.0954 20.3031 40.0954C21.8718 40.0954 23.3802 39.8717 24.8433 39.275C26.4272 38.6336 27.3624 37.4403 27.4981 35.7995C27.649 34.0841 26.7439 32.8908 25.2506 32.0853C22.4148 30.5787 19.2924 29.9522 16.2304 29.1169C13.9074 28.4904 11.6298 27.7893 9.44258 26.7899C4.99279 24.7762 2.33801 21.5542 1.93074 16.5871C1.47822 11.0829 3.24305 6.6527 7.8135 3.37108C12.6555 -0.0447937 27.0909 0.387784 27.0909 0.387784C27.0909 0.387784 24.8886 1.37227 23.5914 8.08468C23.516 8.44268 23.5612 9.1885 21.8416 9.26308C17.5578 9.51666 15.3857 10.173 14.6013 10.6503C13.2437 11.3514 12.5348 12.4403 12.5499 13.9916C12.565 15.5877 13.1985 16.7661 14.6918 17.4821C17.5729 18.8544 20.6952 19.4809 23.7573 20.3609C27.4076 21.4051 30.9222 22.6282 34.0144 25.0149C40.6363 30.1312 39.1128 42.7207 31.5256 46.7631C28.4484 48.4039 25.2204 49.2989 21.7511 49.3735C18.493 49.448 15.2197 49.3884 11.9616 49.3884Z" fill="#757576"/>
<path d="M54.6795 40.1553C54.8907 37.6195 54.2874 34.4572 55.0114 31.3397C56.0069 27.0288 58.6617 24.2693 62.7495 22.5091C67.5613 20.4208 72.8256 19.7794 77.5921 17.6016C79.2514 16.8409 80.262 15.8265 80.262 13.9918C80.262 11.993 79.0251 10.8743 77.3056 10.2925C74.6055 9.3528 71.7546 9.74063 68.9792 9.78537C67.2747 9.81521 66.9579 9.3528 67.6367 7.86115C68.6322 5.6386 69.5373 3.38621 70.4574 1.13382C70.6535 0.641581 70.9703 0.447667 71.468 0.343252C77.6676 -1.08873 86.2956 2.55089 89.2823 7.89098C93.5058 15.4238 90.6096 23.8367 82.6453 27.1929C79.2061 28.6398 75.5256 29.311 71.996 30.4298C70.6686 30.8474 69.3563 31.3098 68.0741 31.8617C66.1736 32.6672 65.2082 34.0545 65.3289 36.2024C65.4344 37.9626 65.359 39.7376 65.3439 41.4978C65.2836 46.3904 60.6076 50.4477 55.7053 49.9703C54.6795 49.8659 54.6494 49.3438 54.6494 48.598C54.6494 45.9876 54.6494 43.3773 54.6494 40.1702L54.6795 40.1553Z" fill="#757576"/>
<path d="M51.8286 30.6982C51.8286 36.456 51.7834 42.2286 51.8588 47.9864C51.8739 49.4333 51.4968 50.0747 49.9129 50.0001C47.6654 49.8808 45.4028 49.8808 43.1553 50.0001C41.481 50.0896 41.0586 49.4631 41.0737 47.882C41.119 37.1272 40.953 26.3575 41.1491 15.6028C41.2245 11.3366 39.3843 10.0986 35.4172 9.78533C32.7473 9.3975 29.821 9.26326 27.0305 9.33784C25.6126 9.44225 25.7936 7.96552 25.8238 7.89094C27.0908 0.387956 28.9009 -0.566697 38.0569 0.432706C45.3123 1.22328 51.1197 6.23521 51.7834 12.7239C52.1605 16.3784 51.8889 20.0926 51.904 23.777C51.904 26.089 51.904 28.3862 51.904 30.6982C51.8889 30.6982 51.8588 30.6982 51.8437 30.6982H51.8286Z" fill="black"/>
<path d="M46.5493 0.313477C53.4276 0.313477 60.3059 0.313477 67.1993 0.313477C68.2099 0.313477 68.3758 0.895219 68.0591 1.70071C67.0937 4.11718 66.0831 6.50381 65.1177 8.92028C64.7859 9.74068 64.1372 9.78543 63.4132 9.77052C60.7735 9.77052 58.1338 9.77052 55.4941 9.77052C54.8606 9.77052 54.2421 9.77052 53.9405 9.05453C52.4773 5.39999 50.2449 2.43161 46.2627 0.984718L46.5342 0.313477H46.5493Z" fill="black"/>
</g>
<defs>
<clipPath id="clip0_49_8341">
<rect width="91.2281" height="50" fill="white"/>
</clipPath>
</defs>
</svg>
