<svg width="84" height="50" viewBox="0 0 84 50" fill="none" xmlns="http://www.w3.org/2000/svg">
<g clip-path="url(#clip0_49_8333)">
<path d="M0 33.3659C0.279857 32.8012 0.716031 32.6707 1.30096 32.9995C2.49602 33.6747 3.69613 34.3348 4.91893 34.9573C8.06039 36.5537 11.2926 37.9342 14.6131 39.1139C17.5554 40.1581 20.5455 41.0341 23.5836 41.747C25.7368 42.2515 27.9076 42.6732 30.096 43.0095C31.7575 43.2655 33.424 43.4739 35.0981 43.632C36.7294 43.7851 38.3631 43.8905 40.0019 43.9458C41.4819 43.996 42.9644 44.0035 44.4469 43.9784C46.2117 43.9458 47.9715 43.8429 49.7288 43.6897C52.066 43.4864 54.3906 43.1777 56.7026 42.7761C60.6887 42.0808 64.6067 41.1044 68.4515 39.8444C70.5341 39.1616 72.5889 38.3961 74.6084 37.5477C75.1101 37.3368 75.6068 37.3042 76.0833 37.6079C76.6128 37.9418 76.7615 38.5743 76.4539 39.1164C76.3178 39.3549 76.1211 39.5381 75.9018 39.6988C74.1899 40.9488 72.3897 42.0607 70.5164 43.0522C66.1875 45.3439 61.6165 46.9879 56.8639 48.1526C54.794 48.6596 52.7014 49.0637 50.5936 49.37C48.98 49.6034 47.3564 49.7691 45.7276 49.877C43.7661 50.005 41.8021 50.0376 39.838 49.9749C37.9547 49.9121 36.0789 49.7691 34.2106 49.5432C31.644 49.2344 29.1051 48.7701 26.5965 48.1451C21.9751 46.9955 17.5478 45.3363 13.3146 43.1576C9.16217 41.0216 5.3072 38.4438 1.74722 35.4292C1.33121 35.0778 0.927815 34.7088 0.511811 34.3574C0.277336 34.1591 0.0882432 33.9357 0.00504247 33.6345V33.371L0 33.3659Z" fill="black"/>
<path d="M72.4426 0C72.6292 0.0778112 72.8284 0.0502008 73.02 0.0702811C74.5453 0.235944 76.0379 0.532129 77.47 1.09438C77.8154 1.22992 78.1356 1.41064 78.4381 1.62651C78.8642 1.93273 79.1214 2.33685 79.1289 2.87149C79.1365 3.42118 79.1617 3.97088 79.1138 4.52058C79.0684 5.05522 78.7457 5.27359 78.2162 5.14809C77.8053 5.0502 77.4347 4.8494 77.0489 4.69127C75.3748 4.01104 73.6301 3.74749 71.83 3.7751C70.8542 3.79016 69.8886 3.88554 68.9709 4.24197C68.1641 4.55572 67.4959 5.04769 67.2186 5.9011C66.7875 7.22892 67.0598 8.55924 68.4112 9.40763C69.218 9.91466 70.1004 10.2435 70.9979 10.5371C72.5485 11.0417 74.1192 11.4834 75.6547 12.0356C76.6808 12.4046 77.6414 12.8966 78.4633 13.6245C79.613 14.6386 80.2685 15.9212 80.4627 17.4322C80.6417 18.8127 80.4727 20.1531 79.8651 21.4106C79.0835 23.0296 77.8355 24.1968 76.2144 24.9674C74.8327 25.625 73.3679 25.989 71.8426 26.0994C69.0969 26.2977 66.4471 25.866 63.8805 24.8921C63.4695 24.7364 63.0863 24.5281 62.7283 24.2696C62.3199 23.9734 62.1308 23.5693 62.1182 23.0823C62.1055 22.5326 62.1081 21.9829 62.1182 21.4332C62.1282 20.8609 62.4535 20.6099 63.0208 20.7229C63.4115 20.8007 63.7645 20.9814 64.1251 21.132C65.5949 21.7495 67.1253 22.1285 68.7137 22.2791C69.7777 22.382 70.8441 22.4046 71.9081 22.2691C72.9242 22.1386 73.8923 21.87 74.7269 21.2349C76.1665 20.1431 76.2547 17.864 75.0193 16.7595C74.5932 16.378 74.094 16.122 73.5772 15.8961C72.5309 15.4393 71.424 15.1632 70.3424 14.8143C69.1827 14.4403 68.0002 14.1416 66.8782 13.6546C65.1361 12.8991 63.7771 11.7445 62.9804 9.99498C61.9013 7.61797 62.2266 4.6988 64.3444 2.62801C65.5823 1.41817 67.0749 0.687751 68.7515 0.306225C69.3944 0.160643 70.0449 0.0727912 70.7055 0.0376506C70.7433 0.0376506 70.7962 0.062751 70.8164 0.00251004H72.435L72.4426 0Z" fill="black"/>
<path d="M36.0713 20.4017C36.1772 19.9574 36.2856 19.5131 36.3915 19.0689C37.3042 15.2134 38.2169 11.3605 39.1296 7.50511C39.5607 5.68784 39.9893 3.86806 40.423 2.05079C40.4583 1.90521 40.5112 1.76464 40.5541 1.62157C40.728 1.03673 41.1566 0.780708 41.734 0.755607C42.7198 0.710427 43.7056 0.712937 44.6889 0.755607C45.2133 0.778198 45.5839 1.03924 45.7755 1.53874C45.9671 2.04326 46.0579 2.57288 46.1815 3.09245C47.2379 7.5277 48.2867 11.9654 49.338 16.4007C49.6708 17.8013 50.0011 19.2019 50.3314 20.6025C50.3339 20.6176 50.3415 20.6326 50.3617 20.6878C50.4701 20.2737 50.5709 19.8947 50.6693 19.5182C52.061 14.1592 53.4502 8.80029 54.8419 3.44386C54.9881 2.87659 55.1218 2.30681 55.3033 1.74958C55.5226 1.07438 55.9765 0.745567 56.6849 0.740547C57.6329 0.733017 58.5809 0.717957 59.5289 0.748077C59.9247 0.760627 60.1188 0.979001 60.1315 1.37057C60.1441 1.71193 60.0609 2.04075 59.96 2.36203C58.6464 6.55129 57.3329 10.738 56.0168 14.9273C55.0512 18.0046 54.0881 21.0819 53.1199 24.1592C53.0745 24.3023 53.0165 24.4403 52.9636 24.5784C52.7543 25.1406 52.3181 25.4042 51.7458 25.4142C50.755 25.4343 49.7616 25.4293 48.7708 25.4142C48.1606 25.4067 47.7648 25.0879 47.5782 24.5081C47.4068 23.9735 47.2984 23.4238 47.1673 22.8791C46.2647 19.1567 45.3671 15.4343 44.467 11.7094C44.0334 9.91726 43.6022 8.12509 43.1686 6.33292C43.156 6.28021 43.1383 6.22499 43.1131 6.13211C42.8988 7.0282 42.6921 7.88412 42.4878 8.73754C41.5399 12.6808 40.5944 16.6216 39.6439 20.5648C39.3514 21.7772 39.059 22.987 38.7615 24.1969C38.7262 24.3399 38.6657 24.478 38.6152 24.6186C38.4387 25.113 38.0656 25.354 37.5588 25.3766C36.505 25.4218 35.4511 25.4218 34.3972 25.3766C33.9283 25.3565 33.5854 25.1181 33.3761 24.6939C33.1391 24.2144 33.013 23.6999 32.8567 23.1954C30.7591 16.3379 28.6639 9.478 26.5713 2.61806C26.4679 2.2792 26.3696 1.93784 26.3091 1.58643C26.2208 1.07187 26.4704 0.738037 26.9848 0.738037C28.0008 0.733017 29.0194 0.715447 30.0355 0.750587C30.575 0.768157 30.9406 1.02167 31.1499 1.51866C31.3969 2.10852 31.5205 2.73352 31.6768 3.34848C32.8542 7.95189 34.0266 12.5578 35.2015 17.1612C35.4763 18.2405 35.7511 19.3224 36.0259 20.4017L36.0688 20.4067L36.0713 20.4017Z" fill="black"/>
<path d="M19.3455 22.2061C18.8261 22.811 18.2765 23.3507 17.6714 23.8301C16.2519 24.9521 14.6509 25.6549 12.8533 25.9109C11.3657 26.1243 9.88326 26.1168 8.43607 25.68C5.82407 24.8919 4.21805 23.1524 3.65581 20.4943C3.32301 18.918 3.39865 17.3492 3.96844 15.8331C4.61892 14.0987 5.84929 12.8663 7.46036 11.9928C8.6882 11.3276 10.0194 11.0038 11.4036 10.8683C12.8558 10.7277 14.2979 10.8231 15.7401 11.0113C16.8041 11.1494 17.8504 11.3728 18.8967 11.6012C19.0127 11.6263 19.0353 11.6037 19.0328 11.4958C19.0152 10.4842 19.0706 9.47018 18.9849 8.46115C18.9244 7.7508 18.7857 7.05552 18.521 6.38785C18.0848 5.29599 17.2755 4.62078 16.1662 4.27189C15.0568 3.92299 13.9147 3.86777 12.7625 3.89287C11.1338 3.92801 9.58071 4.33966 8.05285 4.85422C7.43766 5.06255 6.83509 5.30603 6.22495 5.52942C6.07368 5.58464 5.91484 5.6248 5.74844 5.62982C5.44085 5.63484 5.25175 5.49679 5.1736 5.2006C5.15343 5.12279 5.13326 5.03996 5.13326 4.96215C5.13578 4.28193 5.09292 3.60171 5.15847 2.92149C5.19124 2.58765 5.34756 2.33163 5.61985 2.14337C6.16444 1.76687 6.77206 1.51837 7.38724 1.28745C8.77896 0.762852 10.2135 0.388856 11.691 0.205623C13.0096 0.0424703 14.3332 0.0324302 15.6569 0.142872C16.8041 0.240764 17.926 0.456627 19 0.875804C21.2439 1.75181 22.5827 3.41345 23.2029 5.69257C23.4904 6.75181 23.6164 7.83615 23.619 8.93303C23.624 11.8698 23.6164 14.8065 23.624 17.7433C23.629 19.4802 23.9795 21.1343 24.8796 22.6479C25.2325 23.2428 25.1292 23.7046 24.5569 24.1062C23.9467 24.5329 23.3265 24.9446 22.6937 25.3412C22.1491 25.6825 21.6146 25.5771 21.1582 25.0877C20.4775 24.3572 19.9833 23.5063 19.5472 22.6178C19.4841 22.4898 19.4186 22.3617 19.3429 22.2111L19.3455 22.2061ZM14.0509 14.1138C13.1205 14.1138 12.1952 14.1665 11.2977 14.435C10.0547 14.8065 9.10168 15.5194 8.64029 16.7669C8.33018 17.6052 8.32766 18.4762 8.43607 19.3547C8.62264 20.8507 9.66392 21.9777 11.1489 22.2764C12.0742 22.4622 12.997 22.412 13.9147 22.2312C14.8602 22.0455 15.7703 21.7669 16.5822 21.2222C17.8831 20.3462 18.753 19.2016 18.9673 17.6052C19.0883 16.6891 19.0959 15.7754 19.1009 14.8592C19.1009 14.7538 19.048 14.7438 18.9673 14.7237C17.3512 14.3397 15.7124 14.1288 14.0509 14.1138Z" fill="black"/>
<path d="M75.7732 34.4328C74.1496 34.4504 72.7175 34.5533 71.288 34.7064C70.5139 34.7893 69.7424 34.8771 68.9709 34.965C68.8575 34.9775 68.7465 34.9675 68.6356 34.9424C68.3381 34.8696 68.202 34.6387 68.2902 34.3475C68.381 34.0413 68.6054 33.843 68.855 33.6698C69.6618 33.1126 70.5316 32.6708 71.4493 32.3244C72.8738 31.7822 74.3513 31.4635 75.8665 31.3028C77.2759 31.1522 78.6853 31.1372 80.0946 31.2752C81.0628 31.3681 82.0158 31.5388 82.9411 31.86C83.637 32.101 83.9269 32.5779 83.9773 33.2782C84.0555 34.3274 83.9395 35.3616 83.7429 36.3882C83.2537 38.9308 82.3511 41.3179 80.9292 43.4941C80.2736 44.5006 79.5021 45.4092 78.5894 46.1949C78.3928 46.3631 78.1886 46.5162 77.9339 46.5839C77.4902 46.6994 77.1927 46.4308 77.2784 45.984C77.3036 45.856 77.354 45.733 77.4019 45.6126C78.1306 43.8078 78.8391 41.9956 79.3962 40.1281C79.724 39.0337 80.0114 37.9293 80.077 36.7797C80.0946 36.4584 80.0745 36.1422 80.0064 35.8309C79.9181 35.4168 79.666 35.1306 79.2878 34.9474C78.7785 34.7014 78.2289 34.6035 77.6742 34.5332C76.9809 34.4454 76.285 34.4404 75.7732 34.4328Z" fill="black"/>
</g>
<defs>
<clipPath id="clip0_49_8333">
<rect width="84" height="50" fill="white"/>
</clipPath>
</defs>
</svg>
