<?xml version="1.0" encoding="utf-8"?>
<!-- Generator: Adobe Illustrator 27.0.1, SVG Export Plug-In . SVG Version: 6.00 Build 0)  -->
<svg version="1.1" id="Layer_1" xmlns="http://www.w3.org/2000/svg" xmlns:xlink="http://www.w3.org/1999/xlink" x="0px" y="0px"
	 viewBox="0 0 129.9 103.6" style="enable-background:new 0 0 129.9 103.6;" xml:space="preserve">
<style type="text/css">
	.st0{fill:#3BC8D0;}
</style>
<g>
	<path class="st0" d="M101.9,27.6c-1.1,0-2.3,0.1-3.5,0.2c-0.3-5.4-4.2-10.2-9.6-11.6c-1-0.3-2-0.4-3.1-0.4c-1.2,0-2.5,0.2-3.7,0.6
		C80.3,9.4,74,4.3,66.4,4.3c-0.8,0-1.7,0.1-2.5,0.2c-2.7,0.4-6.2,2.1-8.1,4c-2,2-3.4,4.4-4.3,6.9c-2.3-1.3-4.7-2.1-7.4-2.5
		c-1-0.2-2.1-0.2-3.2-0.2c-9,0-17.2,5.6-20.4,13.9c-1,2.5-1.5,5-1.5,7.6c-0.2,0-0.4,0-0.6,0c-5.5,0-10.1,2.6-12.7,7.2
		c-2.5,4.4-2.6,9.7-0.2,14c1.5,2.7,5.4,7,14.1,7.7h12.6v9.3c-0.5,0.2-0.9,0.6-0.9,1.2c0,0.7,0.6,1.3,1.3,1.3s1.3-0.6,1.3-1.3
		c0-0.6-0.4-1-0.9-1.2h0V63h4.1v12.8l2.1,2.1c-0.2,0.5-0.1,1.1,0.3,1.5c0.5,0.5,1.3,0.5,1.8,0l0,0c0.5-0.5,0.5-1.3,0-1.8
		c-0.4-0.4-1-0.5-1.5-0.3l-1.8-1.8V63.3l0.3-0.3h8.1v0.8l-2.9,2.9v20.7L42,89.1c-0.5-0.2-1.1-0.1-1.5,0.3c-0.5,0.5-0.5,1.3,0,1.8
		c0.5,0.5,1.3,0.5,1.8,0c0.4-0.4,0.5-1,0.3-1.5l2-2V67l2.9-2.9V63h4.9v6.5l2.4,2.4v10.3l-5.4,5.4v10.3c-0.5,0.2-0.9,0.6-0.9,1.2
		c0,0.7,0.6,1.3,1.3,1.3s1.3-0.6,1.3-1.3c0-0.6-0.4-1-0.9-1.2v-10l5.4-5.4V71.5l-2.4-2.4V63h4.8v14.1l2,2v8.9
		c-0.5,0.2-0.9,0.6-0.9,1.2c0,0.7,0.6,1.3,1.3,1.3c0.7,0,1.3-0.6,1.3-1.3c0-0.6-0.4-1-0.9-1.2l0,0v-9.2l-2-2V63h4.9v3.5l1.1,1.1
		v26.8c-0.5,0.2-0.9,0.6-0.9,1.2c0,0.7,0.6,1.3,1.3,1.3s1.3-0.6,1.3-1.3c0-0.6-0.4-1-0.9-1.2h0V67.2l-1.1-1.1V63h7.8v6.1l-2.9,2.9
		v17.4l1.8,1.8c-0.2,0.5-0.1,1.1,0.3,1.5c0.5,0.5,1.3,0.5,1.8,0c0.5-0.5,0.5-1.3,0-1.8c-0.4-0.4-1-0.5-1.5-0.3v0L70.5,89V72.3
		l2.9-2.9V63h1.9v2.9l2.5,2.5v26.3l1.6,1.6c-0.2,0.5-0.1,1.1,0.3,1.5c0.5,0.5,1.3,0.5,1.8,0c0.5-0.5,0.5-1.3,0-1.8
		c-0.4-0.4-1-0.5-1.5-0.3l-1.4-1.4V68l-2.5-2.5V63h7.4v24.7l0.8,0.8c-0.2,0.5-0.1,1.1,0.3,1.5c0.5,0.5,1.3,0.5,1.8,0
		c0.5-0.5,0.5-1.3,0-1.8c-0.4-0.4-1-0.5-1.5-0.3l0,0l-0.5-0.5V63h5.1v14.5l0.7,0.7c-0.2,0.5-0.1,1.1,0.3,1.5c0.5,0.5,1.3,0.5,1.8,0
		c0.5-0.5,0.5-1.3,0-1.8c-0.4-0.4-1-0.5-1.5-0.3l-0.4-0.4V63h5.3v8c-0.5,0.2-0.9,0.6-0.9,1.2c0,0.7,0.6,1.3,1.3,1.3
		c0.7,0,1.3-0.6,1.3-1.3c0-0.6-0.4-1-0.9-1.2h0v-8h10.3v0c12.1-0.9,17.5-8.5,17.5-16C124.3,37.5,115.9,27.6,101.9,27.6z M104.3,61.4
		h-82c-23.4,0-19.9-25.4-3.8-25.4c0.8,0,1.6,0.1,2.4,0.2c-0.2-2.9,0.2-5.9,1.3-8.9c3-7.8,10.6-12.8,18.8-12.8c1,0,1.9,0.1,2.9,0.2
		c3.3,0.5,6.3,1.8,8.8,3.5c0.4-3,1.9-6,4.3-8.5c1.6-1.6,4.9-3.2,7.1-3.5c0.8-0.1,1.5-0.2,2.3-0.2c7.9,0,13.6,5.9,14.3,12.8
		c1.5-0.8,3.3-1.2,5-1.2c0.9,0,1.8,0.1,2.6,0.3c5.4,1.3,8.9,6.5,8.2,11.9c1.9-0.3,3.6-0.5,5.3-0.5C126.5,29.4,131.3,61.4,104.3,61.4
		z"/>
	<polygon class="st0" points="67.8,13.6 67.8,13.6 67.8,13.6 	"/>
	<path class="st0" d="M58.7,29.4H54v11.7H49l10.1,17.5l9.1-15.8H73V31.1h4.9L67.8,13.6L58.7,29.4z M59.1,55.2l-7.2-12.5h3.7V31.1h7
		v11.7h3.7L59.1,55.2z M71.3,29.4v11.7h-7V29.4h-3.7l7.2-12.5L75,29.4H71.3z"/>
</g>
</svg>
