<?xml version="1.0" encoding="UTF-8"?>
<svg id="Layer_1" data-name="Layer 1" xmlns="http://www.w3.org/2000/svg" xmlns:xlink="http://www.w3.org/1999/xlink" viewBox="0 0 171.27 120.32">
  <defs>
    <style>
      .cls-1 {
        fill: #fff;
      }

      .cls-2 {
        fill: rgba(255, 255, 255, .4);
      }

      .cls-3 {
        fill: rgba(255, 255, 255, .2);
      }

      .cls-4 {
        isolation: isolate;
      }
    </style>
  </defs>
  <image class="cls-4" width="360" height="453" transform="translate(75.65) scale(.27)" xlink:href="ejemplo_calado1 1.png"/>
  <path class="cls-3" d="M58.2,89.84H1.4c-.6,0-1.1-.5-1.1-1.1s.5-1.1,1.1-1.1H58.2c.6,0,1.1,.5,1.1,1.1,0,.6-.5,1.1-1.1,1.1Z"/>
  <path class="cls-3" d="M30.8,83.34H1.4c-.6,0-1.1-.5-1.1-1.1s.5-1.1,1.1-1.1H30.9c.6,0,1.1,.5,1.1,1.1-.1,.6-.5,1.1-1.2,1.1Z"/>
  <path class="cls-3" d="M41.7,76.74H1.3c-.6,0-1.1-.5-1.1-1.1s.5-1.1,1.1-1.1H41.7c.6,0,1.1,.5,1.1,1.1s-.5,1.1-1.1,1.1Z"/>
  <path class="cls-2" d="M43.2,99.54H2.2c-1.2,0-2.2,1-2.2,2.2s1,2.2,2.2,2.2H43.2c1.2,0,2.2-1,2.2-2.2s-1-2.2-2.2-2.2Z"/>
  <g>
    <path class="cls-1" d="M140.4,92.64c-.2-.1-.3-.2-.5-.2s-.5,.1-.6,.3c-.3,.3-.2,.9,.1,1.1,.8,.7,1.3,1.6,1.3,2.6,0,1.3-.6,2.4-1.6,3.1-.2,1.1,.8,1.5,1.3,1.1,1.3-1,1.9-2.5,1.9-4.1,0-1.5-.7-2.9-1.9-3.9Z"/>
    <path class="cls-1" d="M143.2,90.84c-.2-.2-.4-.2-.6-.2s-.4,.1-.6,.2c-.3,.3-.3,.8,0,1.2,1.1,1.2,1.8,2.8,1.8,4.5s-.7,3.3-1.8,4.5c-.3,.3-.3,.8,0,1.2,.3,.3,.8,.3,1.2,0,1.5-1.5,2.3-3.5,2.3-5.7s-.8-4.2-2.3-5.7Z"/>
    <path class="cls-1" d="M145.8,88.84c-.2-.2-.4-.3-.6-.3s-.4,.1-.5,.2c-.3,.3-.4,.8-.1,1.2,1.6,1.8,2.5,4.1,2.4,6.6,0,2.3-.9,4.6-2.4,6.4-.3,.3-.3,.9,.1,1.2,.3,.3,.9,.3,1.2-.1,1.8-2.1,2.8-4.7,2.8-7.4,0-2.9-1-5.6-2.9-7.8Z"/>
    <path class="cls-1" d="M148.3,86.64c-.2-.2-.4-.3-.6-.3s-.4,.1-.5,.2c-.3,.3-.4,.8-.1,1.1,2.1,2.6,3.2,5.7,3.1,8.9-.1,3-1.1,5.9-3.1,8.2-.3,.3-.2,.9,.1,1.1,.3,.3,.9,.2,1.1-.1,2.2-2.6,3.4-5.8,3.4-9.2,.1-3.6-1.1-7.1-3.4-9.9Z"/>
  </g>
  <path class="cls-2" d="M150.8,13.64h-11.7c-1.3,0-2.4,1.1-2.4,2.4v16.8c0,1.3,1.1,2.4,2.4,2.4h11.7c1.3,0,2.4-1.1,2.4-2.4V16.04c0-1.3-1.1-2.4-2.4-2.4Zm1.9,2.4v8.1h-2.1V14.14h.2c1,0,1.9,.8,1.9,1.9Zm-9.9,11.2c-1.6,0-2.8-1.3-2.8-2.8s1.3-2.8,2.8-2.8c.8,0,1.5,.3,2,.8l.2,.2,.2-.2c.5-.5,1.3-.8,2-.8,1.6,0,2.8,1.3,2.8,2.8s-1.3,2.8-2.8,2.8c-.8,0-1.5-.3-2-.8l-.2-.2-.2,.2c-.5,.5-1.2,.8-2,.8Zm4.4-6.2h-.2v-6.9h3v8.5c-.5-.9-1.6-1.6-2.8-1.6Zm-.7,.1c-.6,.1-1.1,.4-1.5,.8-.5-.5-1.2-.7-1.9-.8v-7h3.4v7Zm-3.8-.1c-1.3,.1-2.4,.9-2.9,2V14.14h2.9v6.9Zm0,6.7v7h-2.9v-9c.4,1.1,1.6,1.9,2.9,2Zm.5,0c.7-.1,1.3-.3,1.9-.8,.4,.4,1,.6,1.5,.8h0v7h-3.4v-7Zm3.8,0h.2c1.2,0,2.3-.6,2.8-1.6v8.6h-3v-7Zm-7.9-13.6h.2v9.9h-2.1V15.94c0-1,.8-1.8,1.9-1.8Zm-1.9,18.7v-8.3h2.1v10.1h-.2c-1.1,.1-1.9-.8-1.9-1.8Zm13.6,1.9h-.2v-10.2h2.1v8.3c0,1-.9,1.9-1.9,1.9Z"/>
  <path class="cls-2" d="M39.33,9.09c-3.48,0-6.25,2.39-6.86,5.69-1.15-.8-2.51-1.21-3.94-1.21-3.4,0-6.36,2.23-7.23,6.85-1.14-2.69-3.79-4.57-6.86-4.57-4.1,0-7.36,3.27-7.47,7.35h0v7.65h2.14v-7.45c0-2.98,2.39-5.39,5.33-5.39s5.33,2.41,5.33,5.39v7.45h2.14v-2.42c1.27,3.17,3.79,4.7,6.62,4.7,4.06,0,7.49-3.16,7.49-9.78,0-.33-.01-.65-.03-.97,.98,.52,2.12,.82,3.34,.82h.61l-3.95,4.6h3.04s3.34-3.68,5.16-6.14c2.13-2.46,2.13-3.99,2.13-5.52,0-3.99-3.04-7.06-6.98-7.06Zm-10.8,21.63c-2.73,0-4.86-1.54-4.86-7.37s2.13-7.37,4.86-7.37,4.86,1.54,4.86,7.37-2.13,7.37-4.86,7.37Zm10.8-9.66c-2.43,0-4.55-2.15-4.55-5.22,0-2.46,2.13-4.6,4.55-4.6s4.55,2.15,4.55,4.6c0,3.07-2.13,5.22-4.55,5.22Z"/>
</svg>