<?xml version="1.0" encoding="utf-8"?>
<!-- Generator: Adobe Illustrator 27.0.1, SVG Export Plug-In . SVG Version: 6.00 Build 0)  -->
<svg version="1.1" id="Layer_1" xmlns="http://www.w3.org/2000/svg" xmlns:xlink="http://www.w3.org/1999/xlink" x="0px" y="0px"
	 viewBox="0 0 413 274" style="enable-background:new 0 0 413 274;" xml:space="preserve">
<style type="text/css">
	.st0{fill:#FFFFFF;fill-opacity:0.15;}
	.st1{opacity:0.24;fill:#727272;}
	.st2{opacity:0.7;}
	.st3{fill:#3BC8D0;}
</style>
<path class="st0" d="M398.4,0H13.7C6.1,0,0,6.1,0,13.7v246.5c0,7.6,6.1,13.7,13.7,13.7h384.8c7.6,0,13.7-6.1,13.7-13.7V13.7
	C412.1,6.1,406,0,398.4,0z"/>
<path class="st1" d="M23,14h136c4.4,0,8,3.6,8,8v229c0,4.4-3.6,8-8,8H23c-4.4,0-8-3.6-8-8V22C15,17.6,18.6,14,23,14z"/>
<g class="st2">
	<g>
		<rect x="24.1" y="84.1" class="st3" width="138.6" height="5"/>
		<rect x="24.1" y="95.2" class="st3" width="124.1" height="5"/>
		<rect x="24.1" y="106.4" class="st3" width="63.6" height="5"/>
		<rect x="24.1" y="50.4" class="st3" width="117.8" height="5"/>
		<rect x="24.1" y="61.5" class="st3" width="105.6" height="5"/>
		<rect x="24.1" y="72.7" class="st3" width="42.8" height="5"/>
		<rect x="24.1" y="117.5" class="st3" width="104.8" height="5"/>
		<rect x="24.1" y="128.6" class="st3" width="82.7" height="5"/>
		<rect x="24.1" y="139.8" class="st3" width="118.4" height="5"/>
		<rect x="24.1" y="150.9" class="st3" width="132.6" height="5"/>
		<rect x="24.1" y="162" class="st3" width="63.6" height="5"/>
		<rect x="24.1" y="183.4" class="st3" width="4.1" height="4.1"/>
		<rect x="31.2" y="183.4" class="st3" width="37.8" height="4.1"/>
		<rect x="71.6" y="183.4" class="st3" width="15.7" height="4.1"/>
		<rect x="24.1" y="189.6" class="st3" width="27.2" height="4.1"/>
		<rect x="54.6" y="189.6" class="st3" width="20.2" height="4.1"/>
		<rect x="24.1" y="195.7" class="st3" width="10.6" height="4.1"/>
		<rect x="37.7" y="195.7" class="st3" width="21.2" height="4.1"/>
		<rect x="62.1" y="195.7" class="st3" width="8.4" height="4.1"/>
		<rect x="24.1" y="201.9" class="st3" width="4.1" height="4.1"/>
		<rect x="31.2" y="201.9" class="st3" width="23.9" height="4.1"/>
		<rect x="58.5" y="201.9" class="st3" width="25.8" height="4.1"/>
		<rect x="24.1" y="208" class="st3" width="18.8" height="4.1"/>
		<rect x="45.3" y="208" class="st3" width="7.6" height="4.1"/>
		<rect x="55.1" y="208" class="st3" width="14.6" height="4.1"/>
		<rect x="24.1" y="214.2" class="st3" width="25.4" height="4.1"/>
		<rect x="52.1" y="214.2" class="st3" width="25.4" height="4.1"/>
		<rect x="24.1" y="220.4" class="st3" width="7.1" height="4.1"/>
		<rect x="33.2" y="220.4" class="st3" width="15" height="4.1"/>
		<rect x="50.1" y="220.4" class="st3" width="4.1" height="4.1"/>
		<rect x="97.2" y="183.4" class="st3" width="4.1" height="4.1"/>
		<rect x="104.4" y="183.4" class="st3" width="37.8" height="4.1"/>
		<rect x="144.8" y="183.4" class="st3" width="15.7" height="4.1"/>
		<rect x="97.2" y="189.6" class="st3" width="27.2" height="4.1"/>
		<rect x="127.8" y="189.6" class="st3" width="20.2" height="4.1"/>
		<rect x="97.2" y="195.7" class="st3" width="10.6" height="4.1"/>
		<rect x="110.8" y="195.7" class="st3" width="21.2" height="4.1"/>
		<rect x="135.3" y="195.7" class="st3" width="8.4" height="4.1"/>
		<rect x="97.2" y="201.9" class="st3" width="4.1" height="4.1"/>
		<rect x="104.4" y="201.9" class="st3" width="23.9" height="4.1"/>
		<rect x="131.7" y="201.9" class="st3" width="25.8" height="4.1"/>
		<rect x="97.2" y="208" class="st3" width="18.8" height="4.1"/>
		<rect x="118.4" y="208" class="st3" width="7.6" height="4.1"/>
		<rect x="128.2" y="208" class="st3" width="14.6" height="4.1"/>
		<rect x="97.2" y="214.2" class="st3" width="25.4" height="4.1"/>
		<rect x="125.2" y="214.2" class="st3" width="25.4" height="4.1"/>
		<rect x="97.2" y="220.4" class="st3" width="7.1" height="4.1"/>
		<rect x="106.4" y="220.4" class="st3" width="15" height="4.1"/>
		<rect x="123.2" y="220.4" class="st3" width="4.1" height="4.1"/>
	</g>
</g>
</svg>
